<svg xmlns="http://www.w3.org/2000/svg" xmlns:xlink="http://www.w3.org/1999/xlink" width="500" zoomAndPan="magnify" viewBox="0 0 375 374.999991" height="500" preserveAspectRatio="xMidYMid meet" version="1.0"><defs><clipPath id="88a09c7d03"><path d="M 171 116.589844 L 224 116.589844 L 224 141 L 171 141 Z M 171 116.589844 " clip-rule="nonzero"/></clipPath><clipPath id="6bdf43026c"><path d="M 207.222656 74 L 357.222656 74 L 357.222656 118 L 207.222656 118 Z M 207.222656 74 " clip-rule="nonzero"/></clipPath><clipPath id="c639f45ae0"><path d="M 210 70.558594 L 355 70.558594 L 355 111 L 210 111 Z M 210 70.558594 " clip-rule="nonzero"/></clipPath><clipPath id="6ccf4a51a8"><path d="M 311 105 L 342 105 L 342 145.558594 L 311 145.558594 Z M 311 105 " clip-rule="nonzero"/></clipPath><clipPath id="4e3876f751"><path d="M 311 105 L 342 105 L 342 145.558594 L 311 145.558594 Z M 311 105 " clip-rule="nonzero"/></clipPath></defs><path fill="#5c84f7" d="M 28.46875 246.566406 L 89.734375 246.566406 L 89.734375 262.859375 L 28.46875 262.859375 Z M 28.46875 246.566406 " fill-opacity="1" fill-rule="nonzero"/><path fill="#000000" d="M 89.734375 263.269531 L 28.46875 263.269531 C 28.242188 263.269531 28.058594 263.085938 28.058594 262.859375 L 28.058594 246.566406 C 28.058594 246.339844 28.242188 246.15625 28.46875 246.15625 L 89.734375 246.15625 C 89.960938 246.15625 90.144531 246.339844 90.144531 246.566406 L 90.144531 262.859375 C 90.144531 263.085938 89.960938 263.269531 89.734375 263.269531 Z M 28.878906 262.449219 L 89.324219 262.449219 L 89.324219 246.980469 L 28.878906 246.980469 Z M 28.878906 262.449219 " fill-opacity="1" fill-rule="nonzero"/><path fill="#f5f6f7" d="M 39.941406 260.792969 L 101.207031 260.792969 L 101.207031 277.085938 L 39.941406 277.085938 Z M 39.941406 260.792969 " fill-opacity="1" fill-rule="nonzero"/><path fill="#000000" d="M 101.207031 277.496094 L 39.941406 277.496094 C 39.714844 277.496094 39.53125 277.3125 39.53125 277.085938 L 39.53125 260.792969 C 39.53125 260.566406 39.714844 260.382812 39.941406 260.382812 L 101.207031 260.382812 C 101.433594 260.382812 101.617188 260.566406 101.617188 260.792969 L 101.617188 277.085938 C 101.617188 277.3125 101.433594 277.496094 101.207031 277.496094 Z M 40.351562 276.671875 L 100.796875 276.671875 L 100.796875 261.207031 L 40.351562 261.207031 Z M 40.351562 276.671875 " fill-opacity="1" fill-rule="nonzero"/><path fill="#ffffff" d="M 93.769531 268.9375 C 93.769531 269.269531 93.738281 269.597656 93.671875 269.925781 C 93.609375 270.25 93.511719 270.566406 93.386719 270.871094 C 93.257812 271.175781 93.101562 271.46875 92.917969 271.742188 C 92.734375 272.019531 92.527344 272.273438 92.292969 272.507812 C 92.058594 272.742188 91.800781 272.953125 91.527344 273.136719 C 91.25 273.320312 90.960938 273.476562 90.652344 273.601562 C 90.347656 273.730469 90.03125 273.824219 89.707031 273.890625 C 89.382812 273.953125 89.054688 273.988281 88.722656 273.988281 C 88.390625 273.988281 88.0625 273.953125 87.738281 273.890625 C 87.414062 273.824219 87.097656 273.730469 86.789062 273.601562 C 86.484375 273.476562 86.195312 273.320312 85.917969 273.136719 C 85.640625 272.953125 85.386719 272.742188 85.152344 272.507812 C 84.917969 272.273438 84.710938 272.019531 84.527344 271.742188 C 84.339844 271.46875 84.1875 271.175781 84.058594 270.871094 C 83.933594 270.566406 83.835938 270.25 83.773438 269.925781 C 83.707031 269.597656 83.675781 269.269531 83.675781 268.9375 C 83.675781 268.609375 83.707031 268.28125 83.773438 267.953125 C 83.835938 267.628906 83.933594 267.3125 84.058594 267.007812 C 84.1875 266.703125 84.339844 266.410156 84.523438 266.136719 C 84.710938 265.859375 84.917969 265.605469 85.152344 265.371094 C 85.386719 265.136719 85.640625 264.925781 85.917969 264.742188 C 86.195312 264.558594 86.484375 264.402344 86.789062 264.277344 C 87.097656 264.148438 87.414062 264.054688 87.738281 263.988281 C 88.0625 263.925781 88.390625 263.890625 88.722656 263.890625 C 89.054688 263.890625 89.382812 263.925781 89.707031 263.988281 C 90.03125 264.054688 90.347656 264.148438 90.652344 264.277344 C 90.960938 264.402344 91.25 264.558594 91.527344 264.742188 C 91.800781 264.925781 92.058594 265.136719 92.292969 265.371094 C 92.527344 265.605469 92.734375 265.859375 92.917969 266.136719 C 93.101562 266.410156 93.257812 266.703125 93.386719 267.007812 C 93.511719 267.3125 93.609375 267.628906 93.671875 267.953125 C 93.738281 268.28125 93.769531 268.609375 93.769531 268.9375 Z M 93.769531 268.9375 " fill-opacity="1" fill-rule="nonzero"/><path fill="#000000" d="M 88.722656 274.398438 C 85.710938 274.398438 83.261719 271.949219 83.261719 268.9375 C 83.261719 265.929688 85.710938 263.480469 88.722656 263.480469 C 91.734375 263.480469 94.179688 265.929688 94.179688 268.9375 C 94.179688 271.949219 91.734375 274.398438 88.722656 274.398438 Z M 88.722656 264.300781 C 86.164062 264.300781 84.085938 266.382812 84.085938 268.9375 C 84.085938 271.496094 86.164062 273.574219 88.722656 273.574219 C 91.277344 273.574219 93.359375 271.496094 93.359375 268.9375 C 93.359375 266.382812 91.277344 264.300781 88.722656 264.300781 Z M 88.722656 264.300781 " fill-opacity="1" fill-rule="nonzero"/><path fill="#ffffff" d="M 80.472656 254.359375 C 80.472656 254.640625 80.445312 254.917969 80.386719 255.191406 C 80.332031 255.46875 80.253906 255.734375 80.144531 255.996094 C 80.039062 256.253906 79.90625 256.5 79.75 256.734375 C 79.59375 256.96875 79.417969 257.183594 79.21875 257.382812 C 79.019531 257.582031 78.804688 257.757812 78.570312 257.914062 C 78.335938 258.070312 78.089844 258.203125 77.832031 258.308594 C 77.574219 258.417969 77.304688 258.496094 77.03125 258.550781 C 76.753906 258.605469 76.476562 258.632812 76.195312 258.632812 C 75.914062 258.632812 75.636719 258.605469 75.363281 258.550781 C 75.085938 258.496094 74.820312 258.417969 74.558594 258.308594 C 74.300781 258.203125 74.054688 258.070312 73.820312 257.914062 C 73.585938 257.757812 73.371094 257.582031 73.171875 257.382812 C 72.972656 257.183594 72.796875 256.96875 72.640625 256.734375 C 72.484375 256.5 72.351562 256.253906 72.246094 255.996094 C 72.136719 255.734375 72.058594 255.46875 72.003906 255.191406 C 71.949219 254.917969 71.921875 254.640625 71.921875 254.359375 C 71.921875 254.078125 71.949219 253.800781 72.003906 253.523438 C 72.058594 253.25 72.136719 252.980469 72.246094 252.722656 C 72.351562 252.464844 72.484375 252.21875 72.640625 251.984375 C 72.796875 251.75 72.972656 251.535156 73.171875 251.335938 C 73.371094 251.136719 73.585938 250.960938 73.820312 250.804688 C 74.054688 250.648438 74.300781 250.515625 74.558594 250.410156 C 74.820312 250.300781 75.085938 250.21875 75.363281 250.164062 C 75.636719 250.109375 75.914062 250.082031 76.195312 250.082031 C 76.476562 250.082031 76.753906 250.109375 77.03125 250.164062 C 77.304688 250.21875 77.570312 250.300781 77.832031 250.410156 C 78.089844 250.515625 78.335938 250.648438 78.570312 250.804688 C 78.804688 250.960938 79.019531 251.136719 79.21875 251.335938 C 79.417969 251.535156 79.59375 251.75 79.75 251.984375 C 79.90625 252.21875 80.039062 252.464844 80.144531 252.722656 C 80.253906 252.980469 80.332031 253.25 80.386719 253.523438 C 80.445312 253.800781 80.472656 254.078125 80.472656 254.359375 Z M 80.472656 254.359375 " fill-opacity="1" fill-rule="nonzero"/><path fill="#000000" d="M 76.195312 259.042969 C 73.613281 259.042969 71.507812 256.941406 71.507812 254.359375 C 71.507812 251.773438 73.613281 249.671875 76.195312 249.671875 C 78.78125 249.671875 80.882812 251.773438 80.882812 254.359375 C 80.882812 256.941406 78.78125 259.042969 76.195312 259.042969 Z M 76.195312 250.496094 C 74.066406 250.496094 72.332031 252.230469 72.332031 254.359375 C 72.332031 256.488281 74.066406 258.222656 76.195312 258.222656 C 78.324219 258.222656 80.058594 256.488281 80.058594 254.359375 C 80.058594 252.230469 78.324219 250.496094 76.195312 250.496094 Z M 76.195312 250.496094 " fill-opacity="1" fill-rule="nonzero"/><path fill="#ffffff" d="M 48.660156 263.949219 L 76.195312 263.949219 L 76.195312 275.078125 L 48.660156 275.078125 Z M 48.660156 263.949219 " fill-opacity="1" fill-rule="nonzero"/><path fill="#000000" d="M 76.195312 275.488281 L 48.660156 275.488281 C 48.433594 275.488281 48.25 275.304688 48.25 275.078125 L 48.25 263.949219 C 48.25 263.722656 48.433594 263.539062 48.660156 263.539062 L 76.195312 263.539062 C 76.425781 263.539062 76.605469 263.722656 76.605469 263.949219 L 76.605469 275.078125 C 76.605469 275.304688 76.421875 275.488281 76.195312 275.488281 Z M 49.070312 274.667969 L 75.785156 274.667969 L 75.785156 264.359375 L 49.070312 264.359375 Z M 49.070312 274.667969 " fill-opacity="1" fill-rule="nonzero"/><path fill="#ffffff" d="M 36.5 249.089844 L 64.1875 249.089844 L 64.1875 258.632812 L 36.5 258.632812 Z M 36.5 249.089844 " fill-opacity="1" fill-rule="nonzero"/><path fill="#000000" d="M 64.1875 259.042969 L 36.5 259.042969 C 36.273438 259.042969 36.089844 258.859375 36.089844 258.632812 L 36.089844 249.09375 C 36.089844 248.863281 36.273438 248.679688 36.5 248.679688 L 64.1875 248.679688 C 64.414062 248.679688 64.597656 248.867188 64.597656 249.09375 L 64.597656 258.632812 C 64.597656 258.859375 64.414062 259.042969 64.1875 259.042969 Z M 36.910156 258.222656 L 63.777344 258.222656 L 63.777344 249.503906 L 36.910156 249.503906 Z M 36.910156 258.222656 " fill-opacity="1" fill-rule="nonzero"/><path fill="#f5f6f7" d="M 236.183594 250.925781 L 262.003906 250.925781 C 262.003906 250.925781 261.652344 226.605469 272.207031 216.28125 L 287.351562 216.28125 C 287.351562 216.28125 284.484375 210.085938 280.238281 209.28125 C 275.992188 208.476562 254.769531 207.558594 251.671875 209.738281 C 248.574219 211.921875 236.414062 233.144531 236.183594 250.925781 Z M 236.183594 250.925781 " fill-opacity="1" fill-rule="nonzero"/><path fill="#000000" d="M 262.003906 251.339844 L 236.183594 251.339844 C 236.074219 251.339844 235.96875 251.292969 235.890625 251.214844 C 235.8125 251.136719 235.769531 251.03125 235.773438 250.921875 C 236.011719 232.429688 248.484375 211.480469 251.433594 209.402344 C 254.792969 207.039062 276.464844 208.148438 280.316406 208.878906 C 284.71875 209.710938 287.605469 215.847656 287.726562 216.105469 C 287.785156 216.234375 287.773438 216.382812 287.699219 216.5 C 287.621094 216.621094 287.492188 216.691406 287.351562 216.691406 L 272.375 216.691406 C 262.191406 226.839844 262.410156 250.679688 262.414062 250.921875 C 262.417969 251.03125 262.375 251.136719 262.296875 251.214844 C 262.21875 251.292969 262.113281 251.339844 262.003906 251.339844 Z M 236.601562 250.515625 L 261.589844 250.515625 C 261.597656 249.015625 261.699219 243.636719 262.742188 237.40625 C 263.875 230.621094 266.386719 221.398438 271.917969 215.984375 C 271.996094 215.910156 272.097656 215.867188 272.207031 215.867188 L 286.679688 215.867188 C 285.855469 214.339844 283.398438 210.296875 280.160156 209.683594 C 275.898438 208.878906 254.824219 208.027344 251.90625 210.074219 C 248.8125 212.253906 237.007812 233.15625 236.601562 250.515625 Z M 236.601562 250.515625 " fill-opacity="1" fill-rule="nonzero"/><path fill="#000000" d="M 272.207031 216.691406 C 272.207031 216.691406 272.203125 216.691406 272.203125 216.691406 L 261.761719 216.574219 C 261.59375 216.574219 261.441406 216.464844 261.382812 216.304688 C 259.71875 211.773438 251.671875 210.160156 251.59375 210.144531 C 251.371094 210.097656 251.222656 209.882812 251.265625 209.660156 C 251.3125 209.4375 251.539062 209.292969 251.75 209.335938 C 252.09375 209.402344 260.035156 210.992188 262.046875 215.757812 L 272.210938 215.867188 C 272.4375 215.871094 272.621094 216.058594 272.617188 216.285156 C 272.617188 216.507812 272.433594 216.691406 272.207031 216.691406 Z M 272.207031 216.691406 " fill-opacity="1" fill-rule="nonzero"/><path fill="#ffffff" d="M 0.625 335.464844 L 374.40625 335.464844 L 374.40625 348.09375 L 0.625 348.09375 Z M 0.625 335.464844 " fill-opacity="1" fill-rule="nonzero"/><path fill="#000000" d="M 374.40625 348.503906 L 0.625 348.503906 C 0.398438 348.503906 0.214844 348.320312 0.214844 348.09375 L 0.214844 335.464844 C 0.214844 335.238281 0.398438 335.054688 0.625 335.054688 L 374.40625 335.054688 C 374.632812 335.054688 374.816406 335.238281 374.816406 335.464844 L 374.816406 348.09375 C 374.816406 348.320312 374.632812 348.503906 374.40625 348.503906 Z M 1.035156 347.683594 L 373.996094 347.683594 L 373.996094 335.875 L 1.035156 335.875 Z M 1.035156 347.683594 " fill-opacity="1" fill-rule="nonzero"/><path fill="#f5f6f7" d="M 14.96875 348.09375 L 360.066406 348.09375 L 360.066406 374.605469 L 14.96875 374.605469 Z M 14.96875 348.09375 " fill-opacity="1" fill-rule="nonzero"/><path fill="#000000" d="M 360.066406 375.015625 L 14.964844 375.015625 C 14.738281 375.015625 14.554688 374.832031 14.554688 374.605469 L 14.554688 348.09375 C 14.554688 347.867188 14.738281 347.683594 14.964844 347.683594 L 360.066406 347.683594 C 360.292969 347.683594 360.476562 347.867188 360.476562 348.09375 L 360.476562 374.605469 C 360.476562 374.832031 360.292969 375.015625 360.066406 375.015625 Z M 15.378906 374.191406 L 359.65625 374.191406 L 359.65625 348.503906 L 15.378906 348.503906 Z M 15.378906 374.191406 " fill-opacity="1" fill-rule="nonzero"/><path fill="#ffffff" d="M 32.371094 272.035156 L 106.714844 272.035156 L 106.714844 335.464844 L 32.371094 335.464844 Z M 32.371094 272.035156 " fill-opacity="1" fill-rule="nonzero"/><path fill="#000000" d="M 106.714844 335.875 L 32.371094 335.875 C 32.144531 335.875 31.960938 335.691406 31.960938 335.464844 L 31.960938 272.035156 C 31.960938 271.808594 32.144531 271.625 32.371094 271.625 L 106.714844 271.625 C 106.941406 271.625 107.125 271.808594 107.125 272.035156 L 107.125 335.464844 C 107.125 335.691406 106.941406 335.875 106.714844 335.875 Z M 32.78125 335.050781 L 106.300781 335.050781 L 106.300781 272.449219 L 32.78125 272.449219 Z M 32.78125 335.050781 " fill-opacity="1" fill-rule="nonzero"/><path fill="#ffffff" d="M 32.371094 272.035156 L 27.320312 282.132812 L 82.851562 282.132812 L 87.4375 272.035156 Z M 32.371094 272.035156 " fill-opacity="1" fill-rule="nonzero"/><path fill="#000000" d="M 82.847656 282.542969 L 27.320312 282.542969 C 27.179688 282.542969 27.046875 282.472656 26.972656 282.347656 C 26.898438 282.226562 26.890625 282.078125 26.953125 281.949219 L 32.003906 271.851562 C 32.074219 271.714844 32.214844 271.625 32.371094 271.625 L 87.441406 271.625 C 87.578125 271.625 87.710938 271.695312 87.785156 271.8125 C 87.863281 271.929688 87.871094 272.078125 87.8125 272.207031 L 83.226562 282.300781 C 83.15625 282.449219 83.011719 282.542969 82.847656 282.542969 Z M 27.988281 281.722656 L 82.585938 281.722656 L 86.800781 272.449219 L 32.625 272.449219 Z M 27.988281 281.722656 " fill-opacity="1" fill-rule="nonzero"/><path fill="#f5f6f7" d="M 87.4375 272.035156 L 93.175781 282.132812 L 111.53125 282.132812 L 106.714844 272.035156 Z M 87.4375 272.035156 " fill-opacity="1" fill-rule="nonzero"/><path fill="#000000" d="M 111.53125 282.542969 L 93.175781 282.542969 C 93.027344 282.542969 92.890625 282.464844 92.816406 282.335938 L 87.082031 272.242188 C 87.007812 272.113281 87.011719 271.957031 87.082031 271.832031 C 87.15625 271.703125 87.292969 271.625 87.4375 271.625 L 106.714844 271.625 C 106.871094 271.625 107.015625 271.71875 107.082031 271.859375 L 111.902344 281.957031 C 111.964844 282.085938 111.953125 282.234375 111.878906 282.355469 C 111.804688 282.472656 111.671875 282.542969 111.53125 282.542969 Z M 93.414062 281.722656 L 110.878906 281.722656 L 106.453125 272.449219 L 88.144531 272.449219 Z M 93.414062 281.722656 " fill-opacity="1" fill-rule="nonzero"/><path fill="#000000" d="M 87.441406 335.875 C 87.210938 335.875 87.027344 335.691406 87.027344 335.464844 L 87.027344 272.035156 C 87.027344 271.808594 87.210938 271.625 87.441406 271.625 C 87.667969 271.625 87.851562 271.808594 87.851562 272.035156 L 87.851562 335.464844 C 87.851562 335.691406 87.667969 335.875 87.441406 335.875 Z M 87.441406 335.875 " fill-opacity="1" fill-rule="nonzero"/><path fill="#f5f6f7" d="M 81.589844 143.898438 C 81.589844 143.898438 93.824219 143.441406 97.496094 134.875 C 97.496094 134.875 106.214844 150.324219 117.382812 151.699219 C 117.382812 151.699219 102.390625 156.441406 97.34375 155.832031 C 92.296875 155.21875 81.589844 143.898438 81.589844 143.898438 Z M 81.589844 143.898438 " fill-opacity="1" fill-rule="nonzero"/><path fill="#000000" d="M 98.359375 156.296875 C 97.972656 156.296875 97.613281 156.277344 97.292969 156.238281 C 92.15625 155.617188 81.730469 144.648438 81.289062 144.183594 C 81.179688 144.066406 81.144531 143.894531 81.207031 143.742188 C 81.269531 143.59375 81.410156 143.496094 81.574219 143.488281 C 81.691406 143.484375 93.59375 142.9375 97.117188 134.710938 C 97.179688 134.566406 97.320312 134.472656 97.472656 134.464844 C 97.621094 134.453125 97.777344 134.535156 97.855469 134.671875 C 97.941406 134.824219 106.601562 149.957031 117.433594 151.292969 C 117.625 151.316406 117.773438 151.46875 117.792969 151.664062 C 117.808594 151.855469 117.691406 152.035156 117.507812 152.09375 C 116.929688 152.273438 104.148438 156.296875 98.359375 156.296875 Z M 82.492188 144.242188 C 84.816406 146.609375 93.222656 154.917969 97.394531 155.421875 C 101.320312 155.902344 111.664062 152.984375 115.65625 151.796875 C 110.460938 150.507812 105.9375 146.417969 102.945312 143.042969 C 100.257812 140.011719 98.332031 137.042969 97.539062 135.75 C 95.875 139.011719 92.699219 141.503906 88.296875 142.988281 C 85.863281 143.808594 83.664062 144.125 82.492188 144.242188 Z M 82.492188 144.242188 " fill-opacity="1" fill-rule="nonzero"/><path fill="#f5f6f7" d="M 111.53125 196.578125 C 111.53125 196.578125 116.425781 192.445312 116.425781 186.175781 C 116.425781 186.175781 124.839844 189.691406 131.878906 186.9375 C 131.875 186.9375 128.207031 200.707031 111.53125 196.578125 Z M 111.53125 196.578125 " fill-opacity="1" fill-rule="nonzero"/><path fill="#000000" d="M 117.378906 197.753906 C 115.601562 197.753906 113.628906 197.519531 111.433594 196.976562 C 111.28125 196.9375 111.164062 196.820312 111.132812 196.667969 C 111.097656 196.519531 111.148438 196.363281 111.265625 196.261719 C 111.3125 196.222656 116.015625 192.175781 116.015625 186.175781 C 116.015625 186.039062 116.085938 185.910156 116.199219 185.832031 C 116.316406 185.753906 116.457031 185.742188 116.585938 185.796875 C 116.667969 185.832031 124.933594 189.214844 131.726562 186.554688 C 131.871094 186.5 132.035156 186.53125 132.152344 186.632812 C 132.265625 186.734375 132.3125 186.894531 132.273438 187.046875 C 132.242188 187.167969 129.261719 197.753906 117.378906 197.753906 Z M 112.371094 196.351562 C 125.765625 199.3125 130.191406 190.382812 131.222656 187.609375 C 125.277344 189.539062 118.753906 187.476562 116.824219 186.769531 C 116.597656 191.605469 113.648438 195.070312 112.371094 196.351562 Z M 112.371094 196.351562 " fill-opacity="1" fill-rule="nonzero"/><path fill="#5c84f7" d="M 274.136719 297.660156 L 342.058594 297.660156 L 342.058594 335.464844 L 274.136719 335.464844 Z M 274.136719 297.660156 " fill-opacity="1" fill-rule="nonzero"/><path fill="#000000" d="M 342.058594 335.875 L 274.140625 335.875 C 273.910156 335.875 273.730469 335.691406 273.730469 335.464844 L 273.730469 297.660156 C 273.730469 297.433594 273.914062 297.25 274.140625 297.25 L 342.058594 297.25 C 342.285156 297.25 342.46875 297.433594 342.46875 297.660156 L 342.46875 335.464844 C 342.46875 335.691406 342.285156 335.875 342.058594 335.875 Z M 274.550781 335.050781 L 341.644531 335.050781 L 341.644531 298.070312 L 274.550781 298.070312 Z M 274.550781 335.050781 " fill-opacity="1" fill-rule="nonzero"/><path fill="#000000" d="M 319.878906 335.875 C 319.648438 335.875 319.464844 335.691406 319.464844 335.464844 L 319.464844 297.660156 C 319.464844 297.433594 319.648438 297.25 319.878906 297.25 C 320.105469 297.25 320.289062 297.433594 320.289062 297.660156 L 320.289062 335.464844 C 320.289062 335.691406 320.105469 335.875 319.878906 335.875 Z M 319.878906 335.875 " fill-opacity="1" fill-rule="nonzero"/><path fill="#000000" d="M 319.878906 329.582031 C 319.875 329.582031 319.871094 329.582031 319.871094 329.582031 C 319.667969 329.578125 319.5 329.429688 319.46875 329.230469 C 318.449219 322.238281 307.03125 318.890625 306.914062 318.859375 C 306.695312 318.796875 306.570312 318.570312 306.632812 318.351562 C 306.695312 318.132812 306.921875 318 307.140625 318.066406 C 307.597656 318.199219 317.585938 321.125 319.894531 327.558594 C 320.363281 326.183594 321.292969 324.148438 323.007812 322.554688 C 324.222656 321.425781 325.867188 320.804688 327.640625 320.804688 L 342.058594 320.804688 C 342.285156 320.804688 342.46875 320.988281 342.46875 321.214844 C 342.46875 321.445312 342.285156 321.625 342.058594 321.625 L 327.640625 321.625 C 326.074219 321.625 324.628906 322.167969 323.570312 323.15625 C 320.96875 325.574219 320.289062 329.207031 320.28125 329.242188 C 320.246094 329.441406 320.074219 329.582031 319.878906 329.582031 Z M 319.878906 329.582031 " fill-opacity="1" fill-rule="nonzero"/><path fill="#000000" d="M 342.058594 315.664062 L 319.878906 315.664062 C 319.648438 315.664062 319.464844 315.480469 319.464844 315.25 C 319.464844 315.023438 319.648438 314.839844 319.878906 314.839844 L 342.058594 314.839844 C 342.285156 314.839844 342.46875 315.023438 342.46875 315.25 C 342.46875 315.480469 342.285156 315.664062 342.058594 315.664062 Z M 342.058594 315.664062 " fill-opacity="1" fill-rule="nonzero"/><path fill="#000000" d="M 342.058594 310.003906 L 319.878906 310.003906 C 319.648438 310.003906 319.464844 309.820312 319.464844 309.59375 C 319.464844 309.363281 319.648438 309.179688 319.878906 309.179688 L 342.058594 309.179688 C 342.285156 309.179688 342.46875 309.363281 342.46875 309.59375 C 342.46875 309.820312 342.285156 310.003906 342.058594 310.003906 Z M 342.058594 310.003906 " fill-opacity="1" fill-rule="nonzero"/><path fill="#000000" d="M 342.058594 302.351562 L 319.878906 302.351562 C 319.648438 302.351562 319.464844 302.167969 319.464844 301.941406 C 319.464844 301.714844 319.648438 301.53125 319.878906 301.53125 L 342.058594 301.53125 C 342.285156 301.53125 342.46875 301.714844 342.46875 301.941406 C 342.46875 302.167969 342.285156 302.351562 342.058594 302.351562 Z M 342.058594 302.351562 " fill-opacity="1" fill-rule="nonzero"/><path fill="#000000" d="M 319.878906 300.058594 L 274.140625 300.058594 C 273.910156 300.058594 273.730469 299.875 273.730469 299.648438 C 273.730469 299.421875 273.914062 299.238281 274.140625 299.238281 L 319.878906 299.238281 C 320.105469 299.238281 320.289062 299.421875 320.289062 299.648438 C 320.289062 299.875 320.105469 300.058594 319.878906 300.058594 Z M 319.878906 300.058594 " fill-opacity="1" fill-rule="nonzero"/><path fill="#000000" d="M 319.878906 312.144531 L 274.140625 312.144531 C 273.910156 312.144531 273.730469 311.960938 273.730469 311.734375 C 273.730469 311.507812 273.914062 311.324219 274.140625 311.324219 L 319.878906 311.324219 C 320.105469 311.324219 320.289062 311.507812 320.289062 311.734375 C 320.289062 311.960938 320.105469 312.144531 319.878906 312.144531 Z M 319.878906 312.144531 " fill-opacity="1" fill-rule="nonzero"/><path fill="#000000" d="M 319.878906 318.875 L 274.140625 318.875 C 273.910156 318.875 273.730469 318.691406 273.730469 318.464844 C 273.730469 318.238281 273.914062 318.054688 274.140625 318.054688 L 319.878906 318.054688 C 320.105469 318.054688 320.289062 318.238281 320.289062 318.464844 C 320.289062 318.691406 320.105469 318.875 319.878906 318.875 Z M 319.878906 318.875 " fill-opacity="1" fill-rule="nonzero"/><path fill="#000000" d="M 318.636719 326.371094 L 274.136719 326.371094 C 273.910156 326.371094 273.726562 326.1875 273.726562 325.960938 C 273.726562 325.734375 273.910156 325.546875 274.136719 325.546875 L 318.636719 325.546875 C 318.863281 325.546875 319.046875 325.734375 319.046875 325.960938 C 319.046875 326.1875 318.863281 326.371094 318.636719 326.371094 Z M 318.636719 326.371094 " fill-opacity="1" fill-rule="nonzero"/><path fill="#ffffff" d="M 280.5625 267.21875 L 335.171875 267.21875 L 335.171875 297.660156 L 280.5625 297.660156 Z M 280.5625 267.21875 " fill-opacity="1" fill-rule="nonzero"/><path fill="#000000" d="M 335.175781 298.070312 L 280.5625 298.070312 C 280.335938 298.070312 280.152344 297.886719 280.152344 297.660156 L 280.152344 267.21875 C 280.152344 266.992188 280.335938 266.808594 280.5625 266.808594 L 335.175781 266.808594 C 335.402344 266.808594 335.585938 266.992188 335.585938 267.21875 L 335.585938 297.660156 C 335.585938 297.886719 335.402344 298.070312 335.175781 298.070312 Z M 280.976562 297.25 L 334.761719 297.25 L 334.761719 267.628906 L 280.976562 267.628906 Z M 280.976562 297.25 " fill-opacity="1" fill-rule="nonzero"/><path fill="#000000" d="M 317.121094 298.070312 C 316.894531 298.070312 316.710938 297.886719 316.710938 297.660156 L 316.710938 267.21875 C 316.710938 266.992188 316.894531 266.808594 317.121094 266.808594 C 317.351562 266.808594 317.535156 266.992188 317.535156 267.21875 L 317.535156 297.660156 C 317.535156 297.886719 317.351562 298.070312 317.121094 298.070312 Z M 317.121094 298.070312 " fill-opacity="1" fill-rule="nonzero"/><path fill="#000000" d="M 317.121094 269.925781 L 280.5625 269.925781 C 280.335938 269.925781 280.152344 269.738281 280.152344 269.511719 C 280.152344 269.285156 280.335938 269.101562 280.5625 269.101562 L 317.121094 269.101562 C 317.351562 269.101562 317.535156 269.285156 317.535156 269.511719 C 317.535156 269.738281 317.351562 269.925781 317.121094 269.925781 Z M 317.121094 269.925781 " fill-opacity="1" fill-rule="nonzero"/><path fill="#000000" d="M 335.175781 271.988281 L 317.121094 271.988281 C 316.894531 271.988281 316.710938 271.804688 316.710938 271.578125 C 316.710938 271.351562 316.894531 271.167969 317.121094 271.167969 L 335.175781 271.167969 C 335.402344 271.167969 335.585938 271.351562 335.585938 271.578125 C 335.585938 271.804688 335.402344 271.988281 335.175781 271.988281 Z M 335.175781 271.988281 " fill-opacity="1" fill-rule="nonzero"/><path fill="#000000" d="M 335.175781 278.183594 L 317.121094 278.183594 C 316.894531 278.183594 316.710938 278 316.710938 277.773438 C 316.710938 277.546875 316.894531 277.363281 317.121094 277.363281 L 335.175781 277.363281 C 335.402344 277.363281 335.585938 277.546875 335.585938 277.773438 C 335.585938 278 335.402344 278.183594 335.175781 278.183594 Z M 335.175781 278.183594 " fill-opacity="1" fill-rule="nonzero"/><path fill="#000000" d="M 335.175781 282.851562 L 317.121094 282.851562 C 316.894531 282.851562 316.710938 282.667969 316.710938 282.441406 C 316.710938 282.210938 316.894531 282.027344 317.121094 282.027344 L 335.175781 282.027344 C 335.402344 282.027344 335.585938 282.210938 335.585938 282.441406 C 335.585938 282.667969 335.402344 282.851562 335.175781 282.851562 Z M 335.175781 282.851562 " fill-opacity="1" fill-rule="nonzero"/><path fill="#000000" d="M 317.121094 292.640625 C 317.039062 292.640625 316.953125 292.613281 316.882812 292.5625 L 306.785156 285.21875 C 306.601562 285.085938 306.5625 284.828125 306.695312 284.644531 C 306.828125 284.460938 307.085938 284.421875 307.269531 284.554688 L 317.027344 291.652344 L 319.417969 288.238281 C 320.359375 286.886719 321.90625 286.082031 323.554688 286.082031 L 335.175781 286.082031 C 335.402344 286.082031 335.585938 286.265625 335.585938 286.492188 C 335.585938 286.722656 335.402344 286.90625 335.175781 286.90625 L 323.554688 286.90625 C 322.175781 286.90625 320.882812 287.578125 320.089844 288.707031 L 317.460938 292.464844 C 317.398438 292.554688 317.300781 292.617188 317.191406 292.636719 C 317.167969 292.640625 317.144531 292.640625 317.121094 292.640625 Z M 317.121094 292.640625 " fill-opacity="1" fill-rule="nonzero"/><path fill="#000000" d="M 317.121094 285.296875 L 280.5625 285.296875 C 280.335938 285.296875 280.152344 285.113281 280.152344 284.886719 C 280.152344 284.660156 280.335938 284.476562 280.5625 284.476562 L 317.121094 284.476562 C 317.351562 284.476562 317.535156 284.660156 317.535156 284.886719 C 317.535156 285.113281 317.351562 285.296875 317.121094 285.296875 Z M 317.121094 285.296875 " fill-opacity="1" fill-rule="nonzero"/><path fill="#000000" d="M 317.121094 279.867188 L 280.5625 279.867188 C 280.335938 279.867188 280.152344 279.683594 280.152344 279.457031 C 280.152344 279.230469 280.335938 279.046875 280.5625 279.046875 L 317.121094 279.046875 C 317.351562 279.046875 317.535156 279.230469 317.535156 279.457031 C 317.535156 279.683594 317.351562 279.867188 317.121094 279.867188 Z M 317.121094 279.867188 " fill-opacity="1" fill-rule="nonzero"/><path fill="#000000" d="M 314.441406 290.691406 L 280.5625 290.691406 C 280.335938 290.691406 280.152344 290.507812 280.152344 290.28125 C 280.152344 290.050781 280.335938 289.867188 280.5625 289.867188 L 314.441406 289.867188 C 314.667969 289.867188 314.851562 290.050781 314.851562 290.28125 C 314.851562 290.507812 314.667969 290.691406 314.441406 290.691406 Z M 314.441406 290.691406 " fill-opacity="1" fill-rule="nonzero"/><path fill="#ffffff" d="M 171.648438 117.003906 C 171.648438 117.003906 177.769531 140.558594 198.726562 140.101562 C 219.683594 139.640625 223.199219 131.230469 223.199219 131.230469 C 223.199219 131.230469 198.113281 140.710938 198.265625 117.003906 Z M 171.648438 117.003906 " fill-opacity="1" fill-rule="nonzero"/><g clip-path="url(#88a09c7d03)"><path fill="#000000" d="M 198.128906 140.519531 C 177.574219 140.519531 171.3125 117.339844 171.25 117.105469 C 171.21875 116.984375 171.246094 116.851562 171.324219 116.75 C 171.402344 116.648438 171.523438 116.589844 171.648438 116.589844 L 198.265625 116.589844 C 198.375 116.589844 198.480469 116.632812 198.558594 116.710938 C 198.632812 116.789062 198.675781 116.894531 198.675781 117.003906 C 198.636719 123.355469 200.433594 127.84375 204.023438 130.339844 C 211.101562 135.269531 222.933594 130.890625 223.054688 130.84375 C 223.207031 130.789062 223.378906 130.824219 223.496094 130.941406 C 223.609375 131.0625 223.640625 131.234375 223.578125 131.386719 C 223.429688 131.742188 219.714844 140.050781 198.734375 140.511719 C 198.53125 140.515625 198.328125 140.519531 198.128906 140.519531 Z M 172.199219 117.414062 C 173.253906 120.835938 180.058594 140.105469 198.714844 139.691406 C 214.914062 139.335938 220.570312 134.144531 222.226562 131.992188 C 219.027344 132.996094 209.757812 135.332031 203.554688 131.015625 C 199.808594 128.410156 197.894531 123.835938 197.855469 117.414062 Z M 172.199219 117.414062 " fill-opacity="1" fill-rule="nonzero"/></g><path fill="#000000" d="M 214.738281 137.875 C 214.734375 137.875 214.730469 137.875 214.726562 137.875 C 207.820312 137.683594 202.675781 130.441406 202.460938 130.132812 C 202.332031 129.945312 202.378906 129.6875 202.5625 129.558594 C 202.746094 129.429688 203.003906 129.472656 203.136719 129.660156 C 203.183594 129.730469 208.261719 136.875 214.75 137.054688 C 214.976562 137.058594 215.15625 137.25 215.152344 137.476562 C 215.144531 137.699219 214.960938 137.875 214.738281 137.875 Z M 214.738281 137.875 " fill-opacity="1" fill-rule="nonzero"/><path fill="#f5f6f7" d="M 248.191406 155.886719 C 248.191406 155.886719 253.558594 161.828125 264.109375 159.144531 C 264.109375 159.144531 263.148438 173.71875 268.902344 179.855469 C 268.902344 179.855469 250.300781 178.515625 248.191406 155.886719 Z M 248.191406 155.886719 " fill-opacity="1" fill-rule="nonzero"/><path fill="#000000" d="M 268.902344 180.269531 C 268.890625 180.269531 268.882812 180.265625 268.871094 180.265625 C 268.683594 180.253906 249.898438 178.636719 247.78125 155.921875 C 247.765625 155.746094 247.863281 155.578125 248.023438 155.507812 C 248.183594 155.4375 248.375 155.476562 248.496094 155.609375 C 248.546875 155.664062 253.84375 161.332031 264.007812 158.746094 C 264.128906 158.710938 264.269531 158.742188 264.371094 158.828125 C 264.472656 158.910156 264.527344 159.039062 264.519531 159.171875 C 264.507812 159.316406 263.636719 173.640625 269.203125 179.574219 C 269.320312 179.699219 269.347656 179.878906 269.273438 180.03125 C 269.203125 180.175781 269.058594 180.269531 268.902344 180.269531 Z M 248.714844 156.917969 C 250.015625 167.714844 255.273438 173.238281 259.527344 175.992188 C 262.945312 178.199219 266.265625 179.015625 267.894531 179.300781 C 263.386719 173.429688 263.558594 162.320312 263.667969 159.675781 C 258.378906 160.894531 254.433594 159.9375 252.03125 158.898438 C 250.5 158.238281 249.394531 157.472656 248.714844 156.917969 Z M 248.714844 156.917969 " fill-opacity="1" fill-rule="nonzero"/><path fill="#ffffff" d="M 305.496094 219.054688 C 305.496094 219.054688 312.246094 210.210938 305.496094 194.613281 C 305.496094 194.613281 325.046875 196.242188 336.6875 183.90625 C 336.6875 183.90625 338.550781 215.097656 305.496094 219.054688 Z M 305.496094 219.054688 " fill-opacity="1" fill-rule="nonzero"/><path fill="#000000" d="M 305.496094 219.464844 C 305.347656 219.464844 305.210938 219.386719 305.140625 219.257812 C 305.058594 219.117188 305.066406 218.9375 305.167969 218.804688 C 305.234375 218.71875 311.683594 209.945312 305.117188 194.777344 C 305.0625 194.644531 305.078125 194.492188 305.160156 194.375 C 305.246094 194.257812 305.390625 194.1875 305.53125 194.203125 C 305.722656 194.214844 325.023438 195.667969 336.390625 183.621094 C 336.503906 183.503906 336.675781 183.460938 336.828125 183.519531 C 336.984375 183.574219 337.089844 183.714844 337.097656 183.878906 C 337.117188 184.195312 338.601562 215.503906 305.542969 219.464844 C 305.527344 219.464844 305.511719 219.464844 305.496094 219.464844 Z M 306.128906 195.058594 C 309.390625 202.917969 309.191406 209.007812 308.429688 212.765625 C 307.855469 215.597656 306.902344 217.539062 306.320312 218.535156 C 319.386719 216.75 328.394531 210.46875 333.097656 199.859375 C 335.949219 193.425781 336.28125 187.226562 336.292969 184.894531 C 325.832031 195.234375 309.613281 195.195312 306.128906 195.058594 Z M 306.128906 195.058594 " fill-opacity="1" fill-rule="nonzero"/><path fill="#f5f6f7" d="M 83.1875 227.808594 L 40.820312 227.808594 C 38.371094 227.808594 36.382812 225.820312 36.382812 223.371094 L 36.382812 191.710938 C 36.382812 189.261719 38.371094 187.273438 40.820312 187.273438 L 83.1875 187.273438 C 85.640625 187.273438 87.625 189.261719 87.625 191.710938 L 87.625 223.371094 C 87.625 225.820312 85.640625 227.808594 83.1875 227.808594 Z M 83.1875 227.808594 " fill-opacity="1" fill-rule="nonzero"/><path fill="#000000" d="M 83.1875 228.222656 L 40.820312 228.222656 C 38.148438 228.222656 35.96875 226.042969 35.96875 223.371094 L 35.96875 191.710938 C 35.96875 189.039062 38.148438 186.863281 40.820312 186.863281 L 83.1875 186.863281 C 85.863281 186.863281 88.039062 189.039062 88.039062 191.710938 L 88.039062 223.371094 C 88.039062 226.042969 85.863281 228.222656 83.1875 228.222656 Z M 40.820312 187.683594 C 38.601562 187.683594 36.792969 189.492188 36.792969 191.710938 L 36.792969 223.371094 C 36.792969 225.59375 38.601562 227.398438 40.820312 227.398438 L 83.1875 227.398438 C 85.40625 227.398438 87.214844 225.589844 87.214844 223.371094 L 87.214844 191.710938 C 87.214844 189.492188 85.40625 187.683594 83.1875 187.683594 Z M 40.820312 187.683594 " fill-opacity="1" fill-rule="nonzero"/><path fill="#000000" d="M 87.625 196.402344 L 36.382812 196.402344 C 36.15625 196.402344 35.972656 196.21875 35.972656 195.992188 C 35.972656 195.765625 36.15625 195.582031 36.382812 195.582031 L 87.625 195.582031 C 87.855469 195.582031 88.039062 195.765625 88.039062 195.992188 C 88.039062 196.21875 87.851562 196.402344 87.625 196.402344 Z M 87.625 196.402344 " fill-opacity="1" fill-rule="nonzero"/><path fill="#ffffff" d="M 69.25 200.621094 L 73.953125 200.621094 L 73.953125 205.324219 L 69.25 205.324219 Z M 69.25 200.621094 " fill-opacity="1" fill-rule="nonzero"/><path fill="#000000" d="M 73.953125 205.734375 L 69.25 205.734375 C 69.023438 205.734375 68.839844 205.550781 68.839844 205.324219 L 68.839844 200.621094 C 68.839844 200.390625 69.023438 200.207031 69.25 200.207031 L 73.953125 200.207031 C 74.183594 200.207031 74.367188 200.394531 74.367188 200.621094 L 74.367188 205.324219 C 74.367188 205.550781 74.183594 205.734375 73.953125 205.734375 Z M 69.660156 204.910156 L 73.542969 204.910156 L 73.542969 201.03125 L 69.660156 201.03125 Z M 69.660156 204.910156 " fill-opacity="1" fill-rule="nonzero"/><path fill="#ffffff" d="M 60.4375 200.621094 L 65.140625 200.621094 L 65.140625 205.324219 L 60.4375 205.324219 Z M 60.4375 200.621094 " fill-opacity="1" fill-rule="nonzero"/><path fill="#000000" d="M 65.140625 205.734375 L 60.4375 205.734375 C 60.207031 205.734375 60.027344 205.550781 60.027344 205.324219 L 60.027344 200.621094 C 60.027344 200.390625 60.210938 200.207031 60.4375 200.207031 L 65.140625 200.207031 C 65.367188 200.207031 65.550781 200.394531 65.550781 200.621094 L 65.550781 205.324219 C 65.550781 205.550781 65.367188 205.734375 65.140625 205.734375 Z M 60.847656 204.910156 L 64.730469 204.910156 L 64.730469 201.03125 L 60.847656 201.03125 Z M 60.847656 204.910156 " fill-opacity="1" fill-rule="nonzero"/><path fill="#5c84f7" d="M 51.621094 200.621094 L 56.324219 200.621094 L 56.324219 205.324219 L 51.621094 205.324219 Z M 51.621094 200.621094 " fill-opacity="1" fill-rule="nonzero"/><path fill="#000000" d="M 56.324219 205.734375 L 51.621094 205.734375 C 51.394531 205.734375 51.210938 205.550781 51.210938 205.324219 L 51.210938 200.621094 C 51.210938 200.390625 51.394531 200.207031 51.621094 200.207031 L 56.324219 200.207031 C 56.554688 200.207031 56.734375 200.394531 56.734375 200.621094 L 56.734375 205.324219 C 56.738281 205.550781 56.554688 205.734375 56.324219 205.734375 Z M 52.03125 204.910156 L 55.914062 204.910156 L 55.914062 201.03125 L 52.03125 201.03125 Z M 52.03125 204.910156 " fill-opacity="1" fill-rule="nonzero"/><path fill="#ffffff" d="M 78.066406 200.621094 L 82.769531 200.621094 L 82.769531 205.324219 L 78.066406 205.324219 Z M 78.066406 200.621094 " fill-opacity="1" fill-rule="nonzero"/><path fill="#000000" d="M 82.769531 205.734375 L 78.066406 205.734375 C 77.839844 205.734375 77.65625 205.550781 77.65625 205.324219 L 77.65625 200.621094 C 77.65625 200.390625 77.839844 200.207031 78.066406 200.207031 L 82.769531 200.207031 C 83 200.207031 83.179688 200.394531 83.179688 200.621094 L 83.179688 205.324219 C 83.179688 205.550781 82.996094 205.734375 82.769531 205.734375 Z M 78.476562 204.910156 L 82.359375 204.910156 L 82.359375 201.03125 L 78.476562 201.03125 Z M 78.476562 204.910156 " fill-opacity="1" fill-rule="nonzero"/><path fill="#ffffff" d="M 42.808594 200.621094 L 47.511719 200.621094 L 47.511719 205.324219 L 42.808594 205.324219 Z M 42.808594 200.621094 " fill-opacity="1" fill-rule="nonzero"/><path fill="#000000" d="M 47.511719 205.734375 L 42.808594 205.734375 C 42.578125 205.734375 42.394531 205.550781 42.394531 205.324219 L 42.394531 200.621094 C 42.394531 200.390625 42.578125 200.207031 42.808594 200.207031 L 47.511719 200.207031 C 47.738281 200.207031 47.921875 200.394531 47.921875 200.621094 L 47.921875 205.324219 C 47.921875 205.550781 47.738281 205.734375 47.511719 205.734375 Z M 43.21875 204.910156 L 47.101562 204.910156 L 47.101562 201.03125 L 43.21875 201.03125 Z M 43.21875 204.910156 " fill-opacity="1" fill-rule="nonzero"/><path fill="#5c84f7" d="M 69.25 208.535156 L 73.953125 208.535156 L 73.953125 213.238281 L 69.25 213.238281 Z M 69.25 208.535156 " fill-opacity="1" fill-rule="nonzero"/><path fill="#000000" d="M 73.953125 213.652344 L 69.25 213.652344 C 69.023438 213.652344 68.839844 213.464844 68.839844 213.238281 L 68.839844 208.535156 C 68.839844 208.308594 69.023438 208.125 69.25 208.125 L 73.953125 208.125 C 74.183594 208.125 74.367188 208.308594 74.367188 208.535156 L 74.367188 213.238281 C 74.367188 213.464844 74.183594 213.652344 73.953125 213.652344 Z M 69.660156 212.828125 L 73.542969 212.828125 L 73.542969 208.945312 L 69.660156 208.945312 Z M 69.660156 212.828125 " fill-opacity="1" fill-rule="nonzero"/><path fill="#ffffff" d="M 60.4375 208.535156 L 65.140625 208.535156 L 65.140625 213.238281 L 60.4375 213.238281 Z M 60.4375 208.535156 " fill-opacity="1" fill-rule="nonzero"/><path fill="#000000" d="M 65.140625 213.652344 L 60.4375 213.652344 C 60.207031 213.652344 60.027344 213.464844 60.027344 213.238281 L 60.027344 208.535156 C 60.027344 208.308594 60.210938 208.125 60.4375 208.125 L 65.140625 208.125 C 65.367188 208.125 65.550781 208.308594 65.550781 208.535156 L 65.550781 213.238281 C 65.550781 213.464844 65.367188 213.652344 65.140625 213.652344 Z M 60.847656 212.828125 L 64.730469 212.828125 L 64.730469 208.945312 L 60.847656 208.945312 Z M 60.847656 212.828125 " fill-opacity="1" fill-rule="nonzero"/><path fill="#ffffff" d="M 51.621094 208.535156 L 56.324219 208.535156 L 56.324219 213.238281 L 51.621094 213.238281 Z M 51.621094 208.535156 " fill-opacity="1" fill-rule="nonzero"/><path fill="#000000" d="M 56.324219 213.652344 L 51.621094 213.652344 C 51.394531 213.652344 51.210938 213.464844 51.210938 213.238281 L 51.210938 208.535156 C 51.210938 208.308594 51.394531 208.125 51.621094 208.125 L 56.324219 208.125 C 56.554688 208.125 56.734375 208.308594 56.734375 208.535156 L 56.734375 213.238281 C 56.738281 213.464844 56.554688 213.652344 56.324219 213.652344 Z M 52.03125 212.828125 L 55.914062 212.828125 L 55.914062 208.945312 L 52.03125 208.945312 Z M 52.03125 212.828125 " fill-opacity="1" fill-rule="nonzero"/><path fill="#ffffff" d="M 78.066406 208.535156 L 82.769531 208.535156 L 82.769531 213.238281 L 78.066406 213.238281 Z M 78.066406 208.535156 " fill-opacity="1" fill-rule="nonzero"/><path fill="#000000" d="M 82.769531 213.652344 L 78.066406 213.652344 C 77.839844 213.652344 77.65625 213.464844 77.65625 213.238281 L 77.65625 208.535156 C 77.65625 208.308594 77.839844 208.125 78.066406 208.125 L 82.769531 208.125 C 83 208.125 83.179688 208.308594 83.179688 208.535156 L 83.179688 213.238281 C 83.179688 213.464844 82.996094 213.652344 82.769531 213.652344 Z M 78.476562 212.828125 L 82.359375 212.828125 L 82.359375 208.945312 L 78.476562 208.945312 Z M 78.476562 212.828125 " fill-opacity="1" fill-rule="nonzero"/><path fill="#ffffff" d="M 42.808594 208.535156 L 47.511719 208.535156 L 47.511719 213.238281 L 42.808594 213.238281 Z M 42.808594 208.535156 " fill-opacity="1" fill-rule="nonzero"/><path fill="#000000" d="M 47.511719 213.652344 L 42.808594 213.652344 C 42.578125 213.652344 42.394531 213.464844 42.394531 213.238281 L 42.394531 208.535156 C 42.394531 208.308594 42.578125 208.125 42.808594 208.125 L 47.511719 208.125 C 47.738281 208.125 47.921875 208.308594 47.921875 208.535156 L 47.921875 213.238281 C 47.921875 213.464844 47.738281 213.652344 47.511719 213.652344 Z M 43.21875 212.828125 L 47.101562 212.828125 L 47.101562 208.945312 L 43.21875 208.945312 Z M 43.21875 212.828125 " fill-opacity="1" fill-rule="nonzero"/><path fill="#ffffff" d="M 69.25 216.453125 L 73.953125 216.453125 L 73.953125 221.15625 L 69.25 221.15625 Z M 69.25 216.453125 " fill-opacity="1" fill-rule="nonzero"/><path fill="#000000" d="M 73.953125 221.566406 L 69.25 221.566406 C 69.023438 221.566406 68.839844 221.382812 68.839844 221.15625 L 68.839844 216.453125 C 68.839844 216.222656 69.023438 216.042969 69.25 216.042969 L 73.953125 216.042969 C 74.183594 216.042969 74.367188 216.226562 74.367188 216.453125 L 74.367188 221.15625 C 74.367188 221.382812 74.183594 221.566406 73.953125 221.566406 Z M 69.660156 220.746094 L 73.542969 220.746094 L 73.542969 216.863281 L 69.660156 216.863281 Z M 69.660156 220.746094 " fill-opacity="1" fill-rule="nonzero"/><path fill="#ffffff" d="M 60.4375 216.453125 L 65.140625 216.453125 L 65.140625 221.15625 L 60.4375 221.15625 Z M 60.4375 216.453125 " fill-opacity="1" fill-rule="nonzero"/><path fill="#000000" d="M 65.140625 221.566406 L 60.4375 221.566406 C 60.207031 221.566406 60.027344 221.382812 60.027344 221.15625 L 60.027344 216.453125 C 60.027344 216.222656 60.210938 216.042969 60.4375 216.042969 L 65.140625 216.042969 C 65.367188 216.042969 65.550781 216.226562 65.550781 216.453125 L 65.550781 221.15625 C 65.550781 221.382812 65.367188 221.566406 65.140625 221.566406 Z M 60.847656 220.746094 L 64.730469 220.746094 L 64.730469 216.863281 L 60.847656 216.863281 Z M 60.847656 220.746094 " fill-opacity="1" fill-rule="nonzero"/><path fill="#ffffff" d="M 51.621094 216.453125 L 56.324219 216.453125 L 56.324219 221.15625 L 51.621094 221.15625 Z M 51.621094 216.453125 " fill-opacity="1" fill-rule="nonzero"/><path fill="#000000" d="M 56.324219 221.566406 L 51.621094 221.566406 C 51.394531 221.566406 51.210938 221.382812 51.210938 221.15625 L 51.210938 216.453125 C 51.210938 216.222656 51.394531 216.042969 51.621094 216.042969 L 56.324219 216.042969 C 56.554688 216.042969 56.734375 216.226562 56.734375 216.453125 L 56.734375 221.15625 C 56.738281 221.382812 56.554688 221.566406 56.324219 221.566406 Z M 52.03125 220.746094 L 55.914062 220.746094 L 55.914062 216.863281 L 52.03125 216.863281 Z M 52.03125 220.746094 " fill-opacity="1" fill-rule="nonzero"/><path fill="#ffffff" d="M 78.066406 216.453125 L 82.769531 216.453125 L 82.769531 221.15625 L 78.066406 221.15625 Z M 78.066406 216.453125 " fill-opacity="1" fill-rule="nonzero"/><path fill="#000000" d="M 82.769531 221.566406 L 78.066406 221.566406 C 77.839844 221.566406 77.65625 221.382812 77.65625 221.15625 L 77.65625 216.453125 C 77.65625 216.222656 77.839844 216.042969 78.066406 216.042969 L 82.769531 216.042969 C 83 216.042969 83.179688 216.226562 83.179688 216.453125 L 83.179688 221.15625 C 83.179688 221.382812 82.996094 221.566406 82.769531 221.566406 Z M 78.476562 220.746094 L 82.359375 220.746094 L 82.359375 216.863281 L 78.476562 216.863281 Z M 78.476562 220.746094 " fill-opacity="1" fill-rule="nonzero"/><path fill="#5c84f7" d="M 42.808594 216.453125 L 47.511719 216.453125 L 47.511719 221.15625 L 42.808594 221.15625 Z M 42.808594 216.453125 " fill-opacity="1" fill-rule="nonzero"/><path fill="#000000" d="M 47.511719 221.566406 L 42.808594 221.566406 C 42.578125 221.566406 42.394531 221.382812 42.394531 221.15625 L 42.394531 216.453125 C 42.394531 216.222656 42.578125 216.042969 42.808594 216.042969 L 47.511719 216.042969 C 47.738281 216.042969 47.921875 216.226562 47.921875 216.453125 L 47.921875 221.15625 C 47.921875 221.382812 47.738281 221.566406 47.511719 221.566406 Z M 43.21875 220.746094 L 47.101562 220.746094 L 47.101562 216.863281 L 43.21875 216.863281 Z M 43.21875 220.746094 " fill-opacity="1" fill-rule="nonzero"/><path fill="#ffffff" d="M 47.425781 191.75 C 47.425781 192.050781 47.367188 192.339844 47.253906 192.617188 C 47.136719 192.894531 46.972656 193.140625 46.761719 193.351562 C 46.546875 193.566406 46.304688 193.730469 46.027344 193.84375 C 45.75 193.960938 45.460938 194.015625 45.160156 194.015625 C 44.859375 194.015625 44.570312 193.960938 44.292969 193.84375 C 44.015625 193.730469 43.769531 193.566406 43.554688 193.351562 C 43.34375 193.140625 43.179688 192.894531 43.066406 192.617188 C 42.949219 192.339844 42.894531 192.050781 42.894531 191.75 C 42.894531 191.449219 42.949219 191.160156 43.066406 190.882812 C 43.179688 190.605469 43.34375 190.359375 43.554688 190.148438 C 43.769531 189.9375 44.015625 189.773438 44.292969 189.65625 C 44.570312 189.542969 44.859375 189.484375 45.160156 189.484375 C 45.460938 189.484375 45.75 189.542969 46.027344 189.65625 C 46.304688 189.773438 46.546875 189.9375 46.761719 190.148438 C 46.972656 190.359375 47.136719 190.605469 47.253906 190.882812 C 47.367188 191.160156 47.425781 191.449219 47.425781 191.75 Z M 47.425781 191.75 " fill-opacity="1" fill-rule="nonzero"/><path fill="#000000" d="M 45.160156 194.429688 C 43.683594 194.429688 42.480469 193.226562 42.480469 191.75 C 42.480469 190.277344 43.683594 189.074219 45.160156 189.074219 C 46.632812 189.074219 47.835938 190.277344 47.835938 191.75 C 47.835938 193.226562 46.632812 194.429688 45.160156 194.429688 Z M 45.160156 189.898438 C 44.136719 189.898438 43.304688 190.730469 43.304688 191.75 C 43.304688 192.773438 44.136719 193.605469 45.160156 193.605469 C 46.183594 193.605469 47.011719 192.773438 47.011719 191.75 C 47.015625 190.730469 46.183594 189.898438 45.160156 189.898438 Z M 45.160156 189.898438 " fill-opacity="1" fill-rule="nonzero"/><path fill="#000000" d="M 45.160156 191.75 C 44.546875 191.75 44.050781 191.253906 44.050781 190.640625 L 44.050781 185.722656 C 44.050781 185.113281 44.546875 184.613281 45.160156 184.613281 C 45.769531 184.613281 46.265625 185.113281 46.265625 185.722656 L 46.265625 190.640625 C 46.265625 191.253906 45.769531 191.75 45.160156 191.75 Z M 45.160156 191.75 " fill-opacity="1" fill-rule="nonzero"/><path fill="#000000" d="M 45.160156 192.164062 C 44.320312 192.164062 43.636719 191.480469 43.636719 190.640625 L 43.636719 185.722656 C 43.636719 184.886719 44.320312 184.203125 45.160156 184.203125 C 45.996094 184.203125 46.679688 184.886719 46.679688 185.722656 L 46.679688 190.640625 C 46.679688 191.480469 45.996094 192.164062 45.160156 192.164062 Z M 45.160156 185.027344 C 44.773438 185.027344 44.460938 185.339844 44.460938 185.722656 L 44.460938 190.640625 C 44.460938 191.027344 44.773438 191.339844 45.160156 191.339844 C 45.542969 191.339844 45.855469 191.027344 45.855469 190.640625 L 45.855469 185.722656 C 45.855469 185.339844 45.542969 185.027344 45.160156 185.027344 Z M 45.160156 185.027344 " fill-opacity="1" fill-rule="nonzero"/><path fill="#ffffff" d="M 80.3125 191.75 C 80.3125 192.050781 80.253906 192.339844 80.140625 192.617188 C 80.027344 192.894531 79.863281 193.140625 79.648438 193.351562 C 79.4375 193.566406 79.191406 193.730469 78.914062 193.84375 C 78.636719 193.960938 78.347656 194.015625 78.046875 194.015625 C 77.746094 194.015625 77.457031 193.960938 77.179688 193.84375 C 76.902344 193.730469 76.65625 193.566406 76.445312 193.351562 C 76.230469 193.140625 76.070312 192.894531 75.953125 192.617188 C 75.839844 192.339844 75.78125 192.050781 75.78125 191.75 C 75.78125 191.449219 75.839844 191.160156 75.953125 190.882812 C 76.070312 190.605469 76.230469 190.359375 76.445312 190.148438 C 76.65625 189.9375 76.902344 189.773438 77.179688 189.65625 C 77.457031 189.542969 77.746094 189.484375 78.046875 189.484375 C 78.347656 189.484375 78.636719 189.542969 78.914062 189.65625 C 79.191406 189.773438 79.4375 189.9375 79.648438 190.148438 C 79.863281 190.359375 80.027344 190.605469 80.140625 190.882812 C 80.253906 191.160156 80.3125 191.449219 80.3125 191.75 Z M 80.3125 191.75 " fill-opacity="1" fill-rule="nonzero"/><path fill="#000000" d="M 78.046875 194.429688 C 76.570312 194.429688 75.371094 193.226562 75.371094 191.75 C 75.371094 190.277344 76.570312 189.074219 78.046875 189.074219 C 79.523438 189.074219 80.722656 190.277344 80.722656 191.75 C 80.722656 193.226562 79.523438 194.429688 78.046875 194.429688 Z M 78.046875 189.898438 C 77.023438 189.898438 76.191406 190.730469 76.191406 191.75 C 76.191406 192.773438 77.023438 193.605469 78.046875 193.605469 C 79.070312 193.605469 79.902344 192.773438 79.902344 191.75 C 79.902344 190.730469 79.070312 189.898438 78.046875 189.898438 Z M 78.046875 189.898438 " fill-opacity="1" fill-rule="nonzero"/><path fill="#000000" d="M 78.046875 191.75 C 77.433594 191.75 76.9375 191.253906 76.9375 190.640625 L 76.9375 185.722656 C 76.9375 185.113281 77.433594 184.613281 78.046875 184.613281 C 78.660156 184.613281 79.15625 185.113281 79.15625 185.722656 L 79.15625 190.640625 C 79.15625 191.253906 78.660156 191.75 78.046875 191.75 Z M 78.046875 191.75 " fill-opacity="1" fill-rule="nonzero"/><path fill="#000000" d="M 78.046875 192.164062 C 77.207031 192.164062 76.527344 191.480469 76.527344 190.640625 L 76.527344 185.722656 C 76.527344 184.886719 77.207031 184.203125 78.046875 184.203125 C 78.886719 184.203125 79.566406 184.886719 79.566406 185.722656 L 79.566406 190.640625 C 79.566406 191.480469 78.886719 192.164062 78.046875 192.164062 Z M 78.046875 185.027344 C 77.660156 185.027344 77.347656 185.339844 77.347656 185.722656 L 77.347656 190.640625 C 77.347656 191.027344 77.660156 191.339844 78.046875 191.339844 C 78.433594 191.339844 78.746094 191.027344 78.746094 190.640625 L 78.746094 185.722656 C 78.746094 185.339844 78.433594 185.027344 78.046875 185.027344 Z M 78.046875 185.027344 " fill-opacity="1" fill-rule="nonzero"/><path fill="#000000" d="M 164.460938 185.304688 C 164.460938 185.304688 163.78125 174.671875 164.398438 170.847656 C 165.011719 167.023438 168.53125 164.421875 172.355469 165.1875 C 172.355469 165.1875 176.640625 158.917969 183.675781 158.917969 C 190.714844 158.917969 193.925781 165.496094 198.054688 165.800781 C 202.183594 166.105469 204.175781 165.648438 204.175781 165.648438 C 204.175781 165.648438 203.257812 170.082031 201.265625 170.847656 C 201.265625 170.847656 201.574219 173.324219 208.152344 172.546875 C 208.152344 172.546875 206.773438 181.554688 197.597656 182.167969 L 188.570312 186.171875 L 170.0625 189.660156 Z M 164.460938 185.304688 " fill-opacity="1" fill-rule="nonzero"/><path fill="#000000" d="M 170.0625 190.074219 C 169.972656 190.074219 169.882812 190.042969 169.808594 189.988281 L 164.207031 185.628906 C 164.113281 185.554688 164.054688 185.445312 164.046875 185.328125 C 164.019531 184.894531 163.375 174.609375 163.992188 170.78125 C 164.316406 168.765625 165.398438 167.027344 167.035156 165.890625 C 168.539062 164.847656 170.359375 164.441406 172.175781 164.738281 C 173.027344 163.589844 177.175781 158.503906 183.675781 158.503906 C 187.886719 158.503906 190.71875 160.734375 193.21875 162.707031 C 194.964844 164.082031 196.46875 165.269531 198.085938 165.390625 C 202.082031 165.683594 204.0625 165.25 204.082031 165.246094 C 204.222656 165.214844 204.363281 165.253906 204.460938 165.351562 C 204.5625 165.449219 204.605469 165.59375 204.578125 165.730469 C 204.539062 165.90625 203.699219 169.875 201.792969 171.042969 C 202.132812 171.566406 203.421875 172.691406 208.105469 172.136719 C 208.226562 172.117188 208.355469 172.164062 208.445312 172.257812 C 208.535156 172.351562 208.578125 172.480469 208.558594 172.605469 C 208.542969 172.699219 207.03125 181.902344 197.695312 182.570312 L 188.738281 186.550781 C 188.710938 186.5625 188.679688 186.570312 188.648438 186.578125 L 170.140625 190.066406 C 170.113281 190.070312 170.089844 190.074219 170.0625 190.074219 Z M 164.859375 185.09375 L 170.167969 189.222656 L 188.449219 185.78125 L 197.429688 181.792969 C 197.472656 181.773438 197.519531 181.761719 197.570312 181.757812 C 205.136719 181.253906 207.1875 174.925781 207.636719 173.015625 C 201.390625 173.617188 200.894531 171.1875 200.859375 170.898438 C 200.835938 170.710938 200.941406 170.53125 201.121094 170.464844 C 202.375 169.980469 203.253906 167.5625 203.628906 166.152344 C 202.734375 166.273438 200.890625 166.421875 198.023438 166.210938 C 196.15625 166.070312 194.480469 164.75 192.707031 163.351562 C 190.3125 161.464844 187.601562 159.328125 183.675781 159.328125 C 176.945312 159.328125 172.738281 165.359375 172.695312 165.417969 C 172.601562 165.554688 172.4375 165.621094 172.273438 165.589844 C 170.589844 165.253906 168.894531 165.597656 167.5 166.566406 C 166.050781 167.574219 165.089844 169.117188 164.800781 170.910156 C 164.242188 174.375 164.773438 183.664062 164.859375 185.09375 Z M 164.859375 185.09375 " fill-opacity="1" fill-rule="nonzero"/><path fill="#5c84f7" d="M 167.921875 211.539062 C 167.921875 211.539062 144.054688 221.023438 140.84375 227.292969 C 137.632812 233.566406 131.207031 262.859375 131.207031 262.859375 L 149.5625 265.691406 L 146.960938 335.464844 L 213.046875 335.464844 L 206.621094 260.792969 L 211.667969 265.382812 L 226.046875 247.945312 C 226.046875 247.945312 210.902344 223.929688 206.925781 219.492188 C 202.949219 215.054688 186.277344 212.457031 186.277344 212.457031 Z M 167.921875 211.539062 " fill-opacity="1" fill-rule="nonzero"/><path fill="#000000" d="M 213.046875 335.875 L 146.964844 335.875 C 146.851562 335.875 146.746094 335.828125 146.667969 335.75 C 146.589844 335.667969 146.546875 335.558594 146.550781 335.449219 L 149.140625 266.039062 L 131.144531 263.265625 C 131.03125 263.246094 130.933594 263.183594 130.871094 263.089844 C 130.804688 262.996094 130.78125 262.882812 130.804688 262.769531 C 131.070312 261.574219 137.277344 233.351562 140.480469 227.105469 C 143.726562 220.769531 166.789062 211.542969 167.769531 211.15625 C 167.820312 211.132812 167.871094 211.125 167.941406 211.128906 L 186.296875 212.046875 C 187.027344 212.15625 203.207031 214.726562 207.234375 219.21875 C 211.1875 223.628906 225.777344 246.746094 226.398438 247.726562 C 226.492188 247.875 226.480469 248.070312 226.367188 248.207031 L 211.988281 265.644531 C 211.917969 265.730469 211.8125 265.785156 211.699219 265.792969 C 211.582031 265.804688 211.476562 265.761719 211.394531 265.6875 L 207.121094 261.804688 L 213.457031 335.429688 C 213.464844 335.542969 213.425781 335.660156 213.351562 335.742188 C 213.269531 335.828125 213.160156 335.875 213.046875 335.875 Z M 147.390625 335.050781 L 212.597656 335.050781 L 206.210938 260.828125 C 206.199219 260.660156 206.289062 260.5 206.441406 260.425781 C 206.589844 260.347656 206.773438 260.375 206.898438 260.488281 L 211.628906 264.789062 L 225.542969 247.910156 C 223.914062 245.335938 210.3125 223.882812 206.621094 219.765625 C 202.789062 215.488281 186.378906 212.886719 186.214844 212.859375 L 167.988281 211.953125 C 166.449219 212.570312 144.222656 221.597656 141.210938 227.480469 C 138.269531 233.222656 132.511719 258.882812 131.707031 262.519531 L 149.628906 265.28125 C 149.832031 265.316406 149.984375 265.496094 149.976562 265.703125 Z M 147.390625 335.050781 " fill-opacity="1" fill-rule="nonzero"/><path fill="#ffffff" d="M 133.828125 263.261719 L 132.03125 335.464844 L 146.964844 335.464844 L 149.5625 265.6875 Z M 133.828125 263.261719 " fill-opacity="1" fill-rule="nonzero"/><path fill="#000000" d="M 146.964844 335.875 L 132.03125 335.875 C 131.917969 335.875 131.8125 335.828125 131.734375 335.75 C 131.65625 335.671875 131.617188 335.5625 131.617188 335.453125 L 133.417969 263.253906 C 133.421875 263.132812 133.472656 263.023438 133.566406 262.949219 C 133.65625 262.871094 133.773438 262.839844 133.890625 262.855469 L 149.625 265.28125 C 149.832031 265.316406 149.980469 265.496094 149.976562 265.703125 L 147.375 335.480469 C 147.367188 335.699219 147.183594 335.875 146.964844 335.875 Z M 132.453125 335.050781 L 146.566406 335.050781 L 149.140625 266.039062 L 134.226562 263.742188 Z M 132.453125 335.050781 " fill-opacity="1" fill-rule="nonzero"/><path fill="#ffffff" d="M 213.417969 263.261719 L 225.625 278.171875 C 226.21875 278.898438 226.964844 279.511719 227.832031 279.867188 C 229.21875 280.433594 231.328125 280.625 233.851562 278.691406 C 238.441406 275.171875 252.359375 250.851562 252.359375 250.851562 L 237.675781 250.851562 L 232.167969 257.582031 L 224.285156 250.082031 Z M 213.417969 263.261719 " fill-opacity="1" fill-rule="nonzero"/><path fill="#000000" d="M 229.789062 280.667969 C 228.96875 280.667969 228.253906 280.484375 227.675781 280.246094 C 226.792969 279.886719 225.996094 279.277344 225.304688 278.433594 L 213.101562 263.523438 C 212.976562 263.371094 212.976562 263.152344 213.101562 263 L 223.96875 249.824219 C 224.039062 249.734375 224.144531 249.679688 224.257812 249.671875 C 224.371094 249.660156 224.484375 249.707031 224.566406 249.785156 L 232.128906 256.976562 L 237.355469 250.589844 C 237.433594 250.496094 237.550781 250.441406 237.675781 250.441406 L 252.359375 250.441406 C 252.503906 250.441406 252.640625 250.519531 252.714844 250.644531 C 252.789062 250.773438 252.789062 250.929688 252.714844 251.054688 C 252.144531 252.050781 238.699219 275.488281 234.101562 279.015625 C 232.480469 280.261719 231.011719 280.667969 229.789062 280.667969 Z M 213.949219 263.265625 L 225.941406 277.914062 C 226.546875 278.648438 227.234375 279.179688 227.988281 279.488281 C 229.222656 279.992188 231.199219 280.203125 233.601562 278.367188 C 237.667969 275.246094 249.449219 255.0625 251.648438 251.261719 L 237.871094 251.261719 L 232.484375 257.839844 C 232.414062 257.929688 232.308594 257.984375 232.195312 257.992188 C 232.078125 258 231.96875 257.957031 231.886719 257.878906 L 224.320312 250.6875 Z M 213.949219 263.265625 " fill-opacity="1" fill-rule="nonzero"/><path fill="#ffffff" d="M 259.289062 221.453125 C 259.074219 221.941406 259.03125 222.660156 259.816406 223.507812 C 259.816406 223.507812 256.832031 223.507812 256.488281 224.539062 C 256.144531 225.570312 258.152344 226.605469 258.152344 226.605469 C 258.152344 226.605469 257.523438 227.292969 257.523438 228.210938 C 257.523438 229.128906 259.816406 229.472656 259.816406 229.472656 C 259.816406 229.472656 259.128906 230.964844 260.847656 231.539062 C 262.570312 232.113281 264.0625 232.800781 264.980469 232.800781 C 265.898438 232.800781 268.191406 224.882812 267.390625 222.933594 C 266.675781 221.207031 262.359375 220.648438 260.429688 220.703125 C 259.9375 220.71875 259.488281 221 259.289062 221.453125 Z M 259.289062 221.453125 " fill-opacity="1" fill-rule="nonzero"/><path fill="#000000" d="M 264.980469 233.210938 C 264.257812 233.210938 263.285156 232.851562 262.15625 232.4375 C 261.703125 232.273438 261.21875 232.09375 260.71875 231.929688 C 260.066406 231.710938 259.625 231.347656 259.410156 230.847656 C 259.246094 230.46875 259.253906 230.085938 259.300781 229.796875 C 258.507812 229.621094 257.109375 229.175781 257.109375 228.210938 C 257.109375 227.59375 257.347656 227.070312 257.554688 226.734375 C 256.898438 226.320312 255.761719 225.429688 256.097656 224.410156 C 256.40625 223.484375 258 223.207031 259.027344 223.128906 C 258.613281 222.378906 258.714844 221.734375 258.910156 221.285156 C 259.167969 220.703125 259.757812 220.3125 260.414062 220.292969 C 262.378906 220.242188 266.949219 220.785156 267.765625 222.777344 C 268.5625 224.707031 266.796875 231.078125 265.726562 232.675781 C 265.574219 232.90625 265.328125 233.210938 264.980469 233.210938 Z M 260.71875 221.109375 C 260.625 221.109375 260.53125 221.113281 260.441406 221.113281 C 260.101562 221.125 259.796875 221.320312 259.667969 221.617188 C 259.441406 222.121094 259.59375 222.664062 260.117188 223.226562 C 260.230469 223.347656 260.257812 223.523438 260.195312 223.671875 C 260.128906 223.820312 259.980469 223.917969 259.816406 223.917969 C 258.519531 223.917969 257.03125 224.222656 256.878906 224.671875 C 256.707031 225.191406 257.8125 225.964844 258.34375 226.238281 C 258.457031 226.296875 258.535156 226.40625 258.558594 226.53125 C 258.582031 226.660156 258.542969 226.789062 258.457031 226.882812 C 258.453125 226.886719 257.933594 227.472656 257.933594 228.210938 C 257.933594 228.527344 258.980469 228.929688 259.878906 229.066406 C 260.007812 229.085938 260.117188 229.164062 260.179688 229.277344 C 260.242188 229.390625 260.246094 229.527344 260.191406 229.644531 C 260.191406 229.648438 259.988281 230.113281 260.167969 230.527344 C 260.289062 230.800781 260.5625 231.007812 260.980469 231.148438 C 261.488281 231.316406 261.980469 231.496094 262.441406 231.667969 C 263.457031 232.039062 264.339844 232.363281 264.917969 232.386719 C 265.726562 231.71875 267.710938 224.789062 267.011719 223.089844 C 266.449219 221.726562 262.820312 221.109375 260.71875 221.109375 Z M 259.289062 221.453125 L 259.296875 221.453125 Z M 259.289062 221.453125 " fill-opacity="1" fill-rule="nonzero"/><path fill="#000000" d="M 264.695312 224.492188 C 264.679688 224.492188 264.660156 224.492188 264.644531 224.488281 L 259.769531 223.914062 C 259.542969 223.886719 259.382812 223.683594 259.410156 223.457031 C 259.4375 223.234375 259.636719 223.070312 259.867188 223.097656 L 264.742188 223.671875 C 264.964844 223.699219 265.128906 223.902344 265.101562 224.128906 C 265.078125 224.339844 264.898438 224.492188 264.695312 224.492188 Z M 264.695312 224.492188 " fill-opacity="1" fill-rule="nonzero"/><path fill="#000000" d="M 263.203125 227.589844 C 263.1875 227.589844 263.171875 227.589844 263.15625 227.585938 L 258.105469 227.011719 C 257.878906 226.988281 257.71875 226.785156 257.742188 226.558594 C 257.769531 226.332031 257.972656 226.167969 258.199219 226.195312 L 263.246094 226.769531 C 263.472656 226.792969 263.636719 227 263.609375 227.226562 C 263.585938 227.433594 263.410156 227.589844 263.203125 227.589844 Z M 263.203125 227.589844 " fill-opacity="1" fill-rule="nonzero"/><path fill="#000000" d="M 262.859375 230.34375 C 262.835938 230.34375 262.816406 230.339844 262.796875 230.339844 L 259.753906 229.878906 C 259.53125 229.84375 259.375 229.636719 259.410156 229.410156 C 259.445312 229.1875 259.664062 229.035156 259.878906 229.066406 L 262.917969 229.523438 C 263.140625 229.558594 263.296875 229.769531 263.261719 229.992188 C 263.234375 230.199219 263.058594 230.34375 262.859375 230.34375 Z M 262.859375 230.34375 " fill-opacity="1" fill-rule="nonzero"/><path fill="#ffffff" d="M 186.277344 206.335938 L 186.277344 212.457031 C 186.277344 212.457031 185.816406 217.351562 178.78125 217.808594 C 171.746094 218.269531 167.921875 211.539062 167.921875 211.539062 L 168.6875 192.570312 C 168.6875 192.570312 162.71875 187.214844 164.863281 183.390625 C 167.003906 179.566406 173.121094 186.175781 173.121094 186.175781 C 173.121094 186.175781 176.945312 180.636719 176.945312 175.4375 C 176.945312 175.4375 181.535156 183.542969 188.417969 182.78125 C 188.417969 182.78125 187.195312 179.875 188.417969 178.800781 C 188.417969 178.800781 191.9375 182.320312 197.597656 182.167969 L 197.597656 189.664062 C 197.597656 189.664062 199.125 195.707031 198.820312 197.351562 C 198.515625 198.996094 195.914062 198.535156 195.914062 198.535156 C 195.914062 198.535156 194.996094 208.785156 186.277344 206.335938 Z M 186.277344 206.335938 " fill-opacity="1" fill-rule="nonzero"/><path fill="#000000" d="M 178.105469 218.242188 C 171.335938 218.242188 167.601562 211.808594 167.5625 211.738281 C 167.523438 211.671875 167.507812 211.597656 167.507812 211.519531 L 168.265625 192.742188 C 167.324219 191.855469 162.394531 186.953125 164.5 183.1875 C 164.960938 182.371094 165.613281 181.90625 166.449219 181.808594 C 168.832031 181.527344 171.988281 184.449219 173.058594 185.515625 C 173.921875 184.140625 176.535156 179.636719 176.535156 175.433594 C 176.535156 175.25 176.660156 175.085938 176.839844 175.039062 C 177.023438 174.988281 177.210938 175.070312 177.304688 175.234375 C 177.347656 175.308594 181.570312 182.660156 187.84375 182.410156 C 187.519531 181.441406 187.042969 179.457031 188.148438 178.492188 C 188.3125 178.351562 188.554688 178.359375 188.707031 178.507812 C 188.742188 178.542969 192.175781 181.894531 197.585938 181.753906 C 197.683594 181.753906 197.804688 181.792969 197.882812 181.871094 C 197.964844 181.949219 198.007812 182.054688 198.007812 182.167969 L 198.007812 189.609375 C 198.214844 190.4375 199.53125 195.777344 199.222656 197.425781 C 198.960938 198.847656 197.394531 199.089844 196.269531 198.996094 C 196.082031 200.273438 195.300781 204.09375 192.511719 206.015625 C 190.925781 207.113281 188.96875 207.398438 186.6875 206.867188 L 186.6875 212.453125 C 186.679688 212.546875 186.109375 217.742188 178.808594 218.21875 C 178.570312 218.234375 178.335938 218.242188 178.105469 218.242188 Z M 168.335938 211.429688 C 168.835938 212.238281 172.515625 217.808594 178.753906 217.398438 C 185.332031 216.96875 185.847656 212.601562 185.867188 212.414062 L 185.867188 206.335938 C 185.867188 206.207031 185.925781 206.085938 186.03125 206.007812 C 186.132812 205.933594 186.265625 205.910156 186.386719 205.941406 C 188.644531 206.574219 190.546875 206.375 192.046875 205.34375 C 195.039062 203.28125 195.5 198.546875 195.503906 198.5 C 195.515625 198.382812 195.574219 198.277344 195.664062 198.210938 C 195.757812 198.140625 195.871094 198.113281 195.984375 198.128906 C 196.007812 198.136719 198.191406 198.5 198.417969 197.273438 C 198.65625 196 197.617188 191.421875 197.199219 189.765625 C 197.191406 189.730469 197.1875 189.699219 197.1875 189.664062 L 197.1875 182.582031 C 192.585938 182.566406 189.464844 180.253906 188.46875 179.402344 C 188.011719 180.28125 188.542969 182.011719 188.796875 182.621094 C 188.847656 182.738281 188.839844 182.875 188.773438 182.988281 C 188.707031 183.097656 188.59375 183.171875 188.464844 183.1875 C 182.898438 183.804688 178.84375 178.972656 177.289062 176.726562 C 176.769531 181.5625 173.605469 186.195312 173.460938 186.40625 C 173.390625 186.511719 173.277344 186.574219 173.152344 186.582031 C 173.019531 186.597656 172.90625 186.542969 172.820312 186.453125 C 171.757812 185.308594 168.574219 182.386719 166.550781 182.625 C 165.980469 182.691406 165.546875 183.007812 165.222656 183.589844 C 163.265625 187.085938 168.902344 192.210938 168.960938 192.261719 C 169.050781 192.34375 169.101562 192.460938 169.097656 192.585938 Z M 168.335938 211.429688 " fill-opacity="1" fill-rule="nonzero"/><path fill="#000000" d="M 242.378906 335.082031 C 237.71875 335.082031 233.941406 331.300781 233.941406 326.640625 L 233.941406 314.308594 L 250.816406 314.308594 L 250.816406 326.640625 C 250.816406 331.300781 247.039062 335.082031 242.378906 335.082031 Z M 242.378906 335.082031 " fill-opacity="1" fill-rule="nonzero"/><path fill="#000000" d="M 242.378906 335.492188 C 237.5 335.492188 233.53125 331.519531 233.53125 326.640625 L 233.53125 314.308594 C 233.53125 314.082031 233.714844 313.898438 233.941406 313.898438 L 250.816406 313.898438 C 251.046875 313.898438 251.226562 314.082031 251.226562 314.308594 L 251.226562 326.640625 C 251.230469 331.519531 247.257812 335.492188 242.378906 335.492188 Z M 234.351562 314.71875 L 234.351562 326.640625 C 234.351562 331.066406 237.953125 334.667969 242.378906 334.667969 C 246.804688 334.667969 250.40625 331.066406 250.40625 326.640625 L 250.40625 314.71875 Z M 234.351562 314.71875 " fill-opacity="1" fill-rule="nonzero"/><path fill="#000000" d="M 242.582031 310.722656 C 242.558594 310.722656 242.535156 310.722656 242.511719 310.71875 C 242.285156 310.675781 242.136719 310.464844 242.175781 310.242188 C 242.183594 310.195312 242.976562 305.601562 241.441406 302.9375 C 239.460938 299.496094 242.652344 296.324219 242.6875 296.292969 C 242.847656 296.136719 243.109375 296.140625 243.269531 296.300781 C 243.425781 296.464844 243.421875 296.722656 243.261719 296.882812 C 243.148438 296.992188 240.496094 299.644531 242.15625 302.527344 C 243.839844 305.453125 243.023438 310.183594 242.988281 310.382812 C 242.953125 310.582031 242.777344 310.722656 242.582031 310.722656 Z M 242.582031 310.722656 " fill-opacity="1" fill-rule="nonzero"/><path fill="#000000" d="M 238.398438 310.460938 C 238.328125 310.460938 238.261719 310.445312 238.195312 310.40625 C 238 310.296875 237.929688 310.042969 238.042969 309.847656 C 238.050781 309.832031 238.964844 308.179688 238.160156 306.574219 C 237.214844 304.679688 237.203125 302.8125 237.203125 302.730469 C 237.203125 302.503906 237.386719 302.320312 237.613281 302.320312 C 237.839844 302.320312 238.023438 302.503906 238.027344 302.730469 C 238.027344 302.75 238.039062 304.492188 238.898438 306.207031 C 239.898438 308.210938 238.800781 310.171875 238.753906 310.253906 C 238.679688 310.386719 238.542969 310.460938 238.398438 310.460938 Z M 238.398438 310.460938 " fill-opacity="1" fill-rule="nonzero"/><path fill="#000000" d="M 246.242188 310.460938 C 246.171875 310.460938 246.101562 310.445312 246.039062 310.40625 C 245.839844 310.296875 245.773438 310.042969 245.882812 309.847656 C 245.894531 309.832031 246.804688 308.179688 246.003906 306.574219 C 245.058594 304.679688 245.046875 302.8125 245.046875 302.730469 C 245.046875 302.503906 245.230469 302.320312 245.457031 302.320312 C 245.683594 302.320312 245.867188 302.503906 245.867188 302.730469 C 245.867188 302.75 245.882812 304.492188 246.738281 306.207031 C 247.742188 308.210938 246.644531 310.171875 246.597656 310.253906 C 246.523438 310.386719 246.382812 310.460938 246.242188 310.460938 Z M 246.242188 310.460938 " fill-opacity="1" fill-rule="nonzero"/><path fill="#ffffff" d="M 159.644531 249.9375 L 173.113281 250.128906 L 172.867188 267.53125 L 159.398438 267.339844 Z M 159.644531 249.9375 " fill-opacity="1" fill-rule="nonzero"/><path fill="#000000" d="M 172.875 267.933594 C 172.875 267.933594 172.871094 267.933594 172.871094 267.933594 L 159.402344 267.746094 C 159.292969 267.746094 159.191406 267.699219 159.113281 267.621094 C 159.035156 267.542969 158.996094 267.4375 158.996094 267.332031 L 159.238281 249.925781 C 159.238281 249.703125 159.421875 249.523438 159.648438 249.523438 C 159.648438 249.523438 159.652344 249.523438 159.652344 249.523438 L 173.121094 249.707031 C 173.230469 249.707031 173.335938 249.753906 173.410156 249.832031 C 173.488281 249.910156 173.527344 250.015625 173.527344 250.125 L 173.289062 267.527344 C 173.285156 267.75 173.101562 267.933594 172.875 267.933594 Z M 159.824219 266.929688 L 172.472656 267.105469 L 172.699219 250.523438 L 160.054688 250.351562 Z M 159.824219 266.929688 " fill-opacity="1" fill-rule="nonzero"/><path fill="#000000" d="M 165.210938 246.675781 L 167.5 246.707031 L 167.453125 250.261719 L 165.160156 250.230469 Z M 165.210938 246.675781 " fill-opacity="1" fill-rule="nonzero"/><path fill="#000000" d="M 167.457031 250.667969 C 167.457031 250.667969 167.453125 250.667969 167.453125 250.667969 L 165.164062 250.636719 C 164.9375 250.632812 164.757812 250.445312 164.757812 250.21875 L 164.808594 246.664062 C 164.808594 246.554688 164.855469 246.449219 164.929688 246.375 C 165.011719 246.296875 165.125 246.25 165.222656 246.257812 L 167.511719 246.289062 C 167.742188 246.292969 167.921875 246.480469 167.917969 246.707031 L 167.871094 250.261719 C 167.867188 250.488281 167.683594 250.667969 167.457031 250.667969 Z M 165.585938 249.820312 L 167.054688 249.839844 L 167.089844 247.105469 L 165.625 247.085938 Z M 165.585938 249.820312 " fill-opacity="1" fill-rule="nonzero"/><path fill="#5c84f7" d="M 159.648438 249.917969 L 173.117188 250.144531 L 173.050781 253.992188 L 159.582031 253.765625 Z M 159.648438 249.917969 " fill-opacity="1" fill-rule="nonzero"/><path fill="#000000" d="M 173.058594 254.398438 C 173.054688 254.398438 173.054688 254.398438 173.050781 254.398438 L 159.582031 254.167969 C 159.472656 254.167969 159.367188 254.121094 159.292969 254.042969 C 159.21875 253.964844 159.175781 253.859375 159.179688 253.753906 L 159.242188 249.90625 C 159.246094 249.679688 159.472656 249.503906 159.664062 249.5 L 173.128906 249.730469 C 173.355469 249.734375 173.539062 249.921875 173.535156 250.148438 L 173.46875 253.996094 C 173.46875 254.105469 173.421875 254.207031 173.34375 254.285156 C 173.265625 254.355469 173.164062 254.398438 173.058594 254.398438 Z M 160.007812 253.355469 L 172.652344 253.570312 L 172.703125 250.542969 L 160.058594 250.328125 Z M 160.007812 253.355469 " fill-opacity="1" fill-rule="nonzero"/><path fill="#0f61a5" d="M 336.050781 115.957031 L 228.394531 115.957031 C 217.46875 115.957031 208.617188 107.125 208.617188 96.1875 L 208.617188 95.671875 C 208.617188 84.773438 217.46875 75.945312 228.394531 75.945312 L 336.050781 75.945312 C 346.976562 75.945312 355.828125 84.773438 355.828125 95.671875 L 355.828125 96.226562 C 355.828125 107.125 346.976562 115.957031 336.050781 115.957031 Z M 336.050781 115.957031 " fill-opacity="1" fill-rule="nonzero"/><g clip-path="url(#6bdf43026c)"><path fill="#000000" d="M 336.050781 117.347656 L 228.394531 117.347656 C 216.710938 117.347656 207.222656 107.839844 207.222656 96.1875 L 207.222656 95.671875 C 207.222656 84.015625 216.710938 74.550781 228.394531 74.550781 L 336.050781 74.550781 C 347.734375 74.550781 357.222656 84.015625 357.222656 95.671875 L 357.222656 96.226562 C 357.222656 107.839844 347.734375 117.347656 336.050781 117.347656 Z M 228.394531 77.335938 C 218.269531 77.335938 210.015625 85.570312 210.015625 95.671875 L 210.015625 96.226562 C 210.015625 106.332031 218.269531 114.5625 228.394531 114.5625 L 336.050781 114.5625 C 346.179688 114.5625 354.433594 106.332031 354.433594 96.226562 L 354.433594 95.671875 C 354.433594 85.570312 346.179688 77.335938 336.050781 77.335938 Z M 228.394531 77.335938 " fill-opacity="1" fill-rule="nonzero"/></g><g clip-path="url(#c639f45ae0)"><path fill="#0075ff" d="M 334.417969 110.070312 L 230.03125 110.070312 C 219.105469 110.070312 210.253906 101.238281 210.253906 90.339844 C 210.253906 79.445312 219.105469 70.613281 230.03125 70.613281 L 334.417969 70.613281 C 345.339844 70.613281 354.191406 79.445312 354.191406 90.339844 C 354.191406 101.238281 345.339844 110.070312 334.417969 110.070312 Z M 334.417969 110.070312 " fill-opacity="1" fill-rule="nonzero"/></g><g clip-path="url(#6ccf4a51a8)"><path fill="#0f0e0d" d="M 341.355469 123.511719 L 341.355469 122.398438 C 341.355469 122.238281 341.355469 122.082031 341.3125 121.921875 C 341.074219 119.8125 339.320312 118.261719 337.167969 118.261719 C 336.6875 118.261719 336.210938 118.339844 335.773438 118.5 C 334.972656 117.464844 333.777344 116.871094 332.460938 116.871094 C 331.984375 116.871094 331.503906 116.949219 331.105469 117.109375 C 330.308594 116.035156 329.074219 115.4375 327.757812 115.4375 C 327.558594 115.4375 327.359375 115.4375 327.160156 115.476562 L 327.160156 109.3125 C 327.078125 107.164062 325.285156 105.457031 323.09375 105.457031 C 321.019531 105.457031 319.503906 107.046875 319.425781 109.351562 L 319.425781 125.0625 L 319.304688 124.902344 C 319.265625 124.863281 319.226562 124.824219 319.183594 124.785156 C 318.386719 123.789062 316.753906 123.074219 315.476562 123.113281 C 313.441406 123.234375 312.046875 124.464844 311.847656 126.414062 L 311.847656 126.496094 C 311.847656 126.652344 311.808594 126.773438 311.808594 127.171875 C 311.808594 127.449219 311.808594 127.488281 311.847656 127.570312 L 311.847656 127.6875 C 311.96875 128.722656 312.644531 130.035156 313.203125 130.789062 L 320.660156 141.089844 L 320.699219 141.132812 C 320.699219 141.171875 320.738281 141.171875 320.78125 141.210938 L 320.859375 141.289062 C 323.050781 144.074219 326.003906 145.507812 329.671875 145.507812 C 336.128906 145.507812 341.355469 140.214844 341.355469 133.695312 L 341.355469 123.589844 C 341.355469 123.589844 341.355469 123.550781 341.355469 123.511719 Z M 339.28125 132.460938 C 339.28125 137.871094 334.972656 142.246094 329.671875 142.246094 C 326.640625 142.246094 324.289062 141.132812 322.496094 138.785156 L 315.039062 128.484375 L 314.957031 128.363281 C 314.121094 127.332031 313.960938 126.8125 313.960938 126.574219 C 314.042969 125.660156 314.597656 125.183594 315.636719 125.144531 C 315.675781 125.144531 315.675781 125.144531 315.714844 125.144531 C 316.355469 125.144531 317.3125 125.582031 317.710938 126.097656 L 319.703125 128.601562 C 320.0625 129.039062 320.699219 129.121094 321.140625 128.761719 C 321.417969 128.5625 321.539062 128.207031 321.539062 127.886719 L 321.539062 109.351562 C 321.539062 108.914062 321.738281 107.484375 323.171875 107.484375 C 324.25 107.484375 325.125 108.320312 325.164062 109.351562 L 325.164062 121.523438 C 325.164062 122 325.523438 122.4375 325.964844 122.519531 C 326.242188 122.558594 326.519531 122.476562 326.761719 122.320312 C 326.960938 122.121094 327.121094 121.882812 327.121094 121.5625 L 327.121094 117.546875 C 328.195312 117.148438 329.390625 117.746094 329.789062 118.738281 C 329.789062 118.777344 329.832031 118.820312 329.832031 118.859375 L 329.832031 122.757812 C 329.832031 123.234375 330.191406 123.671875 330.628906 123.75 C 330.90625 123.789062 331.1875 123.710938 331.425781 123.550781 C 331.625 123.351562 331.746094 123.113281 331.746094 122.835938 L 331.746094 119.058594 C 331.984375 118.976562 332.261719 118.898438 332.503906 118.898438 C 333.339844 118.898438 334.097656 119.414062 334.417969 120.171875 C 334.417969 120.210938 334.417969 120.210938 334.457031 120.25 L 334.457031 123.832031 C 334.457031 124.308594 334.816406 124.746094 335.253906 124.824219 C 335.53125 124.863281 335.8125 124.785156 336.050781 124.625 C 336.25 124.425781 336.371094 124.1875 336.371094 123.910156 L 336.371094 120.449219 C 336.609375 120.332031 336.886719 120.289062 337.167969 120.289062 C 338.242188 120.289062 339.121094 121.085938 339.242188 122.160156 C 339.242188 122.238281 339.242188 122.320312 339.242188 122.398438 L 339.242188 132.0625 L 339.199219 132.101562 Z M 339.28125 132.460938 " fill-opacity="1" fill-rule="nonzero"/></g><path fill="#ffffff" d="M 339.597656 122.398438 L 339.597656 132.460938 C 339.597656 138.027344 335.132812 142.5625 329.671875 142.5625 C 326.5625 142.5625 324.089844 141.371094 322.253906 139.023438 L 322.175781 138.945312 C 322.136719 138.902344 322.136719 138.902344 322.136719 138.902344 L 314.757812 128.683594 C 314.757812 128.683594 314.757812 128.644531 314.71875 128.644531 L 314.679688 128.5625 C 314.320312 128.085938 313.683594 127.132812 313.722656 126.535156 C 313.800781 125.382812 314.480469 124.902344 315.636719 124.824219 C 316.394531 124.785156 317.511719 125.300781 317.949219 125.898438 L 318.070312 126.058594 L 318.109375 126.058594 L 319.980469 128.445312 C 320.183594 128.683594 320.5 128.761719 320.78125 128.683594 C 321.058594 128.5625 321.257812 128.324219 321.257812 128.007812 L 321.257812 109.394531 C 321.296875 108.160156 321.9375 107.207031 323.210938 107.207031 C 324.449219 107.207031 325.484375 108.160156 325.523438 109.394531 L 325.523438 121.5625 C 325.523438 121.882812 325.722656 122.199219 326.042969 122.238281 C 326.441406 122.320312 326.800781 122 326.800781 121.601562 L 326.800781 117.347656 C 327.121094 117.1875 327.476562 117.109375 327.835938 117.109375 C 328.835938 117.109375 329.75 117.746094 330.109375 118.660156 C 330.109375 118.699219 330.148438 118.738281 330.191406 118.820312 L 330.191406 122.796875 C 330.191406 123.113281 330.429688 123.433594 330.746094 123.472656 C 331.148438 123.550781 331.503906 123.234375 331.503906 122.835938 L 331.503906 118.859375 C 331.824219 118.699219 332.222656 118.582031 332.582031 118.582031 C 333.578125 118.582031 334.457031 119.175781 334.816406 120.050781 C 334.816406 120.089844 334.855469 120.132812 334.855469 120.171875 L 334.855469 123.871094 C 334.855469 124.1875 335.09375 124.507812 335.414062 124.546875 C 335.8125 124.625 336.171875 124.308594 336.171875 123.910156 L 336.171875 120.25 C 336.53125 120.050781 336.886719 119.972656 337.285156 119.972656 C 338.523438 119.972656 339.558594 120.886719 339.679688 122.121094 C 339.597656 122.199219 339.597656 122.320312 339.597656 122.398438 Z M 339.597656 122.398438 " fill-opacity="1" fill-rule="nonzero"/><g clip-path="url(#4e3876f751)"><path fill="#0f0e0d" d="M 341.355469 123.511719 L 341.355469 122.398438 C 341.355469 122.238281 341.355469 122.082031 341.3125 121.921875 C 341.074219 119.8125 339.320312 118.261719 337.167969 118.261719 C 336.6875 118.261719 336.210938 118.339844 335.773438 118.5 C 334.972656 117.464844 333.777344 116.871094 332.460938 116.871094 C 331.984375 116.871094 331.503906 116.949219 331.105469 117.109375 C 330.308594 116.035156 329.074219 115.4375 327.757812 115.4375 C 327.558594 115.4375 327.359375 115.4375 327.160156 115.476562 L 327.160156 109.3125 C 327.078125 107.164062 325.285156 105.457031 323.09375 105.457031 C 321.019531 105.457031 319.503906 107.046875 319.425781 109.351562 L 319.425781 125.0625 L 319.304688 124.902344 C 319.265625 124.863281 319.226562 124.824219 319.183594 124.785156 C 318.386719 123.789062 316.753906 123.074219 315.476562 123.113281 C 313.441406 123.234375 312.046875 124.464844 311.847656 126.414062 L 311.847656 126.496094 C 311.847656 126.652344 311.808594 126.773438 311.808594 127.171875 C 311.808594 127.449219 311.808594 127.488281 311.847656 127.570312 L 311.847656 127.6875 C 311.96875 128.722656 312.644531 130.035156 313.203125 130.789062 L 320.660156 141.089844 L 320.699219 141.132812 C 320.699219 141.171875 320.738281 141.171875 320.78125 141.210938 L 320.859375 141.289062 C 323.050781 144.074219 326.003906 145.507812 329.671875 145.507812 C 336.128906 145.507812 341.355469 140.214844 341.355469 133.695312 L 341.355469 123.589844 C 341.355469 123.589844 341.355469 123.550781 341.355469 123.511719 Z M 339.28125 132.460938 C 339.28125 137.871094 334.972656 142.246094 329.671875 142.246094 C 326.640625 142.246094 324.289062 141.132812 322.496094 138.785156 L 315.039062 128.484375 L 314.957031 128.363281 C 314.121094 127.332031 313.960938 126.8125 313.960938 126.574219 C 314.042969 125.660156 314.597656 125.183594 315.636719 125.144531 C 315.675781 125.144531 315.675781 125.144531 315.714844 125.144531 C 316.355469 125.144531 317.3125 125.582031 317.710938 126.097656 L 319.703125 128.601562 C 320.0625 129.039062 320.699219 129.121094 321.140625 128.761719 C 321.417969 128.5625 321.539062 128.207031 321.539062 127.886719 L 321.539062 109.351562 C 321.539062 108.914062 321.738281 107.484375 323.171875 107.484375 C 324.25 107.484375 325.125 108.320312 325.164062 109.351562 L 325.164062 121.523438 C 325.164062 122 325.523438 122.4375 325.964844 122.519531 C 326.242188 122.558594 326.519531 122.476562 326.761719 122.320312 C 326.960938 122.121094 327.121094 121.882812 327.121094 121.5625 L 327.121094 117.546875 C 328.195312 117.148438 329.390625 117.746094 329.789062 118.738281 C 329.789062 118.777344 329.832031 118.820312 329.832031 118.859375 L 329.832031 122.757812 C 329.832031 123.234375 330.191406 123.671875 330.628906 123.75 C 330.90625 123.789062 331.1875 123.710938 331.425781 123.550781 C 331.625 123.351562 331.746094 123.113281 331.746094 122.835938 L 331.746094 119.058594 C 331.984375 118.976562 332.261719 118.898438 332.503906 118.898438 C 333.339844 118.898438 334.097656 119.414062 334.417969 120.171875 C 334.417969 120.210938 334.417969 120.210938 334.457031 120.25 L 334.457031 123.832031 C 334.457031 124.308594 334.816406 124.746094 335.253906 124.824219 C 335.53125 124.863281 335.8125 124.785156 336.050781 124.625 C 336.25 124.425781 336.371094 124.1875 336.371094 123.910156 L 336.371094 120.449219 C 336.609375 120.332031 336.886719 120.289062 337.167969 120.289062 C 338.242188 120.289062 339.121094 121.085938 339.242188 122.160156 C 339.242188 122.238281 339.242188 122.320312 339.242188 122.398438 L 339.242188 132.0625 L 339.199219 132.101562 Z M 339.28125 132.460938 " fill-opacity="1" fill-rule="nonzero"/></g><path fill="#ffffff" d="M 339.597656 122.398438 L 339.597656 132.460938 C 339.597656 138.027344 335.132812 142.5625 329.671875 142.5625 C 326.5625 142.5625 324.089844 141.371094 322.253906 139.023438 L 322.175781 138.945312 C 322.136719 138.902344 322.136719 138.902344 322.136719 138.902344 L 314.757812 128.683594 C 314.757812 128.683594 314.757812 128.644531 314.71875 128.644531 L 314.679688 128.5625 C 314.320312 128.085938 313.683594 127.132812 313.722656 126.535156 C 313.800781 125.382812 314.480469 124.902344 315.636719 124.824219 C 316.394531 124.785156 317.511719 125.300781 317.949219 125.898438 L 318.070312 126.058594 L 318.109375 126.058594 L 319.980469 128.445312 C 320.183594 128.683594 320.5 128.761719 320.78125 128.683594 C 321.058594 128.5625 321.257812 128.324219 321.257812 128.007812 L 321.257812 109.394531 C 321.296875 108.160156 321.9375 107.207031 323.210938 107.207031 C 324.449219 107.207031 325.484375 108.160156 325.523438 109.394531 L 325.523438 121.5625 C 325.523438 121.882812 325.722656 122.199219 326.042969 122.238281 C 326.441406 122.320312 326.800781 122 326.800781 121.601562 L 326.800781 117.347656 C 327.121094 117.1875 327.476562 117.109375 327.835938 117.109375 C 328.835938 117.109375 329.75 117.746094 330.109375 118.660156 C 330.109375 118.699219 330.148438 118.738281 330.191406 118.820312 L 330.191406 122.796875 C 330.191406 123.113281 330.429688 123.433594 330.746094 123.472656 C 331.148438 123.550781 331.503906 123.234375 331.503906 122.835938 L 331.503906 118.859375 C 331.824219 118.699219 332.222656 118.582031 332.582031 118.582031 C 333.578125 118.582031 334.457031 119.175781 334.816406 120.050781 C 334.816406 120.089844 334.855469 120.132812 334.855469 120.171875 L 334.855469 123.871094 C 334.855469 124.1875 335.09375 124.507812 335.414062 124.546875 C 335.8125 124.625 336.171875 124.308594 336.171875 123.910156 L 336.171875 120.25 C 336.53125 120.050781 336.886719 119.972656 337.285156 119.972656 C 338.523438 119.972656 339.558594 120.886719 339.679688 122.121094 C 339.597656 122.199219 339.597656 122.320312 339.597656 122.398438 Z M 339.597656 122.398438 " fill-opacity="1" fill-rule="nonzero"/><path fill="#ffffff" d="M 235.972656 97.0625 C 235.652344 97.0625 235.375 96.984375 235.132812 96.824219 C 234.894531 96.664062 234.734375 96.464844 234.617188 96.1875 L 230.628906 86.285156 C 230.589844 86.125 230.546875 86.007812 230.546875 85.847656 C 230.546875 85.488281 230.707031 85.171875 230.988281 84.933594 C 231.304688 84.695312 231.664062 84.574219 232.0625 84.574219 C 232.78125 84.574219 233.261719 84.851562 233.5 85.449219 L 236.089844 91.695312 L 238.644531 85.371094 C 238.761719 85.132812 238.921875 84.890625 239.160156 84.734375 C 239.398438 84.574219 239.679688 84.496094 240 84.496094 C 240.398438 84.496094 240.757812 84.613281 241.035156 84.890625 C 241.3125 85.171875 241.433594 85.449219 241.433594 85.808594 C 241.433594 85.964844 241.394531 86.125 241.355469 86.246094 L 237.367188 96.148438 C 237.246094 96.386719 237.085938 96.625 236.847656 96.785156 C 236.570312 96.984375 236.289062 97.0625 235.972656 97.0625 Z M 235.972656 97.0625 " fill-opacity="1" fill-rule="nonzero"/><path fill="#ffffff" d="M 244.863281 97.0625 C 244.464844 97.0625 244.105469 96.945312 243.785156 96.707031 C 243.46875 96.464844 243.347656 96.148438 243.347656 95.789062 L 243.347656 85.847656 C 243.347656 85.449219 243.507812 85.171875 243.785156 84.933594 C 244.105469 84.695312 244.464844 84.574219 244.863281 84.574219 C 245.261719 84.574219 245.621094 84.695312 245.9375 84.933594 C 246.257812 85.171875 246.417969 85.488281 246.417969 85.847656 L 246.417969 95.789062 C 246.417969 96.1875 246.257812 96.464844 245.9375 96.707031 C 245.621094 96.945312 245.261719 97.0625 244.863281 97.0625 Z M 244.863281 97.0625 " fill-opacity="1" fill-rule="nonzero"/><path fill="#ffffff" d="M 257.621094 96.945312 L 252.199219 96.945312 C 251.800781 96.945312 251.441406 96.824219 251.164062 96.546875 C 250.882812 96.269531 250.765625 95.988281 250.765625 95.632812 L 250.765625 85.964844 C 250.765625 85.648438 250.882812 85.328125 251.164062 85.050781 C 251.441406 84.773438 251.761719 84.652344 252.199219 84.652344 L 257.621094 84.652344 C 258.058594 84.652344 258.378906 84.773438 258.660156 85.050781 C 258.9375 85.289062 259.058594 85.609375 259.058594 85.964844 C 259.058594 86.324219 258.9375 86.640625 258.660156 86.882812 C 258.378906 87.121094 258.019531 87.277344 257.621094 87.277344 L 253.875 87.277344 L 253.875 89.507812 L 257.023438 89.507812 C 257.460938 89.507812 257.78125 89.625 258.058594 89.902344 C 258.339844 90.144531 258.460938 90.460938 258.460938 90.820312 C 258.460938 91.175781 258.339844 91.496094 258.058594 91.734375 C 257.78125 91.972656 257.421875 92.132812 257.023438 92.132812 L 253.875 92.132812 L 253.875 94.359375 L 257.660156 94.359375 C 258.101562 94.359375 258.417969 94.476562 258.699219 94.757812 C 258.976562 94.996094 259.097656 95.3125 259.097656 95.671875 C 259.097656 96.027344 258.976562 96.347656 258.699219 96.585938 C 258.417969 96.824219 258.058594 96.945312 257.621094 96.945312 Z M 257.621094 96.945312 " fill-opacity="1" fill-rule="nonzero"/><path fill="#ffffff" d="M 271.894531 97.0625 C 271.578125 97.0625 271.296875 96.984375 271.058594 96.785156 C 270.820312 96.625 270.660156 96.386719 270.539062 96.109375 L 268.625 90.460938 L 266.59375 96.109375 C 266.394531 96.707031 265.957031 96.984375 265.277344 96.984375 C 264.597656 96.984375 264.160156 96.664062 263.921875 96.070312 L 260.613281 86.164062 C 260.574219 86.046875 260.53125 85.925781 260.53125 85.808594 C 260.53125 85.449219 260.691406 85.132812 260.972656 84.851562 C 261.289062 84.613281 261.609375 84.496094 262.046875 84.496094 C 262.804688 84.496094 263.285156 84.8125 263.484375 85.449219 L 265.398438 91.058594 L 267.429688 85.371094 C 267.628906 84.773438 268.070312 84.496094 268.746094 84.496094 C 269.425781 84.496094 269.863281 84.8125 270.101562 85.410156 L 271.976562 90.9375 L 273.808594 85.410156 C 273.890625 85.132812 274.050781 84.933594 274.328125 84.734375 C 274.609375 84.535156 274.847656 84.453125 275.207031 84.453125 C 275.605469 84.453125 275.964844 84.574219 276.242188 84.851562 C 276.519531 85.132812 276.640625 85.410156 276.640625 85.765625 C 276.640625 85.886719 276.640625 86.007812 276.601562 86.125 L 273.292969 96.070312 C 273.210938 96.347656 273.011719 96.546875 272.773438 96.746094 C 272.496094 96.984375 272.214844 97.0625 271.894531 97.0625 Z M 271.894531 97.0625 " fill-opacity="1" fill-rule="nonzero"/><path fill="#ffffff" d="M 287.644531 96.945312 L 284.375 96.945312 C 283.976562 96.945312 283.617188 96.824219 283.339844 96.546875 C 283.058594 96.269531 282.941406 95.988281 282.941406 95.632812 L 282.941406 85.964844 C 282.941406 85.648438 283.058594 85.328125 283.339844 85.050781 C 283.617188 84.773438 283.9375 84.652344 284.375 84.652344 L 287.644531 84.652344 C 288.921875 84.652344 290 84.933594 290.875 85.449219 C 291.792969 86.007812 292.46875 86.722656 292.910156 87.636719 C 293.386719 88.550781 293.585938 89.585938 293.585938 90.777344 C 293.585938 91.972656 293.347656 93.007812 292.910156 93.921875 C 292.46875 94.835938 291.753906 95.550781 290.875 96.109375 C 290 96.664062 288.921875 96.945312 287.644531 96.945312 Z M 287.445312 94.320312 C 288.484375 94.320312 289.28125 94 289.800781 93.363281 C 290.316406 92.726562 290.597656 91.894531 290.597656 90.777344 C 290.597656 90.0625 290.476562 89.425781 290.238281 88.871094 C 290 88.351562 289.640625 87.914062 289.199219 87.636719 C 288.761719 87.359375 288.164062 87.199219 287.445312 87.199219 L 286.011719 87.199219 L 286.011719 94.277344 L 287.445312 94.277344 Z M 287.445312 94.320312 " fill-opacity="1" fill-rule="nonzero"/><path fill="#ffffff" d="M 303.476562 96.945312 L 298.050781 96.945312 C 297.652344 96.945312 297.296875 96.824219 297.015625 96.546875 C 296.738281 96.269531 296.617188 95.988281 296.617188 95.632812 L 296.617188 85.964844 C 296.617188 85.648438 296.738281 85.328125 297.015625 85.050781 C 297.296875 84.773438 297.613281 84.652344 298.050781 84.652344 L 303.476562 84.652344 C 303.914062 84.652344 304.234375 84.773438 304.511719 85.050781 C 304.789062 85.289062 304.910156 85.609375 304.910156 85.964844 C 304.910156 86.324219 304.789062 86.640625 304.511719 86.882812 C 304.234375 87.121094 303.875 87.277344 303.476562 87.277344 L 299.726562 87.277344 L 299.726562 89.507812 L 302.878906 89.507812 C 303.316406 89.507812 303.632812 89.625 303.914062 89.902344 C 304.191406 90.144531 304.3125 90.460938 304.3125 90.820312 C 304.3125 91.175781 304.191406 91.496094 303.914062 91.734375 C 303.632812 91.972656 303.277344 92.132812 302.878906 92.132812 L 299.726562 92.132812 L 299.726562 94.359375 L 303.515625 94.359375 C 303.953125 94.359375 304.273438 94.476562 304.550781 94.757812 C 304.832031 94.996094 304.949219 95.3125 304.949219 95.671875 C 304.949219 96.027344 304.832031 96.347656 304.550781 96.585938 C 304.234375 96.824219 303.914062 96.945312 303.476562 96.945312 Z M 303.476562 96.945312 " fill-opacity="1" fill-rule="nonzero"/><path fill="#ffffff" d="M 317.75 97.0625 C 317.351562 97.0625 316.992188 96.945312 316.671875 96.707031 C 316.355469 96.464844 316.234375 96.148438 316.234375 95.789062 L 316.234375 90.539062 L 314.398438 93.085938 C 314.121094 93.484375 313.722656 93.683594 313.242188 93.683594 C 312.726562 93.683594 312.285156 93.484375 312.007812 93.085938 L 310.414062 90.738281 L 310.414062 95.789062 C 310.414062 96.148438 310.292969 96.425781 310.015625 96.707031 C 309.734375 96.984375 309.417969 97.101562 308.976562 97.101562 C 308.539062 97.101562 308.21875 96.984375 307.941406 96.707031 C 307.660156 96.425781 307.542969 96.148438 307.542969 95.789062 L 307.542969 85.847656 C 307.542969 85.488281 307.660156 85.210938 307.941406 84.933594 C 308.21875 84.652344 308.539062 84.535156 308.976562 84.535156 C 309.496094 84.535156 309.894531 84.734375 310.171875 85.171875 L 313.324219 89.785156 L 316.632812 85.171875 C 316.914062 84.773438 317.3125 84.574219 317.789062 84.574219 C 318.226562 84.574219 318.546875 84.695312 318.824219 84.972656 C 319.105469 85.25 319.226562 85.527344 319.226562 85.886719 L 319.226562 95.832031 C 319.226562 96.1875 319.066406 96.507812 318.785156 96.746094 C 318.507812 96.945312 318.148438 97.0625 317.75 97.0625 Z M 317.75 97.0625 " fill-opacity="1" fill-rule="nonzero"/><path fill="#ffffff" d="M 328.078125 97.0625 C 327.121094 97.0625 326.28125 96.902344 325.566406 96.546875 C 324.847656 96.226562 324.25 95.75 323.769531 95.152344 C 323.292969 94.558594 322.933594 93.921875 322.695312 93.164062 C 322.453125 92.410156 322.335938 91.613281 322.335938 90.777344 C 322.335938 89.945312 322.453125 89.148438 322.695312 88.394531 C 322.933594 87.636719 323.292969 87 323.769531 86.402344 C 324.25 85.808594 324.847656 85.371094 325.566406 85.011719 C 326.28125 84.695312 327.121094 84.496094 328.078125 84.496094 C 329.035156 84.496094 329.871094 84.652344 330.589844 85.011719 C 331.304688 85.328125 331.902344 85.808594 332.382812 86.402344 C 332.859375 87 333.21875 87.636719 333.460938 88.394531 C 333.699219 89.148438 333.816406 89.945312 333.816406 90.777344 C 333.816406 91.613281 333.699219 92.410156 333.460938 93.164062 C 333.21875 93.921875 332.859375 94.558594 332.382812 95.152344 C 331.902344 95.75 331.304688 96.1875 330.589844 96.546875 C 329.871094 96.902344 329.035156 97.0625 328.078125 97.0625 Z M 328.078125 94.476562 C 328.992188 94.476562 329.710938 94.121094 330.191406 93.402344 C 330.628906 92.769531 330.828125 91.894531 330.828125 90.820312 C 330.828125 89.707031 330.628906 88.871094 330.191406 88.234375 C 329.710938 87.519531 328.992188 87.160156 328.078125 87.160156 C 327.121094 87.160156 326.441406 87.519531 325.964844 88.234375 C 325.523438 88.871094 325.324219 89.707031 325.324219 90.820312 C 325.324219 91.894531 325.523438 92.769531 325.964844 93.402344 C 326.441406 94.121094 327.160156 94.476562 328.078125 94.476562 Z M 328.078125 94.476562 " fill-opacity="1" fill-rule="nonzero"/></svg>