<svg xmlns="http://www.w3.org/2000/svg" xmlns:xlink="http://www.w3.org/1999/xlink" width="500" zoomAndPan="magnify" viewBox="0 0 375 374.999991" height="500" preserveAspectRatio="xMidYMid meet" version="1.0"><path fill="#000000" d="M 204.085938 70.445312 C 204.847656 69.007812 206.128906 68.550781 208.347656 68.550781 C 214.363281 68.550781 222.789062 74.265625 222.789062 82.519531 C 222.789062 88.300781 218.589844 82.457031 218.589844 82.453125 C 216.910156 80.722656 215.621094 78.820312 214.570312 77.71875 C 212.714844 75.769531 209.351562 73.1875 206.664062 72.363281 C 206.125 72.195312 205.441406 72.085938 205.027344 71.867188 C 204.15625 71.410156 204.425781 71.199219 204.085938 70.441406 Z M 153.1875 47.480469 C 153.726562 45.164062 157.246094 42.8125 159.4375 41.894531 C 170.359375 37.332031 183.015625 41.695312 183.015625 47.480469 L 183.015625 48.1875 C 179.058594 48.1875 179.117188 47.945312 175.480469 47.4375 C 169.0625 46.546875 166.941406 46.40625 160.3125 47.738281 C 159.0625 47.984375 157.996094 48.109375 156.507812 48.195312 C 154.578125 48.3125 154.371094 48.839844 153.1875 47.480469 Z M 102.757812 74.230469 C 102.757812 80.910156 108.152344 89.207031 112.640625 93.703125 C 117.175781 98.242188 125.816406 103.351562 132.585938 103.351562 C 139.289062 103.351562 142.925781 102.636719 149.011719 100.601562 C 157.65625 97.707031 172.402344 90.996094 180.722656 86.378906 C 181.488281 85.957031 182.722656 85.089844 183.488281 84.886719 C 183.589844 89.554688 190.21875 100.226562 193.722656 104.007812 L 199.050781 109.570312 C 199.910156 110.433594 202.628906 112.863281 203.652344 112.925781 C 207 113.125 204.453125 107.894531 206.445312 105.476562 C 208.4375 103.050781 215.472656 101.316406 218.597656 101.855469 C 226.640625 103.25 228.675781 108.234375 231.125 97.957031 C 233.714844 87.082031 232.078125 77.222656 224.148438 69.320312 C 218.628906 63.816406 212.25 59.300781 203.648438 60.539062 C 202.808594 60.65625 201.949219 60.953125 201.007812 60.976562 C 201.007812 52.988281 199.386719 49.859375 194.820312 44.199219 C 188.21875 36.019531 175.6875 32.546875 165.039062 34.714844 C 157.550781 36.234375 149.902344 39.429688 144.488281 44.703125 L 141.878906 47.066406 C 138.597656 50.347656 134.988281 54.089844 130.941406 56.488281 C 129.871094 57.125 128.808594 57.835938 127.613281 58.367188 C 119.265625 62.058594 120.863281 61.15625 112.492188 63.605469 C 108.648438 64.730469 105.691406 66.40625 103.871094 70.140625 C 103.488281 70.925781 102.757812 73.226562 102.757812 74.230469 Z M 102.757812 74.230469 " fill-opacity="1" fill-rule="evenodd"/><path fill="#000000" d="M 135.667969 363.539062 C 135.867188 361.101562 136.582031 358.304688 136.863281 355.71875 C 137.585938 348.984375 137.4375 336.0625 137.070312 329.515625 C 139.820312 328.988281 143.050781 327.835938 145.785156 327.03125 C 158.070312 323.414062 175.738281 318.328125 186.40625 312.007812 C 188.992188 310.472656 191.253906 309.351562 189.3125 305.402344 L 185.855469 297.722656 C 184.851562 296.566406 183.808594 293.839844 182.070312 293.699219 C 181.054688 295.617188 182.078125 298.757812 182.695312 300.882812 C 183.277344 302.886719 184.074219 305.847656 184.910156 307.429688 C 168.46875 316.125 161.953125 316.6875 145.105469 322.078125 L 130.929688 326.132812 C 130.820312 324.777344 129.886719 321.601562 129.480469 320.242188 C 127.714844 314.292969 126.464844 308.78125 124.390625 302.601562 L 120.902344 291.179688 C 120.300781 289.339844 117.796875 281.828125 115.304688 281.621094 C 113.933594 282.925781 114.679688 286.261719 115.152344 287.691406 C 115.828125 289.726562 116.320312 291.359375 116.867188 293.554688 C 117.40625 295.726562 117.957031 297.515625 118.589844 299.40625 C 119.234375 301.335938 119.835938 303.125 120.546875 305.023438 C 121.753906 308.242188 127.851562 324.671875 127.851562 328.023438 C 126.734375 328.285156 127.027344 328.601562 124.410156 329.082031 C 122.265625 329.46875 118.277344 328.921875 116.265625 328.480469 C 108.976562 326.882812 108.164062 323.808594 105.394531 316.386719 C 102.359375 308.253906 98.796875 297.246094 96.28125 288.808594 L 90.125 267.5 C 89.394531 264.972656 88.898438 262.753906 88.164062 260.230469 L 84.136719 246.027344 C 82.894531 241.707031 80.636719 235.515625 79.792969 231.902344 C 84.339844 234.082031 95.667969 229.722656 100.867188 227.644531 C 115.546875 221.78125 124.472656 217.59375 138.351562 211.386719 C 147.53125 207.28125 147.101562 209.628906 150.664062 217.617188 C 153.734375 224.5 158.339844 240.03125 160.285156 243.980469 C 160.773438 244.96875 161.039062 246.230469 162.421875 246.34375 C 163.375 242.242188 162.164062 237.546875 161.234375 233.558594 C 163.761719 234.769531 170.84375 237.082031 174.222656 238.328125 C 182.324219 241.324219 190.402344 246.367188 197.125 251.648438 L 199.425781 253.605469 C 199.863281 253.976562 199.917969 253.945312 200.355469 254.332031 L 219.371094 271.542969 C 227.578125 277.675781 232.429688 280.652344 241.964844 284.933594 C 251.820312 289.359375 258.164062 291.386719 268.953125 293.929688 C 275.285156 295.421875 279.542969 295.195312 285.527344 294.871094 C 286.515625 294.820312 287.617188 294.894531 288.617188 294.882812 C 289.800781 294.867188 290.261719 294.636719 291.449219 294.636719 C 291.265625 294.507812 291.328125 294.523438 290.988281 294.382812 L 286.761719 293.164062 C 277.542969 290.589844 270.242188 290.128906 261.289062 287.152344 C 260.1875 286.785156 252.949219 284.464844 251.910156 283.746094 C 245.800781 282.613281 229.824219 273.050781 224.898438 268.847656 L 220.019531 264.496094 C 216.519531 260.796875 207.59375 252.199219 203.617188 248.710938 C 191.722656 238.28125 182.054688 234.492188 167.125 229.792969 C 159.421875 227.367188 159.929688 228.972656 159.125 226.210938 C 157.746094 221.5 154.097656 211.449219 151.613281 207.910156 C 149.253906 204.554688 147.699219 205.160156 146.171875 204.199219 C 140.316406 204.199219 134.46875 207.136719 129.28125 209.414062 C 116.457031 215.039062 105.703125 219.417969 92.746094 224.488281 C 82.058594 228.671875 80.746094 227.753906 71.460938 221.527344 C 65.492188 217.523438 52.246094 208.746094 46.652344 205.851562 L 41.816406 203.351562 C 38.8125 202.109375 36.863281 200.824219 33.144531 200.871094 C 29.070312 200.917969 26.109375 204.472656 25.007812 207.652344 C 21.695312 217.222656 29.71875 238.097656 34.167969 248.402344 C 34.980469 250.277344 35.570312 251.980469 36.46875 253.679688 C 34.839844 253.300781 34.234375 252.902344 34.304688 255.089844 C 34.34375 256.328125 34.789062 257.378906 35.246094 258.21875 C 38.234375 263.691406 49.507812 269.078125 55.726562 270.878906 C 58.207031 271.597656 59.746094 271.875 62.605469 272.285156 C 65.214844 272.660156 74.734375 271.992188 74.820312 268.121094 C 71.59375 266.414062 66.238281 268.546875 56.382812 265.25 C 55.175781 264.851562 53.878906 264.328125 52.644531 263.777344 C 46.761719 261.148438 46.230469 260.101562 42.148438 257.941406 C 42.378906 257.078125 42.550781 257.425781 42.78125 256.421875 C 43.0625 255.183594 41.957031 252.6875 41.527344 251.457031 L 38.035156 242.167969 C 35.390625 234.746094 32.375 227.609375 30.761719 219.609375 C 30.121094 216.4375 29.304688 211.710938 30.636719 208.550781 C 31.042969 207.589844 31.746094 206.6875 32.664062 206.308594 C 36.371094 204.777344 52.351562 215.414062 55.394531 217.230469 C 56.253906 217.742188 57.078125 218.332031 57.960938 218.925781 L 73.5 228.953125 C 74.527344 229.574219 75.226562 229.941406 76.238281 230.476562 C 74.976562 233.109375 80.285156 251.394531 81.210938 255.101562 C 83.21875 263.128906 85.347656 271.152344 87.628906 278.984375 C 89.667969 285.972656 94.121094 301.140625 96.699219 307.796875 C 97.09375 308.8125 97.335938 309.511719 97.691406 310.589844 C 98.050781 311.679688 98.382812 312.414062 98.699219 313.367188 C 99.441406 315.585938 102.019531 322.394531 102.992188 324.230469 C 98.726562 324.230469 76.488281 316.46875 71.421875 313.894531 L 61.796875 309.316406 C 61.839844 311.308594 64 312.929688 65.277344 313.882812 C 72.839844 319.492188 84.257812 323.703125 93.375 326.746094 L 102.609375 329.582031 C 107.25 330.789062 104.34375 328.253906 107.351562 330.523438 C 107.808594 330.871094 108.164062 331.09375 108.625 331.382812 C 112.789062 334 120.632812 334.851562 125.914062 333.421875 C 128.78125 332.644531 129.792969 331.304688 131.164062 330.386719 C 131.164062 333.492188 130.929688 336.269531 130.929688 339.621094 C 130.929688 343.074219 131.171875 345.835938 131.160156 349.09375 L 131.734375 358.226562 C 131.941406 359.710938 132.097656 360.90625 132.4375 362.261719 C 132.65625 363.136719 133.277344 365.425781 134.242188 365.425781 C 135.4375 365.109375 135.183594 364.527344 135.664062 363.53125 Z M 135.667969 363.539062 " fill-opacity="1" fill-rule="evenodd"/><path fill="#000000" d="M 186.332031 207.070312 C 185.484375 206.371094 184.679688 205.363281 184.015625 204.394531 C 183.300781 203.351562 182.582031 202.472656 181.769531 201.425781 C 181.070312 200.519531 180.292969 199.457031 179.621094 198.601562 C 178.890625 197.675781 177.851562 196.621094 177.390625 195.683594 C 176.644531 194.78125 174.273438 192.128906 174.019531 191.183594 C 175.246094 190.59375 180.769531 189.222656 186.171875 186.527344 C 186.894531 186.167969 187.386719 185.945312 188.035156 185.550781 C 188.625 185.191406 189.21875 184.734375 189.882812 184.554688 C 190.109375 185.40625 191.503906 187.226562 192.058594 188.058594 C 193.757812 190.609375 194.820312 192.261719 196.800781 194.679688 C 197.6875 195.761719 198.609375 196.703125 199.351562 197.8125 C 198.960938 199.273438 190.765625 208.265625 188.699219 209.648438 C 187.898438 209.113281 186.871094 207.828125 186.332031 207.066406 Z M 221.84375 206.574219 C 220.230469 206.441406 215.085938 202.964844 213.601562 202.027344 L 205.742188 197.105469 C 205.96875 196.261719 208.867188 193.136719 209.5 192.339844 L 216.964844 182.757812 C 218.214844 180.9375 219.390625 179.398438 220.421875 177.453125 C 222.644531 177.972656 225 178.953125 227.101562 179.535156 C 229.46875 180.1875 231.667969 181.191406 233.917969 181.714844 C 233.378906 182.730469 232.820312 183.453125 232.160156 184.457031 C 228.515625 190.027344 225.378906 198.753906 222.625 204.988281 C 222.316406 205.679688 222.03125 205.867188 221.84375 206.574219 Z M 169.996094 192.605469 C 172.382812 193.769531 182.164062 207.851562 184.375 210.902344 C 185.296875 212.175781 186.890625 214.234375 189.359375 213.882812 C 193.570312 213.28125 201.101562 203.015625 202.429688 202.128906 C 202.429688 201.765625 202.328125 201.839844 202.664062 201.839844 L 203.171875 201.15625 L 203.613281 201.574219 C 204.425781 201.8125 205.738281 202.871094 206.375 203.34375 L 214.484375 208.730469 C 225.3125 215.21875 226.671875 210.582031 232.296875 196.183594 C 233.910156 192.050781 235.808594 187.117188 237.144531 182.910156 L 243.386719 182.871094 L 244.808594 182.902344 C 259.753906 182.847656 272.816406 187.570312 283.472656 196.085938 C 284.371094 196.804688 285.132812 197.644531 285.960938 198.335938 C 289.164062 201.015625 292.070312 204.617188 294.964844 208.261719 C 302.96875 218.339844 309.617188 232.65625 314.253906 245.550781 C 315.425781 248.8125 318.199219 256.984375 318.449219 260.390625 C 312.648438 262.898438 312.511719 263.132812 305.847656 264.757812 C 301.121094 265.910156 296.210938 266.78125 291.207031 267.140625 C 282.507812 267.761719 275.328125 267.578125 266.800781 266.457031 C 264.382812 266.136719 261.648438 265.667969 259.25 265.523438 C 258.027344 265.417969 258.796875 265.757812 258.539062 265.019531 C 257.601562 263.898438 255.101562 249.386719 252.699219 249.992188 C 251.171875 250.382812 252.160156 256.769531 252.304688 258.117188 C 252.59375 260.84375 252.824219 263.628906 253.15625 266.421875 L 254.414062 281.488281 C 254.605469 282.34375 254.832031 282.476562 254.96875 283.28125 C 256.207031 284.074219 256.882812 285.117188 258.746094 283.960938 C 259.832031 283.289062 260.300781 281.765625 260.425781 280.191406 C 260.695312 276.734375 259.484375 273.496094 259.484375 270.023438 C 260.601562 270.113281 261.4375 270.519531 262.507812 270.785156 C 267.023438 271.890625 271.675781 271.921875 276.359375 272.5625 C 277.640625 272.738281 278.925781 272.53125 280.21875 272.726562 C 282.453125 273.066406 285.523438 273.066406 287.757812 272.726562 L 295.039062 272.195312 C 301.664062 271.445312 308.636719 270.179688 314.675781 268.160156 C 326.671875 264.144531 326.574219 263.011719 321.070312 246.550781 L 317.894531 237.890625 C 316.351562 234.042969 314.871094 230.457031 313.070312 226.855469 C 309.390625 219.507812 302.273438 206.777344 296.242188 200.832031 C 294.625 199.234375 293.234375 197.386719 291.503906 195.863281 C 279.625 185.402344 267.660156 179.878906 251.6875 178.625 C 250.507812 178.53125 249.648438 178.402344 248.121094 178.398438 C 245.636719 178.390625 243.066406 178.554688 240.773438 179.105469 L 237.703125 180.058594 C 237.507812 179.316406 237.734375 179.722656 237.109375 179.234375 C 234.8125 177.433594 222.175781 173.429688 219.476562 173.429688 C 216.84375 162.132812 217.191406 161.226562 215.648438 150.269531 C 215.390625 148.4375 215.011719 146.488281 214.476562 144.8125 C 214.328125 144.347656 213.660156 142.636719 213.640625 142.386719 C 213.613281 142.066406 214.992188 135.851562 214.984375 133.425781 C 214.976562 131.566406 215.0625 128.191406 214.503906 127.027344 C 221.492188 127.027344 229.09375 119.191406 225.714844 112.265625 C 223.476562 107.683594 218.210938 103.441406 212.808594 105.449219 C 211.246094 106.03125 209.101562 106.816406 209.058594 108.800781 C 211.679688 109.410156 213.820312 107.253906 217.273438 109.109375 C 219.300781 110.199219 221.171875 112.355469 221.859375 114.707031 C 222.964844 118.5 218.449219 122.457031 214.988281 122.542969 C 212.339844 122.605469 208.101562 121.472656 209.332031 126.03125 C 209.667969 127.28125 210.011719 128.90625 210.015625 130.570312 C 210.019531 134.351562 209.804688 136.914062 209.109375 139.863281 C 207.984375 144.613281 203.523438 150.003906 206.414062 149.984375 C 207.414062 149.976562 209.226562 148.746094 210.003906 148.335938 C 210.003906 153.050781 210.753906 158.34375 211.640625 162.796875 C 212.109375 165.140625 212.472656 167.210938 213.109375 169.378906 C 213.652344 171.21875 214.238281 173.8125 215.054688 175.480469 C 216.195312 177.800781 215.238281 177.894531 213.285156 180.496094 C 212.101562 182.078125 211.035156 183.492188 209.835938 185.097656 C 208.949219 186.289062 203.800781 193.195312 202.664062 194.027344 C 199.882812 189.871094 196.742188 185.863281 193.953125 181.667969 C 192.53125 179.53125 191.636719 177.089844 190.308594 174.894531 C 189.535156 173.613281 186.328125 169.34375 186.09375 168.457031 C 188.511719 167.8125 190.660156 164.648438 191.773438 162.539062 C 187.550781 163.523438 184.15625 165.390625 178.984375 165.386719 C 171.375 165.378906 165.339844 161.5 159.910156 157.234375 L 157.738281 155.382812 C 155.429688 153.246094 153.070312 151 151.085938 148.539062 L 148.414062 145.289062 C 142.417969 137.792969 136.058594 126.105469 133.71875 116.898438 C 133.195312 114.832031 132.632812 112.957031 132.011719 110.792969 C 131.382812 108.582031 131.0625 106.429688 128.324219 106.429688 C 126.910156 108.542969 126.960938 109.535156 127.558594 112.167969 C 128.871094 117.910156 130.835938 124.011719 133.375 129.082031 C 134.195312 130.722656 134.9375 132.4375 135.855469 133.941406 C 136.371094 134.792969 136.683594 135.484375 137.21875 136.367188 C 143.023438 145.933594 149.136719 154.058594 157.386719 161.414062 C 160.621094 164.296875 164.734375 166.992188 168.839844 168.667969 C 170.691406 169.421875 172.445312 170.007812 174.6875 170.394531 C 175.871094 170.59375 176.796875 170.585938 178.277344 170.59375 C 179.789062 170.59375 180.71875 170.378906 181.828125 170.355469 C 182.308594 171.257812 182.78125 171.902344 183.351562 172.855469 C 183.921875 173.804688 184.289062 174.429688 184.835938 175.402344 C 185.472656 176.542969 187.40625 179.757812 187.511719 181.007812 C 185.628906 181.910156 177.164062 184.65625 174.777344 185.324219 C 172.359375 186 165.40625 186.40625 167.855469 190.25 C 168.417969 191.132812 169.378906 191.695312 169.992188 192.609375 Z M 169.996094 192.605469 " fill-opacity="1" fill-rule="evenodd"/><path fill="#000000" d="M 74.347656 142.890625 C 71.425781 142.890625 68.960938 143.34375 68.191406 140.046875 C 69.816406 140.082031 70.632812 140.746094 74.5 139.488281 C 76.402344 138.875 76.882812 138.46875 78.375 137.679688 C 78.105469 138.832031 78.703125 142.886719 74.347656 142.886719 Z M 64.40625 130.578125 C 68.089844 132.527344 71.347656 131.933594 74.589844 129.398438 C 75.246094 128.886719 75.441406 128.425781 76.242188 128.210938 C 76.242188 129.636719 76.714844 130.335938 76.714844 131.761719 C 76.714844 136.046875 68.765625 137.375 65.894531 134.535156 C 65.074219 133.71875 64.582031 131.964844 64.40625 130.582031 Z M 53.753906 89.382812 C 47.742188 90.785156 50.085938 101.960938 52.492188 106.269531 C 52.8125 106.839844 53.207031 107.535156 53.585938 108.015625 C 54.003906 108.550781 54.410156 109.117188 54.867188 109.578125 C 55.472656 110.179688 55.792969 110.257812 56.417969 110.871094 C 57.25 111.691406 57.117188 111.878906 58.25 111.636719 C 58.226562 110.492188 57.484375 109.140625 57.066406 108.324219 C 54.78125 103.839844 53.992188 100.695312 53.992188 95.539062 C 53.992188 94.722656 54.164062 94.625 54.226562 93.882812 L 54.699219 93.882812 C 54.828125 95.417969 56.421875 98.058594 57.203125 99.191406 C 58.734375 101.40625 62.039062 103.964844 64.351562 101.167969 C 66.480469 98.589844 64.542969 94.953125 62.992188 92.929688 C 62 91.632812 60.082031 90.046875 58.25 89.621094 C 58.25 88.882812 58.148438 88.035156 58.34375 87.34375 C 59.210938 84.277344 63.683594 86.949219 66.132812 92.628906 C 67.90625 96.746094 68.164062 98.328125 69.234375 102.550781 L 73.402344 124.1875 C 71.136719 125.703125 69.070312 128.742188 65.292969 124.957031 C 62.335938 122.003906 65.070312 122.625 58.011719 117.320312 C 52.582031 113.238281 45.359375 109.671875 40.222656 105.519531 C 38.457031 104.09375 36.765625 102.242188 35.472656 100.324219 C 30.09375 92.335938 29.261719 78.484375 34.527344 70.632812 C 34.976562 69.964844 35.269531 69.421875 35.816406 68.839844 C 47.628906 56.226562 70.363281 58.359375 79.609375 72.050781 C 87.402344 83.589844 78.386719 96.003906 75.207031 105.867188 C 75.160156 106.015625 75.042969 106.40625 74.972656 106.582031 L 74.585938 107.375 C 74.585938 105.757812 73.566406 100.75 73.167969 99.085938 C 71.898438 93.808594 70.078125 89.636719 66.8125 85.558594 C 66.1875 84.777344 64.945312 83.96875 64.03125 83.367188 C 59.136719 80.125 53.75 83.03125 53.75 89.382812 Z M 25.578125 83.703125 C 25.578125 99.636719 32.75 108.265625 45.390625 115.738281 C 46.515625 116.402344 47.335938 116.957031 48.472656 117.632812 L 54.703125 121.582031 C 56.992188 123.113281 58.671875 124.140625 60.125 126.363281 C 61.324219 128.199219 57.945312 128.96875 60.851562 134.847656 C 62.125 137.425781 63.09375 137.632812 63.339844 138.273438 C 63.613281 138.980469 63.359375 140.789062 64.398438 142.898438 C 65.117188 144.355469 65.679688 145.257812 67.167969 146.050781 C 70.449219 147.796875 76.78125 148.15625 80.332031 144.609375 C 82.628906 142.316406 82.59375 138.5625 81.300781 135.9375 C 80.070312 133.445312 80.980469 135.570312 80.980469 131.761719 C 80.980469 128.183594 77.894531 124.46875 77.554688 123.585938 C 76.203125 120.082031 76.921875 119.070312 77.804688 115.566406 C 80.582031 104.527344 88.554688 93.671875 88.554688 83.703125 C 88.554688 77.941406 88.027344 74.921875 85.050781 70.160156 C 81.554688 64.574219 75.175781 59.648438 68.9375 57.390625 C 58.640625 53.660156 47.933594 54.445312 38.4375 60.101562 C 29.90625 65.179688 25.578125 73.644531 25.578125 83.699219 Z M 25.578125 83.703125 " fill-opacity="1" fill-rule="evenodd"/><path fill="#000000" d="M 193.433594 295.828125 C 193.769531 295.828125 193.671875 295.753906 193.671875 296.113281 C 195.882812 297.367188 206.976562 309.210938 210.804688 312.542969 C 213.753906 315.109375 216.785156 317.765625 219.773438 320.394531 C 221.386719 321.816406 222.820312 322.882812 224.421875 324.261719 C 225.148438 324.890625 225.980469 325.597656 226.777344 326.171875 C 227.582031 326.75 228.371094 327.609375 229.179688 328.023438 L 229.65625 328.5 L 229.890625 328.75 L 230.128906 328.75 L 230.367188 328.972656 L 230.605469 329.207031 L 230.839844 329.472656 L 231.078125 329.472656 L 231.316406 329.683594 L 231.550781 329.917969 L 231.789062 330.1875 L 232.027344 330.1875 C 232.339844 330.148438 232.265625 330.078125 232.265625 330.394531 L 232.5 330.632812 L 232.738281 330.882812 L 232.976562 330.882812 L 233.210938 331.105469 L 233.449219 331.339844 L 233.6875 331.585938 L 233.925781 331.585938 L 234.160156 331.816406 L 234.398438 332.082031 L 240.410156 336.21875 C 242.4375 337.554688 244.511719 339.039062 246.621094 340.425781 C 250.828125 343.203125 254.828125 345.640625 259.410156 348.242188 C 266.015625 351.996094 274.214844 355.410156 282.035156 356.632812 C 285.375 357.15625 288.667969 356.890625 291.691406 357.292969 C 292.300781 357.101562 291.921875 357.03125 292.242188 357.621094 C 292.898438 360.582031 293.867188 362.75 295.273438 364.722656 C 297.148438 364.722656 297.382812 363.8125 297.382812 361.417969 C 297.386719 360.054688 297.292969 357.25 296.902344 356.4375 C 297.816406 355.996094 298.894531 355.796875 299.953125 355.460938 C 310.921875 352 319.753906 343.566406 323.996094 332.863281 C 329.539062 318.871094 329.78125 303.28125 327.308594 288.386719 C 326.703125 284.742188 323.03125 268.074219 317.945312 267.90625 C 316.816406 267.871094 315.921875 268.929688 315.691406 269.890625 C 315.378906 271.191406 317.300781 274.71875 317.773438 275.902344 C 319.496094 280.21875 320.636719 284.507812 321.457031 289.261719 C 322.722656 296.566406 322.917969 301.507812 322.949219 308.855469 C 322.972656 314.203125 321.789062 322.421875 320.136719 327.347656 C 317.167969 336.171875 313.488281 341.894531 305.902344 346.96875 C 303.007812 348.902344 297.648438 350.992188 293.3125 351.425781 C 285.351562 352.222656 275.945312 350.039062 269.121094 346.570312 C 263.980469 343.957031 260.449219 342.421875 255.328125 339.054688 C 253.582031 337.90625 251.933594 336.953125 250.261719 335.839844 L 245.195312 332.378906 C 243.402344 331.191406 241.921875 330.128906 240.183594 328.871094 C 230.015625 321.519531 226.289062 318.40625 216.476562 310.199219 C 213.945312 308.082031 202.6875 297.152344 201.324219 295.519531 C 199.074219 292.828125 193.523438 287.230469 189.898438 285.878906 C 186.382812 284.566406 178.414062 286.40625 174.996094 287.085938 C 170.097656 288.0625 165.316406 288.492188 159.8125 288.949219 C 157.296875 289.15625 153.917969 288.949219 151.296875 288.964844 C 149.582031 288.972656 148.933594 288.710938 147.285156 288.71875 C 145.859375 288.726562 144.4375 288.730469 143.015625 288.722656 C 141.867188 288.71875 139.527344 288.382812 140.539062 289.484375 C 141.042969 290.035156 142.550781 290.671875 143.351562 290.996094 C 151.265625 294.160156 161.253906 294.054688 169.671875 292.886719 C 173.382812 292.375 177.542969 291.65625 181.132812 291.566406 C 188.671875 291.375 186.765625 290.417969 192.398438 294.738281 C 192.949219 295.164062 193.09375 295.308594 193.445312 295.828125 Z M 193.433594 295.828125 " fill-opacity="1" fill-rule="evenodd"/><path fill="#000000" d="M 297.601562 151.648438 C 297.601562 149.515625 297.511719 150.652344 297.839844 149.992188 C 298.605469 150.503906 298.28125 150.488281 298.894531 151.066406 C 300.183594 152.28125 301.777344 153.070312 303.757812 153.070312 C 302.171875 155.4375 297.601562 152.835938 297.601562 151.648438 Z M 300.679688 145.730469 C 300.679688 144.832031 300.972656 144.128906 301.152344 143.363281 C 302.398438 144.796875 303.425781 147.039062 308.019531 145.96875 C 305.480469 149.761719 300.679688 148.515625 300.679688 145.730469 Z M 314.171875 111.402344 C 311.605469 111.402344 310.605469 112.15625 309.683594 113.773438 C 308.921875 115.105469 307.910156 117.339844 308.257812 118.976562 C 309.488281 118.875 309.332031 118.429688 310.488281 116.945312 C 311.136719 116.113281 311.71875 115.25 312.519531 114.714844 C 312.367188 116.507812 309.8125 121.007812 311.636719 124.359375 C 314.34375 129.339844 319.738281 122.855469 318.027344 116.070312 C 317.652344 114.578125 316.5625 114.503906 318.335938 111.773438 C 318.800781 111.046875 318.980469 110.449219 319.855469 110.21875 C 320.742188 110.863281 320.902344 113.5625 320.707031 114.851562 C 320.425781 116.734375 320.351562 118.039062 319.953125 119.78125 C 319.449219 121.964844 317.300781 128.917969 316.335938 130.371094 C 314.976562 132.425781 312.886719 133.519531 310.617188 138.855469 C 309.667969 141.085938 309.175781 141.703125 306.597656 141.703125 C 304.445312 141.703125 306.5625 136.628906 306.601562 136.496094 C 308.214844 131.210938 306.585938 125.472656 305.273438 120.300781 C 303.28125 112.472656 302.136719 102.578125 306.457031 95.394531 C 309.664062 90.066406 312.992188 89.621094 317.960938 89.621094 C 324.546875 89.621094 334.535156 98.910156 334.535156 106.902344 C 334.535156 111.183594 331.957031 115.019531 329.492188 117.960938 C 329.058594 118.480469 322.0625 125.570312 321.039062 125.84375 C 321.410156 124.25 326.507812 114.835938 323.402344 108.804688 C 323.140625 108.292969 322.65625 107.585938 322.136719 107.226562 C 318.519531 104.734375 315.578125 108.746094 314.175781 111.402344 Z M 297.601562 106.429688 C 297.601562 115.683594 298.621094 119.050781 301.050781 127.601562 C 301.863281 130.449219 302.097656 131.828125 302.097656 134.839844 C 302.097656 135.167969 300.835938 138.640625 300.117188 139.25 C 297.242188 141.679688 296.652344 143.179688 296.652344 147.152344 C 295.757812 147.390625 295.394531 148.101562 294.996094 148.808594 C 291.515625 154.953125 302.21875 160.695312 306.167969 155.484375 C 306.65625 154.839844 306.765625 154.40625 306.960938 153.433594 C 307.546875 150.5 308.152344 153.496094 311.289062 148.769531 C 314.898438 143.335938 310.140625 142.984375 314.707031 138.457031 C 317.148438 136.035156 316.980469 135.5 320.695312 132.609375 C 321.519531 131.96875 322.171875 131.410156 322.929688 130.816406 C 324.394531 129.671875 325.945312 128.472656 327.367188 127.203125 C 330.375 124.53125 331.679688 123.644531 334.363281 120.472656 C 334.765625 120 334.992188 119.878906 335.382812 119.359375 C 341.773438 110.839844 341.371094 102.367188 335.109375 94.015625 L 329.359375 88.402344 C 313.675781 76.640625 297.597656 88.601562 297.597656 106.429688 Z M 297.601562 106.429688 " fill-opacity="1" fill-rule="evenodd"/><path fill="#000000" d="M 40.019531 199 C 41.175781 199 45.421875 200.234375 46.679688 200.625 L 59.265625 205.085938 C 66.964844 208.148438 74.382812 212.339844 81.011719 217.191406 C 88.722656 222.828125 83.925781 221.191406 96.292969 214.3125 C 108.632812 207.445312 114.335938 206.15625 127.839844 205.140625 C 129.046875 205.046875 134.246094 204.746094 134.246094 203.257812 C 134.246094 202.308594 133.859375 202.066406 133.21875 201.683594 C 125.964844 197.351562 107.707031 203.15625 102.761719 205.394531 C 99.589844 206.832031 96.625 208.265625 93.660156 210.023438 C 92.089844 210.957031 90.90625 211.652344 89.363281 212.59375 C 84.425781 215.605469 88.609375 214.964844 76.5625 208.386719 C 70.148438 204.886719 64.714844 202.101562 57.441406 200.042969 C 53.980469 199.066406 45.273438 196.914062 41.175781 198.027344 C 40.265625 198.273438 40.234375 198.199219 40.019531 199 Z M 40.019531 199 " fill-opacity="1" fill-rule="evenodd"/><path fill="#000000" d="M 29.367188 244.21875 C 29.367188 243.671875 29.199219 243.507812 28.65625 243.507812 C 26.964844 243.507812 25.152344 252.003906 25.097656 254.390625 C 25.085938 254.929688 25.136719 255.507812 25.089844 256.042969 C 24.851562 258.886719 25.007812 258.074219 25.097656 261.269531 C 25.316406 269.289062 29.242188 283.789062 33.355469 289.710938 C 40.679688 300.25 55.117188 304.835938 67.347656 306.855469 C 69.503906 307.210938 71.503906 307.75 73.625 307.933594 C 79.585938 308.4375 78.382812 305.203125 72.03125 303.589844 C 68.171875 302.609375 64.238281 301.730469 60.46875 300.476562 C 50.5 297.148438 39.832031 291.640625 35.621094 281.527344 C 32.375 273.730469 29.316406 259.886719 29.367188 251.082031 C 29.378906 249.578125 29.113281 248.941406 29.113281 247.769531 C 29.113281 246.597656 29.367188 245.753906 29.367188 244.21875 Z M 29.367188 244.21875 " fill-opacity="1" fill-rule="evenodd"/><path fill="#000000" d="M 123.117188 258.421875 C 123.117188 261.296875 133.042969 261.972656 136.613281 261.972656 C 148.582031 261.972656 167.792969 256.550781 175.976562 248.539062 C 176.925781 247.613281 177.207031 247.804688 176.859375 246.347656 C 174.457031 245.773438 172.070312 246.882812 169.492188 247.738281 C 167.449219 248.417969 165.617188 249.066406 163.511719 249.808594 C 154.828125 252.875 142.101562 254.804688 132.609375 255.601562 C 130.808594 255.753906 123.117188 256.175781 123.117188 258.421875 Z M 123.117188 258.421875 " fill-opacity="1" fill-rule="evenodd"/><path fill="#000000" d="M 127.378906 269.550781 C 127.378906 272.105469 134.890625 272.625 137.558594 272.625 C 142.714844 272.625 150.03125 270.558594 154.753906 268.984375 C 156.132812 268.527344 157.417969 268.132812 158.660156 267.683594 L 167.792969 263.796875 C 168.589844 263.382812 168.964844 263.226562 169.050781 262.207031 C 167.476562 261.15625 165.671875 261.9375 162.652344 262.441406 C 158.105469 263.199219 152.410156 264.660156 147.476562 265.492188 C 145.699219 265.792969 144.226562 266.027344 142.398438 266.332031 L 131.710938 267.722656 C 130.464844 267.902344 127.382812 268.105469 127.382812 269.546875 Z M 127.378906 269.550781 " fill-opacity="1" fill-rule="evenodd"/><path fill="#000000" d="M 130.457031 281.386719 C 131.1875 282.761719 132.136719 283.242188 133.738281 283.789062 C 136.511719 284.730469 138.863281 284.445312 141.359375 284.238281 C 142.265625 284.164062 143.269531 284.285156 144.175781 284.214844 C 145.6875 284.089844 147.65625 283.875 149.265625 283.621094 C 154.023438 282.875 159.75 280.882812 163.894531 278.363281 C 164.628906 277.917969 164.9375 277.695312 165.023438 276.648438 C 162.894531 275.523438 154.75 277.175781 151.933594 277.527344 C 148.667969 277.9375 140.890625 278.542969 137.789062 278.535156 C 136.230469 278.53125 134.636719 278.871094 133.5 279.21875 C 131.925781 279.703125 131.164062 280.050781 130.457031 281.382812 Z M 130.457031 281.386719 " fill-opacity="1" fill-rule="evenodd"/><path fill="#000000" d="M 39.546875 20.726562 C 39.546875 22.953125 40.558594 25.007812 41.359375 26.726562 C 42.464844 29.089844 47.929688 41.796875 49.25 41.796875 C 51.21875 41.796875 50.910156 39.492188 50.910156 37.773438 C 50.910156 35.675781 50.464844 33.417969 50.054688 31.523438 C 49.609375 29.460938 49.261719 27.496094 48.632812 25.609375 C 47.925781 23.484375 46.867188 19.917969 45 18.585938 C 41.511719 16.097656 39.542969 18.214844 39.542969 20.730469 Z M 39.546875 20.726562 " fill-opacity="1" fill-rule="evenodd"/><path fill="#000000" d="M 174.257812 139.335938 C 174.257812 136.515625 170.550781 137.289062 169.613281 136.167969 C 168.625 134.988281 168.011719 131.570312 167.679688 130.289062 C 166.566406 126 165.453125 122.800781 162.824219 119.28125 C 162.351562 118.648438 162.15625 118.417969 161.65625 117.847656 C 160.664062 116.710938 159.152344 114.695312 157.210938 114.242188 C 157.210938 116.058594 158.101562 117.328125 158.664062 118.707031 C 161.902344 126.664062 160.652344 124.1875 162.5625 132.566406 C 163.300781 135.804688 164.324219 138.695312 166.605469 140.359375 C 167.542969 141.046875 169.4375 141.980469 170.898438 141.878906 C 172.265625 141.785156 174.257812 140.875 174.257812 139.335938 Z M 174.257812 139.335938 " fill-opacity="1" fill-rule="evenodd"/><path fill="#000000" d="M 84.765625 51.742188 C 87.226562 51.742188 94.472656 42.597656 96.421875 40.433594 C 97.808594 38.886719 101.8125 33.425781 101.8125 31.617188 C 101.8125 30.410156 100.765625 29.671875 98.902344 30.359375 C 97.53125 30.863281 96.523438 31.402344 95.429688 32.101562 C 93.25 33.492188 91.753906 35.320312 90.433594 37.523438 C 90.015625 38.214844 82.863281 51.742188 84.765625 51.742188 Z M 84.765625 51.742188 " fill-opacity="1" fill-rule="evenodd"/><path fill="#000000" d="M 148.214844 199.984375 C 150.726562 198.71875 154.433594 197.269531 157.402344 196.359375 C 159.070312 195.847656 160.679688 195.347656 162.21875 194.773438 C 164.363281 193.972656 164.9375 193.714844 166.445312 192.609375 C 166.125 191.402344 164.78125 191.136719 163.4375 190.875 C 156.121094 189.449219 143.871094 195.070312 141.617188 198.554688 C 140.652344 200.054688 140.652344 200.683594 141.585938 202.074219 C 144.832031 202.074219 145.355469 201.214844 148.214844 199.980469 Z M 148.214844 199.984375 " fill-opacity="1" fill-rule="evenodd"/><path fill="#000000" d="M 348.265625 53.871094 C 348.265625 53.277344 347.996094 52.710938 347.707031 52.300781 C 345.691406 49.398438 342.4375 53.492188 341.632812 55.050781 C 339.902344 58.40625 338.273438 64.035156 337.429688 67.898438 C 337.21875 68.875 336.390625 74.664062 336.777344 75.570312 C 337.523438 77.328125 338.972656 73.574219 340.171875 71.582031 C 342.433594 67.820312 348.265625 57.359375 348.265625 53.875 Z M 348.265625 53.871094 " fill-opacity="1" fill-rule="evenodd"/><path fill="#000000" d="M 48.304688 286.121094 C 48.304688 287.730469 50.816406 290.210938 51.792969 291.160156 C 56.722656 295.949219 70.367188 298.765625 77.898438 297.011719 C 77.792969 295.730469 77.335938 296.035156 74.394531 295.308594 C 70.632812 294.378906 65.941406 292.929688 62.511719 291.566406 C 60.183594 290.644531 57.679688 289.359375 55.570312 288.089844 C 53.804688 287.027344 52.164062 286.292969 50.167969 285.652344 C 49.597656 285.472656 48.304688 285.339844 48.304688 286.121094 Z M 48.304688 286.121094 " fill-opacity="1" fill-rule="evenodd"/><path fill="#000000" d="M 300.917969 53.636719 C 300.917969 58.296875 305.105469 72.8125 308.253906 72.8125 C 309.605469 72.8125 310.621094 70.464844 310.621094 68.785156 C 310.621094 62.101562 305.183594 53.039062 302.640625 52.117188 C 301.601562 51.738281 300.914062 52.5625 300.914062 53.636719 Z M 300.917969 53.636719 " fill-opacity="1" fill-rule="evenodd"/><path fill="#000000" d="M 348.265625 94.59375 C 350.503906 94.59375 356.921875 90.570312 359.191406 89.652344 C 361.695312 88.640625 363.519531 87.625 365.496094 86.015625 C 374.992188 78.277344 357.273438 81.265625 351.511719 89.078125 C 350.835938 90 350.292969 90.59375 349.683594 91.515625 C 349.089844 92.414062 348.296875 93.191406 348.265625 94.59375 Z M 348.265625 94.59375 " fill-opacity="1" fill-rule="evenodd"/><path fill="#000000" d="M 49.964844 279.019531 C 49.964844 282.40625 54.5625 283.640625 57.636719 284.839844 C 59.007812 285.371094 72.980469 289.75 73.402344 284.699219 C 72.160156 284.046875 64.511719 282.335938 62.304688 281.59375 C 60.5625 281.007812 58.761719 280.398438 57.066406 279.730469 C 56.4375 279.480469 49.960938 276.632812 49.960938 279.019531 Z M 49.964844 279.019531 " fill-opacity="1" fill-rule="evenodd"/><path fill="#000000" d="M 0.0078125 51.976562 C 0.0078125 53.496094 0.898438 53.949219 2.765625 54.902344 C 6.148438 56.628906 8.511719 56.625 11.617188 57.417969 C 12.921875 57.75 14.667969 58.605469 16.109375 58.605469 C 17.902344 58.605469 18.859375 56.800781 17.488281 55.335938 C 15.429688 53.132812 7.367188 49.847656 4.035156 49.847656 C 2.769531 49.847656 0.0117188 50.90625 0.0117188 51.976562 Z M 0.0078125 51.976562 " fill-opacity="1" fill-rule="evenodd"/><path fill="#000000" d="M 179.703125 151.175781 C 185.519531 151.175781 190.117188 145.304688 190.117188 139.574219 C 190.117188 138.082031 190.378906 135.234375 188.460938 135.074219 L 184.726562 142.703125 C 181.804688 147.339844 179.691406 146.121094 177.992188 147.335938 C 176.046875 148.722656 177.140625 151.175781 179.703125 151.175781 Z M 179.703125 151.175781 " fill-opacity="1" fill-rule="evenodd"/><path fill="#000000" d="M 144.425781 120.160156 C 144.425781 123.632812 148.21875 129.160156 151.765625 129.160156 C 154.46875 129.160156 156.328125 126.265625 153.460938 122.730469 C 152.835938 121.960938 152.777344 122.066406 152.222656 121.125 C 148.53125 114.851562 144.425781 117.636719 144.425781 120.164062 Z M 144.425781 120.160156 " fill-opacity="1" fill-rule="evenodd"/><path fill="#000000" d="M 169.519531 110.691406 C 169.519531 114.304688 173.210938 118.503906 176.386719 118.503906 C 177.945312 118.503906 179.226562 117.015625 179.226562 115.425781 C 179.226562 114.246094 178.777344 113.710938 178.464844 112.636719 C 177.894531 110.660156 177.472656 109.6875 175.71875 108.28125 C 172.574219 105.746094 169.519531 107.96875 169.519531 110.691406 Z M 169.519531 110.691406 " fill-opacity="1" fill-rule="evenodd"/><path fill="#000000" d="M 11.136719 109.980469 C 11.816406 112.894531 16.75 110.691406 18.289062 110.269531 C 23.550781 108.824219 22.125 106.429688 19.421875 106.429688 C 15.355469 106.429688 15.746094 106.46875 12.457031 108.699219 C 11.773438 109.164062 11.554688 109.355469 11.136719 109.984375 Z M 11.136719 109.980469 " fill-opacity="1" fill-rule="evenodd"/><path fill="#5c84f7" d="M 203.613281 201.574219 C 203.566406 201.609375 203.5 201.617188 203.472656 201.683594 C 203.441406 201.75 203.351562 201.757812 203.3125 201.769531 C 202.980469 201.847656 203.019531 201.839844 202.664062 201.839844 L 202.425781 202.125 C 201.101562 203.015625 193.566406 213.28125 189.355469 213.882812 C 186.886719 214.234375 185.296875 212.171875 184.371094 210.898438 C 182.164062 207.851562 172.382812 193.769531 169.992188 192.605469 C 169.050781 192.605469 168.792969 192.480469 168.261719 192.425781 C 167.347656 192.324219 167.242188 192.535156 166.441406 192.609375 C 164.9375 193.710938 164.359375 193.96875 162.214844 194.773438 C 160.675781 195.347656 159.070312 195.847656 157.398438 196.359375 C 154.429688 197.269531 150.726562 198.71875 148.210938 199.984375 C 148 200.714844 147.414062 201.09375 146.972656 201.785156 C 146.523438 202.492188 146.097656 203.222656 146.167969 204.207031 C 147.695312 205.171875 149.25 204.5625 151.609375 207.917969 C 154.09375 211.453125 157.742188 221.507812 159.121094 226.21875 C 159.929688 228.980469 159.417969 227.378906 167.121094 229.800781 C 182.050781 234.5 191.71875 238.289062 203.613281 248.722656 C 207.589844 252.210938 216.515625 260.808594 220.015625 264.503906 L 224.894531 268.855469 C 229.824219 273.058594 245.796875 282.625 251.90625 283.753906 C 253.496094 283.75 253.75 283.574219 254.96875 283.28125 C 254.832031 282.476562 254.605469 282.34375 254.414062 281.488281 L 253.15625 266.421875 C 252.824219 263.628906 252.59375 260.847656 252.304688 258.117188 C 252.160156 256.769531 251.167969 250.378906 252.699219 249.992188 C 255.101562 249.386719 257.601562 263.898438 258.539062 265.019531 C 258.910156 265.234375 258.980469 265.28125 259.25 265.523438 C 261.648438 265.667969 264.382812 266.136719 266.800781 266.457031 C 275.328125 267.578125 282.507812 267.761719 291.207031 267.140625 C 296.210938 266.78125 301.121094 265.910156 305.847656 264.757812 C 312.511719 263.132812 312.648438 262.898438 318.449219 260.390625 C 318.199219 256.984375 315.425781 248.8125 314.253906 245.550781 C 309.613281 232.65625 302.96875 218.339844 294.964844 208.261719 C 292.070312 204.617188 289.164062 201.015625 285.960938 198.335938 C 285.136719 197.644531 284.375 196.804688 283.472656 196.085938 C 272.816406 187.570312 259.753906 182.847656 244.808594 182.902344 C 244.660156 182.996094 244.757812 183.195312 243.921875 183.210938 C 243.167969 183.226562 243.640625 183.695312 243.386719 182.871094 L 237.144531 182.910156 C 235.808594 187.117188 233.910156 192.050781 232.296875 196.183594 C 226.671875 210.582031 225.3125 215.21875 214.484375 208.726562 L 206.375 203.34375 C 205.738281 202.871094 204.425781 201.8125 203.613281 201.574219 Z M 203.613281 201.574219 " fill-opacity="1" fill-rule="evenodd"/><path fill="#5c84f7" d="M 185.855469 297.722656 L 189.3125 305.402344 C 191.25 309.351562 188.992188 310.472656 186.40625 312.007812 C 175.738281 318.328125 158.070312 323.414062 145.785156 327.03125 C 143.050781 327.835938 139.820312 328.988281 137.070312 329.515625 C 137.4375 336.0625 137.585938 348.984375 136.863281 355.71875 C 136.582031 358.304688 135.867188 361.101562 135.667969 363.539062 C 136.40625 364.601562 136.246094 367.359375 141.582031 368.75 C 148.226562 370.488281 164.171875 372.019531 171.613281 372.8125 C 190.25 374.796875 206.605469 374.902344 225.867188 374.902344 C 227.683594 374.902344 229.773438 375 231.550781 374.90625 C 232.625 374.847656 232.84375 374.660156 234.148438 374.660156 C 237.863281 374.65625 249.152344 373.84375 252.722656 373.347656 C 254.515625 373.097656 256.148438 372.960938 257.828125 372.773438 C 265.367188 371.929688 279.292969 369.628906 286.628906 367.480469 C 289.585938 366.613281 294.027344 366.382812 295.261719 364.722656 C 293.859375 362.75 292.894531 360.585938 292.234375 357.621094 C 291.863281 357.453125 292.0625 357.664062 291.683594 357.292969 C 288.660156 356.890625 285.367188 357.15625 282.027344 356.632812 C 274.207031 355.414062 266.007812 351.996094 259.398438 348.242188 C 254.824219 345.640625 250.820312 343.203125 246.609375 340.425781 C 244.503906 339.039062 242.429688 337.554688 240.402344 336.21875 L 234.390625 332.082031 L 234.152344 331.816406 L 233.914062 331.585938 L 233.679688 331.585938 L 233.441406 331.339844 L 233.203125 331.105469 L 232.964844 330.882812 L 232.730469 330.882812 L 232.492188 330.632812 L 232.253906 330.394531 L 232.019531 330.1875 L 231.78125 330.1875 L 231.542969 329.917969 L 231.304688 329.683594 L 231.070312 329.472656 L 230.832031 329.472656 L 230.59375 329.207031 L 230.359375 328.972656 L 230.121094 328.75 L 229.882812 328.75 L 229.648438 328.5 L 229.171875 328.023438 C 228.363281 327.609375 227.570312 326.75 226.769531 326.171875 C 225.96875 325.597656 225.140625 324.890625 224.414062 324.261719 C 222.8125 322.882812 221.378906 321.816406 219.765625 320.394531 C 216.777344 317.765625 213.746094 315.105469 210.796875 312.542969 C 206.964844 309.210938 195.875 297.367188 193.660156 296.113281 L 193.425781 295.828125 C 191.65625 295.414062 191.472656 294.277344 188.710938 294.664062 C 186.71875 294.941406 186.578125 296.207031 185.847656 297.722656 Z M 185.855469 297.722656 " fill-opacity="1" fill-rule="evenodd"/><path fill="#5c84f7" d="M 186.332031 207.070312 L 177.390625 195.683594 C 177.851562 196.621094 178.890625 197.675781 179.621094 198.601562 C 180.292969 199.457031 181.070312 200.519531 181.769531 201.425781 C 182.582031 202.472656 183.300781 203.351562 184.015625 204.394531 C 184.679688 205.367188 185.484375 206.371094 186.332031 207.070312 Z M 186.332031 207.070312 " fill-opacity="1" fill-rule="evenodd"/></svg>