<svg xmlns="http://www.w3.org/2000/svg" xmlns:xlink="http://www.w3.org/1999/xlink" width="500" zoomAndPan="magnify" viewBox="0 0 375 374.999991" height="500" preserveAspectRatio="xMidYMid meet" version="1.0"><defs><clipPath id="dcaa98044a"><path d="M 1 71.511719 L 329 71.511719 L 329 375 L 1 375 Z M 1 71.511719 " clip-rule="nonzero"/></clipPath><clipPath id="d5d5f00207"><path d="M 227 32 L 301 32 L 301 104 L 227 104 Z M 227 32 " clip-rule="nonzero"/></clipPath><clipPath id="efc0685f4a"><path d="M 157.5625 -54.886719 L 413.652344 120.691406 L 360.640625 198.011719 L 104.550781 22.433594 Z M 157.5625 -54.886719 " clip-rule="nonzero"/></clipPath><clipPath id="086bb56f3d"><path d="M 157.5625 -54.886719 L 413.652344 120.691406 L 360.640625 198.011719 L 104.550781 22.433594 Z M 157.5625 -54.886719 " clip-rule="nonzero"/></clipPath><clipPath id="82d895b8d8"><path d="M 157.5625 -54.886719 L 413.652344 120.691406 L 360.640625 198.011719 L 104.550781 22.433594 Z M 157.5625 -54.886719 " clip-rule="nonzero"/></clipPath><clipPath id="f090947e93"><path d="M 297 96 L 346 96 L 346 143 L 297 143 Z M 297 96 " clip-rule="nonzero"/></clipPath><clipPath id="46fa3897a7"><path d="M 157.5625 -54.886719 L 413.652344 120.691406 L 360.640625 198.011719 L 104.550781 22.433594 Z M 157.5625 -54.886719 " clip-rule="nonzero"/></clipPath><clipPath id="0036c90b5a"><path d="M 157.5625 -54.886719 L 413.652344 120.691406 L 360.640625 198.011719 L 104.550781 22.433594 Z M 157.5625 -54.886719 " clip-rule="nonzero"/></clipPath><clipPath id="ef18bc7186"><path d="M 157.5625 -54.886719 L 413.652344 120.691406 L 360.640625 198.011719 L 104.550781 22.433594 Z M 157.5625 -54.886719 " clip-rule="nonzero"/></clipPath><clipPath id="b733583f7c"><path d="M 335 157 L 374 157 L 374 194 L 335 194 Z M 335 157 " clip-rule="nonzero"/></clipPath><clipPath id="adaa0c524b"><path d="M 157.5625 -54.886719 L 413.652344 120.691406 L 360.640625 198.011719 L 104.550781 22.433594 Z M 157.5625 -54.886719 " clip-rule="nonzero"/></clipPath><clipPath id="b761b70778"><path d="M 157.5625 -54.886719 L 413.652344 120.691406 L 360.640625 198.011719 L 104.550781 22.433594 Z M 157.5625 -54.886719 " clip-rule="nonzero"/></clipPath><clipPath id="e2b88c7425"><path d="M 157.5625 -54.886719 L 413.652344 120.691406 L 360.640625 198.011719 L 104.550781 22.433594 Z M 157.5625 -54.886719 " clip-rule="nonzero"/></clipPath><clipPath id="48b605fe51"><path d="M 170 9 L 219 9 L 219 56 L 170 56 Z M 170 9 " clip-rule="nonzero"/></clipPath><clipPath id="77d96aeced"><path d="M 157.5625 -54.886719 L 413.652344 120.691406 L 360.640625 198.011719 L 104.550781 22.433594 Z M 157.5625 -54.886719 " clip-rule="nonzero"/></clipPath><clipPath id="9efe27d2e3"><path d="M 157.5625 -54.886719 L 413.652344 120.691406 L 360.640625 198.011719 L 104.550781 22.433594 Z M 157.5625 -54.886719 " clip-rule="nonzero"/></clipPath><clipPath id="1db9f670dc"><path d="M 157.5625 -54.886719 L 413.652344 120.691406 L 360.640625 198.011719 L 104.550781 22.433594 Z M 157.5625 -54.886719 " clip-rule="nonzero"/></clipPath><clipPath id="fc3ac47cc0"><path d="M 110 3 L 149 3 L 149 40 L 110 40 Z M 110 3 " clip-rule="nonzero"/></clipPath><clipPath id="435fd6c3be"><path d="M 157.5625 -54.886719 L 413.652344 120.691406 L 360.640625 198.011719 L 104.550781 22.433594 Z M 157.5625 -54.886719 " clip-rule="nonzero"/></clipPath><clipPath id="cb85c2d3ce"><path d="M 157.5625 -54.886719 L 413.652344 120.691406 L 360.640625 198.011719 L 104.550781 22.433594 Z M 157.5625 -54.886719 " clip-rule="nonzero"/></clipPath><clipPath id="2097be5a6e"><path d="M 157.5625 -54.886719 L 413.652344 120.691406 L 360.640625 198.011719 L 104.550781 22.433594 Z M 157.5625 -54.886719 " clip-rule="nonzero"/></clipPath></defs><path fill="#5c84f7" d="M 84.234375 186.84375 L 83.726562 187.496094 L 83.855469 187.597656 C 84 187.339844 84.105469 187.089844 84.234375 186.84375 Z M 84.234375 186.84375 " fill-opacity="1" fill-rule="nonzero"/><path fill="#ffffff" d="M 175.421875 303.058594 C 173.1875 306.09375 170.777344 308.984375 168.195312 311.730469 C 169.539062 311.4375 170.71875 310.828125 171.738281 309.902344 C 171.867188 309.765625 172.019531 309.660156 172.1875 309.585938 C 172.359375 309.511719 172.539062 309.472656 172.726562 309.46875 C 172.914062 309.46875 173.09375 309.5 173.265625 309.570312 C 173.441406 309.640625 173.59375 309.738281 173.726562 309.871094 C 173.859375 310.003906 173.964844 310.15625 174.035156 310.328125 C 174.105469 310.5 174.144531 310.679688 174.144531 310.867188 C 174.144531 311.054688 174.105469 311.234375 174.035156 311.40625 C 173.960938 311.578125 173.859375 311.730469 173.726562 311.859375 C 171.398438 314.214844 167.585938 315.070312 163.644531 315.070312 C 161.070312 315.054688 158.535156 314.734375 156.039062 314.117188 C 153.804688 313.558594 146.414062 311.417969 145.09375 307.050781 C 144.875 306.40625 144.820312 305.75 144.925781 305.082031 C 145.035156 304.410156 145.289062 303.804688 145.695312 303.257812 C 148.074219 300.035156 155.414062 299.527344 157.835938 299.441406 L 158.121094 299.085938 C 154.363281 297.304688 147.117188 296.851562 141.078125 300.496094 C 140.410156 300.867188 139.847656 301.355469 139.382812 301.964844 C 138.921875 302.574219 138.605469 303.253906 138.429688 303.996094 C 137.589844 307.550781 139.957031 311.871094 140.484375 312.757812 C 140.738281 312.976562 141 313.199219 141.257812 313.445312 C 141.394531 313.574219 141.5 313.71875 141.574219 313.890625 C 141.648438 314.058594 141.691406 314.234375 141.695312 314.421875 C 141.703125 314.605469 141.671875 314.785156 141.605469 314.957031 C 141.539062 315.128906 141.445312 315.285156 141.316406 315.417969 C 141.191406 315.554688 141.042969 315.660156 140.875 315.734375 C 140.703125 315.808594 140.527344 315.851562 140.34375 315.855469 C 140.15625 315.863281 139.980469 315.832031 139.804688 315.765625 C 139.632812 315.699219 139.480469 315.605469 139.34375 315.476562 C 139.078125 315.21875 138.785156 314.984375 138.535156 314.769531 C 134.382812 311.417969 130.007812 312.367188 127.066406 313.734375 C 120.675781 316.707031 115.722656 324.078125 115.550781 330.882812 C 115.445312 334.957031 116.367188 349.019531 132.691406 359.132812 C 139.8125 363.5625 148.878906 366.550781 159.695312 368.027344 C 180.390625 370.851562 200.199219 364.742188 213.167969 359.09375 C 216.925781 357.472656 220.558594 355.695312 223.96875 353.820312 C 225.515625 352.96875 226.8125 351.832031 227.863281 350.410156 C 228.910156 348.988281 229.617188 347.414062 229.972656 345.683594 C 231.675781 337.496094 230.304688 329.925781 226.117188 324.367188 C 221.691406 318.492188 214.246094 314.996094 204.578125 314.265625 C 195.6875 313.597656 187.144531 316.425781 179.179688 322.6875 C 179.160156 322.71875 179.148438 322.75 179.140625 322.785156 C 178.925781 323.273438 178.554688 323.546875 178.023438 323.605469 C 173.382812 327.488281 169.464844 332 166.269531 337.136719 C 166.175781 337.300781 166.058594 337.4375 165.910156 337.550781 C 165.765625 337.664062 165.601562 337.742188 165.421875 337.792969 C 165.242188 337.839844 165.0625 337.851562 164.878906 337.828125 C 164.695312 337.804688 164.523438 337.746094 164.363281 337.65625 C 164.203125 337.5625 164.066406 337.441406 163.953125 337.296875 C 163.839844 337.148438 163.757812 336.988281 163.710938 336.808594 C 163.660156 336.628906 163.648438 336.449219 163.671875 336.265625 C 163.695312 336.082031 163.753906 335.910156 163.847656 335.75 C 167.34375 330.078125 171.683594 325.148438 176.855469 320.953125 C 179.289062 314.9375 179.78125 309.941406 178.261719 306.472656 C 177.660156 305.050781 176.714844 303.910156 175.421875 303.058594 Z M 197.714844 357.097656 C 205.496094 354.65625 212.988281 351.515625 220.183594 347.675781 C 220.347656 347.582031 220.523438 347.523438 220.714844 347.5 C 220.902344 347.476562 221.085938 347.492188 221.269531 347.546875 C 221.449219 347.597656 221.613281 347.683594 221.761719 347.804688 C 221.910156 347.921875 222.027344 348.066406 222.113281 348.234375 C 222.203125 348.402344 222.253906 348.582031 222.269531 348.769531 C 222.285156 348.957031 222.265625 349.144531 222.207031 349.324219 C 222.144531 349.503906 222.054688 349.664062 221.929688 349.804688 C 221.804688 349.949219 221.65625 350.0625 221.484375 350.144531 C 214.128906 354.0625 206.472656 357.269531 198.519531 359.765625 C 189.484375 362.628906 180.230469 364.09375 170.757812 364.15625 C 162.070312 364.21875 153.644531 362.777344 145.472656 359.832031 C 133.125 355.316406 126.734375 348.925781 126.46875 348.667969 C 126.339844 348.539062 126.246094 348.386719 126.179688 348.214844 C 126.113281 348.042969 126.078125 347.867188 126.082031 347.683594 C 126.085938 347.5 126.121094 347.324219 126.195312 347.15625 C 126.265625 346.988281 126.367188 346.839844 126.496094 346.710938 C 126.628906 346.582031 126.777344 346.484375 126.949219 346.414062 C 127.117188 346.347656 127.292969 346.3125 127.476562 346.3125 C 127.660156 346.308594 127.835938 346.34375 128.003906 346.414062 C 128.175781 346.484375 128.324219 346.582031 128.453125 346.710938 C 128.515625 346.773438 134.710938 352.9375 146.433594 357.230469 C 157.039062 361.105469 174.523438 364.234375 197.714844 357.097656 Z M 197.714844 357.097656 " fill-opacity="1" fill-rule="nonzero"/><path fill="#ffffff" d="M 80.800781 237.359375 C 71.738281 233.207031 66.964844 226.199219 62.34375 219.378906 C 57.542969 212.304688 52.578125 204.996094 42.597656 200.277344 C 24.738281 191.851562 9.621094 201.164062 7.523438 202.554688 C 6.09375 204.695312 5.089844 207.015625 4.515625 209.527344 C 1.277344 224.519531 16.28125 248.261719 40.476562 256.410156 C 58.527344 262.488281 62.242188 266.5625 67.851562 272.722656 C 70.546875 275.761719 73.410156 278.625 76.449219 281.320312 C 81.933594 286.152344 88.300781 285.621094 92.679688 284.328125 C 95.527344 283.449219 98.1875 282.175781 100.660156 280.503906 C 101.511719 278.984375 102.199219 277.390625 102.71875 275.726562 C 103.238281 274.0625 103.578125 272.363281 103.738281 270.625 C 103.898438 268.890625 103.878906 267.15625 103.675781 265.425781 C 103.46875 263.691406 103.089844 262 102.53125 260.351562 C 99.492188 250.917969 91.164062 242.109375 80.800781 237.359375 Z M 17.371094 226.71875 C 17.019531 226.71875 16.710938 226.605469 16.449219 226.371094 C 16.308594 226.25 16.199219 226.105469 16.117188 225.9375 C 16.035156 225.773438 15.988281 225.597656 15.976562 225.414062 C 15.964844 225.226562 15.988281 225.046875 16.046875 224.871094 C 16.105469 224.695312 16.199219 224.539062 16.320312 224.402344 L 28.570312 210.445312 C 28.691406 210.308594 28.835938 210.199219 29.003906 210.117188 C 29.167969 210.035156 29.34375 209.988281 29.53125 209.976562 C 29.714844 209.960938 29.894531 209.988281 30.070312 210.046875 C 30.246094 210.105469 30.402344 210.195312 30.542969 210.320312 C 30.679688 210.441406 30.789062 210.585938 30.871094 210.75 C 30.953125 210.917969 31 211.09375 31.011719 211.277344 C 31.027344 211.460938 31 211.640625 30.941406 211.816406 C 30.882812 211.992188 30.792969 212.148438 30.667969 212.289062 L 18.417969 226.242188 C 18.140625 226.558594 17.789062 226.71875 17.371094 226.71875 Z M 30.667969 242.851562 C 30.390625 243.167969 30.039062 243.324219 29.621094 243.328125 C 29.347656 243.324219 29.097656 243.25 28.867188 243.101562 C 28.640625 242.953125 28.46875 242.753906 28.355469 242.503906 C 28.242188 242.253906 28.207031 241.996094 28.246094 241.726562 C 28.285156 241.457031 28.394531 241.21875 28.570312 241.011719 L 49.289062 217.429688 C 49.410156 217.28125 49.550781 217.164062 49.71875 217.074219 C 49.886719 216.984375 50.066406 216.929688 50.257812 216.914062 C 50.445312 216.898438 50.632812 216.917969 50.8125 216.980469 C 50.992188 217.039062 51.15625 217.132812 51.296875 217.257812 C 51.441406 217.382812 51.554688 217.53125 51.636719 217.703125 C 51.71875 217.875 51.761719 218.054688 51.769531 218.246094 C 51.777344 218.4375 51.75 218.621094 51.679688 218.796875 C 51.613281 218.976562 51.515625 219.132812 51.382812 219.269531 Z M 47.71875 250.296875 C 47.445312 250.296875 47.195312 250.222656 46.964844 250.074219 C 46.734375 249.925781 46.5625 249.726562 46.449219 249.480469 C 46.335938 249.230469 46.300781 248.96875 46.339844 248.699219 C 46.378906 248.425781 46.492188 248.1875 46.671875 247.980469 L 58.949219 234.027344 C 59.074219 233.898438 59.21875 233.796875 59.382812 233.722656 C 59.546875 233.648438 59.71875 233.609375 59.898438 233.601562 C 60.078125 233.59375 60.253906 233.621094 60.421875 233.679688 C 60.589844 233.738281 60.742188 233.828125 60.878906 233.949219 C 61.011719 234.066406 61.121094 234.207031 61.203125 234.367188 C 61.285156 234.527344 61.332031 234.695312 61.347656 234.875 C 61.363281 235.054688 61.34375 235.230469 61.292969 235.402344 C 61.238281 235.574219 61.15625 235.730469 61.042969 235.871094 L 48.765625 249.824219 C 48.488281 250.136719 48.140625 250.296875 47.71875 250.296875 Z M 73.898438 247.09375 L 63.0625 259.429688 C 62.785156 259.746094 62.433594 259.902344 62.015625 259.902344 C 61.742188 259.902344 61.488281 259.828125 61.257812 259.679688 C 61.027344 259.53125 60.855469 259.332031 60.742188 259.085938 C 60.628906 258.835938 60.59375 258.574219 60.632812 258.304688 C 60.671875 258.03125 60.785156 257.792969 60.964844 257.585938 L 71.804688 245.253906 C 71.921875 245.105469 72.066406 244.984375 72.234375 244.894531 C 72.402344 244.808594 72.582031 244.753906 72.773438 244.738281 C 72.960938 244.722656 73.144531 244.742188 73.328125 244.800781 C 73.507812 244.863281 73.667969 244.953125 73.8125 245.082031 C 73.957031 245.207031 74.066406 245.355469 74.148438 245.527344 C 74.230469 245.699219 74.277344 245.878906 74.285156 246.070312 C 74.292969 246.257812 74.261719 246.445312 74.195312 246.621094 C 74.128906 246.800781 74.027344 246.957031 73.898438 247.09375 Z M 88.851562 259.429688 L 78.015625 271.765625 C 77.738281 272.078125 77.386719 272.238281 76.96875 272.238281 C 76.617188 272.242188 76.308594 272.125 76.046875 271.890625 C 75.90625 271.769531 75.796875 271.625 75.714844 271.460938 C 75.632812 271.292969 75.585938 271.117188 75.574219 270.933594 C 75.5625 270.75 75.585938 270.570312 75.644531 270.394531 C 75.703125 270.21875 75.796875 270.0625 75.917969 269.921875 L 86.757812 257.585938 C 86.875 257.4375 87.019531 257.320312 87.1875 257.230469 C 87.355469 257.140625 87.535156 257.089844 87.722656 257.070312 C 87.914062 257.054688 88.097656 257.078125 88.28125 257.136719 C 88.460938 257.195312 88.621094 257.289062 88.765625 257.414062 C 88.90625 257.539062 89.019531 257.691406 89.101562 257.859375 C 89.183594 258.03125 89.230469 258.214844 89.238281 258.402344 C 89.246094 258.59375 89.214844 258.777344 89.148438 258.957031 C 89.082031 259.132812 88.980469 259.292969 88.851562 259.429688 Z M 88.851562 259.429688 " fill-opacity="1" fill-rule="nonzero"/><path fill="#ffffff" d="M 35.625 181.53125 C 41.949219 181.035156 47.347656 178.421875 50.445312 174.359375 C 50.621094 174.125 50.851562 173.964844 51.128906 173.875 C 51.410156 173.789062 51.6875 173.785156 51.96875 173.871094 C 52.21875 173.949219 77.085938 181.445312 85.617188 166.492188 C 85.710938 166.332031 85.828125 166.195312 85.976562 166.085938 C 86.121094 165.972656 86.285156 165.890625 86.464844 165.839844 C 86.640625 165.792969 86.824219 165.78125 87.003906 165.804688 C 87.1875 165.828125 87.359375 165.882812 87.523438 165.976562 C 87.683594 166.066406 87.820312 166.1875 87.933594 166.332031 C 88.046875 166.476562 88.128906 166.640625 88.175781 166.820312 C 88.226562 166.996094 88.238281 167.179688 88.214844 167.363281 C 88.195312 167.546875 88.136719 167.71875 88.046875 167.878906 C 92.105469 169.386719 103.554688 172.765625 110.511719 166.171875 C 116.054688 160.90625 117.082031 156.464844 116.191406 154.058594 C 116.050781 153.5625 115.78125 153.148438 115.378906 152.820312 C 114.980469 152.492188 114.519531 152.308594 114.003906 152.265625 C 109.839844 152.050781 99.945312 153.476562 94.519531 154.804688 C 94.253906 154.875 93.988281 154.863281 93.730469 154.769531 C 93.46875 154.679688 93.253906 154.527344 93.085938 154.308594 C 92.917969 154.09375 92.824219 153.847656 92.800781 153.574219 C 92.777344 153.296875 92.828125 153.039062 92.957031 152.796875 C 93.1875 152.355469 98.496094 141.90625 86.421875 135.226562 C 76.6875 129.835938 66.988281 135.550781 63.164062 138.359375 C 65.09375 139.09375 67.082031 139.339844 69.128906 139.101562 C 69.316406 139.0625 69.503906 139.0625 69.691406 139.105469 C 69.878906 139.144531 70.050781 139.21875 70.207031 139.328125 C 70.363281 139.4375 70.492188 139.574219 70.59375 139.738281 C 70.691406 139.898438 70.757812 140.074219 70.785156 140.265625 C 70.8125 140.453125 70.800781 140.640625 70.753906 140.824219 C 70.703125 141.011719 70.621094 141.179688 70.503906 141.328125 C 70.386719 141.480469 70.242188 141.601562 70.074219 141.691406 C 69.90625 141.785156 69.726562 141.839844 69.539062 141.859375 C 57.765625 143.597656 43.8125 127.835938 37.070312 120.285156 C 35.878906 118.941406 34.929688 117.875 34.371094 117.339844 C 32.644531 115.664062 29.492188 114.546875 27.191406 115.570312 C 24.535156 116.71875 24.023438 120.257812 24.054688 123.027344 C 24.195312 133.84375 46.382812 150.683594 46.609375 150.847656 C 46.851562 151.03125 47.015625 151.261719 47.105469 151.550781 C 47.195312 151.835938 47.191406 152.121094 47.097656 152.40625 C 47 152.691406 46.832031 152.921875 46.589844 153.097656 C 46.34375 153.273438 46.074219 153.359375 45.773438 153.359375 C 45.460938 153.363281 45.183594 153.269531 44.9375 153.082031 C 44.785156 152.96875 44.113281 152.460938 43.089844 151.636719 C 40.984375 152.382812 34.957031 153.945312 23.917969 152.640625 C 14.160156 151.492188 11.398438 153.117188 10.621094 154.191406 C 9.996094 155.050781 10.097656 156.386719 10.917969 158.15625 C 12.210938 160.945312 16.839844 165.082031 22.867188 167.234375 C 27.738281 168.976562 35.414062 170.136719 44.316406 165.824219 C 44.484375 165.742188 44.65625 165.699219 44.84375 165.6875 C 45.027344 165.675781 45.207031 165.699219 45.382812 165.761719 C 45.558594 165.824219 45.714844 165.914062 45.851562 166.039062 C 45.988281 166.160156 46.097656 166.304688 46.179688 166.472656 C 46.261719 166.636719 46.304688 166.8125 46.316406 167 C 46.328125 167.183594 46.304688 167.363281 46.242188 167.539062 C 46.183594 167.710938 46.089844 167.871094 45.96875 168.007812 C 45.84375 168.144531 45.699219 168.253906 45.53125 168.335938 C 41.230469 170.480469 36.671875 171.566406 31.863281 171.59375 C 28.453125 171.59375 25.140625 171.015625 21.929688 169.863281 C 21.433594 169.6875 20.953125 169.503906 20.484375 169.308594 C 19.476562 170.320312 18.90625 171.535156 18.769531 172.957031 C 18.699219 174.53125 19.5 176.132812 21.160156 177.722656 C 24.042969 180.496094 29.722656 181.976562 35.625 181.53125 Z M 35.625 181.53125 " fill-opacity="1" fill-rule="nonzero"/><path fill="#ffffff" d="M 85.328125 220.902344 C 84.746094 220.949219 84.175781 221.039062 83.609375 221.175781 C 83.429688 221.222656 83.25 221.234375 83.066406 221.210938 C 82.882812 221.183594 82.710938 221.128906 82.550781 221.035156 C 82.390625 220.941406 82.253906 220.824219 82.140625 220.675781 C 82.03125 220.53125 81.949219 220.367188 81.902344 220.1875 C 81.851562 220.011719 81.839844 219.828125 81.863281 219.644531 C 81.890625 219.460938 81.945312 219.289062 82.039062 219.128906 C 82.128906 218.96875 82.25 218.832031 82.394531 218.722656 C 82.542969 218.609375 82.703125 218.527344 82.882812 218.480469 C 82.929688 218.480469 83.164062 218.40625 83.5625 218.332031 C 83.109375 215.90625 82.472656 213.523438 81.648438 211.195312 C 81.617188 211.117188 81.589844 211.039062 81.566406 210.960938 C 76.386719 196.554688 64.734375 186.84375 50.125 185.4375 C 48.558594 185.289062 46.976562 185.210938 45.375 185.207031 C 41.097656 185.210938 36.878906 185.71875 32.71875 186.726562 C 28.558594 187.734375 24.574219 189.214844 20.769531 191.167969 C 17.769531 192.71875 15.007812 194.613281 12.484375 196.855469 C 14.980469 195.824219 17.554688 195.0625 20.210938 194.574219 C 22.867188 194.085938 25.546875 193.878906 28.246094 193.957031 C 30.945312 194.035156 33.605469 194.394531 36.230469 195.035156 C 38.855469 195.671875 41.382812 196.582031 43.8125 197.753906 C 54.480469 202.777344 59.664062 210.429688 64.683594 217.808594 C 69.285156 224.589844 73.613281 230.992188 81.984375 234.828125 C 93.207031 239.96875 101.886719 249.1875 105.207031 259.496094 C 106.15625 262.308594 106.636719 265.199219 106.65625 268.167969 C 106.671875 271.136719 106.226562 274.035156 105.316406 276.859375 C 109.632812 272.875 113.015625 267.929688 114.378906 263.039062 C 118.066406 249.855469 114.824219 239.097656 103.875 228.144531 C 96.675781 220.960938 89.167969 220.527344 85.328125 220.902344 Z M 85.328125 220.902344 " fill-opacity="1" fill-rule="nonzero"/><path fill="#5c84f7" d="M 174.480469 269.558594 C 174.292969 272.671875 172.386719 289.507812 152.320312 309.917969 C 153.738281 310.542969 155.203125 311.039062 156.707031 311.410156 C 159.039062 311.996094 161.40625 312.285156 163.8125 312.273438 C 163.882812 312.125 163.980469 311.996094 164.097656 311.882812 C 164.296875 311.691406 183.011719 293.898438 187.214844 270.710938 L 178.648438 264.113281 Z M 174.480469 269.558594 " fill-opacity="1" fill-rule="nonzero"/><path fill="#ffffff" d="M 316.546875 239.8125 C 306.367188 242.300781 296.828125 237.707031 296.453125 237.503906 C 295.851562 237.210938 295.488281 236.785156 295.660156 236.160156 C 295.539062 235.496094 294.300781 231.183594 282.332031 217.714844 C 275.792969 210.347656 268.40625 209.5 263.355469 210.09375 C 256.28125 210.921875 250.554688 214.921875 249.777344 216.375 C 249.371094 217.101562 249.253906 217.871094 249.425781 218.683594 C 249.523438 218.542969 249.644531 218.425781 249.785156 218.328125 C 249.925781 218.230469 250.082031 218.160156 250.25 218.121094 C 250.417969 218.082031 250.585938 218.070312 250.757812 218.09375 C 250.925781 218.117188 251.085938 218.167969 251.238281 218.25 C 251.390625 218.332031 251.523438 218.441406 251.632812 218.570312 C 251.746094 218.703125 251.832031 218.847656 251.886719 219.011719 C 251.945312 219.171875 251.972656 219.339844 251.96875 219.511719 C 251.964844 219.683594 251.929688 219.847656 251.863281 220.007812 C 251.835938 220.074219 249.726562 225.152344 251.8125 230.488281 C 253.546875 232.816406 255.144531 235.238281 256.601562 237.746094 C 256.695312 237.90625 256.75 238.078125 256.773438 238.261719 C 256.792969 238.445312 256.78125 238.628906 256.730469 238.804688 C 256.679688 238.984375 256.597656 239.144531 256.484375 239.292969 C 256.371094 239.4375 256.230469 239.554688 256.070312 239.644531 C 255.910156 239.738281 255.734375 239.792969 255.550781 239.816406 C 255.367188 239.835938 255.1875 239.824219 255.007812 239.773438 C 254.832031 239.722656 254.667969 239.640625 254.523438 239.527344 C 254.378906 239.414062 254.261719 239.273438 254.167969 239.113281 C 251.777344 235.035156 249.035156 231.210938 245.941406 227.636719 C 241.691406 222.820312 235.433594 217.425781 229.757812 219.046875 C 227.121094 219.800781 225.648438 221.234375 225.253906 223.441406 C 224.136719 229.503906 231.347656 240.402344 241.28125 247.734375 C 243.207031 249.152344 244.9375 250.375 246.460938 251.449219 C 255.722656 257.976562 258.839844 260.171875 259.996094 275.414062 C 261.167969 290.941406 265.578125 298.667969 273.164062 298.371094 C 274.835938 298.304688 276.625 296.890625 278.1875 294.386719 C 282.421875 287.582031 284.277344 274.292969 280.296875 265.324219 C 280.234375 265.15625 280.210938 264.984375 280.214844 264.808594 C 280.21875 264.632812 280.257812 264.460938 280.328125 264.300781 C 280.398438 264.136719 280.496094 263.992188 280.621094 263.867188 C 280.746094 263.742188 280.886719 263.644531 281.050781 263.574219 C 281.210938 263.503906 281.382812 263.464844 281.558594 263.457031 C 281.734375 263.449219 281.90625 263.476562 282.074219 263.535156 C 282.238281 263.59375 282.390625 263.683594 282.523438 263.796875 C 282.65625 263.914062 282.765625 264.050781 282.847656 264.207031 C 283.675781 266.109375 284.285156 268.078125 284.667969 270.117188 C 287.257812 272.019531 288.886719 275.882812 290.753906 280.308594 C 292.355469 284.097656 294.007812 288.015625 296.386719 290.914062 C 298.621094 293.664062 302.269531 294.765625 305.226562 293.59375 C 309.136719 292.046875 311.050781 287.140625 310.542969 280.128906 C 309.386719 264.078125 296.394531 254.769531 296.257812 254.675781 C 296.105469 254.566406 295.980469 254.4375 295.882812 254.28125 C 295.785156 254.125 295.71875 253.953125 295.6875 253.769531 C 295.65625 253.589844 295.660156 253.40625 295.699219 253.226562 C 295.742188 253.046875 295.8125 252.878906 295.921875 252.730469 C 296.027344 252.578125 296.160156 252.453125 296.316406 252.351562 C 296.472656 252.253906 296.640625 252.1875 296.824219 252.15625 C 297.007812 252.125 297.1875 252.128906 297.367188 252.171875 C 297.546875 252.210938 297.714844 252.285156 297.867188 252.390625 C 299.019531 253.25 300.109375 254.179688 301.136719 255.183594 C 309.136719 257.414062 318.367188 256.21875 322.765625 253.757812 C 324.261719 252.921875 325.179688 251.972656 325.445312 251.011719 C 326.246094 248.070312 325.828125 243.640625 323.46875 241.21875 C 321.820312 239.554688 319.53125 239.085938 316.546875 239.8125 Z M 316.546875 239.8125 " fill-opacity="1" fill-rule="nonzero"/><path fill="#5c84f7" d="M 222.480469 222.964844 C 222.886719 220.695312 224.347656 217.703125 228.964844 216.386719 C 232.246094 215.449219 235.554688 216.21875 238.6875 217.925781 L 245.34375 209.269531 C 240.144531 205.457031 232.246094 204.582031 232.140625 204.570312 C 231.953125 204.550781 231.78125 204.496094 231.617188 204.410156 C 231.453125 204.320312 231.3125 204.203125 231.195312 204.058594 C 231.078125 203.914062 230.992188 203.753906 230.941406 203.574219 C 230.886719 203.394531 230.871094 203.214844 230.890625 203.03125 C 230.910156 202.84375 230.960938 202.671875 231.050781 202.507812 C 231.140625 202.34375 231.257812 202.203125 231.402344 202.085938 C 231.546875 201.96875 231.707031 201.882812 231.886719 201.828125 C 232.0625 201.777344 232.246094 201.761719 232.429688 201.78125 C 233.039062 201.839844 246.546875 203.351562 251.128906 211.535156 C 254.765625 209.222656 258.726562 207.8125 263.011719 207.304688 L 263.15625 207.304688 C 257.484375 196.699219 238.335938 192.792969 238.128906 192.761719 C 237.949219 192.722656 237.78125 192.652344 237.625 192.550781 C 237.472656 192.445312 237.34375 192.316406 237.242188 192.160156 C 237.140625 192.007812 237.074219 191.839844 237.039062 191.65625 C 237.003906 191.476562 237.003906 191.292969 237.039062 191.113281 C 237.078125 190.933594 237.148438 190.765625 237.25 190.609375 C 237.355469 190.457031 237.484375 190.332031 237.636719 190.226562 C 237.792969 190.125 237.960938 190.058594 238.140625 190.023438 C 238.324219 189.988281 238.503906 189.988281 238.6875 190.023438 C 244.550781 191.273438 250.101562 193.351562 255.347656 196.253906 L 275.167969 170.507812 L 266.382812 163.746094 L 273.144531 154.964844 L 249 136.371094 L 242.257812 145.140625 L 233.472656 138.375 L 172.605469 217.464844 L 152.816406 202.230469 L 213.695312 123.164062 L 204.902344 116.402344 L 211.667969 107.617188 L 169.953125 75.5 L 164.894531 82.070312 L 182.464844 95.59375 L 174 106.589844 L 165.214844 99.832031 L 158.453125 108.621094 L 147.449219 100.152344 L 160.976562 82.582031 L 154.402344 77.523438 L 119.496094 122.859375 C 128.246094 123.625 136.695312 125.660156 144.835938 128.953125 C 145.007812 129.023438 145.160156 129.121094 145.292969 129.25 C 145.425781 129.378906 145.527344 129.527344 145.601562 129.695312 C 145.675781 129.867188 145.710938 130.042969 145.714844 130.230469 C 145.71875 130.414062 145.683594 130.589844 145.617188 130.761719 C 145.550781 130.933594 145.449219 131.085938 145.324219 131.21875 C 145.195312 131.351562 145.046875 131.457031 144.875 131.53125 C 144.707031 131.605469 144.527344 131.640625 144.34375 131.644531 C 144.160156 131.648438 143.980469 131.617188 143.808594 131.550781 C 124.609375 123.925781 108.992188 124.773438 99.265625 126.820312 C 94.40625 127.816406 89.753906 129.421875 85.3125 131.628906 C 86.167969 131.964844 87 132.355469 87.804688 132.800781 C 91.746094 134.980469 94.113281 137.539062 95.46875 140.109375 C 99.980469 138.308594 119.367188 131.710938 136.925781 143.675781 C 137.082031 143.78125 137.207031 143.910156 137.308594 144.066406 C 137.410156 144.222656 137.476562 144.390625 137.511719 144.570312 C 137.546875 144.753906 137.542969 144.933594 137.507812 145.117188 C 137.46875 145.296875 137.398438 145.464844 137.292969 145.617188 C 137.1875 145.769531 137.058594 145.898438 136.902344 146 C 136.75 146.097656 136.582031 146.167969 136.398438 146.203125 C 136.21875 146.234375 136.035156 146.234375 135.855469 146.195312 C 135.671875 146.15625 135.507812 146.085938 135.355469 145.984375 C 125.167969 139.039062 114.105469 138.886719 106.257812 140.132812 L 97.667969 151.296875 C 103.34375 150.207031 110.59375 149.308594 114.1875 149.492188 C 114.714844 149.523438 115.222656 149.632812 115.714844 149.820312 C 116.207031 150.003906 116.660156 150.257812 117.074219 150.578125 C 117.488281 150.902344 117.847656 151.277344 118.148438 151.707031 C 118.449219 152.140625 118.683594 152.605469 118.84375 153.105469 C 119.402344 154.671875 120.679688 160.410156 112.464844 168.203125 C 109.1875 171.3125 104.734375 172.90625 99.414062 172.90625 C 97.953125 172.902344 96.5 172.792969 95.054688 172.578125 C 92.097656 172.125 89.222656 171.351562 86.4375 170.253906 C 85.554688 171.375 84.5625 172.386719 83.457031 173.285156 L 90.496094 178.699219 L 88.078125 181.832031 C 88.6875 181.296875 89.335938 180.820312 90.019531 180.390625 C 90.707031 179.960938 91.421875 179.59375 92.167969 179.28125 C 92.914062 178.96875 93.679688 178.71875 94.464844 178.53125 C 95.253906 178.339844 96.050781 178.21875 96.855469 178.160156 C 97.660156 178.097656 98.46875 178.105469 99.273438 178.175781 C 100.078125 178.246094 100.871094 178.382812 101.65625 178.582031 C 102.4375 178.78125 103.203125 179.042969 103.941406 179.367188 C 104.683594 179.691406 105.394531 180.070312 106.074219 180.507812 C 114.167969 185.726562 119.21875 198.183594 119.257812 213.03125 C 119.257812 213.214844 119.21875 213.394531 119.148438 213.566406 C 119.078125 213.734375 118.976562 213.886719 118.847656 214.019531 C 118.714844 214.148438 118.566406 214.25 118.394531 214.324219 C 118.222656 214.394531 118.046875 214.429688 117.863281 214.433594 C 117.675781 214.433594 117.5 214.398438 117.328125 214.324219 C 117.15625 214.253906 117.003906 214.15625 116.875 214.023438 C 116.742188 213.894531 116.644531 213.742188 116.574219 213.570312 C 116.5 213.398438 116.464844 213.222656 116.464844 213.035156 C 116.433594 199.339844 111.761719 187.492188 104.5625 182.851562 C 103.707031 182.277344 102.789062 181.820312 101.816406 181.484375 C 100.839844 181.148438 99.839844 180.945312 98.8125 180.875 C 97.78125 180.800781 96.761719 180.863281 95.75 181.058594 C 94.738281 181.253906 93.769531 181.578125 92.839844 182.027344 C 81.277344 187.246094 83.910156 207.941406 84.234375 210.167969 C 85.140625 212.734375 85.835938 215.355469 86.328125 218.03125 C 89.082031 217.949219 91.777344 218.324219 94.410156 219.148438 C 92.566406 212.300781 90.550781 198.285156 94.53125 193.050781 C 95.0625 192.3125 95.742188 191.753906 96.5625 191.371094 C 97.386719 190.988281 98.253906 190.828125 99.160156 190.894531 C 103.292969 191.128906 106.582031 195.015625 108.925781 202.433594 C 109.972656 205.855469 110.714844 209.34375 111.160156 212.898438 C 111.179688 213.082031 111.164062 213.265625 111.109375 213.441406 C 111.058594 213.621094 110.976562 213.785156 110.859375 213.929688 C 110.742188 214.074219 110.601562 214.191406 110.4375 214.28125 C 110.277344 214.371094 110.101562 214.425781 109.917969 214.445312 C 109.730469 214.464844 109.550781 214.449219 109.371094 214.398438 C 109.191406 214.347656 109.03125 214.261719 108.886719 214.144531 C 108.738281 214.03125 108.621094 213.890625 108.53125 213.726562 C 108.441406 213.5625 108.386719 213.390625 108.367188 213.203125 C 107.933594 209.820312 107.21875 206.496094 106.21875 203.234375 C 104.875 198.988281 102.523438 193.886719 98.964844 193.679688 C 98.523438 193.640625 98.101562 193.71875 97.703125 193.90625 C 97.304688 194.097656 96.980469 194.375 96.730469 194.742188 C 94.664062 197.460938 94.699219 204.324219 95.542969 210.621094 L 171.390625 268.984375 L 178.15625 260.199219 L 186.941406 266.957031 L 193.707031 258.171875 L 202.492188 264.9375 L 225.671875 234.832031 C 223.1875 230.601562 221.859375 226.402344 222.480469 222.964844 Z M 222.480469 222.964844 " fill-opacity="1" fill-rule="nonzero"/><path fill="#ffffff" d="M 147.765625 306.246094 C 147.988281 306.988281 148.710938 307.769531 149.777344 308.511719 C 151.839844 306.441406 153.683594 304.402344 155.40625 302.410156 C 152.355469 302.742188 148.972656 303.527344 147.941406 304.917969 C 147.628906 305.328125 147.570312 305.769531 147.765625 306.246094 Z M 147.765625 306.246094 " fill-opacity="1" fill-rule="nonzero"/><path fill="#000000" d="M 229.785156 284.964844 L 228.988281 287.621094 L 228 290.886719 L 225.859375 298.023438 C 225.554688 297.75 225.222656 297.515625 224.863281 297.320312 C 224.5 297.125 224.121094 296.972656 223.726562 296.867188 C 223.328125 296.761719 222.925781 296.703125 222.515625 296.695312 C 222.105469 296.683594 221.699219 296.722656 221.296875 296.808594 C 220.898438 296.894531 220.511719 297.023438 220.140625 297.203125 C 219.769531 297.378906 219.425781 297.597656 219.109375 297.855469 C 218.789062 298.113281 218.503906 298.40625 218.253906 298.730469 C 218.007812 299.058594 217.796875 299.40625 217.632812 299.78125 C 217.464844 300.15625 217.34375 300.546875 217.269531 300.949219 C 217.195312 301.355469 217.167969 301.761719 217.191406 302.171875 C 217.210938 302.578125 217.28125 302.980469 217.398438 303.375 C 217.515625 303.769531 217.675781 304.140625 217.882812 304.496094 C 218.085938 304.851562 218.332031 305.179688 218.613281 305.476562 C 218.894531 305.773438 219.210938 306.035156 219.554688 306.257812 C 219.898438 306.480469 220.261719 306.660156 220.652344 306.796875 C 221.039062 306.933594 221.433594 307.023438 221.84375 307.066406 C 222.25 307.109375 222.660156 307.105469 223.066406 307.050781 C 223.472656 307 223.867188 306.898438 224.25 306.75 C 224.632812 306.605469 224.992188 306.414062 225.332031 306.183594 C 225.671875 305.949219 225.976562 305.679688 226.25 305.375 C 226.527344 305.070312 226.761719 304.738281 226.957031 304.378906 C 227.152344 304.015625 227.304688 303.636719 227.410156 303.242188 C 227.515625 302.84375 227.574219 302.441406 227.585938 302.03125 C 227.597656 301.621094 227.558594 301.214844 227.472656 300.816406 L 230.230469 291.65625 L 242.984375 296.121094 L 241.046875 302.59375 C 240.769531 302.34375 240.46875 302.128906 240.144531 301.945312 C 239.820312 301.757812 239.476562 301.609375 239.121094 301.5 C 238.765625 301.386719 238.398438 301.316406 238.027344 301.285156 C 237.65625 301.25 237.285156 301.257812 236.914062 301.304688 C 236.542969 301.351562 236.179688 301.4375 235.828125 301.566406 C 235.476562 301.691406 235.140625 301.851562 234.824219 302.046875 C 234.507812 302.246094 234.214844 302.476562 233.945312 302.734375 C 233.679688 302.996094 233.441406 303.28125 233.234375 303.59375 C 233.027344 303.90625 232.859375 304.234375 232.722656 304.582031 C 232.585938 304.933594 232.492188 305.289062 232.433594 305.660156 C 232.375 306.027344 232.355469 306.398438 232.378906 306.773438 C 232.402344 307.144531 232.464844 307.511719 232.5625 307.871094 C 232.664062 308.230469 232.804688 308.578125 232.980469 308.90625 C 233.152344 309.238281 233.363281 309.542969 233.605469 309.828125 C 233.847656 310.113281 234.117188 310.371094 234.414062 310.597656 C 234.710938 310.824219 235.027344 311.019531 235.367188 311.175781 C 235.703125 311.335938 236.054688 311.457031 236.417969 311.539062 C 236.785156 311.621094 237.152344 311.664062 237.527344 311.667969 C 237.902344 311.671875 238.269531 311.632812 238.636719 311.558594 C 239.003906 311.480469 239.355469 311.367188 239.695312 311.214844 C 240.039062 311.0625 240.359375 310.875 240.660156 310.652344 C 240.960938 310.429688 241.234375 310.179688 241.480469 309.898438 C 241.726562 309.617188 241.941406 309.3125 242.121094 308.988281 C 242.304688 308.660156 242.449219 308.316406 242.554688 307.960938 C 242.8125 307.109375 242.847656 306.253906 242.660156 305.386719 L 246.417969 292.832031 L 246.976562 290.941406 Z M 229.785156 284.964844 " fill-opacity="1" fill-rule="nonzero"/><path fill="#000000" d="M 128.472656 346.695312 C 128.339844 346.566406 128.191406 346.464844 128.023438 346.398438 C 127.851562 346.328125 127.675781 346.292969 127.492188 346.292969 C 127.308594 346.292969 127.132812 346.328125 126.964844 346.398438 C 126.792969 346.46875 126.644531 346.566406 126.515625 346.695312 C 126.382812 346.824219 126.28125 346.972656 126.210938 347.140625 C 126.136719 347.308594 126.101562 347.484375 126.097656 347.667969 C 126.09375 347.851562 126.128906 348.027344 126.195312 348.199219 C 126.261719 348.367188 126.359375 348.519531 126.484375 348.652344 C 126.753906 348.925781 133.144531 355.316406 145.488281 359.816406 C 153.660156 362.761719 162.089844 364.203125 170.773438 364.140625 C 180.246094 364.074219 189.5 362.609375 198.535156 359.75 C 206.488281 357.253906 214.144531 354.046875 221.5 350.125 C 221.671875 350.042969 221.820312 349.933594 221.945312 349.789062 C 222.070312 349.648438 222.164062 349.484375 222.222656 349.304688 C 222.28125 349.125 222.304688 348.941406 222.289062 348.753906 C 222.273438 348.5625 222.21875 348.386719 222.132812 348.21875 C 222.042969 348.050781 221.925781 347.90625 221.777344 347.785156 C 221.632812 347.667969 221.46875 347.582031 221.285156 347.527344 C 221.101562 347.476562 220.917969 347.460938 220.730469 347.484375 C 220.542969 347.507812 220.367188 347.566406 220.203125 347.660156 C 213 351.5 205.503906 354.640625 197.714844 357.082031 C 174.523438 364.21875 157.039062 361.089844 146.449219 357.199219 C 134.726562 352.921875 128.53125 346.753906 128.472656 346.695312 Z M 128.472656 346.695312 " fill-opacity="1" fill-rule="nonzero"/><g clip-path="url(#dcaa98044a)"><path fill="#000000" d="M 315.882812 237.097656 C 308.113281 239 300.484375 236.207031 298.285156 235.277344 C 297.726562 233.117188 295.046875 227.855469 284.394531 215.859375 C 278.316406 209.019531 271.554688 207.191406 266.175781 207.148438 C 264.5 203.242188 261.332031 200.167969 257.746094 197.738281 L 279.105469 170 L 270.320312 163.238281 L 277.082031 154.453125 L 248.515625 132.457031 L 241.75 141.234375 L 232.964844 134.480469 L 172.089844 213.550781 L 156.730469 201.722656 L 217.613281 122.65625 L 208.820312 115.894531 L 215.578125 107.109375 L 169.445312 71.589844 L 162.695312 80.394531 L 153.910156 73.632812 L 116.148438 122.6875 C 110.210938 122.425781 104.332031 122.902344 98.511719 124.109375 C 89.074219 126.125 83.144531 129.488281 81.460938 130.535156 C 71.46875 128.746094 62.695312 135.097656 60.25 137.097656 C 51.980469 132.855469 43.46875 123.277344 39.164062 118.433594 C 37.878906 116.988281 36.933594 115.945312 36.3125 115.324219 C 33.90625 113.011719 29.613281 111.480469 26.09375 113.007812 C 23.859375 113.984375 21.191406 116.511719 21.277344 123.054688 C 21.394531 132.023438 33.660156 143.671875 40.492188 149.480469 C 37.792969 150.125 32.539062 150.84375 24.257812 149.867188 C 15.617188 148.847656 10.421875 149.722656 8.371094 152.546875 C 7.109375 154.289062 7.117188 156.566406 8.371094 159.320312 C 9.582031 161.945312 12.941406 165.460938 17.859375 168.066406 C 16.730469 169.441406 16.101562 171.015625 15.96875 172.789062 C 15.851562 175.21875 16.9375 177.550781 19.210938 179.734375 C 21.828125 182.238281 26.058594 183.851562 30.863281 184.277344 C 19.953125 187.144531 10.546875 193.09375 5.429688 200.636719 C 5.320312 200.753906 5.230469 200.886719 5.167969 201.035156 C 3.550781 203.457031 2.417969 206.089844 1.78125 208.929688 C -0.00390625 217.207031 2.941406 227.476562 9.878906 237.109375 C 11.714844 239.648438 13.734375 242.027344 15.9375 244.253906 C 18.140625 246.480469 20.5 248.523438 23.019531 250.386719 C 25.539062 252.246094 28.1875 253.90625 30.960938 255.355469 C 33.738281 256.808594 36.605469 258.039062 39.570312 259.050781 C 56.941406 264.898438 60.265625 268.539062 65.804688 274.597656 C 68.5625 277.714844 71.5 280.648438 74.617188 283.40625 C 76.285156 284.910156 78.171875 286.058594 80.269531 286.855469 C 82.371094 287.652344 84.542969 288.039062 86.789062 288.023438 C 89.070312 288.003906 91.304688 287.664062 93.488281 287 C 104.09375 283.851562 114.238281 273.875 117.0625 263.789062 C 121.054688 249.515625 117.621094 237.914062 105.84375 226.164062 C 103.476562 223.761719 100.769531 221.839844 97.71875 220.398438 C 97.707031 220.335938 97.695312 220.273438 97.671875 220.214844 C 97.082031 218.382812 96.609375 216.523438 96.257812 214.632812 L 171.265625 272.394531 C 170.382812 276.992188 167.730469 285.914062 159.820312 296.800781 C 157.246094 295.554688 154.527344 294.933594 151.667969 294.9375 C 149.554688 294.890625 147.472656 295.132812 145.429688 295.671875 C 143.382812 296.207031 141.453125 297.015625 139.632812 298.097656 C 138.648438 298.664062 137.8125 299.40625 137.132812 300.320312 C 136.453125 301.234375 135.984375 302.246094 135.726562 303.355469 C 135.167969 305.78125 135.660156 308.339844 136.363281 310.382812 C 133.121094 309.265625 129.527344 309.511719 125.910156 311.195312 C 118.621094 314.578125 112.976562 323.007812 112.777344 330.796875 C 112.664062 335.132812 113.609375 349.851562 129.980469 360.6875 C 122.414062 362.1875 117.878906 364.101562 117.878906 366.183594 C 117.878906 371.027344 142.386719 374.957031 172.613281 374.957031 C 202.84375 374.957031 227.355469 371.050781 227.355469 366.183594 C 227.355469 364.1875 223.160156 362.339844 216.117188 360.859375 C 219.308594 359.429688 222.402344 357.894531 225.335938 356.28125 C 226.277344 355.761719 227.148438 355.148438 227.957031 354.441406 C 228.765625 353.734375 229.488281 352.945312 230.125 352.082031 C 230.761719 351.21875 231.300781 350.296875 231.738281 349.316406 C 232.175781 348.335938 232.507812 347.320312 232.726562 346.269531 C 234.589844 337.285156 233.039062 328.917969 228.363281 322.703125 C 223.445312 316.167969 215.296875 312.296875 204.808594 311.503906 C 196.4375 310.863281 188.414062 313.078125 180.859375 318.066406 C 182.34375 312.964844 182.332031 308.671875 180.8125 305.28125 C 180.003906 303.417969 178.75 301.917969 177.0625 300.785156 C 182.945312 292.335938 189.253906 280.402344 190.601562 266.8125 L 194.21875 262.113281 L 203.003906 268.878906 L 227.273438 237.359375 C 230.703125 242.246094 234.8125 246.472656 239.609375 250.03125 C 241.550781 251.46875 243.292969 252.699219 244.832031 253.78125 C 253.96875 260.214844 256.140625 261.746094 257.1875 275.671875 C 258.46875 292.632812 263.679688 301.222656 272.675781 301.222656 L 273.234375 301.222656 C 275.902344 301.117188 278.425781 299.285156 280.519531 295.921875 C 283.59375 290.96875 285.585938 282.953125 285.21875 275.167969 C 286.320312 277.203125 287.296875 279.292969 288.148438 281.441406 C 289.746094 285.226562 291.558594 289.511719 294.183594 292.734375 C 295.222656 294.027344 296.492188 295.039062 297.988281 295.769531 C 299.480469 296.496094 301.058594 296.875 302.722656 296.898438 C 303.929688 296.902344 305.097656 296.683594 306.222656 296.238281 C 308.625 295.285156 314.136719 291.773438 313.289062 279.984375 C 312.613281 270.59375 308.308594 263.417969 304.40625 258.777344 C 306.339844 259.0625 308.285156 259.207031 310.238281 259.207031 C 315.507812 259.207031 320.632812 258.183594 324.09375 256.246094 C 326.28125 255.019531 327.632812 253.523438 328.101562 251.78125 C 329.132812 248.003906 328.542969 242.5 325.425781 239.304688 C 323.820312 237.605469 320.851562 235.882812 315.882812 237.097656 Z M 163.1875 84.304688 L 178.546875 96.125 L 173.484375 102.699219 L 164.699219 95.941406 L 157.941406 104.726562 L 151.367188 99.664062 Z M 21.160156 177.722656 C 19.484375 176.132812 18.699219 174.53125 18.769531 172.957031 C 18.90625 171.535156 19.476562 170.320312 20.484375 169.308594 C 20.953125 169.503906 21.433594 169.6875 21.929688 169.863281 C 25.140625 171.015625 28.453125 171.59375 31.863281 171.59375 C 36.671875 171.566406 41.230469 170.480469 45.53125 168.335938 C 45.699219 168.253906 45.84375 168.144531 45.96875 168.007812 C 46.089844 167.871094 46.183594 167.710938 46.242188 167.539062 C 46.304688 167.363281 46.328125 167.183594 46.316406 167 C 46.304688 166.8125 46.261719 166.636719 46.179688 166.472656 C 46.097656 166.304688 45.988281 166.160156 45.851562 166.039062 C 45.714844 165.914062 45.558594 165.824219 45.382812 165.761719 C 45.207031 165.699219 45.027344 165.675781 44.84375 165.6875 C 44.65625 165.699219 44.484375 165.742188 44.316406 165.824219 C 35.414062 170.136719 27.738281 168.976562 22.867188 167.234375 C 16.839844 165.082031 12.210938 160.953125 10.917969 158.15625 C 10.097656 156.386719 9.996094 155.050781 10.621094 154.191406 C 11.398438 153.117188 14.160156 151.492188 23.917969 152.640625 C 34.957031 153.945312 40.984375 152.382812 43.089844 151.636719 C 44.113281 152.460938 44.761719 152.96875 44.933594 153.082031 C 45.082031 153.191406 45.246094 153.273438 45.425781 153.316406 C 45.605469 153.363281 45.785156 153.375 45.96875 153.347656 C 46.152344 153.320312 46.324219 153.261719 46.484375 153.167969 C 46.644531 153.070312 46.777344 152.949219 46.890625 152.804688 C 47 152.65625 47.078125 152.492188 47.125 152.3125 C 47.171875 152.132812 47.183594 151.953125 47.15625 151.769531 C 47.128906 151.585938 47.070312 151.414062 46.976562 151.253906 C 46.878906 151.09375 46.757812 150.960938 46.609375 150.847656 C 46.386719 150.683594 24.195312 133.84375 24.054688 123.027344 C 24.023438 120.234375 24.535156 116.71875 27.191406 115.570312 C 29.492188 114.570312 32.644531 115.6875 34.371094 117.339844 C 34.929688 117.898438 35.878906 118.941406 37.070312 120.285156 C 43.8125 127.835938 57.765625 143.597656 69.53125 141.863281 C 69.722656 141.84375 69.902344 141.789062 70.070312 141.699219 C 70.238281 141.605469 70.378906 141.484375 70.496094 141.335938 C 70.613281 141.183594 70.699219 141.015625 70.746094 140.832031 C 70.796875 140.648438 70.808594 140.460938 70.777344 140.269531 C 70.75 140.082031 70.6875 139.90625 70.585938 139.742188 C 70.484375 139.582031 70.359375 139.445312 70.203125 139.332031 C 70.046875 139.222656 69.875 139.148438 69.6875 139.109375 C 69.5 139.070312 69.3125 139.070312 69.125 139.105469 C 67.074219 139.34375 65.085938 139.097656 63.160156 138.363281 C 66.980469 135.574219 76.683594 129.839844 86.417969 135.234375 C 98.488281 141.929688 93.179688 152.363281 92.953125 152.804688 C 92.824219 153.046875 92.769531 153.304688 92.792969 153.578125 C 92.816406 153.851562 92.914062 154.097656 93.082031 154.316406 C 93.25 154.53125 93.464844 154.6875 93.722656 154.777344 C 93.984375 154.867188 94.246094 154.878906 94.515625 154.8125 C 99.941406 153.484375 109.835938 152.054688 114 152.273438 C 114.515625 152.3125 114.972656 152.496094 115.375 152.824219 C 115.773438 153.152344 116.046875 153.566406 116.1875 154.0625 C 117.074219 156.46875 116.046875 160.914062 110.503906 166.175781 C 103.550781 172.773438 92.085938 169.390625 88.039062 167.882812 C 88.132812 167.722656 88.1875 167.550781 88.210938 167.367188 C 88.234375 167.183594 88.21875 167.003906 88.171875 166.824219 C 88.121094 166.644531 88.039062 166.484375 87.925781 166.339844 C 87.8125 166.191406 87.675781 166.074219 87.515625 165.980469 C 87.355469 165.890625 87.183594 165.832031 87 165.808594 C 86.816406 165.785156 86.636719 165.796875 86.457031 165.847656 C 86.277344 165.894531 86.117188 165.976562 85.96875 166.089844 C 85.824219 166.203125 85.703125 166.339844 85.613281 166.5 C 77.089844 181.453125 52.214844 173.957031 51.960938 173.878906 C 51.683594 173.792969 51.402344 173.792969 51.125 173.882812 C 50.84375 173.972656 50.617188 174.132812 50.4375 174.363281 C 47.347656 178.425781 41.945312 181.0625 35.621094 181.535156 C 29.722656 181.976562 24.042969 180.496094 21.160156 177.722656 Z M 96.507812 142.695312 C 98.328125 141.992188 100.191406 141.417969 102.089844 140.964844 L 97.09375 147.449219 C 97.152344 145.832031 96.949219 144.246094 96.484375 142.695312 Z M 79.8125 188.003906 L 82.773438 190.289062 C 81.972656 192.730469 81.453125 195.234375 81.207031 197.792969 C 81.039062 199.496094 80.953125 201.203125 80.957031 202.914062 C 74.503906 191.4375 63.558594 183.9375 50.382812 182.65625 C 48.269531 182.453125 46.148438 182.375 44.027344 182.421875 C 47.160156 181.199219 49.835938 179.324219 52.058594 176.796875 C 56.542969 177.980469 61.105469 178.589844 65.742188 178.628906 L 65.804688 178.628906 C 71.898438 178.628906 77.027344 177.378906 81.058594 174.964844 L 86.578125 179.214844 Z M 84.234375 186.84375 C 84.105469 187.089844 83.976562 187.339844 83.855469 187.597656 L 83.726562 187.496094 Z M 100.660156 280.503906 C 98.1875 282.175781 95.527344 283.449219 92.679688 284.328125 C 88.300781 285.621094 81.933594 286.152344 76.449219 281.320312 C 73.410156 278.625 70.546875 275.761719 67.851562 272.722656 C 62.238281 266.585938 58.527344 262.488281 40.476562 256.410156 C 16.28125 248.261719 1.277344 224.519531 4.515625 209.527344 C 5.09375 207.015625 6.097656 204.691406 7.535156 202.554688 C 9.632812 201.164062 24.753906 191.851562 42.609375 200.277344 C 52.585938 204.996094 57.554688 212.304688 62.355469 219.378906 C 66.976562 226.175781 71.75 233.207031 80.8125 237.359375 C 91.175781 242.109375 99.503906 250.917969 102.539062 260.351562 C 103.097656 262 103.480469 263.695312 103.683594 265.425781 C 103.886719 267.15625 103.90625 268.890625 103.742188 270.628906 C 103.582031 272.363281 103.242188 274.0625 102.722656 275.726562 C 102.203125 277.390625 101.515625 278.984375 100.660156 280.503906 Z M 103.851562 228.144531 C 114.804688 239.097656 118.046875 249.855469 114.355469 263.039062 C 113.023438 267.929688 109.613281 272.875 105.292969 276.859375 C 106.203125 274.035156 106.652344 271.136719 106.632812 268.167969 C 106.613281 265.199219 106.132812 262.308594 105.1875 259.496094 C 101.867188 249.1875 93.1875 239.960938 81.960938 234.828125 C 73.589844 230.992188 69.257812 224.589844 64.660156 217.808594 C 59.636719 210.429688 54.457031 202.796875 43.792969 197.753906 C 41.359375 196.582031 38.835938 195.675781 36.214844 195.039062 C 33.589844 194.398438 30.933594 194.039062 28.234375 193.960938 C 25.535156 193.886719 22.859375 194.089844 20.207031 194.578125 C 17.554688 195.066406 14.980469 195.824219 12.484375 196.855469 C 15.007812 194.613281 17.769531 192.71875 20.769531 191.167969 C 24.574219 189.214844 28.558594 187.734375 32.71875 186.726562 C 36.878906 185.71875 41.097656 185.210938 45.375 185.207031 C 46.972656 185.207031 48.554688 185.285156 50.125 185.4375 C 64.734375 186.84375 76.386719 196.554688 81.566406 210.960938 C 81.589844 211.039062 81.617188 211.117188 81.648438 211.195312 C 82.472656 213.523438 83.109375 215.90625 83.5625 218.332031 C 83.164062 218.40625 82.929688 218.46875 82.882812 218.480469 C 82.703125 218.527344 82.542969 218.605469 82.394531 218.71875 C 82.246094 218.828125 82.128906 218.964844 82.035156 219.125 C 81.941406 219.285156 81.882812 219.457031 81.855469 219.640625 C 81.832031 219.824219 81.84375 220.003906 81.890625 220.183594 C 81.9375 220.363281 82.015625 220.523438 82.128906 220.671875 C 82.238281 220.820312 82.375 220.941406 82.535156 221.035156 C 82.695312 221.128906 82.867188 221.1875 83.046875 221.210938 C 83.230469 221.238281 83.414062 221.226562 83.59375 221.179688 C 84.15625 221.046875 84.730469 220.953125 85.3125 220.90625 C 89.167969 220.527344 96.675781 220.960938 103.851562 228.144531 Z M 178.28125 306.503906 C 179.796875 309.96875 179.308594 314.964844 176.875 320.980469 C 171.699219 325.175781 167.363281 330.109375 163.863281 335.777344 C 163.769531 335.9375 163.710938 336.109375 163.6875 336.292969 C 163.664062 336.476562 163.675781 336.660156 163.722656 336.839844 C 163.769531 337.019531 163.851562 337.179688 163.964844 337.328125 C 164.078125 337.476562 164.214844 337.59375 164.375 337.6875 C 164.539062 337.78125 164.710938 337.835938 164.894531 337.859375 C 165.078125 337.882812 165.261719 337.871094 165.4375 337.824219 C 165.617188 337.773438 165.78125 337.691406 165.929688 337.578125 C 166.074219 337.464844 166.195312 337.328125 166.285156 337.167969 C 169.484375 332.027344 173.402344 327.515625 178.039062 323.632812 C 178.570312 323.574219 178.941406 323.300781 179.15625 322.8125 C 179.164062 322.777344 179.179688 322.746094 179.195312 322.714844 C 187.160156 316.453125 195.703125 313.625 204.597656 314.292969 C 214.261719 315.023438 221.707031 318.519531 226.132812 324.394531 C 230.320312 329.976562 231.714844 337.523438 229.992188 345.710938 C 229.632812 347.441406 228.929688 349.015625 227.878906 350.4375 C 226.832031 351.859375 225.53125 352.996094 223.984375 353.847656 C 220.574219 355.722656 216.941406 357.5 213.1875 359.125 C 200.214844 364.742188 180.40625 370.84375 159.710938 368.054688 C 148.910156 366.582031 139.828125 363.589844 132.707031 359.164062 C 116.382812 349.050781 115.460938 334.984375 115.566406 330.910156 C 115.742188 324.105469 120.691406 316.734375 127.082031 313.765625 C 130.023438 312.394531 134.398438 311.46875 138.550781 314.796875 C 138.820312 315.015625 139.109375 315.25 139.359375 315.503906 C 139.496094 315.632812 139.648438 315.730469 139.824219 315.796875 C 139.996094 315.863281 140.175781 315.894531 140.359375 315.886719 C 140.546875 315.882812 140.722656 315.84375 140.894531 315.765625 C 141.0625 315.691406 141.210938 315.585938 141.335938 315.449219 C 141.464844 315.316406 141.5625 315.160156 141.625 314.988281 C 141.691406 314.8125 141.722656 314.632812 141.714844 314.449219 C 141.710938 314.261719 141.667969 314.085938 141.59375 313.917969 C 141.515625 313.75 141.410156 313.601562 141.277344 313.472656 C 141.019531 313.226562 140.757812 313.003906 140.5 312.785156 C 139.976562 311.898438 137.609375 307.578125 138.445312 304.023438 C 138.621094 303.28125 138.941406 302.605469 139.402344 301.996094 C 139.863281 301.386719 140.429688 300.894531 141.097656 300.523438 C 147.136719 296.867188 154.378906 297.332031 158.136719 299.113281 L 157.851562 299.46875 C 155.429688 299.554688 148.089844 300.0625 145.710938 303.289062 C 145.304688 303.832031 145.050781 304.4375 144.945312 305.109375 C 144.835938 305.777344 144.890625 306.433594 145.109375 307.078125 C 146.433594 311.449219 153.824219 313.589844 156.054688 314.144531 C 158.550781 314.765625 161.089844 315.082031 163.664062 315.097656 C 167.570312 315.097656 171.414062 314.242188 173.742188 311.886719 C 173.875 311.757812 173.976562 311.605469 174.050781 311.433594 C 174.125 311.261719 174.160156 311.082031 174.160156 310.894531 C 174.160156 310.707031 174.125 310.527344 174.050781 310.355469 C 173.980469 310.183594 173.875 310.03125 173.742188 309.898438 C 173.609375 309.769531 173.457031 309.667969 173.285156 309.597656 C 173.109375 309.527344 172.929688 309.496094 172.742188 309.496094 C 172.554688 309.5 172.378906 309.539062 172.207031 309.613281 C 172.035156 309.6875 171.882812 309.792969 171.753906 309.929688 C 170.738281 310.855469 169.554688 311.464844 168.210938 311.761719 C 170.792969 309.011719 173.203125 306.121094 175.4375 303.085938 C 176.730469 303.9375 177.675781 305.078125 178.28125 306.503906 Z M 155.394531 302.410156 C 153.722656 304.402344 151.828125 306.441406 149.765625 308.511719 C 148.699219 307.769531 147.980469 306.988281 147.753906 306.246094 C 147.558594 305.769531 147.617188 305.328125 147.929688 304.917969 C 148.972656 303.515625 152.355469 302.742188 155.40625 302.410156 Z M 164.109375 311.898438 C 163.988281 312.011719 163.894531 312.144531 163.824219 312.289062 C 161.410156 312.304688 159.035156 312.015625 156.695312 311.425781 C 155.191406 311.054688 153.730469 310.558594 152.308594 309.933594 C 172.402344 289.523438 174.285156 272.691406 174.46875 269.574219 L 178.660156 264.128906 L 187.253906 270.71875 C 183.035156 293.898438 164.320312 311.691406 164.121094 311.882812 Z M 202.480469 264.953125 L 193.695312 258.191406 L 186.929688 266.976562 L 178.15625 260.199219 L 171.390625 268.984375 L 95.582031 210.613281 C 94.738281 204.320312 94.703125 197.453125 96.769531 194.734375 C 97.019531 194.371094 97.34375 194.089844 97.742188 193.902344 C 98.140625 193.710938 98.5625 193.636719 99.003906 193.675781 C 102.5625 193.882812 104.914062 198.984375 106.257812 203.230469 C 107.257812 206.492188 107.972656 209.816406 108.40625 213.199219 C 108.425781 213.382812 108.484375 213.558594 108.574219 213.71875 C 108.660156 213.882812 108.78125 214.023438 108.925781 214.140625 C 109.070312 214.253906 109.230469 214.339844 109.410156 214.390625 C 109.589844 214.441406 109.769531 214.457031 109.957031 214.4375 C 110.140625 214.417969 110.3125 214.363281 110.476562 214.273438 C 110.640625 214.183594 110.78125 214.066406 110.894531 213.921875 C 111.011719 213.777344 111.097656 213.617188 111.148438 213.4375 C 111.203125 213.257812 111.21875 213.078125 111.199219 212.890625 C 110.753906 209.339844 110.011719 205.851562 108.964844 202.425781 C 106.621094 195.007812 103.332031 191.125 99.199219 190.890625 C 98.292969 190.824219 97.425781 190.980469 96.601562 191.363281 C 95.78125 191.746094 95.101562 192.308594 94.570312 193.042969 C 90.589844 198.28125 92.605469 212.292969 94.449219 219.144531 C 91.816406 218.316406 89.121094 217.945312 86.367188 218.027344 C 85.875 215.351562 85.179688 212.730469 84.273438 210.164062 C 83.949219 207.929688 81.316406 187.238281 92.878906 182.019531 C 93.808594 181.570312 94.777344 181.25 95.789062 181.050781 C 96.800781 180.855469 97.820312 180.796875 98.851562 180.867188 C 99.878906 180.941406 100.878906 181.144531 101.855469 181.480469 C 102.828125 181.816406 103.746094 182.269531 104.601562 182.847656 C 111.800781 187.484375 116.472656 199.335938 116.503906 213.03125 C 116.503906 213.214844 116.539062 213.394531 116.613281 213.566406 C 116.683594 213.734375 116.78125 213.886719 116.914062 214.019531 C 117.042969 214.148438 117.195312 214.25 117.367188 214.320312 C 117.539062 214.390625 117.714844 214.425781 117.902344 214.425781 C 118.085938 214.425781 118.261719 214.386719 118.433594 214.316406 C 118.605469 214.246094 118.753906 214.144531 118.886719 214.011719 C 119.015625 213.882812 119.117188 213.730469 119.1875 213.558594 C 119.257812 213.390625 119.296875 213.210938 119.296875 213.027344 C 119.257812 198.179688 114.207031 185.722656 106.113281 180.503906 C 105.433594 180.066406 104.722656 179.683594 103.980469 179.363281 C 103.242188 179.039062 102.476562 178.777344 101.695312 178.578125 C 100.910156 178.378906 100.117188 178.242188 99.3125 178.171875 C 98.507812 178.101562 97.699219 178.09375 96.894531 178.152344 C 96.089844 178.210938 95.292969 178.335938 94.503906 178.523438 C 93.71875 178.710938 92.953125 178.960938 92.207031 179.273438 C 91.460938 179.585938 90.746094 179.957031 90.058594 180.386719 C 89.375 180.8125 88.726562 181.292969 88.117188 181.824219 L 90.535156 178.695312 L 83.441406 173.296875 C 84.546875 172.398438 85.539062 171.386719 86.421875 170.265625 C 89.195312 171.355469 92.054688 172.125 95 172.570312 C 96.445312 172.785156 97.898438 172.894531 99.359375 172.902344 C 104.679688 172.902344 109.132812 171.304688 112.410156 168.195312 C 120.625 160.382812 119.367188 154.667969 118.789062 153.097656 C 118.625 152.597656 118.394531 152.132812 118.09375 151.703125 C 117.792969 151.273438 117.433594 150.898438 117.019531 150.574219 C 116.601562 150.253906 116.148438 150 115.65625 149.8125 C 115.164062 149.628906 114.65625 149.519531 114.132812 149.488281 C 110.539062 149.304688 103.289062 150.203125 97.613281 151.289062 L 106.203125 140.128906 C 114.050781 138.882812 125.113281 139.011719 135.296875 145.976562 C 135.449219 146.082031 135.617188 146.152344 135.800781 146.191406 C 135.980469 146.230469 136.160156 146.230469 136.34375 146.199219 C 136.527344 146.164062 136.695312 146.09375 136.851562 145.996094 C 137.003906 145.894531 137.136719 145.765625 137.238281 145.613281 C 137.34375 145.460938 137.414062 145.292969 137.453125 145.109375 C 137.492188 144.929688 137.492188 144.75 137.457031 144.566406 C 137.421875 144.382812 137.355469 144.214844 137.253906 144.0625 C 137.152344 143.90625 137.023438 143.777344 136.871094 143.671875 C 119.3125 131.707031 99.921875 138.300781 95.414062 140.105469 C 94.058594 137.53125 91.691406 134.976562 87.75 132.792969 C 86.941406 132.351562 86.113281 131.960938 85.253906 131.621094 C 89.699219 129.414062 94.347656 127.8125 99.207031 126.816406 C 108.9375 124.769531 124.554688 123.917969 143.753906 131.542969 C 143.925781 131.617188 144.105469 131.652344 144.289062 131.652344 C 144.476562 131.652344 144.65625 131.617188 144.828125 131.546875 C 145 131.476562 145.152344 131.375 145.285156 131.246094 C 145.417969 131.113281 145.519531 130.960938 145.589844 130.789062 C 145.660156 130.617188 145.699219 130.4375 145.699219 130.253906 C 145.699219 130.066406 145.664062 129.886719 145.59375 129.714844 C 145.523438 129.542969 145.421875 129.390625 145.289062 129.257812 C 145.160156 129.128906 145.007812 129.027344 144.835938 128.953125 C 136.699219 125.664062 128.261719 123.636719 119.519531 122.871094 L 154.425781 77.53125 L 161 82.59375 L 147.449219 100.152344 L 158.453125 108.621094 L 165.214844 99.835938 L 174 106.59375 L 182.464844 95.597656 L 164.894531 82.070312 L 169.953125 75.5 L 211.667969 107.617188 L 204.902344 116.402344 L 213.695312 123.164062 L 152.816406 202.230469 L 172.605469 217.464844 L 233.472656 138.390625 L 242.257812 145.140625 L 249.023438 136.355469 L 273.167969 154.945312 L 266.402344 163.730469 L 275.1875 170.488281 L 255.347656 196.253906 C 250.089844 193.347656 244.519531 191.269531 238.640625 190.023438 C 238.460938 189.988281 238.28125 189.988281 238.097656 190.023438 C 237.917969 190.058594 237.746094 190.125 237.59375 190.226562 C 237.4375 190.332031 237.308594 190.457031 237.207031 190.609375 C 237.101562 190.765625 237.03125 190.933594 236.996094 191.113281 C 236.957031 191.292969 236.957031 191.476562 236.992188 191.65625 C 237.027344 191.839844 237.097656 192.007812 237.199219 192.160156 C 237.300781 192.316406 237.429688 192.445312 237.582031 192.550781 C 237.734375 192.652344 237.902344 192.722656 238.085938 192.761719 C 238.289062 192.800781 257.441406 196.667969 263.109375 207.304688 L 262.964844 207.304688 C 258.699219 207.824219 254.75 209.242188 251.128906 211.558594 C 246.546875 203.375 233.039062 201.863281 232.429688 201.800781 C 232.246094 201.78125 232.0625 201.796875 231.882812 201.851562 C 231.703125 201.902344 231.542969 201.988281 231.398438 202.105469 C 231.253906 202.222656 231.136719 202.363281 231.046875 202.527344 C 230.957031 202.691406 230.902344 202.867188 230.882812 203.050781 C 230.867188 203.238281 230.882812 203.417969 230.9375 203.597656 C 230.988281 203.777344 231.074219 203.9375 231.191406 204.082031 C 231.308594 204.226562 231.449219 204.34375 231.617188 204.433594 C 231.78125 204.519531 231.953125 204.574219 232.140625 204.59375 C 232.246094 204.59375 240.144531 205.480469 245.34375 209.292969 L 238.6875 217.949219 C 235.554688 216.242188 232.246094 215.46875 228.964844 216.40625 C 224.347656 217.726562 222.886719 220.71875 222.480469 222.988281 C 221.851562 226.425781 223.1875 230.625 225.671875 234.855469 Z M 248.277344 222.621094 C 248.105469 223.703125 248.03125 224.789062 248.058594 225.886719 C 245.972656 223.464844 243.636719 221.3125 241.054688 219.425781 L 247.410156 211.167969 C 247.984375 211.800781 248.464844 212.5 248.855469 213.261719 C 248.234375 213.777344 247.710938 214.378906 247.28125 215.070312 C 245.652344 218.109375 247.019531 221.046875 248.285156 222.601562 Z M 325.398438 251.023438 C 325.136719 251.984375 324.214844 252.933594 322.71875 253.769531 C 318.320312 256.230469 309.089844 257.410156 301.09375 255.191406 C 300.0625 254.191406 298.972656 253.257812 297.820312 252.402344 C 297.671875 252.296875 297.503906 252.222656 297.324219 252.179688 C 297.144531 252.140625 296.960938 252.136719 296.777344 252.167969 C 296.597656 252.199219 296.425781 252.265625 296.269531 252.363281 C 296.113281 252.464844 295.984375 252.589844 295.875 252.738281 C 295.769531 252.890625 295.695312 253.058594 295.65625 253.238281 C 295.613281 253.417969 295.609375 253.601562 295.640625 253.78125 C 295.675781 253.964844 295.738281 254.132812 295.839844 254.289062 C 295.9375 254.445312 296.0625 254.578125 296.214844 254.683594 C 296.347656 254.78125 309.339844 264.089844 310.496094 280.140625 C 311.003906 287.152344 309.0625 292.058594 305.183594 293.605469 C 302.226562 294.777344 298.585938 293.675781 296.34375 290.925781 C 293.964844 288.015625 292.3125 284.097656 290.710938 280.320312 C 288.839844 275.894531 287.210938 272.03125 284.621094 270.128906 C 284.238281 268.089844 283.632812 266.121094 282.800781 264.21875 C 282.71875 264.0625 282.613281 263.925781 282.480469 263.808594 C 282.34375 263.691406 282.195312 263.605469 282.027344 263.546875 C 281.863281 263.488281 281.691406 263.460938 281.511719 263.46875 C 281.335938 263.476562 281.167969 263.511719 281.003906 263.585938 C 280.84375 263.65625 280.699219 263.753906 280.574219 263.878906 C 280.449219 264.003906 280.351562 264.148438 280.28125 264.3125 C 280.214844 264.472656 280.175781 264.644531 280.167969 264.820312 C 280.164062 264.996094 280.191406 265.167969 280.25 265.335938 C 284.230469 274.265625 282.378906 287.59375 278.140625 294.394531 C 276.585938 296.902344 274.792969 298.304688 273.117188 298.382812 C 265.550781 298.675781 261.125 290.953125 259.953125 275.425781 C 258.796875 260.183594 255.675781 257.988281 246.417969 251.460938 C 244.894531 250.386719 243.164062 249.164062 241.238281 247.746094 C 231.347656 240.425781 224.125 229.523438 225.207031 223.464844 C 225.605469 221.230469 227.078125 219.824219 229.710938 219.070312 C 235.394531 217.445312 241.652344 222.84375 245.898438 227.660156 C 248.992188 231.234375 251.734375 235.058594 254.125 239.136719 C 254.214844 239.296875 254.332031 239.433594 254.480469 239.550781 C 254.625 239.664062 254.785156 239.746094 254.964844 239.796875 C 255.144531 239.847656 255.324219 239.863281 255.507812 239.839844 C 255.691406 239.820312 255.867188 239.761719 256.027344 239.671875 C 256.1875 239.582031 256.328125 239.460938 256.441406 239.316406 C 256.554688 239.171875 256.636719 239.007812 256.6875 238.828125 C 256.738281 238.652344 256.75 238.46875 256.730469 238.285156 C 256.707031 238.101562 256.648438 237.929688 256.558594 237.769531 C 255.097656 235.257812 253.503906 232.839844 251.769531 230.511719 C 249.683594 225.175781 251.769531 220.097656 251.820312 220.03125 C 251.886719 219.871094 251.921875 219.707031 251.925781 219.535156 C 251.929688 219.363281 251.902344 219.195312 251.84375 219.03125 C 251.785156 218.871094 251.699219 218.722656 251.589844 218.59375 C 251.476562 218.460938 251.34375 218.355469 251.195312 218.273438 C 251.042969 218.191406 250.882812 218.140625 250.710938 218.117188 C 250.539062 218.09375 250.371094 218.101562 250.203125 218.144531 C 250.035156 218.183594 249.882812 218.253906 249.742188 218.347656 C 249.597656 218.445312 249.480469 218.566406 249.378906 218.707031 C 249.210938 217.894531 249.328125 217.125 249.730469 216.398438 C 250.507812 214.945312 256.234375 210.945312 263.3125 210.117188 C 268.335938 209.519531 275.742188 210.367188 282.289062 217.738281 C 294.253906 231.203125 295.492188 235.519531 295.617188 236.183594 C 295.445312 236.808594 295.804688 237.230469 296.410156 237.527344 C 296.8125 237.730469 306.351562 242.324219 316.503906 239.832031 C 319.460938 239.109375 321.777344 239.578125 323.390625 241.234375 C 325.796875 243.632812 326.230469 248.066406 325.410156 251.007812 Z M 325.398438 251.023438 " fill-opacity="1" fill-rule="nonzero"/></g><path fill="#000000" d="M 30.542969 210.328125 C 30.402344 210.207031 30.246094 210.117188 30.070312 210.058594 C 29.894531 209.996094 29.714844 209.972656 29.53125 209.984375 C 29.34375 209.996094 29.167969 210.042969 29.003906 210.125 C 28.835938 210.207031 28.691406 210.320312 28.570312 210.457031 L 16.320312 224.410156 C 16.199219 224.550781 16.105469 224.707031 16.046875 224.882812 C 15.988281 225.058594 15.964844 225.238281 15.976562 225.421875 C 15.988281 225.609375 16.035156 225.785156 16.117188 225.949219 C 16.199219 226.117188 16.308594 226.261719 16.449219 226.382812 C 16.710938 226.613281 17.019531 226.730469 17.371094 226.726562 C 17.789062 226.730469 18.140625 226.570312 18.417969 226.253906 L 30.667969 212.300781 C 30.792969 212.160156 30.882812 212.003906 30.941406 211.828125 C 31.003906 211.652344 31.027344 211.472656 31.015625 211.289062 C 31 211.105469 30.953125 210.929688 30.871094 210.761719 C 30.789062 210.597656 30.679688 210.453125 30.542969 210.328125 Z M 30.542969 210.328125 " fill-opacity="1" fill-rule="nonzero"/><path fill="#000000" d="M 60.871094 233.910156 C 60.730469 233.789062 60.574219 233.699219 60.402344 233.636719 C 60.226562 233.578125 60.046875 233.554688 59.863281 233.566406 C 59.679688 233.578125 59.503906 233.621094 59.335938 233.703125 C 59.171875 233.785156 59.027344 233.894531 58.90625 234.035156 L 46.625 247.988281 C 46.503906 248.125 46.414062 248.285156 46.355469 248.457031 C 46.296875 248.632812 46.273438 248.8125 46.285156 249 C 46.296875 249.183594 46.34375 249.359375 46.425781 249.523438 C 46.507812 249.6875 46.617188 249.832031 46.757812 249.957031 C 46.894531 250.078125 47.054688 250.167969 47.226562 250.226562 C 47.402344 250.285156 47.582031 250.3125 47.765625 250.300781 C 47.953125 250.289062 48.128906 250.242188 48.292969 250.160156 C 48.457031 250.078125 48.601562 249.96875 48.726562 249.828125 L 61.003906 235.875 C 61.125 235.738281 61.214844 235.578125 61.277344 235.40625 C 61.335938 235.230469 61.359375 235.050781 61.34375 234.867188 C 61.332031 234.679688 61.285156 234.507812 61.203125 234.339844 C 61.121094 234.175781 61.007812 234.03125 60.871094 233.910156 Z M 60.871094 233.910156 " fill-opacity="1" fill-rule="nonzero"/><path fill="#000000" d="M 71.78125 245.253906 L 60.941406 257.585938 C 60.820312 257.726562 60.730469 257.882812 60.671875 258.058594 C 60.609375 258.234375 60.585938 258.414062 60.597656 258.597656 C 60.609375 258.785156 60.65625 258.960938 60.738281 259.125 C 60.820312 259.292969 60.933594 259.433594 61.070312 259.558594 C 61.210938 259.679688 61.367188 259.769531 61.542969 259.828125 C 61.71875 259.890625 61.898438 259.914062 62.082031 259.902344 C 62.269531 259.890625 62.441406 259.84375 62.609375 259.761719 C 62.773438 259.679688 62.917969 259.566406 63.042969 259.429688 L 73.875 247.09375 C 74.007812 246.957031 74.105469 246.800781 74.171875 246.621094 C 74.242188 246.445312 74.269531 246.257812 74.261719 246.070312 C 74.253906 245.878906 74.210938 245.699219 74.128906 245.527344 C 74.046875 245.355469 73.933594 245.207031 73.789062 245.082031 C 73.648438 244.953125 73.484375 244.863281 73.304688 244.800781 C 73.125 244.742188 72.9375 244.722656 72.75 244.738281 C 72.558594 244.753906 72.382812 244.804688 72.214844 244.894531 C 72.046875 244.984375 71.902344 245.105469 71.78125 245.253906 Z M 71.78125 245.253906 " fill-opacity="1" fill-rule="nonzero"/><path fill="#000000" d="M 86.734375 257.585938 L 75.894531 269.921875 C 75.773438 270.0625 75.683594 270.21875 75.621094 270.394531 C 75.5625 270.570312 75.539062 270.75 75.550781 270.933594 C 75.5625 271.117188 75.609375 271.292969 75.691406 271.460938 C 75.773438 271.625 75.882812 271.769531 76.023438 271.890625 C 76.285156 272.125 76.59375 272.242188 76.945312 272.238281 C 77.367188 272.238281 77.714844 272.078125 77.992188 271.765625 L 88.828125 259.429688 C 88.960938 259.292969 89.058594 259.132812 89.125 258.957031 C 89.195312 258.777344 89.222656 258.59375 89.214844 258.402344 C 89.207031 258.214844 89.164062 258.03125 89.082031 257.859375 C 89 257.691406 88.886719 257.539062 88.742188 257.414062 C 88.601562 257.289062 88.4375 257.195312 88.257812 257.136719 C 88.078125 257.078125 87.890625 257.054688 87.703125 257.074219 C 87.511719 257.089844 87.332031 257.140625 87.164062 257.230469 C 86.996094 257.320312 86.855469 257.4375 86.734375 257.585938 Z M 86.734375 257.585938 " fill-opacity="1" fill-rule="nonzero"/><path fill="#000000" d="M 51.253906 217.300781 C 51.113281 217.179688 50.957031 217.089844 50.785156 217.027344 C 50.609375 216.96875 50.429688 216.945312 50.246094 216.957031 C 50.058594 216.96875 49.886719 217.015625 49.71875 217.097656 C 49.554688 217.179688 49.410156 217.289062 49.289062 217.429688 L 28.570312 241.011719 C 28.394531 241.21875 28.285156 241.457031 28.246094 241.726562 C 28.207031 241.996094 28.242188 242.253906 28.355469 242.503906 C 28.46875 242.753906 28.640625 242.953125 28.867188 243.101562 C 29.097656 243.25 29.347656 243.324219 29.621094 243.328125 C 30.039062 243.324219 30.390625 243.167969 30.667969 242.851562 L 51.382812 219.269531 C 51.503906 219.132812 51.59375 218.976562 51.65625 218.800781 C 51.714844 218.625 51.738281 218.445312 51.726562 218.257812 C 51.714844 218.074219 51.667969 217.898438 51.585938 217.734375 C 51.503906 217.566406 51.394531 217.421875 51.253906 217.300781 Z M 51.253906 217.300781 " fill-opacity="1" fill-rule="nonzero"/><path fill="#000000" d="M 97.757812 101.402344 C 98.171875 101.53125 98.59375 101.613281 99.027344 101.65625 C 99.457031 101.699219 99.890625 101.699219 100.320312 101.65625 C 100.753906 101.613281 101.175781 101.527344 101.589844 101.402344 C 102.003906 101.277344 102.402344 101.113281 102.785156 100.90625 C 103.167969 100.703125 103.527344 100.460938 103.863281 100.1875 C 104.195312 99.914062 104.5 99.609375 104.777344 99.273438 C 105.050781 98.9375 105.289062 98.578125 105.496094 98.195312 C 105.699219 97.8125 105.863281 97.414062 105.988281 97 L 110.578125 81.847656 L 112.359375 82.40625 C 112.855469 82.554688 113.363281 82.605469 113.878906 82.554688 C 114.394531 82.503906 114.882812 82.355469 115.339844 82.109375 C 115.796875 81.863281 116.191406 81.539062 116.519531 81.136719 C 116.847656 80.738281 117.089844 80.289062 117.238281 79.789062 C 117.390625 79.292969 117.4375 78.785156 117.386719 78.269531 C 117.335938 77.753906 117.1875 77.265625 116.941406 76.808594 C 116.699219 76.351562 116.375 75.957031 115.972656 75.628906 C 115.570312 75.300781 115.121094 75.058594 114.625 74.910156 L 112.847656 74.351562 L 110.230469 73.546875 L 107.960938 81.042969 L 104.925781 91.0625 C 104.605469 90.652344 104.246094 90.28125 103.84375 89.957031 C 103.4375 89.628906 103 89.355469 102.53125 89.132812 C 102.0625 88.910156 101.574219 88.746094 101.066406 88.636719 C 100.558594 88.53125 100.042969 88.480469 99.527344 88.496094 C 99.007812 88.511719 98.496094 88.582031 97.996094 88.71875 C 97.492188 88.851562 97.015625 89.042969 96.558594 89.289062 C 96.101562 89.539062 95.679688 89.835938 95.292969 90.183594 C 94.90625 90.527344 94.566406 90.914062 94.269531 91.34375 C 93.976562 91.769531 93.734375 92.226562 93.546875 92.710938 C 93.359375 93.195312 93.230469 93.695312 93.160156 94.210938 C 93.09375 94.722656 93.085938 95.238281 93.136719 95.757812 C 93.1875 96.273438 93.300781 96.777344 93.472656 97.265625 C 93.644531 97.757812 93.871094 98.21875 94.148438 98.65625 C 94.429688 99.09375 94.757812 99.492188 95.132812 99.851562 C 95.507812 100.210938 95.917969 100.523438 96.367188 100.785156 C 96.816406 101.046875 97.289062 101.253906 97.785156 101.402344 Z M 97.757812 101.402344 " fill-opacity="1" fill-rule="nonzero"/><path fill="#000000" d="M 58.148438 105.066406 C 58.375 105.066406 58.597656 105.109375 58.808594 105.195312 C 59.019531 105.285156 59.207031 105.410156 59.367188 105.570312 C 59.53125 105.730469 59.65625 105.917969 59.742188 106.128906 C 59.832031 106.339844 59.875 106.5625 59.875 106.789062 L 59.875 109.164062 C 59.875 109.417969 59.925781 109.667969 60.023438 109.902344 C 60.121094 110.140625 60.261719 110.351562 60.445312 110.53125 C 60.625 110.714844 60.835938 110.851562 61.074219 110.953125 C 61.308594 111.050781 61.558594 111.097656 61.8125 111.097656 L 62.171875 111.097656 C 62.425781 111.097656 62.675781 111.050781 62.910156 110.953125 C 63.148438 110.851562 63.359375 110.714844 63.539062 110.53125 C 63.722656 110.351562 63.863281 110.140625 63.960938 109.902344 C 64.058594 109.667969 64.109375 109.417969 64.109375 109.164062 L 64.109375 106.789062 C 64.109375 106.5625 64.152344 106.339844 64.242188 106.128906 C 64.328125 105.917969 64.453125 105.730469 64.617188 105.570312 C 64.777344 105.410156 64.964844 105.285156 65.175781 105.195312 C 65.386719 105.109375 65.609375 105.066406 65.835938 105.066406 C 66.117188 105.066406 66.390625 105.011719 66.648438 104.90625 C 66.910156 104.800781 67.136719 104.644531 67.335938 104.449219 C 67.535156 104.25 67.691406 104.019531 67.796875 103.761719 C 67.90625 103.5 67.957031 103.230469 67.957031 102.949219 C 67.957031 102.667969 67.90625 102.398438 67.796875 102.140625 C 67.691406 101.878906 67.535156 101.652344 67.335938 101.453125 C 67.136719 101.253906 66.910156 101.101562 66.648438 100.996094 C 66.390625 100.886719 66.117188 100.835938 65.835938 100.835938 C 65.609375 100.835938 65.386719 100.789062 65.175781 100.703125 C 64.964844 100.617188 64.777344 100.492188 64.613281 100.328125 C 64.453125 100.164062 64.328125 99.980469 64.238281 99.765625 C 64.152344 99.554688 64.109375 99.335938 64.109375 99.105469 L 64.109375 96.738281 C 64.109375 96.480469 64.058594 96.234375 63.960938 95.996094 C 63.863281 95.757812 63.722656 95.550781 63.539062 95.367188 C 63.359375 95.1875 63.148438 95.046875 62.910156 94.949219 C 62.675781 94.851562 62.425781 94.800781 62.171875 94.800781 L 61.8125 94.800781 C 61.558594 94.800781 61.308594 94.851562 61.074219 94.949219 C 60.835938 95.046875 60.625 95.1875 60.445312 95.367188 C 60.261719 95.550781 60.121094 95.757812 60.023438 95.996094 C 59.925781 96.234375 59.875 96.480469 59.875 96.738281 L 59.875 99.105469 C 59.875 99.335938 59.832031 99.554688 59.746094 99.765625 C 59.65625 99.980469 59.53125 100.164062 59.371094 100.328125 C 59.207031 100.492188 59.019531 100.617188 58.808594 100.703125 C 58.597656 100.789062 58.375 100.835938 58.148438 100.835938 C 57.867188 100.835938 57.597656 100.890625 57.339844 100.996094 C 57.082031 101.105469 56.851562 101.257812 56.65625 101.457031 C 56.457031 101.65625 56.304688 101.882812 56.199219 102.140625 C 56.089844 102.402344 56.035156 102.671875 56.039062 102.949219 C 56.035156 103.230469 56.089844 103.5 56.199219 103.757812 C 56.304688 104.015625 56.457031 104.246094 56.65625 104.445312 C 56.851562 104.640625 57.082031 104.796875 57.339844 104.902344 C 57.597656 105.011719 57.867188 105.066406 58.148438 105.066406 Z M 58.148438 105.066406 " fill-opacity="1" fill-rule="nonzero"/><path fill="#000000" d="M 272.511719 199.835938 C 272.339844 199.90625 272.1875 200.007812 272.054688 200.136719 C 271.925781 200.265625 271.824219 200.417969 271.75 200.589844 C 271.679688 200.757812 271.644531 200.9375 271.640625 201.121094 C 271.640625 201.308594 271.675781 201.484375 271.746094 201.65625 C 271.816406 201.828125 271.914062 201.980469 272.046875 202.109375 C 272.175781 202.242188 272.324219 202.34375 272.496094 202.414062 C 272.667969 202.488281 272.84375 202.523438 273.03125 202.523438 C 273.214844 202.527344 273.394531 202.492188 273.566406 202.421875 C 273.664062 202.375 283.96875 199.152344 299.105469 227.539062 C 299.226562 227.765625 299.398438 227.945312 299.621094 228.074219 C 299.839844 228.207031 300.082031 228.273438 300.339844 228.273438 C 300.570312 228.277344 300.789062 228.222656 300.992188 228.113281 C 301.152344 228.023438 301.292969 227.90625 301.40625 227.761719 C 301.523438 227.617188 301.609375 227.457031 301.660156 227.28125 C 301.710938 227.105469 301.730469 226.921875 301.710938 226.738281 C 301.691406 226.554688 301.636719 226.382812 301.550781 226.21875 C 285.011719 195.199219 273.011719 199.652344 272.511719 199.835938 Z M 272.511719 199.835938 " fill-opacity="1" fill-rule="nonzero"/><path fill="#000000" d="M 277.359375 193.816406 C 277.339844 194 277.355469 194.179688 277.40625 194.355469 C 277.457031 194.535156 277.539062 194.695312 277.652344 194.839844 C 277.769531 194.984375 277.90625 195.101562 278.070312 195.191406 C 278.230469 195.28125 278.40625 195.335938 278.589844 195.355469 C 278.644531 195.355469 284.246094 196.074219 290.175781 204.015625 C 290.453125 204.390625 290.824219 204.578125 291.292969 204.574219 C 291.554688 204.578125 291.800781 204.507812 292.027344 204.371094 C 292.253906 204.234375 292.425781 204.042969 292.546875 203.808594 C 292.664062 203.570312 292.710938 203.320312 292.6875 203.054688 C 292.660156 202.792969 292.566406 202.554688 292.40625 202.34375 C 285.765625 193.445312 279.179688 192.613281 278.902344 192.582031 C 278.714844 192.5625 278.535156 192.578125 278.359375 192.628906 C 278.179688 192.679688 278.019531 192.761719 277.875 192.878906 C 277.730469 192.996094 277.613281 193.132812 277.523438 193.296875 C 277.433594 193.457031 277.378906 193.628906 277.359375 193.816406 Z M 277.359375 193.816406 " fill-opacity="1" fill-rule="nonzero"/><path fill="#000000" d="M 196.25 274.957031 C 196.066406 274.957031 195.890625 274.992188 195.71875 275.0625 C 195.546875 275.132812 195.394531 275.234375 195.265625 275.367188 C 195.132812 275.496094 195.035156 275.648438 194.960938 275.816406 C 194.890625 275.988281 194.855469 276.167969 194.855469 276.351562 C 194.855469 276.453125 194.75 286.285156 185.769531 298.082031 C 185.613281 298.292969 185.519531 298.527344 185.496094 298.792969 C 185.472656 299.054688 185.519531 299.304688 185.636719 299.542969 C 185.757812 299.777344 185.929688 299.964844 186.152344 300.105469 C 186.378906 300.242188 186.621094 300.3125 186.886719 300.3125 C 187.351562 300.316406 187.722656 300.128906 188.003906 299.753906 C 197.546875 287.21875 197.660156 276.777344 197.660156 276.3125 C 197.652344 276.128906 197.613281 275.957031 197.539062 275.789062 C 197.464844 275.621094 197.363281 275.472656 197.230469 275.347656 C 197.101562 275.21875 196.949219 275.125 196.78125 275.054688 C 196.609375 274.988281 196.433594 274.953125 196.25 274.957031 Z M 196.25 274.957031 " fill-opacity="1" fill-rule="nonzero"/><path fill="#000000" d="M 196.25 301.195312 C 196.582031 301.191406 196.871094 301.089844 197.128906 300.882812 C 198.128906 300.085938 199.027344 299.1875 199.824219 298.183594 C 200.621094 297.183594 201.289062 296.105469 201.835938 294.949219 C 202.386719 293.789062 202.792969 292.585938 203.066406 291.335938 C 203.335938 290.085938 203.460938 288.820312 203.441406 287.542969 C 203.429688 287.359375 203.378906 287.183594 203.296875 287.015625 C 203.214844 286.851562 203.105469 286.707031 202.964844 286.582031 C 202.824219 286.460938 202.667969 286.371094 202.492188 286.3125 C 202.316406 286.253906 202.136719 286.230469 201.949219 286.242188 C 201.765625 286.253906 201.589844 286.300781 201.421875 286.382812 C 201.257812 286.46875 201.113281 286.578125 200.992188 286.71875 C 200.871094 286.859375 200.777344 287.015625 200.71875 287.191406 C 200.660156 287.367188 200.636719 287.546875 200.648438 287.730469 C 200.65625 288.789062 200.542969 289.828125 200.308594 290.859375 C 200.078125 291.886719 199.734375 292.878906 199.277344 293.828125 C 198.820312 294.78125 198.265625 295.667969 197.605469 296.492188 C 196.949219 297.320312 196.207031 298.058594 195.382812 298.714844 C 195.152344 298.902344 194.996094 299.136719 194.917969 299.421875 C 194.835938 299.707031 194.847656 299.988281 194.945312 300.265625 C 195.046875 300.546875 195.214844 300.769531 195.457031 300.941406 C 195.699219 301.109375 195.96875 301.195312 196.261719 301.195312 Z M 196.25 301.195312 " fill-opacity="1" fill-rule="nonzero"/><path fill="#000000" d="M 84.847656 123.304688 C 85.132812 123.304688 85.390625 123.226562 85.625 123.066406 C 85.730469 123 96.472656 115.984375 117.164062 116.824219 C 117.347656 116.832031 117.527344 116.804688 117.703125 116.742188 C 117.878906 116.675781 118.03125 116.582031 118.167969 116.457031 C 118.304688 116.332031 118.414062 116.183594 118.488281 116.015625 C 118.566406 115.847656 118.609375 115.671875 118.617188 115.484375 C 118.625 115.300781 118.597656 115.121094 118.53125 114.945312 C 118.46875 114.773438 118.375 114.617188 118.246094 114.480469 C 118.121094 114.347656 117.972656 114.238281 117.804688 114.160156 C 117.636719 114.085938 117.460938 114.042969 117.277344 114.035156 C 95.601562 113.152344 84.523438 120.4375 84.066406 120.730469 C 83.8125 120.902344 83.636719 121.132812 83.53125 121.421875 C 83.429688 121.710938 83.425781 122.003906 83.515625 122.296875 C 83.605469 122.589844 83.773438 122.828125 84.019531 123.007812 C 84.265625 123.191406 84.542969 123.28125 84.847656 123.28125 Z M 84.847656 123.304688 " fill-opacity="1" fill-rule="nonzero"/><g clip-path="url(#d5d5f00207)"><g clip-path="url(#efc0685f4a)"><g clip-path="url(#086bb56f3d)"><g clip-path="url(#82d895b8d8)"><path fill="#ffb90d" d="M 285.5 32.84375 L 281.863281 58.332031 L 300.8125 75.816406 L 275.417969 80.1875 L 264.664062 103.578125 L 252.617188 80.800781 L 227.015625 77.769531 L 244.960938 59.304688 L 239.894531 34.050781 L 263.035156 45.421875 Z M 285.5 32.84375 " fill-opacity="1" fill-rule="nonzero"/></g></g></g></g><g clip-path="url(#f090947e93)"><g clip-path="url(#46fa3897a7)"><g clip-path="url(#0036c90b5a)"><g clip-path="url(#ef18bc7186)"><path fill="#ffb90d" d="M 335.421875 96.445312 L 333.039062 113.136719 L 345.4375 124.570312 L 328.816406 127.4375 L 321.78125 142.742188 L 313.902344 127.832031 L 297.144531 125.847656 L 308.886719 113.769531 L 305.566406 97.234375 L 320.714844 104.6875 Z M 335.421875 96.445312 " fill-opacity="1" fill-rule="nonzero"/></g></g></g></g><g clip-path="url(#b733583f7c)"><g clip-path="url(#adaa0c524b)"><g clip-path="url(#b761b70778)"><g clip-path="url(#e2b88c7425)"><path fill="#ffb90d" d="M 365.390625 157.46875 L 363.515625 170.59375 L 373.265625 179.597656 L 360.203125 181.855469 L 354.664062 193.898438 L 348.460938 182.160156 L 335.277344 180.605469 L 344.511719 171.097656 L 341.894531 158.089844 L 353.824219 163.945312 Z M 365.390625 157.46875 " fill-opacity="1" fill-rule="nonzero"/></g></g></g></g><g clip-path="url(#48b605fe51)"><g clip-path="url(#77d96aeced)"><g clip-path="url(#9efe27d2e3)"><g clip-path="url(#1db9f670dc)"><path fill="#ffb90d" d="M 208.378906 9.34375 L 193.667969 17.582031 L 178.53125 10.140625 L 181.851562 26.675781 L 170.113281 38.753906 L 186.859375 40.730469 L 194.75 55.644531 L 201.78125 40.339844 L 218.40625 37.476562 L 205.992188 26.035156 Z M 208.378906 9.34375 " fill-opacity="1" fill-rule="nonzero"/></g></g></g></g><g clip-path="url(#fc3ac47cc0)"><g clip-path="url(#435fd6c3be)"><g clip-path="url(#cb85c2d3ce)"><g clip-path="url(#2097be5a6e)"><path fill="#ffb90d" d="M 140.65625 3.386719 L 129.089844 9.867188 L 117.175781 4.019531 L 119.777344 17.019531 L 110.542969 26.527344 L 123.726562 28.082031 L 129.929688 39.816406 L 135.46875 27.777344 L 148.542969 25.527344 L 138.78125 16.511719 Z M 140.65625 3.386719 " fill-opacity="1" fill-rule="nonzero"/></g></g></g></g></svg>