<svg xmlns="http://www.w3.org/2000/svg" xmlns:xlink="http://www.w3.org/1999/xlink" width="500" zoomAndPan="magnify" viewBox="0 0 375 374.999991" height="500" preserveAspectRatio="xMidYMid meet" version="1.0"><defs><clipPath id="62992f3791"><path d="M 1 14.609375 L 375 14.609375 L 375 360.359375 L 1 360.359375 Z M 1 14.609375 " clip-rule="nonzero"/></clipPath></defs><path fill="#5c84f7" d="M 95.972656 146.015625 L 95.394531 146.757812 L 95.539062 146.875 C 95.707031 146.582031 95.828125 146.296875 95.972656 146.015625 Z M 95.972656 146.015625 " fill-opacity="1" fill-rule="nonzero"/><path fill="#ffffff" d="M 199.867188 278.425781 C 197.320312 281.882812 194.578125 285.179688 191.632812 288.308594 C 193.164062 287.972656 194.511719 287.277344 195.671875 286.222656 C 195.820312 286.066406 195.988281 285.949219 196.183594 285.863281 C 196.378906 285.777344 196.585938 285.734375 196.796875 285.730469 C 197.011719 285.726562 197.214844 285.765625 197.414062 285.84375 C 197.609375 285.921875 197.785156 286.039062 197.9375 286.1875 C 198.089844 286.335938 198.207031 286.511719 198.289062 286.707031 C 198.371094 286.902344 198.410156 287.109375 198.410156 287.320312 C 198.410156 287.535156 198.371094 287.738281 198.289062 287.9375 C 198.203125 288.132812 198.085938 288.304688 197.933594 288.453125 C 195.285156 291.136719 190.941406 292.109375 186.449219 292.109375 C 183.519531 292.09375 180.628906 291.730469 177.78125 291.023438 C 175.238281 290.386719 166.820312 287.953125 165.3125 282.972656 C 165.066406 282.242188 165.003906 281.492188 165.125 280.730469 C 165.246094 279.964844 165.535156 279.273438 166 278.65625 C 168.707031 274.980469 177.070312 274.402344 179.832031 274.304688 L 180.15625 273.898438 C 175.875 271.871094 167.621094 271.355469 160.742188 275.507812 C 159.980469 275.929688 159.335938 276.488281 158.808594 277.179688 C 158.28125 277.875 157.921875 278.648438 157.71875 279.492188 C 156.765625 283.542969 159.460938 288.46875 160.058594 289.476562 C 160.351562 289.726562 160.652344 289.980469 160.945312 290.261719 C 161.097656 290.40625 161.21875 290.574219 161.304688 290.765625 C 161.390625 290.957031 161.4375 291.160156 161.441406 291.371094 C 161.449219 291.582031 161.414062 291.785156 161.339844 291.980469 C 161.265625 292.179688 161.15625 292.355469 161.011719 292.507812 C 160.867188 292.660156 160.699219 292.78125 160.503906 292.867188 C 160.3125 292.953125 160.113281 293 159.902344 293.007812 C 159.691406 293.011719 159.484375 292.980469 159.289062 292.902344 C 159.089844 292.828125 158.917969 292.71875 158.761719 292.574219 C 158.457031 292.28125 158.128906 292.015625 157.839844 291.765625 C 153.109375 287.953125 148.125 289.03125 144.773438 290.589844 C 137.492188 293.972656 131.851562 302.375 131.652344 310.125 C 131.53125 314.769531 132.582031 330.792969 151.183594 342.316406 C 159.296875 347.359375 169.625 350.769531 181.949219 352.445312 C 205.527344 355.664062 228.097656 348.707031 242.875 342.273438 C 247.15625 340.421875 251.296875 338.398438 255.179688 336.261719 C 256.050781 335.78125 256.859375 335.214844 257.609375 334.558594 C 258.359375 333.902344 259.027344 333.175781 259.617188 332.375 C 260.207031 331.574219 260.707031 330.722656 261.113281 329.8125 C 261.515625 328.90625 261.820312 327.964844 262.023438 326.992188 C 263.960938 317.660156 262.398438 309.039062 257.628906 302.703125 C 252.585938 296.007812 244.101562 292.027344 233.089844 291.195312 C 222.957031 290.433594 213.222656 293.65625 204.148438 300.789062 C 204.128906 300.824219 204.113281 300.863281 204.105469 300.898438 C 203.992188 301.15625 203.820312 301.371094 203.59375 301.539062 C 203.367188 301.703125 203.113281 301.804688 202.832031 301.832031 C 197.546875 306.261719 193.082031 311.402344 189.441406 317.253906 C 189.335938 317.4375 189.199219 317.59375 189.03125 317.722656 C 188.863281 317.851562 188.679688 317.945312 188.476562 318 C 188.273438 318.054688 188.066406 318.066406 187.855469 318.039062 C 187.648438 318.015625 187.449219 317.949219 187.269531 317.84375 C 187.085938 317.738281 186.929688 317.601562 186.800781 317.433594 C 186.671875 317.269531 186.578125 317.082031 186.523438 316.878906 C 186.46875 316.675781 186.453125 316.46875 186.480469 316.257812 C 186.507812 316.050781 186.574219 315.855469 186.679688 315.671875 C 190.664062 309.210938 195.605469 303.59375 201.503906 298.8125 C 204.277344 291.957031 204.835938 286.265625 203.105469 282.316406 C 202.417969 280.695312 201.339844 279.394531 199.867188 278.425781 Z M 225.265625 339.996094 C 234.136719 337.214844 242.667969 333.636719 250.867188 329.261719 C 251.054688 329.152344 251.257812 329.085938 251.472656 329.058594 C 251.6875 329.035156 251.898438 329.050781 252.105469 329.113281 C 252.3125 329.171875 252.5 329.269531 252.667969 329.40625 C 252.832031 329.542969 252.96875 329.707031 253.070312 329.898438 C 253.167969 330.089844 253.230469 330.292969 253.246094 330.507812 C 253.265625 330.722656 253.238281 330.933594 253.171875 331.136719 C 253.105469 331.34375 253 331.527344 252.855469 331.6875 C 252.714844 331.851562 252.546875 331.976562 252.351562 332.070312 C 243.96875 336.539062 235.246094 340.195312 226.183594 343.035156 C 215.890625 346.296875 205.347656 347.964844 194.550781 348.039062 C 184.65625 348.109375 175.054688 346.464844 165.746094 343.109375 C 151.679688 337.964844 144.398438 330.683594 144.09375 330.394531 C 143.949219 330.242188 143.839844 330.070312 143.761719 329.875 C 143.6875 329.679688 143.648438 329.480469 143.652344 329.269531 C 143.65625 329.0625 143.699219 328.863281 143.78125 328.671875 C 143.863281 328.480469 143.976562 328.308594 144.125 328.164062 C 144.273438 328.015625 144.445312 327.902344 144.636719 327.824219 C 144.832031 327.746094 145.03125 327.707031 145.242188 327.707031 C 145.449219 327.707031 145.648438 327.746094 145.84375 327.824219 C 146.035156 327.902344 146.207031 328.015625 146.355469 328.160156 C 146.425781 328.230469 153.484375 335.257812 166.839844 340.148438 C 178.921875 344.5625 198.84375 348.128906 225.265625 339.996094 Z M 225.265625 339.996094 " fill-opacity="1" fill-rule="nonzero"/><path fill="#ffffff" d="M 92.0625 203.570312 C 81.734375 198.839844 76.296875 190.855469 71.03125 183.082031 C 65.5625 175.027344 59.902344 166.695312 48.53125 161.320312 C 28.183594 151.71875 10.964844 162.332031 8.570312 163.917969 C 6.941406 166.351562 5.796875 169 5.144531 171.859375 C 1.457031 188.941406 18.550781 215.992188 46.117188 225.277344 C 66.683594 232.199219 70.917969 236.84375 77.308594 243.863281 C 80.378906 247.324219 83.640625 250.585938 87.101562 253.65625 C 93.351562 259.164062 100.609375 258.558594 105.59375 257.085938 C 108.839844 256.082031 111.871094 254.632812 114.6875 252.726562 C 115.660156 250.996094 116.441406 249.183594 117.03125 247.285156 C 117.625 245.390625 118.011719 243.453125 118.195312 241.472656 C 118.378906 239.496094 118.355469 237.519531 118.121094 235.546875 C 117.890625 233.574219 117.457031 231.648438 116.816406 229.765625 C 113.359375 219.019531 103.871094 208.984375 92.0625 203.570312 Z M 19.789062 191.445312 C 19.390625 191.449219 19.039062 191.316406 18.742188 191.050781 C 18.582031 190.910156 18.457031 190.746094 18.363281 190.558594 C 18.269531 190.371094 18.214844 190.167969 18.203125 189.957031 C 18.1875 189.75 18.214844 189.542969 18.285156 189.34375 C 18.351562 189.144531 18.453125 188.964844 18.59375 188.804688 L 32.550781 172.90625 C 32.691406 172.75 32.855469 172.625 33.046875 172.53125 C 33.234375 172.4375 33.433594 172.382812 33.644531 172.371094 C 33.855469 172.355469 34.058594 172.382812 34.261719 172.453125 C 34.460938 172.519531 34.640625 172.621094 34.796875 172.761719 C 34.957031 172.902344 35.082031 173.066406 35.175781 173.253906 C 35.269531 173.445312 35.320312 173.644531 35.335938 173.855469 C 35.347656 174.0625 35.320312 174.269531 35.253906 174.46875 C 35.1875 174.667969 35.082031 174.847656 34.945312 175.007812 L 20.984375 190.90625 C 20.667969 191.265625 20.269531 191.445312 19.789062 191.445312 Z M 34.945312 209.828125 C 34.625 210.1875 34.226562 210.367188 33.75 210.371094 C 33.4375 210.367188 33.152344 210.28125 32.890625 210.113281 C 32.628906 209.941406 32.433594 209.714844 32.308594 209.433594 C 32.179688 209.148438 32.136719 208.855469 32.179688 208.546875 C 32.226562 208.238281 32.347656 207.964844 32.550781 207.730469 L 56.15625 180.863281 C 56.292969 180.695312 56.457031 180.558594 56.648438 180.457031 C 56.839844 180.355469 57.042969 180.296875 57.261719 180.277344 C 57.476562 180.257812 57.6875 180.28125 57.894531 180.351562 C 58.097656 180.417969 58.285156 180.523438 58.445312 180.667969 C 58.609375 180.808594 58.738281 180.980469 58.832031 181.175781 C 58.925781 181.371094 58.976562 181.578125 58.984375 181.792969 C 58.992188 182.011719 58.960938 182.21875 58.882812 182.421875 C 58.804688 182.625 58.691406 182.804688 58.542969 182.960938 Z M 54.371094 218.3125 C 54.058594 218.3125 53.769531 218.226562 53.507812 218.058594 C 53.246094 217.890625 53.050781 217.664062 52.921875 217.378906 C 52.792969 217.09375 52.75 216.796875 52.796875 216.488281 C 52.84375 216.179688 52.96875 215.90625 53.175781 215.671875 L 67.164062 199.777344 C 67.308594 199.628906 67.472656 199.511719 67.660156 199.425781 C 67.84375 199.34375 68.039062 199.296875 68.246094 199.289062 C 68.449219 199.28125 68.648438 199.308594 68.84375 199.378906 C 69.035156 199.445312 69.207031 199.546875 69.363281 199.683594 C 69.515625 199.820312 69.640625 199.976562 69.730469 200.160156 C 69.824219 200.34375 69.878906 200.535156 69.894531 200.742188 C 69.914062 200.945312 69.890625 201.144531 69.832031 201.339844 C 69.773438 201.535156 69.679688 201.714844 69.550781 201.875 L 55.558594 217.773438 C 55.246094 218.132812 54.847656 218.3125 54.371094 218.3125 Z M 84.195312 214.664062 L 71.851562 228.714844 C 71.535156 229.074219 71.136719 229.253906 70.65625 229.257812 C 70.34375 229.257812 70.058594 229.171875 69.792969 229.003906 C 69.53125 228.835938 69.335938 228.605469 69.207031 228.324219 C 69.078125 228.039062 69.035156 227.742188 69.082031 227.433594 C 69.128906 227.125 69.253906 226.851562 69.460938 226.617188 L 81.8125 212.5625 C 81.945312 212.394531 82.109375 212.257812 82.300781 212.15625 C 82.492188 212.054688 82.695312 211.996094 82.914062 211.976562 C 83.128906 211.957031 83.339844 211.984375 83.546875 212.050781 C 83.75 212.117188 83.9375 212.222656 84.097656 212.367188 C 84.261719 212.511719 84.390625 212.679688 84.484375 212.875 C 84.578125 213.070312 84.628906 213.277344 84.636719 213.496094 C 84.644531 213.710938 84.613281 213.921875 84.535156 214.125 C 84.460938 214.328125 84.34375 214.507812 84.195312 214.664062 Z M 101.230469 228.714844 L 88.886719 242.769531 C 88.570312 243.128906 88.171875 243.308594 87.691406 243.308594 C 87.292969 243.3125 86.941406 243.183594 86.644531 242.917969 C 86.484375 242.777344 86.359375 242.613281 86.265625 242.421875 C 86.171875 242.234375 86.117188 242.035156 86.105469 241.824219 C 86.089844 241.613281 86.117188 241.410156 86.1875 241.207031 C 86.253906 241.007812 86.359375 240.828125 86.496094 240.671875 L 98.847656 226.617188 C 98.984375 226.449219 99.148438 226.3125 99.339844 226.210938 C 99.53125 226.109375 99.734375 226.050781 99.949219 226.03125 C 100.164062 226.011719 100.375 226.035156 100.582031 226.105469 C 100.789062 226.171875 100.972656 226.277344 101.136719 226.421875 C 101.296875 226.566406 101.425781 226.734375 101.519531 226.929688 C 101.613281 227.125 101.664062 227.332031 101.671875 227.546875 C 101.683594 227.765625 101.648438 227.972656 101.570312 228.175781 C 101.496094 228.378906 101.382812 228.558594 101.230469 228.714844 Z M 101.230469 228.714844 " fill-opacity="1" fill-rule="nonzero"/><path fill="#ffffff" d="M 40.589844 139.960938 C 47.796875 139.394531 53.945312 136.417969 57.472656 131.789062 C 57.675781 131.523438 57.9375 131.34375 58.253906 131.242188 C 58.574219 131.140625 58.890625 131.136719 59.210938 131.238281 C 59.496094 131.324219 87.828125 139.867188 97.550781 122.828125 C 97.65625 122.648438 97.789062 122.492188 97.957031 122.363281 C 98.125 122.234375 98.308594 122.140625 98.511719 122.085938 C 98.714844 122.03125 98.921875 122.015625 99.128906 122.042969 C 99.339844 122.070312 99.535156 122.136719 99.71875 122.238281 C 99.902344 122.34375 100.058594 122.480469 100.1875 122.644531 C 100.316406 122.8125 100.410156 122.996094 100.464844 123.199219 C 100.519531 123.402344 100.535156 123.609375 100.511719 123.816406 C 100.484375 124.027344 100.417969 124.222656 100.316406 124.40625 C 104.9375 126.125 117.988281 129.976562 125.910156 122.460938 C 132.226562 116.464844 133.394531 111.402344 132.386719 108.660156 C 132.222656 108.09375 131.914062 107.625 131.457031 107.25 C 131.003906 106.875 130.480469 106.667969 129.890625 106.621094 C 125.148438 106.371094 113.875 108 107.691406 109.511719 C 107.386719 109.589844 107.085938 109.574219 106.792969 109.472656 C 106.496094 109.371094 106.25 109.195312 106.058594 108.949219 C 105.867188 108.699219 105.757812 108.417969 105.734375 108.105469 C 105.707031 107.796875 105.765625 107.5 105.910156 107.222656 C 106.171875 106.722656 112.21875 94.816406 98.464844 87.207031 C 87.375 81.0625 76.324219 87.574219 71.964844 90.773438 C 74.164062 91.609375 76.429688 91.890625 78.765625 91.617188 C 78.976562 91.578125 79.191406 91.578125 79.40625 91.621094 C 79.617188 91.667969 79.8125 91.753906 79.992188 91.878906 C 80.167969 92.003906 80.316406 92.160156 80.429688 92.34375 C 80.542969 92.53125 80.617188 92.730469 80.648438 92.945312 C 80.679688 93.160156 80.667969 93.375 80.613281 93.585938 C 80.558594 93.796875 80.460938 93.984375 80.328125 94.15625 C 80.195312 94.328125 80.03125 94.46875 79.839844 94.570312 C 79.648438 94.675781 79.445312 94.738281 79.230469 94.761719 C 65.816406 96.746094 49.917969 78.785156 42.238281 70.183594 C 40.875 68.648438 39.796875 67.433594 39.160156 66.824219 C 37.195312 64.917969 33.601562 63.644531 30.980469 64.808594 C 27.953125 66.117188 27.371094 70.152344 27.40625 73.304688 C 27.566406 85.628906 52.84375 104.8125 53.105469 105.003906 C 53.378906 105.210938 53.566406 105.476562 53.667969 105.804688 C 53.769531 106.128906 53.769531 106.453125 53.660156 106.78125 C 53.550781 107.105469 53.359375 107.367188 53.082031 107.566406 C 52.804688 107.765625 52.492188 107.867188 52.152344 107.867188 C 51.796875 107.867188 51.480469 107.761719 51.199219 107.546875 C 51.027344 107.421875 50.261719 106.84375 49.09375 105.902344 C 46.695312 106.753906 39.828125 108.535156 27.25 107.046875 C 16.132812 105.734375 12.984375 107.585938 12.101562 108.8125 C 11.390625 109.792969 11.503906 111.3125 12.4375 113.328125 C 13.914062 116.507812 19.1875 121.222656 26.054688 123.675781 C 31.605469 125.660156 40.347656 126.980469 50.492188 122.066406 C 50.679688 121.976562 50.882812 121.921875 51.09375 121.910156 C 51.300781 121.898438 51.507812 121.925781 51.707031 121.996094 C 51.90625 122.066406 52.085938 122.167969 52.242188 122.308594 C 52.398438 122.449219 52.523438 122.613281 52.617188 122.804688 C 52.707031 122.992188 52.761719 123.195312 52.773438 123.40625 C 52.785156 123.613281 52.757812 123.820312 52.6875 124.019531 C 52.617188 124.21875 52.511719 124.398438 52.371094 124.554688 C 52.234375 124.710938 52.066406 124.835938 51.878906 124.929688 C 46.972656 127.371094 41.78125 128.609375 36.304688 128.640625 C 32.417969 128.636719 28.644531 127.980469 24.984375 126.671875 C 24.417969 126.46875 23.871094 126.257812 23.339844 126.035156 C 22.191406 127.1875 21.539062 128.574219 21.386719 130.195312 C 21.304688 131.988281 22.21875 133.8125 24.109375 135.625 C 27.394531 138.785156 33.863281 140.46875 40.589844 139.960938 Z M 40.589844 139.960938 " fill-opacity="1" fill-rule="nonzero"/><path fill="#ffffff" d="M 97.21875 184.820312 C 96.558594 184.875 95.90625 184.976562 95.261719 185.128906 C 95.058594 185.183594 94.851562 185.199219 94.640625 185.171875 C 94.433594 185.144531 94.238281 185.078125 94.054688 184.972656 C 93.875 184.867188 93.71875 184.730469 93.589844 184.5625 C 93.460938 184.394531 93.371094 184.210938 93.316406 184.007812 C 93.261719 183.804688 93.246094 183.597656 93.273438 183.390625 C 93.300781 183.179688 93.367188 182.984375 93.472656 182.800781 C 93.578125 182.621094 93.710938 182.464844 93.878906 182.335938 C 94.046875 182.207031 94.230469 182.113281 94.433594 182.058594 C 94.484375 182.058594 94.75 181.976562 95.210938 181.894531 C 94.691406 179.125 93.964844 176.414062 93.027344 173.761719 C 92.988281 173.671875 92.957031 173.585938 92.933594 173.492188 C 87.03125 157.082031 73.753906 146.015625 57.113281 144.414062 C 55.328125 144.242188 53.523438 144.15625 51.699219 144.152344 C 46.824219 144.15625 42.015625 144.734375 37.277344 145.882812 C 32.539062 147.027344 28 148.714844 23.664062 150.945312 C 20.246094 152.707031 17.097656 154.867188 14.226562 157.421875 C 17.070312 156.246094 20.003906 155.378906 23.027344 154.824219 C 26.054688 154.265625 29.105469 154.03125 32.183594 154.121094 C 35.257812 154.207031 38.289062 154.617188 41.28125 155.347656 C 44.269531 156.074219 47.148438 157.109375 49.917969 158.449219 C 62.070312 164.171875 67.980469 172.890625 73.695312 181.296875 C 78.941406 189.023438 83.871094 196.316406 93.410156 200.683594 C 106.199219 206.542969 116.085938 217.046875 119.871094 228.792969 C 120.949219 232 121.496094 235.292969 121.519531 238.675781 C 121.539062 242.058594 121.03125 245.355469 119.992188 248.574219 C 124.914062 244.035156 128.765625 238.402344 130.320312 232.832031 C 134.523438 217.808594 130.828125 205.550781 118.351562 193.074219 C 110.148438 184.890625 101.59375 184.394531 97.21875 184.820312 Z M 97.21875 184.820312 " fill-opacity="1" fill-rule="nonzero"/><path fill="#5c84f7" d="M 198.792969 240.257812 C 198.585938 243.804688 196.410156 262.984375 173.546875 286.242188 C 175.164062 286.953125 176.832031 287.519531 178.546875 287.9375 C 181.203125 288.609375 183.902344 288.9375 186.640625 288.925781 C 186.722656 288.757812 186.832031 288.609375 186.964844 288.480469 C 187.195312 288.261719 208.515625 267.992188 213.304688 241.566406 L 203.542969 234.050781 Z M 198.792969 240.257812 " fill-opacity="1" fill-rule="nonzero"/><path fill="#ffffff" d="M 360.660156 206.363281 C 349.0625 209.199219 338.191406 203.964844 337.765625 203.738281 C 337.082031 203.398438 336.667969 202.917969 336.863281 202.203125 C 336.722656 201.449219 335.3125 196.53125 321.679688 181.1875 C 314.226562 172.792969 305.8125 171.828125 300.058594 172.507812 C 291.992188 173.449219 285.46875 178.007812 284.585938 179.660156 C 284.125 180.488281 283.992188 181.367188 284.183594 182.292969 C 284.296875 182.132812 284.433594 181.996094 284.59375 181.886719 C 284.757812 181.773438 284.933594 181.695312 285.125 181.652344 C 285.3125 181.605469 285.507812 181.59375 285.699219 181.621094 C 285.894531 181.648438 286.078125 181.707031 286.25 181.800781 C 286.421875 181.894531 286.574219 182.015625 286.699219 182.164062 C 286.828125 182.3125 286.925781 182.480469 286.992188 182.664062 C 287.058594 182.847656 287.085938 183.039062 287.082031 183.234375 C 287.078125 183.429688 287.039062 183.621094 286.964844 183.800781 C 286.933594 183.878906 284.527344 189.664062 286.90625 195.742188 C 288.882812 198.398438 290.699219 201.152344 292.363281 204.011719 C 292.464844 204.195312 292.53125 204.390625 292.554688 204.601562 C 292.582031 204.808594 292.5625 205.015625 292.507812 205.21875 C 292.449219 205.421875 292.355469 205.605469 292.226562 205.773438 C 292.097656 205.9375 291.9375 206.074219 291.753906 206.175781 C 291.570312 206.28125 291.375 206.34375 291.164062 206.367188 C 290.957031 206.394531 290.75 206.378906 290.546875 206.320312 C 290.34375 206.265625 290.160156 206.171875 289.992188 206.039062 C 289.828125 205.910156 289.691406 205.753906 289.589844 205.570312 C 286.863281 200.925781 283.742188 196.566406 280.214844 192.496094 C 275.371094 187.007812 268.242188 180.855469 261.773438 182.707031 C 258.773438 183.566406 257.09375 185.199219 256.644531 187.710938 C 255.371094 194.617188 263.585938 207.039062 274.90625 215.394531 C 277.101562 217.007812 279.070312 218.402344 280.808594 219.621094 C 291.359375 227.0625 294.914062 229.5625 296.230469 246.929688 C 297.5625 264.621094 302.589844 273.421875 311.230469 273.085938 C 313.136719 273.007812 315.171875 271.398438 316.953125 268.542969 C 321.78125 260.792969 323.890625 245.652344 319.355469 235.429688 C 319.289062 235.242188 319.257812 235.046875 319.265625 234.84375 C 319.269531 234.644531 319.3125 234.449219 319.394531 234.265625 C 319.472656 234.082031 319.585938 233.917969 319.726562 233.773438 C 319.867188 233.628906 320.03125 233.519531 320.214844 233.4375 C 320.402344 233.355469 320.59375 233.3125 320.796875 233.304688 C 320.996094 233.296875 321.191406 233.328125 321.382812 233.394531 C 321.574219 233.460938 321.742188 233.5625 321.894531 233.695312 C 322.046875 233.824219 322.171875 233.980469 322.261719 234.160156 C 323.210938 236.324219 323.902344 238.570312 324.335938 240.894531 C 327.289062 243.0625 329.144531 247.464844 331.273438 252.507812 C 333.097656 256.824219 334.980469 261.289062 337.691406 264.589844 C 340.234375 267.722656 344.394531 268.976562 347.765625 267.640625 C 352.214844 265.878906 354.394531 260.289062 353.816406 252.300781 C 352.5 234.011719 337.695312 223.40625 337.542969 223.296875 C 337.371094 223.175781 337.230469 223.027344 337.117188 222.847656 C 337.003906 222.671875 336.929688 222.476562 336.894531 222.269531 C 336.855469 222.0625 336.863281 221.855469 336.910156 221.648438 C 336.953125 221.445312 337.039062 221.253906 337.160156 221.082031 C 337.28125 220.910156 337.429688 220.765625 337.609375 220.652344 C 337.789062 220.542969 337.980469 220.46875 338.1875 220.429688 C 338.394531 220.394531 338.601562 220.398438 338.808594 220.445312 C 339.015625 220.492188 339.203125 220.574219 339.375 220.699219 C 340.6875 221.675781 341.929688 222.734375 343.101562 223.875 C 352.214844 226.421875 362.734375 225.058594 367.746094 222.253906 C 369.449219 221.300781 370.496094 220.21875 370.796875 219.125 C 371.710938 215.773438 371.234375 210.726562 368.546875 207.964844 C 366.667969 206.070312 364.0625 205.535156 360.660156 206.363281 Z M 360.660156 206.363281 " fill-opacity="1" fill-rule="nonzero"/><path fill="#5c84f7" d="M 253.484375 187.171875 C 253.945312 184.582031 255.613281 181.175781 260.871094 179.675781 C 264.609375 178.605469 268.382812 179.484375 271.949219 181.429688 L 279.535156 171.566406 C 273.609375 167.222656 264.609375 166.226562 264.492188 166.210938 C 264.28125 166.191406 264.082031 166.128906 263.894531 166.027344 C 263.707031 165.925781 263.546875 165.792969 263.414062 165.628906 C 263.28125 165.464844 263.183594 165.28125 263.125 165.078125 C 263.0625 164.875 263.042969 164.667969 263.066406 164.457031 C 263.089844 164.246094 263.148438 164.046875 263.25 163.859375 C 263.351562 163.675781 263.484375 163.515625 263.648438 163.382812 C 263.8125 163.246094 263.996094 163.152344 264.199219 163.089844 C 264.402344 163.03125 264.609375 163.011719 264.820312 163.03125 C 265.515625 163.101562 280.902344 164.824219 286.125 174.148438 C 290.269531 171.511719 294.785156 169.90625 299.664062 169.328125 L 299.828125 169.328125 C 293.367188 157.246094 271.550781 152.792969 271.3125 152.757812 C 271.105469 152.714844 270.917969 152.632812 270.742188 152.515625 C 270.566406 152.398438 270.421875 152.25 270.304688 152.074219 C 270.1875 151.898438 270.109375 151.707031 270.070312 151.5 C 270.03125 151.292969 270.03125 151.085938 270.074219 150.878906 C 270.117188 150.671875 270.195312 150.484375 270.3125 150.308594 C 270.433594 150.132812 270.578125 149.988281 270.753906 149.871094 C 270.929688 149.753906 271.121094 149.675781 271.328125 149.636719 C 271.535156 149.597656 271.742188 149.597656 271.949219 149.640625 C 278.628906 151.0625 284.957031 153.429688 290.933594 156.738281 L 313.511719 127.402344 L 303.503906 119.699219 L 311.210938 109.691406 L 283.703125 88.507812 L 276.019531 98.5 L 266.011719 90.792969 L 196.65625 180.902344 L 174.113281 163.546875 L 243.472656 73.464844 L 233.457031 65.757812 L 241.164062 55.746094 L 193.636719 19.15625 L 187.875 26.640625 L 207.894531 42.050781 L 198.246094 54.578125 L 188.238281 46.875 L 180.535156 56.890625 L 167.996094 47.246094 L 183.410156 27.226562 L 175.921875 21.457031 L 136.148438 73.113281 C 146.121094 73.988281 155.742188 76.304688 165.019531 80.058594 C 165.214844 80.136719 165.390625 80.25 165.539062 80.394531 C 165.691406 80.542969 165.808594 80.710938 165.890625 80.90625 C 165.976562 81.097656 166.019531 81.300781 166.019531 81.511719 C 166.023438 81.722656 165.988281 81.925781 165.910156 82.121094 C 165.832031 82.316406 165.71875 82.488281 165.574219 82.640625 C 165.429688 82.792969 165.257812 82.910156 165.066406 82.992188 C 164.871094 83.078125 164.671875 83.121094 164.460938 83.125 C 164.25 83.128906 164.046875 83.09375 163.851562 83.015625 C 141.976562 74.328125 124.183594 75.296875 113.097656 77.628906 C 107.5625 78.765625 102.261719 80.589844 97.199219 83.105469 C 98.175781 83.488281 99.125 83.933594 100.042969 84.4375 C 104.53125 86.925781 107.226562 89.839844 108.773438 92.769531 C 113.910156 90.714844 136.003906 83.199219 156.007812 96.832031 C 156.183594 96.953125 156.328125 97.101562 156.445312 97.277344 C 156.558594 97.453125 156.636719 97.644531 156.675781 97.851562 C 156.714844 98.058594 156.710938 98.265625 156.667969 98.472656 C 156.625 98.679688 156.542969 98.867188 156.425781 99.042969 C 156.308594 99.21875 156.160156 99.363281 155.984375 99.476562 C 155.804688 99.59375 155.613281 99.671875 155.40625 99.710938 C 155.199219 99.75 154.992188 99.746094 154.785156 99.703125 C 154.582031 99.660156 154.390625 99.578125 154.214844 99.460938 C 142.609375 91.550781 130.007812 91.378906 121.066406 92.796875 L 111.277344 105.515625 C 117.746094 104.273438 126.007812 103.25 130.101562 103.460938 C 130.699219 103.496094 131.277344 103.621094 131.839844 103.832031 C 132.398438 104.042969 132.917969 104.332031 133.390625 104.699219 C 133.863281 105.066406 134.269531 105.492188 134.613281 105.984375 C 134.957031 106.472656 135.222656 107.003906 135.40625 107.574219 C 136.042969 109.359375 137.496094 115.898438 128.136719 124.777344 C 124.40625 128.316406 119.328125 130.136719 113.269531 130.136719 C 111.605469 130.128906 109.949219 130.003906 108.304688 129.761719 C 104.929688 129.246094 101.65625 128.367188 98.484375 127.117188 C 97.480469 128.390625 96.347656 129.542969 95.089844 130.570312 L 103.109375 136.738281 L 100.355469 140.304688 C 101.046875 139.699219 101.785156 139.152344 102.566406 138.664062 C 103.347656 138.175781 104.164062 137.753906 105.011719 137.398438 C 105.863281 137.042969 106.734375 136.757812 107.632812 136.542969 C 108.527344 136.328125 109.433594 136.1875 110.351562 136.121094 C 111.269531 136.050781 112.191406 136.058594 113.105469 136.140625 C 114.023438 136.222656 114.929688 136.375 115.824219 136.601562 C 116.714844 136.832031 117.582031 137.128906 118.429688 137.496094 C 119.273438 137.863281 120.082031 138.296875 120.855469 138.796875 C 130.078125 144.742188 135.832031 158.9375 135.875 175.851562 C 135.875 176.0625 135.835938 176.265625 135.753906 176.460938 C 135.671875 176.65625 135.558594 176.828125 135.410156 176.976562 C 135.261719 177.125 135.089844 177.242188 134.894531 177.324219 C 134.699219 177.40625 134.496094 177.445312 134.285156 177.449219 C 134.074219 177.449219 133.871094 177.410156 133.679688 177.328125 C 133.484375 177.246094 133.3125 177.132812 133.164062 176.984375 C 133.011719 176.832031 132.898438 176.660156 132.816406 176.46875 C 132.738281 176.273438 132.695312 176.070312 132.695312 175.859375 C 132.660156 160.253906 127.335938 146.753906 119.132812 141.46875 C 118.160156 140.8125 117.117188 140.292969 116.003906 139.910156 C 114.894531 139.527344 113.753906 139.296875 112.582031 139.214844 C 111.410156 139.128906 110.246094 139.199219 109.09375 139.421875 C 107.941406 139.644531 106.835938 140.015625 105.777344 140.527344 C 92.601562 146.472656 95.605469 170.054688 95.972656 172.589844 C 97.003906 175.515625 97.800781 178.5 98.355469 181.550781 C 101.496094 181.457031 104.566406 181.882812 107.566406 182.820312 C 105.464844 175.019531 103.171875 159.050781 107.707031 153.085938 C 108.3125 152.246094 109.082031 151.609375 110.019531 151.171875 C 110.960938 150.734375 111.945312 150.554688 112.976562 150.632812 C 117.6875 150.898438 121.433594 155.324219 124.105469 163.777344 C 125.296875 167.675781 126.144531 171.652344 126.648438 175.699219 C 126.671875 175.910156 126.65625 176.117188 126.59375 176.320312 C 126.535156 176.523438 126.441406 176.710938 126.308594 176.875 C 126.175781 177.039062 126.015625 177.175781 125.828125 177.277344 C 125.644531 177.378906 125.445312 177.441406 125.234375 177.464844 C 125.023438 177.488281 124.816406 177.46875 124.613281 177.410156 C 124.410156 177.351562 124.222656 177.253906 124.058594 177.121094 C 123.894531 176.988281 123.757812 176.832031 123.65625 176.644531 C 123.554688 176.457031 123.492188 176.261719 123.46875 176.050781 C 122.976562 172.195312 122.160156 168.410156 121.019531 164.691406 C 119.488281 159.851562 116.8125 154.039062 112.753906 153.804688 C 112.253906 153.761719 111.773438 153.847656 111.316406 154.0625 C 110.863281 154.28125 110.492188 154.597656 110.210938 155.011719 C 107.859375 158.109375 107.894531 165.933594 108.855469 173.105469 L 195.277344 239.601562 L 202.984375 229.59375 L 212.992188 237.292969 L 220.703125 227.285156 L 230.710938 234.992188 L 257.121094 200.691406 C 254.289062 195.871094 252.777344 191.089844 253.484375 187.171875 Z M 253.484375 187.171875 " fill-opacity="1" fill-rule="nonzero"/><path fill="#ffffff" d="M 168.359375 282.058594 C 168.613281 282.902344 169.433594 283.792969 170.648438 284.640625 C 173 282.28125 175.101562 279.957031 177.066406 277.6875 C 173.585938 278.0625 169.734375 278.960938 168.554688 280.542969 C 168.390625 280.761719 168.292969 281.003906 168.257812 281.273438 C 168.222656 281.542969 168.253906 281.804688 168.359375 282.058594 Z M 168.359375 282.058594 " fill-opacity="1" fill-rule="nonzero"/><path fill="#000000" d="M 261.808594 257.808594 L 260.898438 260.835938 L 259.773438 264.554688 L 257.335938 272.691406 C 256.988281 272.378906 256.609375 272.109375 256.199219 271.886719 C 255.785156 271.664062 255.355469 271.492188 254.902344 271.371094 C 254.453125 271.253906 253.992188 271.1875 253.523438 271.175781 C 253.058594 271.164062 252.59375 271.207031 252.136719 271.304688 C 251.679688 271.402344 251.242188 271.550781 250.820312 271.753906 C 250.398438 271.953125 250.003906 272.203125 249.640625 272.496094 C 249.28125 272.792969 248.957031 273.125 248.671875 273.496094 C 248.386719 273.867188 248.148438 274.265625 247.960938 274.691406 C 247.769531 275.121094 247.632812 275.5625 247.546875 276.023438 C 247.464844 276.484375 247.433594 276.945312 247.457031 277.414062 C 247.484375 277.878906 247.5625 278.339844 247.695312 278.785156 C 247.828125 279.234375 248.011719 279.660156 248.246094 280.066406 C 248.480469 280.46875 248.757812 280.84375 249.078125 281.179688 C 249.402344 281.519531 249.757812 281.816406 250.152344 282.070312 C 250.542969 282.324219 250.960938 282.53125 251.398438 282.6875 C 251.839844 282.84375 252.292969 282.945312 252.757812 282.992188 C 253.222656 283.042969 253.6875 283.035156 254.152344 282.976562 C 254.613281 282.914062 255.066406 282.800781 255.5 282.632812 C 255.9375 282.464844 256.347656 282.25 256.734375 281.984375 C 257.117188 281.71875 257.46875 281.414062 257.78125 281.066406 C 258.09375 280.71875 258.363281 280.339844 258.585938 279.929688 C 258.808594 279.515625 258.980469 279.085938 259.101562 278.632812 C 259.222656 278.183594 259.289062 277.722656 259.300781 277.257812 C 259.3125 276.789062 259.269531 276.328125 259.175781 275.871094 L 262.316406 265.433594 L 276.847656 270.519531 L 274.640625 277.898438 C 274.324219 277.613281 273.980469 277.367188 273.609375 277.15625 C 273.238281 276.945312 272.851562 276.777344 272.445312 276.648438 C 272.039062 276.523438 271.621094 276.441406 271.199219 276.402344 C 270.773438 276.367188 270.351562 276.375 269.929688 276.429688 C 269.507812 276.480469 269.09375 276.582031 268.691406 276.722656 C 268.292969 276.867188 267.910156 277.050781 267.550781 277.273438 C 267.1875 277.5 266.855469 277.761719 266.546875 278.058594 C 266.242188 278.355469 265.972656 278.679688 265.738281 279.035156 C 265.503906 279.390625 265.308594 279.765625 265.152344 280.164062 C 265 280.558594 264.890625 280.96875 264.824219 281.390625 C 264.757812 281.808594 264.738281 282.234375 264.761719 282.65625 C 264.789062 283.082031 264.859375 283.5 264.972656 283.910156 C 265.089844 284.320312 265.246094 284.714844 265.445312 285.089844 C 265.644531 285.464844 265.882812 285.816406 266.160156 286.140625 C 266.433594 286.464844 266.742188 286.757812 267.078125 287.015625 C 267.417969 287.273438 267.78125 287.492188 268.164062 287.675781 C 268.550781 287.855469 268.953125 287.992188 269.367188 288.085938 C 269.78125 288.179688 270.203125 288.230469 270.628906 288.234375 C 271.054688 288.238281 271.476562 288.195312 271.890625 288.109375 C 272.308594 288.023438 272.710938 287.890625 273.101562 287.71875 C 273.488281 287.542969 273.855469 287.328125 274.195312 287.078125 C 274.539062 286.824219 274.851562 286.539062 275.132812 286.21875 C 275.414062 285.898438 275.65625 285.550781 275.863281 285.179688 C 276.070312 284.808594 276.234375 284.417969 276.355469 284.007812 C 276.652344 283.042969 276.691406 282.066406 276.476562 281.078125 L 280.757812 266.777344 L 281.394531 264.621094 Z M 261.808594 257.808594 " fill-opacity="1" fill-rule="nonzero"/><path fill="#000000" d="M 146.375 328.140625 C 146.226562 327.996094 146.054688 327.882812 145.863281 327.804688 C 145.667969 327.726562 145.46875 327.683594 145.257812 327.683594 C 145.050781 327.6875 144.851562 327.726562 144.65625 327.804688 C 144.464844 327.882812 144.292969 327.996094 144.144531 328.144531 C 143.996094 328.289062 143.878906 328.460938 143.796875 328.652344 C 143.714844 328.84375 143.675781 329.042969 143.671875 329.25 C 143.667969 329.460938 143.703125 329.660156 143.78125 329.855469 C 143.855469 330.050781 143.96875 330.222656 144.113281 330.375 C 144.417969 330.683594 151.699219 337.964844 165.765625 343.09375 C 175.074219 346.449219 184.675781 348.089844 194.570312 348.019531 C 205.367188 347.945312 215.910156 346.277344 226.203125 343.015625 C 235.265625 340.175781 243.988281 336.519531 252.371094 332.050781 C 252.566406 331.960938 252.734375 331.832031 252.875 331.667969 C 253.019531 331.507812 253.125 331.324219 253.191406 331.117188 C 253.257812 330.914062 253.285156 330.703125 253.265625 330.488281 C 253.246094 330.273438 253.1875 330.070312 253.085938 329.878906 C 252.988281 329.6875 252.851562 329.523438 252.683594 329.386719 C 252.519531 329.25 252.332031 329.152344 252.125 329.09375 C 251.914062 329.03125 251.703125 329.015625 251.492188 329.042969 C 251.277344 329.066406 251.074219 329.132812 250.886719 329.242188 C 242.683594 333.617188 234.140625 337.195312 225.265625 339.976562 C 198.84375 348.109375 178.921875 344.542969 166.859375 340.109375 C 153.503906 335.238281 146.445312 328.210938 146.375 328.140625 Z M 146.375 328.140625 " fill-opacity="1" fill-rule="nonzero"/><g clip-path="url(#62992f3791)"><path fill="#000000" d="M 359.902344 203.273438 C 351.050781 205.441406 342.359375 202.253906 339.851562 201.199219 C 339.21875 198.738281 336.164062 192.742188 324.023438 179.078125 C 317.101562 171.28125 309.398438 169.199219 303.269531 169.148438 C 301.359375 164.699219 297.75 161.195312 293.667969 158.429688 L 318.003906 126.824219 L 307.992188 119.121094 L 315.695312 109.113281 L 283.148438 84.050781 L 275.441406 94.046875 L 265.429688 86.355469 L 196.070312 176.445312 L 178.570312 162.96875 L 247.9375 72.886719 L 237.921875 65.175781 L 245.621094 55.167969 L 193.058594 14.699219 L 185.371094 24.734375 L 175.359375 17.027344 L 132.335938 72.917969 C 125.570312 72.621094 118.871094 73.164062 112.238281 74.539062 C 101.484375 76.832031 94.734375 80.667969 92.8125 81.859375 C 81.429688 79.824219 71.433594 87.058594 68.648438 89.335938 C 59.222656 84.503906 49.523438 73.589844 44.621094 68.070312 C 43.160156 66.425781 42.078125 65.234375 41.371094 64.527344 C 38.632812 61.894531 33.742188 60.148438 29.730469 61.890625 C 27.183594 63.003906 24.144531 65.882812 24.242188 73.335938 C 24.375 83.554688 38.351562 96.828125 46.136719 103.445312 C 43.058594 104.179688 37.074219 105 27.636719 103.886719 C 17.792969 102.722656 11.871094 103.71875 9.539062 106.9375 C 8.101562 108.921875 8.109375 111.515625 9.539062 114.660156 C 10.917969 117.648438 14.746094 121.652344 20.347656 124.625 C 19.0625 126.1875 18.34375 127.980469 18.195312 130.003906 C 18.058594 132.769531 19.300781 135.425781 21.886719 137.914062 C 24.871094 140.769531 29.691406 142.605469 35.167969 143.089844 C 22.734375 146.359375 12.019531 153.136719 6.1875 161.730469 C 6.058594 161.863281 5.960938 162.015625 5.886719 162.1875 C 4.042969 164.945312 2.757812 167.941406 2.027344 171.179688 C -0.0078125 180.609375 3.351562 192.308594 11.253906 203.285156 C 13.347656 206.175781 15.648438 208.890625 18.160156 211.425781 C 20.667969 213.964844 23.359375 216.292969 26.230469 218.414062 C 29.097656 220.535156 32.113281 222.421875 35.277344 224.078125 C 38.4375 225.730469 41.707031 227.132812 45.085938 228.285156 C 64.875 234.949219 68.667969 239.09375 74.972656 246 C 78.117188 249.546875 81.464844 252.894531 85.015625 256.035156 C 86.917969 257.746094 89.066406 259.054688 91.457031 259.964844 C 93.851562 260.871094 96.328125 261.316406 98.886719 261.292969 C 101.484375 261.273438 104.027344 260.886719 106.515625 260.128906 C 118.597656 256.542969 130.160156 245.171875 133.378906 233.683594 C 137.925781 217.421875 134.011719 204.203125 120.59375 190.816406 C 117.898438 188.078125 114.8125 185.890625 111.335938 184.246094 C 111.324219 184.175781 111.308594 184.105469 111.285156 184.035156 C 110.609375 181.953125 110.074219 179.832031 109.671875 177.675781 L 195.132812 243.488281 C 194.125 248.726562 191.105469 258.890625 182.09375 271.296875 C 179.160156 269.875 176.0625 269.167969 172.804688 269.171875 C 170.394531 269.117188 168.027344 269.398438 165.695312 270.007812 C 163.367188 270.621094 161.164062 271.542969 159.09375 272.773438 C 157.96875 273.417969 157.019531 274.261719 156.246094 275.304688 C 155.472656 276.347656 154.9375 277.5 154.640625 278.761719 C 154.007812 281.527344 154.566406 284.441406 155.367188 286.769531 C 151.671875 285.496094 147.578125 285.777344 143.457031 287.699219 C 135.152344 291.550781 128.722656 301.152344 128.492188 310.03125 C 128.367188 314.972656 129.441406 331.742188 148.09375 344.085938 C 139.476562 345.792969 134.304688 347.976562 134.304688 350.347656 C 134.304688 355.867188 162.230469 360.34375 196.671875 360.34375 C 231.109375 360.34375 259.039062 355.894531 259.039062 350.347656 C 259.039062 348.070312 254.257812 345.964844 246.234375 344.28125 C 249.871094 342.652344 253.394531 340.90625 256.738281 339.066406 C 257.808594 338.476562 258.804688 337.777344 259.722656 336.96875 C 260.644531 336.160156 261.46875 335.265625 262.195312 334.28125 C 262.921875 333.296875 263.535156 332.246094 264.035156 331.128906 C 264.535156 330.011719 264.90625 328.855469 265.15625 327.660156 C 267.28125 317.421875 265.515625 307.886719 260.183594 300.808594 C 254.582031 293.363281 245.296875 288.949219 233.347656 288.046875 C 223.8125 287.316406 214.671875 289.839844 206.0625 295.527344 C 207.753906 289.714844 207.742188 284.824219 206.011719 280.957031 C 205.085938 278.832031 203.664062 277.125 201.738281 275.835938 C 208.441406 266.210938 215.625 252.613281 217.164062 237.128906 L 221.285156 231.773438 L 231.296875 239.480469 L 258.945312 203.570312 C 262.851562 209.140625 267.539062 213.953125 273 218.007812 C 275.210938 219.648438 277.195312 221.046875 278.949219 222.28125 C 289.359375 229.613281 291.835938 231.355469 293.03125 247.222656 C 294.488281 266.546875 300.425781 276.332031 310.675781 276.332031 L 311.3125 276.332031 C 314.351562 276.210938 317.226562 274.128906 319.613281 270.292969 C 323.117188 264.652344 325.386719 255.519531 324.964844 246.648438 C 326.222656 248.964844 327.332031 251.347656 328.304688 253.796875 C 330.125 258.109375 332.191406 262.992188 335.179688 266.660156 C 335.765625 267.390625 336.425781 268.046875 337.15625 268.628906 C 337.886719 269.214844 338.671875 269.710938 339.515625 270.121094 C 340.355469 270.53125 341.230469 270.84375 342.140625 271.058594 C 343.050781 271.277344 343.972656 271.390625 344.910156 271.40625 C 346.285156 271.410156 347.613281 271.160156 348.894531 270.65625 C 351.636719 269.566406 357.914062 265.566406 356.945312 252.136719 C 356.175781 241.433594 351.273438 233.261719 346.828125 227.972656 C 349.03125 228.296875 351.246094 228.460938 353.472656 228.460938 C 359.476562 228.460938 365.316406 227.296875 369.257812 225.089844 C 371.75 223.691406 373.289062 221.988281 373.824219 220.003906 C 375 215.699219 374.324219 209.429688 370.777344 205.785156 C 368.945312 203.851562 365.5625 201.886719 359.902344 203.273438 Z M 185.929688 29.183594 L 203.429688 42.652344 L 197.660156 50.144531 L 187.652344 42.445312 L 179.953125 52.453125 L 172.460938 46.683594 Z M 24.109375 135.625 C 22.199219 133.8125 21.304688 131.988281 21.386719 130.195312 C 21.539062 128.574219 22.191406 127.1875 23.339844 126.035156 C 23.871094 126.257812 24.417969 126.46875 24.984375 126.671875 C 28.644531 127.980469 32.417969 128.636719 36.304688 128.640625 C 41.78125 128.609375 46.972656 127.371094 51.878906 124.929688 C 52.066406 124.835938 52.234375 124.710938 52.371094 124.554688 C 52.511719 124.398438 52.617188 124.21875 52.6875 124.019531 C 52.757812 123.820312 52.785156 123.613281 52.773438 123.40625 C 52.757812 123.195312 52.707031 122.992188 52.617188 122.804688 C 52.523438 122.613281 52.398438 122.449219 52.242188 122.308594 C 52.085938 122.167969 51.90625 122.066406 51.707031 121.996094 C 51.507812 121.925781 51.300781 121.898438 51.09375 121.910156 C 50.882812 121.921875 50.679688 121.976562 50.492188 122.066406 C 40.347656 126.980469 31.605469 125.660156 26.054688 123.675781 C 19.1875 121.222656 13.914062 116.515625 12.4375 113.328125 C 11.503906 111.3125 11.390625 109.792969 12.101562 108.8125 C 12.984375 107.585938 16.132812 105.734375 27.25 107.046875 C 39.828125 108.535156 46.695312 106.753906 49.09375 105.902344 C 50.261719 106.84375 51 107.421875 51.199219 107.546875 C 51.367188 107.675781 51.554688 107.765625 51.757812 107.816406 C 51.960938 107.871094 52.167969 107.878906 52.375 107.851562 C 52.585938 107.820312 52.78125 107.753906 52.960938 107.644531 C 53.144531 107.539062 53.296875 107.398438 53.421875 107.230469 C 53.550781 107.0625 53.640625 106.875 53.695312 106.671875 C 53.746094 106.46875 53.757812 106.261719 53.726562 106.050781 C 53.699219 105.84375 53.628906 105.648438 53.519531 105.464844 C 53.414062 105.285156 53.273438 105.132812 53.105469 105.003906 C 52.851562 104.8125 27.566406 85.628906 27.40625 73.304688 C 27.371094 70.125 27.953125 66.117188 30.980469 64.808594 C 33.601562 63.671875 37.195312 64.941406 39.160156 66.824219 C 39.796875 67.460938 40.875 68.648438 42.238281 70.183594 C 49.917969 78.785156 65.816406 96.746094 79.222656 94.765625 C 79.4375 94.746094 79.644531 94.683594 79.835938 94.578125 C 80.023438 94.472656 80.1875 94.335938 80.320312 94.164062 C 80.457031 93.992188 80.550781 93.800781 80.605469 93.589844 C 80.664062 93.378906 80.675781 93.167969 80.640625 92.953125 C 80.609375 92.738281 80.539062 92.535156 80.421875 92.351562 C 80.308594 92.164062 80.164062 92.011719 79.984375 91.882812 C 79.808594 91.757812 79.609375 91.675781 79.398438 91.628906 C 79.183594 91.582031 78.972656 91.582031 78.757812 91.625 C 76.421875 91.898438 74.15625 91.617188 71.960938 90.78125 C 76.316406 87.601562 87.367188 81.070312 98.457031 87.210938 C 112.214844 94.84375 106.167969 106.726562 105.90625 107.230469 C 105.757812 107.507812 105.699219 107.800781 105.726562 108.113281 C 105.753906 108.425781 105.859375 108.707031 106.050781 108.953125 C 106.242188 109.203125 106.488281 109.378906 106.785156 109.480469 C 107.082031 109.582031 107.382812 109.597656 107.6875 109.519531 C 113.867188 108.007812 125.140625 106.378906 129.886719 106.625 C 130.472656 106.671875 130.996094 106.882812 131.453125 107.257812 C 131.910156 107.628906 132.21875 108.101562 132.378906 108.667969 C 133.390625 111.410156 132.21875 116.46875 125.90625 122.46875 C 117.980469 129.984375 104.917969 126.128906 100.308594 124.414062 C 100.414062 124.230469 100.476562 124.035156 100.503906 123.824219 C 100.53125 123.617188 100.515625 123.410156 100.457031 123.207031 C 100.402344 123.003906 100.308594 122.820312 100.179688 122.652344 C 100.050781 122.484375 99.894531 122.351562 99.710938 122.246094 C 99.527344 122.140625 99.332031 122.078125 99.125 122.050781 C 98.914062 122.023438 98.710938 122.039062 98.507812 122.09375 C 98.300781 122.148438 98.117188 122.242188 97.949219 122.367188 C 97.785156 122.496094 97.648438 122.652344 97.542969 122.835938 C 87.832031 139.871094 59.488281 131.332031 59.203125 131.242188 C 58.886719 131.144531 58.566406 131.144531 58.25 131.246094 C 57.929688 131.347656 57.671875 131.53125 57.46875 131.796875 C 53.945312 136.425781 47.789062 139.425781 40.585938 139.96875 C 33.863281 140.46875 27.394531 138.785156 24.109375 135.625 Z M 109.957031 95.714844 C 112.03125 94.914062 114.152344 94.257812 116.316406 93.742188 L 110.625 101.132812 C 110.691406 99.289062 110.460938 97.480469 109.929688 95.714844 Z M 90.9375 147.339844 L 94.304688 149.9375 C 93.394531 152.722656 92.804688 155.574219 92.527344 158.492188 C 92.332031 160.429688 92.234375 162.375 92.238281 164.324219 C 84.886719 151.25 72.417969 142.703125 57.402344 141.246094 C 54.996094 141.015625 52.582031 140.925781 50.160156 140.980469 C 53.730469 139.585938 56.78125 137.449219 59.3125 134.570312 C 64.421875 135.917969 69.621094 136.613281 74.90625 136.65625 L 74.972656 136.65625 C 81.917969 136.65625 87.761719 135.230469 92.355469 132.484375 L 98.644531 137.324219 Z M 95.972656 146.015625 C 95.828125 146.296875 95.679688 146.582031 95.539062 146.875 L 95.394531 146.757812 Z M 114.6875 252.726562 C 111.871094 254.632812 108.839844 256.082031 105.59375 257.085938 C 100.609375 258.558594 93.351562 259.164062 87.101562 253.65625 C 83.640625 250.585938 80.378906 247.324219 77.308594 243.863281 C 70.910156 236.867188 66.683594 232.199219 46.117188 225.277344 C 18.550781 215.992188 1.457031 188.941406 5.144531 171.859375 C 5.800781 169 6.949219 166.351562 8.585938 163.917969 C 10.976562 162.332031 28.203125 151.71875 48.546875 161.320312 C 59.917969 166.695312 65.574219 175.027344 71.042969 183.082031 C 76.308594 190.828125 81.746094 198.839844 92.074219 203.570312 C 103.882812 208.984375 113.371094 219.019531 116.832031 229.765625 C 117.46875 231.648438 117.902344 233.574219 118.132812 235.546875 C 118.363281 237.519531 118.386719 239.496094 118.199219 241.476562 C 118.015625 243.453125 117.628906 245.390625 117.035156 247.285156 C 116.445312 249.183594 115.660156 250.996094 114.6875 252.726562 Z M 118.324219 193.074219 C 130.800781 205.550781 134.496094 217.808594 130.292969 232.832031 C 128.773438 238.402344 124.886719 244.035156 119.964844 248.574219 C 121.003906 245.355469 121.511719 242.058594 121.492188 238.675781 C 121.472656 235.292969 120.921875 232 119.84375 228.792969 C 116.0625 217.046875 106.171875 206.535156 93.382812 200.683594 C 83.84375 196.316406 78.910156 189.023438 73.671875 181.296875 C 67.949219 172.890625 62.046875 164.191406 49.894531 158.449219 C 47.125 157.109375 44.246094 156.078125 41.257812 155.351562 C 38.273438 154.621094 35.242188 154.214844 32.167969 154.125 C 29.097656 154.039062 26.046875 154.273438 23.023438 154.828125 C 20 155.382812 17.066406 156.25 14.226562 157.421875 C 17.097656 154.867188 20.246094 152.707031 23.664062 150.945312 C 28 148.714844 32.539062 147.027344 37.277344 145.882812 C 42.015625 144.734375 46.824219 144.15625 51.699219 144.152344 C 53.519531 144.152344 55.324219 144.238281 57.113281 144.414062 C 73.753906 146.015625 87.03125 157.082031 92.933594 173.492188 C 92.957031 173.585938 92.988281 173.671875 93.027344 173.761719 C 93.964844 176.414062 94.691406 179.125 95.210938 181.894531 C 94.75 181.976562 94.484375 182.046875 94.433594 182.058594 C 94.230469 182.113281 94.042969 182.203125 93.875 182.332031 C 93.710938 182.460938 93.570312 182.613281 93.464844 182.796875 C 93.359375 182.976562 93.292969 183.171875 93.265625 183.382812 C 93.234375 183.589844 93.25 183.796875 93.300781 184 C 93.355469 184.203125 93.445312 184.390625 93.574219 184.558594 C 93.699219 184.726562 93.855469 184.863281 94.035156 184.96875 C 94.21875 185.078125 94.414062 185.144531 94.621094 185.171875 C 94.832031 185.203125 95.039062 185.191406 95.242188 185.136719 C 95.886719 184.984375 96.539062 184.878906 97.199219 184.824219 C 101.59375 184.394531 110.148438 184.890625 118.324219 193.074219 Z M 203.125 282.347656 C 204.855469 286.296875 204.292969 291.988281 201.523438 298.84375 C 195.625 303.625 190.683594 309.246094 186.699219 315.703125 C 186.59375 315.886719 186.527344 316.082031 186.5 316.292969 C 186.472656 316.503906 186.484375 316.707031 186.539062 316.914062 C 186.59375 317.117188 186.6875 317.304688 186.816406 317.472656 C 186.945312 317.636719 187.101562 317.773438 187.285156 317.878906 C 187.46875 317.984375 187.664062 318.050781 187.875 318.078125 C 188.082031 318.105469 188.289062 318.089844 188.496094 318.035156 C 188.699219 317.980469 188.882812 317.886719 189.050781 317.757812 C 189.21875 317.628906 189.355469 317.46875 189.457031 317.285156 C 193.101562 311.433594 197.566406 306.292969 202.851562 301.867188 C 203.132812 301.835938 203.386719 301.738281 203.613281 301.570312 C 203.839844 301.402344 204.011719 301.191406 204.121094 300.929688 C 204.132812 300.894531 204.148438 300.855469 204.167969 300.824219 C 213.242188 293.6875 222.976562 290.464844 233.109375 291.226562 C 244.121094 292.058594 252.605469 296.039062 257.648438 302.738281 C 262.417969 309.097656 264.007812 317.695312 262.042969 327.023438 C 261.839844 327.996094 261.535156 328.9375 261.132812 329.84375 C 260.726562 330.753906 260.226562 331.609375 259.636719 332.40625 C 259.046875 333.207031 258.375 333.9375 257.628906 334.589844 C 256.878906 335.246094 256.070312 335.8125 255.199219 336.292969 C 251.3125 338.429688 247.175781 340.453125 242.894531 342.304688 C 228.117188 348.707031 205.546875 355.65625 181.96875 352.476562 C 169.664062 350.800781 159.316406 347.390625 151.203125 342.347656 C 132.601562 330.824219 131.550781 314.800781 131.671875 310.15625 C 131.871094 302.40625 137.511719 294.003906 144.792969 290.621094 C 148.144531 289.066406 153.128906 288.007812 157.859375 291.800781 C 158.164062 292.046875 158.496094 292.3125 158.78125 292.605469 C 158.933594 292.753906 159.109375 292.863281 159.308594 292.9375 C 159.503906 293.015625 159.710938 293.046875 159.921875 293.042969 C 160.132812 293.035156 160.335938 292.992188 160.527344 292.902344 C 160.71875 292.816406 160.890625 292.699219 161.035156 292.542969 C 161.179688 292.390625 161.289062 292.214844 161.363281 292.015625 C 161.4375 291.820312 161.472656 291.613281 161.464844 291.402344 C 161.460938 291.191406 161.414062 290.988281 161.324219 290.796875 C 161.238281 290.605469 161.117188 290.4375 160.964844 290.292969 C 160.671875 290.011719 160.371094 289.757812 160.078125 289.511719 C 159.480469 288.5 156.785156 283.578125 157.738281 279.527344 C 157.9375 278.679688 158.300781 277.90625 158.828125 277.214844 C 159.355469 276.519531 159.996094 275.960938 160.757812 275.539062 C 167.640625 271.375 175.894531 271.902344 180.175781 273.929688 L 179.851562 274.335938 C 177.089844 274.433594 168.726562 275.011719 166.019531 278.6875 C 165.554688 279.304688 165.265625 279.996094 165.144531 280.761719 C 165.019531 281.523438 165.085938 282.273438 165.332031 283.003906 C 166.839844 287.984375 175.257812 290.425781 177.800781 291.054688 C 180.648438 291.761719 183.539062 292.125 186.46875 292.140625 C 190.921875 292.140625 195.304688 291.167969 197.953125 288.484375 C 198.105469 288.335938 198.222656 288.164062 198.304688 287.96875 C 198.386719 287.769531 198.429688 287.566406 198.429688 287.351562 C 198.429688 287.140625 198.390625 286.9375 198.308594 286.738281 C 198.226562 286.542969 198.109375 286.371094 197.957031 286.21875 C 197.804688 286.070312 197.628906 285.957031 197.433594 285.875 C 197.234375 285.796875 197.03125 285.757812 196.816406 285.761719 C 196.601562 285.765625 196.398438 285.808594 196.203125 285.894531 C 196.007812 285.980469 195.835938 286.101562 195.691406 286.253906 C 194.53125 287.308594 193.183594 288.003906 191.652344 288.339844 C 194.59375 285.210938 197.339844 281.917969 199.886719 278.457031 C 201.359375 279.429688 202.4375 280.726562 203.125 282.347656 Z M 177.050781 277.6875 C 175.144531 279.957031 172.988281 282.28125 170.636719 284.640625 C 169.421875 283.792969 168.601562 282.902344 168.347656 282.058594 C 168.242188 281.804688 168.207031 281.542969 168.242188 281.273438 C 168.277344 281.003906 168.378906 280.761719 168.542969 280.542969 C 169.734375 278.945312 173.585938 278.0625 177.066406 277.6875 Z M 186.980469 288.5 C 186.84375 288.628906 186.734375 288.777344 186.652344 288.945312 C 183.90625 288.960938 181.199219 288.628906 178.535156 287.957031 C 176.816406 287.539062 175.152344 286.972656 173.535156 286.261719 C 196.429688 263.003906 198.570312 243.824219 198.78125 240.277344 L 203.558594 234.070312 L 213.351562 241.582031 C 208.542969 267.992188 187.21875 288.261719 186.992188 288.480469 Z M 230.699219 235.011719 L 220.6875 227.304688 L 212.980469 237.3125 L 202.984375 229.59375 L 195.277344 239.601562 L 108.902344 173.097656 C 107.941406 165.925781 107.902344 158.105469 110.253906 155.007812 C 110.539062 154.589844 110.90625 154.273438 111.363281 154.058594 C 111.816406 153.839844 112.296875 153.753906 112.800781 153.800781 C 116.855469 154.035156 119.535156 159.847656 121.066406 164.6875 C 122.203125 168.402344 123.019531 172.1875 123.515625 176.042969 C 123.539062 176.253906 123.601562 176.453125 123.703125 176.636719 C 123.804688 176.824219 123.9375 176.980469 124.105469 177.113281 C 124.269531 177.246094 124.453125 177.34375 124.65625 177.402344 C 124.859375 177.460938 125.066406 177.480469 125.277344 177.457031 C 125.488281 177.433594 125.6875 177.371094 125.871094 177.269531 C 126.058594 177.164062 126.21875 177.03125 126.351562 176.867188 C 126.484375 176.703125 126.578125 176.519531 126.640625 176.316406 C 126.699219 176.109375 126.714844 175.902344 126.695312 175.695312 C 126.191406 171.644531 125.34375 167.671875 124.148438 163.769531 C 121.480469 155.320312 117.734375 150.894531 113.019531 150.625 C 111.988281 150.550781 111.003906 150.730469 110.066406 151.167969 C 109.128906 151.601562 108.355469 152.242188 107.75 153.082031 C 103.214844 159.046875 105.511719 175.011719 107.609375 182.816406 C 104.613281 181.875 101.542969 181.449219 98.402344 181.542969 C 97.84375 178.492188 97.050781 175.507812 96.015625 172.582031 C 95.648438 170.039062 92.648438 146.464844 105.824219 140.519531 C 106.878906 140.007812 107.984375 139.640625 109.136719 139.417969 C 110.292969 139.195312 111.453125 139.125 112.625 139.207031 C 113.796875 139.289062 114.9375 139.523438 116.050781 139.90625 C 117.160156 140.285156 118.203125 140.804688 119.175781 141.460938 C 127.378906 146.746094 132.703125 160.246094 132.742188 175.851562 C 132.742188 176.0625 132.78125 176.265625 132.863281 176.460938 C 132.941406 176.65625 133.058594 176.828125 133.207031 176.976562 C 133.355469 177.125 133.527344 177.242188 133.722656 177.320312 C 133.917969 177.402344 134.121094 177.441406 134.332031 177.441406 C 134.542969 177.441406 134.746094 177.398438 134.9375 177.316406 C 135.132812 177.234375 135.304688 177.121094 135.453125 176.96875 C 135.601562 176.820312 135.71875 176.648438 135.796875 176.453125 C 135.878906 176.257812 135.921875 176.058594 135.921875 175.847656 C 135.875 158.929688 130.121094 144.738281 120.902344 138.792969 C 120.125 138.292969 119.316406 137.859375 118.472656 137.492188 C 117.628906 137.121094 116.757812 136.824219 115.867188 136.597656 C 114.972656 136.371094 114.070312 136.214844 113.152344 136.132812 C 112.234375 136.054688 111.316406 136.046875 110.398438 136.113281 C 109.480469 136.179688 108.570312 136.320312 107.675781 136.535156 C 106.78125 136.75 105.90625 137.035156 105.058594 137.390625 C 104.207031 137.746094 103.390625 138.167969 102.609375 138.65625 C 101.828125 139.144531 101.089844 139.691406 100.398438 140.296875 L 103.152344 136.730469 L 95.070312 130.582031 C 96.328125 129.554688 97.460938 128.40625 98.464844 127.128906 C 101.625 128.367188 104.882812 129.246094 108.238281 129.753906 C 109.886719 130 111.542969 130.125 113.207031 130.128906 C 119.265625 130.128906 124.339844 128.3125 128.074219 124.769531 C 137.433594 115.867188 136.003906 109.355469 135.34375 107.566406 C 135.160156 106.996094 134.894531 106.46875 134.550781 105.976562 C 134.207031 105.488281 133.796875 105.058594 133.324219 104.691406 C 132.851562 104.324219 132.335938 104.035156 131.777344 103.824219 C 131.214844 103.613281 130.636719 103.488281 130.039062 103.453125 C 125.941406 103.242188 117.683594 104.265625 111.214844 105.507812 L 121.003906 92.789062 C 129.941406 91.371094 142.546875 91.515625 154.152344 99.453125 C 154.328125 99.574219 154.515625 99.652344 154.722656 99.699219 C 154.929688 99.742188 155.136719 99.742188 155.34375 99.703125 C 155.550781 99.664062 155.746094 99.589844 155.921875 99.472656 C 156.097656 99.359375 156.246094 99.214844 156.363281 99.039062 C 156.484375 98.863281 156.566406 98.671875 156.609375 98.46875 C 156.652344 98.261719 156.652344 98.054688 156.613281 97.847656 C 156.574219 97.636719 156.496094 97.445312 156.382812 97.269531 C 156.265625 97.09375 156.121094 96.945312 155.945312 96.828125 C 135.941406 83.191406 113.847656 90.710938 108.710938 92.761719 C 107.164062 89.832031 104.46875 86.917969 99.980469 84.433594 C 99.058594 83.929688 98.113281 83.484375 97.136719 83.097656 C 102.199219 80.582031 107.496094 78.757812 113.035156 77.621094 C 124.117188 75.289062 141.910156 74.320312 163.785156 83.007812 C 163.980469 83.089844 164.1875 83.132812 164.398438 83.132812 C 164.609375 83.132812 164.8125 83.09375 165.011719 83.011719 C 165.207031 82.933594 165.378906 82.816406 165.53125 82.667969 C 165.679688 82.519531 165.796875 82.347656 165.878906 82.148438 C 165.960938 81.953125 166 81.75 166.003906 81.539062 C 166.003906 81.328125 165.964844 81.121094 165.882812 80.925781 C 165.800781 80.730469 165.6875 80.558594 165.539062 80.40625 C 165.386719 80.257812 165.214844 80.140625 165.019531 80.058594 C 155.75 76.308594 146.136719 74 136.175781 73.125 L 175.945312 21.472656 L 183.4375 27.238281 L 167.996094 47.246094 L 180.535156 56.890625 L 188.238281 46.882812 L 198.246094 54.582031 L 207.894531 42.054688 L 187.875 26.640625 L 193.636719 19.15625 L 241.164062 55.746094 L 233.457031 65.757812 L 243.472656 73.464844 L 174.113281 163.546875 L 196.65625 180.902344 L 266.011719 90.8125 L 276.019531 98.5 L 283.726562 88.492188 L 311.238281 109.671875 L 303.53125 119.683594 L 313.539062 127.382812 L 290.933594 156.738281 C 284.941406 153.425781 278.597656 151.058594 271.898438 149.640625 C 271.691406 149.597656 271.484375 149.597656 271.277344 149.636719 C 271.070312 149.675781 270.878906 149.753906 270.703125 149.871094 C 270.527344 149.988281 270.382812 150.132812 270.261719 150.308594 C 270.144531 150.484375 270.066406 150.671875 270.023438 150.878906 C 269.980469 151.085938 269.980469 151.292969 270.019531 151.5 C 270.058594 151.707031 270.136719 151.898438 270.253906 152.074219 C 270.371094 152.25 270.515625 152.398438 270.691406 152.515625 C 270.867188 152.632812 271.054688 152.714844 271.261719 152.757812 C 271.5 152.800781 293.316406 157.207031 299.777344 169.328125 L 299.613281 169.328125 C 294.75 169.921875 290.253906 171.535156 286.125 174.171875 C 280.902344 164.851562 265.515625 163.128906 264.820312 163.058594 C 264.609375 163.035156 264.402344 163.054688 264.199219 163.113281 C 263.996094 163.171875 263.808594 163.269531 263.644531 163.402344 C 263.480469 163.539062 263.347656 163.699219 263.246094 163.882812 C 263.144531 164.070312 263.082031 164.269531 263.058594 164.480469 C 263.039062 164.691406 263.058594 164.902344 263.117188 165.105469 C 263.179688 165.308594 263.277344 165.492188 263.410156 165.65625 C 263.546875 165.820312 263.707031 165.953125 263.894531 166.054688 C 264.078125 166.15625 264.277344 166.214844 264.492188 166.238281 C 264.609375 166.238281 273.609375 167.25 279.535156 171.59375 L 271.949219 181.453125 C 268.382812 179.507812 264.609375 178.632812 260.871094 179.699219 C 255.613281 181.199219 253.945312 184.609375 253.484375 187.195312 C 252.769531 191.113281 254.289062 195.898438 257.121094 200.714844 Z M 282.875 186.777344 C 282.679688 188.011719 282.597656 189.25 282.625 190.496094 C 280.25 187.738281 277.589844 185.285156 274.644531 183.140625 L 281.890625 173.726562 C 282.542969 174.453125 283.089844 175.246094 283.535156 176.113281 C 282.828125 176.703125 282.230469 177.390625 281.742188 178.171875 C 279.886719 181.640625 281.445312 184.984375 282.886719 186.757812 Z M 370.746094 219.140625 C 370.445312 220.234375 369.398438 221.3125 367.691406 222.269531 C 362.683594 225.074219 352.164062 226.414062 343.050781 223.890625 C 341.878906 222.746094 340.636719 221.6875 339.324219 220.710938 C 339.152344 220.589844 338.964844 220.503906 338.757812 220.457031 C 338.550781 220.414062 338.34375 220.40625 338.136719 220.445312 C 337.929688 220.480469 337.738281 220.554688 337.558594 220.667969 C 337.378906 220.78125 337.230469 220.921875 337.109375 221.09375 C 336.988281 221.265625 336.902344 221.457031 336.859375 221.664062 C 336.8125 221.867188 336.804688 222.074219 336.84375 222.28125 C 336.878906 222.492188 336.953125 222.683594 337.066406 222.863281 C 337.179688 223.039062 337.320312 223.191406 337.492188 223.3125 C 337.644531 223.417969 352.449219 234.027344 353.765625 252.316406 C 354.34375 260.300781 352.132812 265.890625 347.710938 267.652344 C 344.34375 268.988281 340.195312 267.734375 337.640625 264.601562 C 334.929688 261.289062 333.046875 256.824219 331.222656 252.519531 C 329.09375 247.476562 327.234375 243.074219 324.285156 240.90625 C 323.851562 238.582031 323.160156 236.339844 322.210938 234.171875 C 322.121094 233.992188 321.996094 233.839844 321.84375 233.707031 C 321.691406 233.574219 321.519531 233.476562 321.332031 233.40625 C 321.140625 233.339844 320.945312 233.3125 320.746094 233.316406 C 320.542969 233.324219 320.351562 233.371094 320.164062 233.449219 C 319.980469 233.53125 319.816406 233.644531 319.675781 233.785156 C 319.535156 233.929688 319.421875 234.09375 319.34375 234.277344 C 319.261719 234.464844 319.21875 234.65625 319.214844 234.859375 C 319.207031 235.058594 319.238281 235.253906 319.304688 235.445312 C 323.839844 245.617188 321.730469 260.804688 316.902344 268.554688 C 315.128906 271.410156 313.085938 273.007812 311.179688 273.097656 C 302.554688 273.433594 297.511719 264.632812 296.179688 246.941406 C 294.863281 229.574219 291.308594 227.074219 280.757812 219.636719 C 279.019531 218.414062 277.050781 217.023438 274.855469 215.40625 C 263.585938 207.0625 255.359375 194.644531 256.59375 187.738281 C 257.042969 185.195312 258.722656 183.589844 261.722656 182.734375 C 268.199219 180.882812 275.328125 187.03125 280.164062 192.519531 C 283.691406 196.589844 286.8125 200.949219 289.539062 205.59375 C 289.640625 205.777344 289.777344 205.9375 289.941406 206.066406 C 290.109375 206.199219 290.292969 206.292969 290.496094 206.347656 C 290.699219 206.40625 290.90625 206.421875 291.117188 206.398438 C 291.324219 206.371094 291.523438 206.308594 291.707031 206.203125 C 291.890625 206.101562 292.046875 205.964844 292.179688 205.800781 C 292.308594 205.632812 292.402344 205.449219 292.457031 205.246094 C 292.515625 205.042969 292.53125 204.835938 292.503906 204.625 C 292.480469 204.417969 292.414062 204.21875 292.3125 204.035156 C 290.648438 201.175781 288.832031 198.421875 286.855469 195.769531 C 284.476562 189.691406 286.855469 183.902344 286.914062 183.828125 C 286.988281 183.644531 287.027344 183.457031 287.03125 183.261719 C 287.035156 183.066406 287.003906 182.875 286.941406 182.691406 C 286.875 182.503906 286.777344 182.339844 286.648438 182.1875 C 286.523438 182.039062 286.371094 181.917969 286.199219 181.824219 C 286.027344 181.730469 285.84375 181.671875 285.648438 181.648438 C 285.457031 181.621094 285.261719 181.632812 285.074219 181.675781 C 284.882812 181.722656 284.707031 181.800781 284.542969 181.910156 C 284.382812 182.023438 284.246094 182.160156 284.132812 182.320312 C 283.941406 181.390625 284.074219 180.515625 284.535156 179.6875 C 285.417969 178.035156 291.941406 173.472656 300.007812 172.53125 C 305.730469 171.851562 314.167969 172.820312 321.628906 181.214844 C 335.261719 196.558594 336.671875 201.472656 336.8125 202.230469 C 336.617188 202.941406 337.03125 203.425781 337.714844 203.761719 C 338.175781 203.992188 349.042969 209.226562 360.609375 206.390625 C 363.980469 205.5625 366.617188 206.097656 368.457031 207.984375 C 371.195312 210.71875 371.691406 215.769531 370.757812 219.121094 Z M 370.746094 219.140625 " fill-opacity="1" fill-rule="nonzero"/></g><path fill="#000000" d="M 34.796875 172.773438 C 34.640625 172.636719 34.460938 172.53125 34.261719 172.464844 C 34.058594 172.394531 33.855469 172.367188 33.644531 172.382812 C 33.433594 172.394531 33.234375 172.449219 33.046875 172.542969 C 32.855469 172.636719 32.691406 172.761719 32.550781 172.921875 L 18.59375 188.820312 C 18.453125 188.976562 18.351562 189.15625 18.285156 189.355469 C 18.214844 189.554688 18.1875 189.761719 18.203125 189.972656 C 18.214844 190.183594 18.269531 190.382812 18.363281 190.570312 C 18.457031 190.761719 18.582031 190.925781 18.742188 191.0625 C 19.039062 191.328125 19.390625 191.460938 19.789062 191.457031 C 20.269531 191.460938 20.667969 191.277344 20.984375 190.917969 L 34.945312 175.019531 C 35.082031 174.859375 35.1875 174.683594 35.253906 174.480469 C 35.324219 174.28125 35.347656 174.078125 35.335938 173.867188 C 35.320312 173.65625 35.269531 173.457031 35.175781 173.265625 C 35.082031 173.078125 34.957031 172.914062 34.796875 172.773438 Z M 34.796875 172.773438 " fill-opacity="1" fill-rule="nonzero"/><path fill="#000000" d="M 69.351562 199.640625 C 69.195312 199.503906 69.015625 199.398438 68.816406 199.332031 C 68.621094 199.261719 68.414062 199.234375 68.203125 199.246094 C 67.996094 199.261719 67.796875 199.3125 67.605469 199.40625 C 67.417969 199.5 67.253906 199.625 67.113281 199.78125 L 53.125 215.679688 C 52.984375 215.839844 52.882812 216.019531 52.816406 216.21875 C 52.75 216.417969 52.722656 216.621094 52.734375 216.832031 C 52.75 217.042969 52.804688 217.242188 52.894531 217.429688 C 52.988281 217.617188 53.113281 217.78125 53.273438 217.921875 C 53.429688 218.0625 53.609375 218.164062 53.808594 218.230469 C 54.007812 218.300781 54.214844 218.328125 54.425781 218.3125 C 54.632812 218.300781 54.832031 218.246094 55.023438 218.15625 C 55.210938 218.0625 55.375 217.9375 55.515625 217.777344 L 69.503906 201.878906 C 69.644531 201.722656 69.746094 201.542969 69.816406 201.34375 C 69.882812 201.144531 69.910156 200.941406 69.894531 200.730469 C 69.878906 200.519531 69.824219 200.320312 69.730469 200.132812 C 69.636719 199.945312 69.511719 199.78125 69.351562 199.640625 Z M 69.351562 199.640625 " fill-opacity="1" fill-rule="nonzero"/><path fill="#000000" d="M 81.785156 212.5625 L 69.4375 226.617188 C 69.296875 226.777344 69.191406 226.957031 69.125 227.15625 C 69.058594 227.355469 69.03125 227.558594 69.042969 227.769531 C 69.058594 227.980469 69.109375 228.179688 69.203125 228.371094 C 69.296875 228.558594 69.421875 228.722656 69.582031 228.863281 C 69.742188 229 69.917969 229.105469 70.121094 229.171875 C 70.320312 229.242188 70.523438 229.269531 70.734375 229.253906 C 70.945312 229.242188 71.144531 229.1875 71.335938 229.09375 C 71.523438 229 71.6875 228.875 71.828125 228.714844 L 84.171875 214.664062 C 84.320312 214.507812 84.433594 214.328125 84.511719 214.125 C 84.585938 213.921875 84.621094 213.710938 84.613281 213.496094 C 84.601562 213.277344 84.550781 213.070312 84.457031 212.875 C 84.363281 212.679688 84.238281 212.511719 84.074219 212.367188 C 83.910156 212.222656 83.726562 212.117188 83.519531 212.050781 C 83.316406 211.984375 83.105469 211.957031 82.886719 211.976562 C 82.671875 211.996094 82.46875 212.054688 82.277344 212.15625 C 82.085938 212.257812 81.921875 212.394531 81.785156 212.5625 Z M 81.785156 212.5625 " fill-opacity="1" fill-rule="nonzero"/><path fill="#000000" d="M 98.820312 226.617188 L 86.472656 240.671875 C 86.332031 240.828125 86.230469 241.007812 86.160156 241.207031 C 86.09375 241.410156 86.066406 241.613281 86.078125 241.824219 C 86.09375 242.035156 86.148438 242.234375 86.242188 242.421875 C 86.332031 242.613281 86.460938 242.777344 86.617188 242.917969 C 86.917969 243.183594 87.265625 243.3125 87.667969 243.308594 C 88.148438 243.308594 88.546875 243.128906 88.863281 242.769531 L 101.207031 228.714844 C 101.355469 228.558594 101.46875 228.378906 101.546875 228.175781 C 101.625 227.976562 101.65625 227.765625 101.648438 227.546875 C 101.640625 227.332031 101.585938 227.125 101.496094 226.929688 C 101.402344 226.734375 101.273438 226.566406 101.109375 226.421875 C 100.945312 226.277344 100.761719 226.171875 100.558594 226.105469 C 100.351562 226.035156 100.140625 226.011719 99.921875 226.03125 C 99.707031 226.050781 99.503906 226.109375 99.3125 226.210938 C 99.121094 226.3125 98.957031 226.449219 98.820312 226.617188 Z M 98.820312 226.617188 " fill-opacity="1" fill-rule="nonzero"/><path fill="#000000" d="M 58.394531 180.71875 C 58.238281 180.578125 58.058594 180.476562 57.859375 180.40625 C 57.660156 180.339844 57.457031 180.3125 57.246094 180.324219 C 57.035156 180.339844 56.835938 180.394531 56.648438 180.484375 C 56.460938 180.578125 56.296875 180.703125 56.15625 180.863281 L 32.550781 207.730469 C 32.347656 207.964844 32.226562 208.238281 32.179688 208.546875 C 32.136719 208.855469 32.179688 209.148438 32.308594 209.433594 C 32.433594 209.714844 32.628906 209.941406 32.890625 210.113281 C 33.152344 210.28125 33.4375 210.367188 33.75 210.371094 C 34.226562 210.367188 34.625 210.1875 34.945312 209.828125 L 58.542969 182.960938 C 58.683594 182.804688 58.785156 182.625 58.851562 182.425781 C 58.921875 182.226562 58.949219 182.019531 58.933594 181.808594 C 58.921875 181.597656 58.867188 181.398438 58.773438 181.210938 C 58.679688 181.019531 58.554688 180.855469 58.394531 180.71875 Z M 58.394531 180.71875 " fill-opacity="1" fill-rule="nonzero"/><path fill="#000000" d="M 111.378906 48.667969 C 111.851562 48.8125 112.335938 48.90625 112.828125 48.957031 C 113.320312 49.003906 113.808594 49.003906 114.300781 48.957031 C 114.792969 48.90625 115.273438 48.8125 115.746094 48.667969 C 116.21875 48.523438 116.675781 48.335938 117.109375 48.101562 C 117.546875 47.871094 117.953125 47.597656 118.335938 47.28125 C 118.71875 46.96875 119.0625 46.621094 119.378906 46.242188 C 119.691406 45.859375 119.964844 45.449219 120.195312 45.015625 C 120.429688 44.578125 120.617188 44.125 120.761719 43.652344 L 125.988281 26.386719 L 128.015625 27.023438 C 128.296875 27.105469 128.582031 27.164062 128.875 27.191406 C 129.164062 27.222656 129.457031 27.21875 129.75 27.191406 C 130.039062 27.164062 130.324219 27.105469 130.605469 27.019531 C 130.886719 26.933594 131.15625 26.824219 131.414062 26.683594 C 131.671875 26.546875 131.914062 26.382812 132.140625 26.199219 C 132.367188 26.011719 132.574219 25.804688 132.757812 25.578125 C 132.945312 25.351562 133.105469 25.109375 133.242188 24.851562 C 133.382812 24.59375 133.492188 24.324219 133.578125 24.042969 C 133.664062 23.761719 133.71875 23.476562 133.746094 23.183594 C 133.777344 22.894531 133.777344 22.601562 133.746094 22.3125 C 133.71875 22.019531 133.660156 21.734375 133.574219 21.453125 C 133.488281 21.171875 133.378906 20.902344 133.238281 20.644531 C 133.101562 20.386719 132.9375 20.144531 132.753906 19.917969 C 132.566406 19.691406 132.359375 19.488281 132.132812 19.300781 C 131.90625 19.117188 131.664062 18.953125 131.40625 18.816406 C 131.148438 18.679688 130.878906 18.566406 130.597656 18.480469 L 128.574219 17.847656 L 125.59375 16.929688 L 123.003906 25.472656 L 119.546875 36.886719 C 119.367188 36.652344 119.171875 36.429688 118.964844 36.21875 C 118.761719 36.007812 118.542969 35.8125 118.3125 35.625 C 118.082031 35.441406 117.84375 35.269531 117.59375 35.113281 C 117.34375 34.957031 117.085938 34.8125 116.820312 34.6875 C 116.554688 34.5625 116.28125 34.449219 116.003906 34.355469 C 115.722656 34.261719 115.4375 34.183594 115.152344 34.121094 C 114.863281 34.0625 114.570312 34.019531 114.277344 33.992188 C 113.984375 33.964844 113.691406 33.953125 113.394531 33.960938 C 113.101562 33.96875 112.808594 33.996094 112.515625 34.039062 C 112.222656 34.078125 111.9375 34.140625 111.652344 34.214844 C 111.367188 34.292969 111.085938 34.382812 110.8125 34.492188 C 110.539062 34.601562 110.273438 34.726562 110.011719 34.867188 C 109.753906 35.007812 109.503906 35.164062 109.261719 35.332031 C 109.023438 35.503906 108.792969 35.6875 108.574219 35.882812 C 108.351562 36.078125 108.144531 36.289062 107.953125 36.511719 C 107.757812 36.730469 107.574219 36.964844 107.40625 37.207031 C 107.242188 37.449219 107.085938 37.699219 106.949219 37.960938 C 106.8125 38.222656 106.691406 38.488281 106.582031 38.765625 C 106.476562 39.039062 106.386719 39.320312 106.3125 39.605469 C 106.242188 39.890625 106.183594 40.179688 106.144531 40.472656 C 106.105469 40.765625 106.082031 41.058594 106.078125 41.351562 C 106.074219 41.648438 106.085938 41.941406 106.117188 42.234375 C 106.144531 42.527344 106.191406 42.816406 106.257812 43.105469 C 106.320312 43.394531 106.402344 43.675781 106.5 43.957031 C 106.59375 44.234375 106.707031 44.503906 106.835938 44.769531 C 106.96875 45.035156 107.109375 45.292969 107.269531 45.539062 C 107.429688 45.789062 107.601562 46.027344 107.789062 46.253906 C 107.976562 46.480469 108.179688 46.695312 108.390625 46.902344 C 108.605469 47.105469 108.828125 47.296875 109.0625 47.472656 C 109.296875 47.652344 109.542969 47.8125 109.796875 47.964844 C 110.050781 48.113281 110.3125 48.246094 110.585938 48.363281 C 110.855469 48.480469 111.128906 48.582031 111.414062 48.667969 Z M 111.378906 48.667969 " fill-opacity="1" fill-rule="nonzero"/><path fill="#000000" d="M 66.25 52.839844 C 66.511719 52.839844 66.761719 52.890625 67.003906 52.988281 C 67.242188 53.089844 67.457031 53.230469 67.640625 53.414062 C 67.828125 53.601562 67.96875 53.8125 68.070312 54.054688 C 68.167969 54.292969 68.21875 54.542969 68.222656 54.804688 L 68.222656 57.507812 C 68.222656 57.800781 68.277344 58.082031 68.390625 58.351562 C 68.5 58.625 68.660156 58.863281 68.867188 59.070312 C 69.074219 59.277344 69.3125 59.433594 69.582031 59.546875 C 69.855469 59.660156 70.136719 59.714844 70.429688 59.714844 L 70.835938 59.714844 C 71.128906 59.714844 71.410156 59.660156 71.679688 59.546875 C 71.949219 59.433594 72.1875 59.277344 72.394531 59.070312 C 72.601562 58.863281 72.761719 58.625 72.875 58.351562 C 72.984375 58.082031 73.042969 57.800781 73.042969 57.507812 L 73.042969 54.804688 C 73.042969 54.542969 73.09375 54.292969 73.191406 54.054688 C 73.292969 53.8125 73.4375 53.601562 73.621094 53.414062 C 73.804688 53.230469 74.019531 53.089844 74.261719 52.988281 C 74.5 52.890625 74.75 52.839844 75.011719 52.839844 C 75.332031 52.839844 75.640625 52.78125 75.9375 52.660156 C 76.234375 52.539062 76.496094 52.363281 76.722656 52.136719 C 76.949219 51.910156 77.121094 51.648438 77.246094 51.355469 C 77.367188 51.058594 77.429688 50.75 77.429688 50.429688 C 77.429688 50.109375 77.367188 49.800781 77.246094 49.507812 C 77.121094 49.210938 76.949219 48.949219 76.722656 48.722656 C 76.496094 48.496094 76.234375 48.324219 75.9375 48.203125 C 75.640625 48.082031 75.332031 48.019531 75.011719 48.019531 C 74.75 48.019531 74.5 47.96875 74.257812 47.871094 C 74.015625 47.769531 73.804688 47.628906 73.617188 47.441406 C 73.433594 47.257812 73.292969 47.046875 73.191406 46.804688 C 73.089844 46.5625 73.042969 46.3125 73.042969 46.050781 L 73.042969 43.351562 C 73.042969 43.058594 72.984375 42.777344 72.875 42.507812 C 72.761719 42.238281 72.601562 42 72.394531 41.792969 C 72.1875 41.585938 71.949219 41.425781 71.679688 41.3125 C 71.410156 41.203125 71.128906 41.144531 70.835938 41.144531 L 70.429688 41.144531 C 70.136719 41.144531 69.855469 41.203125 69.582031 41.3125 C 69.3125 41.425781 69.074219 41.585938 68.867188 41.792969 C 68.660156 42 68.5 42.238281 68.390625 42.507812 C 68.277344 42.777344 68.222656 43.058594 68.222656 43.351562 L 68.222656 46.050781 C 68.222656 46.3125 68.171875 46.5625 68.070312 46.804688 C 67.972656 47.046875 67.828125 47.257812 67.644531 47.441406 C 67.457031 47.628906 67.246094 47.769531 67.003906 47.871094 C 66.761719 47.96875 66.511719 48.019531 66.25 48.019531 C 65.929688 48.019531 65.625 48.082031 65.328125 48.207031 C 65.035156 48.328125 64.773438 48.503906 64.550781 48.730469 C 64.324219 48.953125 64.152344 49.214844 64.027344 49.511719 C 63.90625 49.804688 63.847656 50.113281 63.847656 50.429688 C 63.847656 50.75 63.90625 51.054688 64.027344 51.351562 C 64.152344 51.644531 64.324219 51.90625 64.550781 52.132812 C 64.773438 52.359375 65.035156 52.53125 65.328125 52.65625 C 65.625 52.777344 65.929688 52.839844 66.25 52.839844 Z M 66.25 52.839844 " fill-opacity="1" fill-rule="nonzero"/><path fill="#000000" d="M 310.484375 160.820312 C 310.289062 160.898438 310.117188 161.011719 309.96875 161.160156 C 309.820312 161.308594 309.703125 161.480469 309.621094 161.675781 C 309.539062 161.871094 309.5 162.074219 309.496094 162.285156 C 309.496094 162.496094 309.535156 162.695312 309.613281 162.890625 C 309.695312 163.085938 309.808594 163.261719 309.957031 163.410156 C 310.105469 163.558594 310.277344 163.675781 310.472656 163.757812 C 310.664062 163.839844 310.867188 163.878906 311.078125 163.882812 C 311.289062 163.882812 311.492188 163.84375 311.6875 163.765625 C 311.800781 163.710938 323.542969 160.039062 340.789062 192.378906 C 340.925781 192.636719 341.121094 192.84375 341.375 192.992188 C 341.625 193.144531 341.898438 193.21875 342.191406 193.21875 C 342.457031 193.222656 342.703125 193.160156 342.9375 193.035156 C 343.121094 192.933594 343.28125 192.800781 343.410156 192.636719 C 343.542969 192.472656 343.640625 192.289062 343.699219 192.089844 C 343.757812 191.886719 343.777344 191.679688 343.753906 191.472656 C 343.734375 191.261719 343.671875 191.0625 343.574219 190.878906 C 324.730469 155.535156 311.058594 160.609375 310.484375 160.820312 Z M 310.484375 160.820312 " fill-opacity="1" fill-rule="nonzero"/><path fill="#000000" d="M 316.011719 153.957031 C 315.988281 154.167969 316.003906 154.371094 316.0625 154.574219 C 316.121094 154.777344 316.214844 154.960938 316.347656 155.125 C 316.476562 155.289062 316.636719 155.425781 316.820312 155.527344 C 317.003906 155.628906 317.203125 155.691406 317.410156 155.714844 C 317.476562 155.714844 323.859375 156.535156 330.613281 165.582031 C 330.929688 166.007812 331.355469 166.21875 331.886719 166.21875 C 332.1875 166.222656 332.46875 166.144531 332.726562 165.984375 C 332.980469 165.828125 333.179688 165.613281 333.3125 165.34375 C 333.449219 165.074219 333.503906 164.789062 333.472656 164.488281 C 333.445312 164.183594 333.339844 163.914062 333.15625 163.675781 C 325.589844 153.539062 318.085938 152.589844 317.765625 152.550781 C 317.558594 152.527344 317.351562 152.546875 317.148438 152.605469 C 316.945312 152.664062 316.761719 152.761719 316.597656 152.890625 C 316.433594 153.023438 316.300781 153.179688 316.199219 153.367188 C 316.097656 153.550781 316.035156 153.75 316.011719 153.957031 Z M 316.011719 153.957031 " fill-opacity="1" fill-rule="nonzero"/><path fill="#000000" d="M 223.601562 246.40625 C 223.390625 246.40625 223.1875 246.449219 222.992188 246.527344 C 222.796875 246.609375 222.625 246.722656 222.476562 246.875 C 222.328125 247.023438 222.214844 247.195312 222.132812 247.390625 C 222.050781 247.582031 222.011719 247.785156 222.011719 247.996094 C 222.011719 248.113281 221.890625 259.316406 211.660156 272.753906 C 211.476562 272.996094 211.375 273.265625 211.347656 273.566406 C 211.320312 273.863281 211.375 274.148438 211.507812 274.417969 C 211.644531 274.6875 211.839844 274.902344 212.09375 275.058594 C 212.351562 275.21875 212.628906 275.296875 212.929688 275.296875 C 213.460938 275.300781 213.886719 275.085938 214.203125 274.660156 C 225.078125 260.378906 225.203125 248.480469 225.203125 247.953125 C 225.199219 247.746094 225.152344 247.546875 225.070312 247.355469 C 224.984375 247.164062 224.867188 246.996094 224.71875 246.851562 C 224.566406 246.707031 224.394531 246.597656 224.203125 246.519531 C 224.011719 246.441406 223.808594 246.40625 223.601562 246.40625 Z M 223.601562 246.40625 " fill-opacity="1" fill-rule="nonzero"/><path fill="#000000" d="M 223.601562 276.300781 C 223.976562 276.300781 224.308594 276.179688 224.597656 275.945312 C 225.742188 275.039062 226.765625 274.015625 227.671875 272.875 C 228.578125 271.730469 229.34375 270.5 229.964844 269.183594 C 230.589844 267.867188 231.054688 266.496094 231.363281 265.070312 C 231.671875 263.644531 231.816406 262.203125 231.792969 260.746094 C 231.777344 260.535156 231.722656 260.335938 231.628906 260.148438 C 231.535156 259.957031 231.410156 259.792969 231.25 259.65625 C 231.089844 259.515625 230.910156 259.414062 230.710938 259.34375 C 230.511719 259.277344 230.304688 259.25 230.09375 259.265625 C 229.882812 259.28125 229.683594 259.335938 229.492188 259.429688 C 229.304688 259.523438 229.140625 259.648438 229 259.808594 C 228.863281 259.96875 228.757812 260.148438 228.691406 260.347656 C 228.625 260.546875 228.597656 260.753906 228.613281 260.964844 C 228.617188 262.164062 228.488281 263.351562 228.222656 264.527344 C 227.960938 265.699219 227.566406 266.828125 227.046875 267.910156 C 226.527344 268.996094 225.894531 270.007812 225.144531 270.945312 C 224.394531 271.886719 223.550781 272.730469 222.609375 273.476562 C 222.347656 273.691406 222.171875 273.957031 222.082031 274.28125 C 221.988281 274.605469 222 274.929688 222.113281 275.246094 C 222.226562 275.5625 222.421875 275.816406 222.695312 276.011719 C 222.972656 276.207031 223.277344 276.300781 223.613281 276.300781 Z M 223.601562 276.300781 " fill-opacity="1" fill-rule="nonzero"/><path fill="#000000" d="M 96.671875 73.621094 C 96.996094 73.621094 97.289062 73.53125 97.554688 73.347656 C 97.675781 73.273438 109.917969 65.277344 133.492188 66.238281 C 133.703125 66.25 133.90625 66.214844 134.105469 66.144531 C 134.304688 66.070312 134.480469 65.964844 134.636719 65.820312 C 134.792969 65.675781 134.914062 65.507812 135.003906 65.316406 C 135.089844 65.125 135.140625 64.925781 135.148438 64.714844 C 135.15625 64.503906 135.125 64.296875 135.050781 64.097656 C 134.976562 63.902344 134.871094 63.726562 134.726562 63.570312 C 134.582031 63.414062 134.414062 63.292969 134.222656 63.203125 C 134.03125 63.117188 133.828125 63.066406 133.617188 63.058594 C 108.925781 62.054688 96.304688 70.355469 95.78125 70.691406 C 95.492188 70.886719 95.289062 71.148438 95.175781 71.476562 C 95.058594 71.808594 95.050781 72.140625 95.152344 72.472656 C 95.253906 72.808594 95.445312 73.078125 95.726562 73.285156 C 96.007812 73.492188 96.324219 73.597656 96.671875 73.597656 Z M 96.671875 73.621094 " fill-opacity="1" fill-rule="nonzero"/></svg>