<svg xmlns="http://www.w3.org/2000/svg" xmlns:xlink="http://www.w3.org/1999/xlink" width="500" zoomAndPan="magnify" viewBox="0 0 375 374.999991" height="500" preserveAspectRatio="xMidYMid meet" version="1.0"><defs><clipPath id="245582a5fe"><path d="M 69 153 L 341 153 L 341 355.433594 L 69 355.433594 Z M 69 153 " clip-rule="nonzero"/></clipPath><clipPath id="d643768946"><path d="M 16 19.433594 L 86 19.433594 L 86 88 L 16 88 Z M 16 19.433594 " clip-rule="nonzero"/></clipPath><clipPath id="dbc501bab2"><path d="M 41 19.433594 L 68 19.433594 L 68 38 L 41 38 Z M 41 19.433594 " clip-rule="nonzero"/></clipPath><clipPath id="fa0f35489d"><path d="M 12 174 L 316 174 L 316 355.433594 L 12 355.433594 Z M 12 174 " clip-rule="nonzero"/></clipPath></defs><path fill="#000000" d="M 204.0625 67.808594 C 204.0625 67.808594 202.824219 64.234375 204.199219 62.171875 C 204.199219 62.171875 202.273438 60.25 203.648438 58.597656 C 205.023438 56.949219 215.199219 53.925781 220.976562 59.421875 C 220.976562 59.421875 225.652344 60.660156 226.886719 64.921875 C 228.125 69.183594 223.863281 73.304688 223.863281 73.304688 L 209.425781 72.207031 Z M 204.0625 67.808594 " fill-opacity="1" fill-rule="nonzero"/><path fill="#000000" d="M 223.863281 73.75 C 223.851562 73.75 223.839844 73.75 223.828125 73.75 L 209.390625 72.652344 C 209.296875 72.644531 209.210938 72.609375 209.140625 72.550781 L 203.777344 68.152344 C 203.714844 68.101562 203.667969 68.03125 203.640625 67.953125 C 203.589844 67.804688 202.453125 64.460938 203.648438 62.226562 C 202.921875 61.355469 202.140625 59.710938 203.304688 58.3125 C 204.15625 57.292969 207.476562 56.0625 211.058594 55.855469 C 213.964844 55.683594 218.074219 56.105469 221.203125 59.023438 C 221.960938 59.25 226.117188 60.667969 227.316406 64.796875 C 228.613281 69.265625 224.355469 73.449219 224.171875 73.625 C 224.089844 73.707031 223.976562 73.75 223.863281 73.75 Z M 209.597656 71.773438 L 223.6875 72.84375 C 224.386719 72.105469 227.484375 68.574219 226.457031 65.046875 C 225.308594 61.085938 220.902344 59.867188 220.859375 59.855469 C 220.789062 59.835938 220.722656 59.796875 220.667969 59.746094 C 217.761719 56.980469 213.863281 56.589844 211.109375 56.746094 C 207.378906 56.960938 204.535156 58.234375 203.992188 58.882812 C 202.894531 60.199219 204.449219 61.792969 204.515625 61.859375 C 204.664062 62.007812 204.6875 62.246094 204.570312 62.421875 C 203.464844 64.074219 204.257812 66.9375 204.445312 67.546875 Z M 209.597656 71.773438 " fill-opacity="1" fill-rule="nonzero"/><path fill="#f5f6f7" d="M 70.40625 179.421875 L 74.253906 153.578125 L 340.46875 153.578125 L 314.617188 354.8125 Z M 70.40625 179.421875 " fill-opacity="1" fill-rule="nonzero"/><g clip-path="url(#245582a5fe)"><path fill="#000000" d="M 314.617188 355.257812 C 314.523438 355.257812 314.433594 355.226562 314.355469 355.171875 L 70.144531 179.78125 C 70.007812 179.683594 69.9375 179.519531 69.960938 179.355469 L 73.8125 153.515625 C 73.84375 153.296875 74.03125 153.132812 74.253906 153.132812 L 340.46875 153.132812 C 340.59375 153.132812 340.71875 153.1875 340.800781 153.285156 C 340.886719 153.382812 340.925781 153.507812 340.910156 153.636719 L 315.058594 354.867188 C 315.039062 355.023438 314.9375 355.160156 314.792969 355.222656 C 314.738281 355.246094 314.675781 355.257812 314.617188 355.257812 Z M 70.886719 179.214844 L 314.269531 354.011719 L 339.960938 154.027344 L 74.640625 154.027344 Z M 70.886719 179.214844 " fill-opacity="1" fill-rule="nonzero"/></g><path fill="#5c84f7" d="M 258.515625 124.988281 L 227.164062 110.695312 L 218.910156 125.261719 C 218.910156 125.261719 233.292969 132.746094 245.976562 138.277344 C 250.65625 140.320312 252.609375 141.269531 256.019531 142.308594 C 268.667969 146.15625 274.453125 143.863281 278.027344 134.789062 C 280.976562 127.304688 274.601562 120.796875 271.285156 117.816406 C 270.417969 117.039062 269.570312 116.238281 268.75 115.40625 C 263.675781 110.238281 242.09375 90.878906 237.175781 89.707031 C 231.398438 88.332031 208.738281 92.273438 203.511719 93.101562 C 198.285156 93.925781 180.410156 110.417969 174.910156 116.742188 C 169.410156 123.066406 150.160156 150.007812 149.332031 167.875 L 166.109375 172.550781 C 166.109375 172.550781 172.710938 147.53125 176.835938 143.410156 C 180.960938 139.285156 192.785156 123.890625 192.785156 123.890625 L 195.261719 145.882812 L 246.964844 142.308594 L 246.207031 138.460938 " fill-opacity="1" fill-rule="nonzero"/><path fill="#000000" d="M 166.109375 172.992188 C 166.070312 172.992188 166.03125 172.988281 165.988281 172.976562 L 149.214844 168.304688 C 149.011719 168.246094 148.878906 168.0625 148.886719 167.851562 C 149.691406 150.4375 168.261719 123.703125 174.574219 116.449219 C 180.199219 109.984375 198.070312 93.507812 203.441406 92.660156 C 203.949219 92.578125 204.617188 92.46875 205.421875 92.335938 C 213.371094 91.042969 231.976562 88.011719 237.277344 89.273438 C 242.421875 90.496094 264.386719 110.328125 269.070312 115.09375 C 269.820312 115.855469 270.640625 116.636719 271.582031 117.484375 C 278.316406 123.535156 280.625 129.414062 278.441406 134.953125 C 274.6875 144.484375 268.574219 146.59375 255.886719 142.734375 C 253.019531 141.863281 251.210938 141.066406 247.929688 139.621094 L 246.792969 139.125 L 247.402344 142.222656 C 247.425781 142.347656 247.394531 142.476562 247.316406 142.578125 C 247.238281 142.679688 247.121094 142.746094 246.992188 142.753906 L 195.292969 146.328125 C 195.03125 146.351562 194.84375 146.167969 194.816406 145.933594 L 192.464844 125.035156 C 189.882812 128.378906 180.730469 140.144531 177.152344 143.722656 C 173.15625 147.714844 166.605469 172.414062 166.542969 172.664062 C 166.511719 172.777344 166.4375 172.875 166.332031 172.933594 C 166.261719 172.972656 166.1875 172.992188 166.109375 172.992188 Z M 149.796875 167.539062 L 165.792969 171.996094 C 166.722656 168.53125 172.613281 147 176.519531 143.089844 C 180.578125 139.035156 192.3125 123.769531 192.429688 123.617188 C 192.542969 123.472656 192.730469 123.410156 192.90625 123.457031 C 193.078125 123.507812 193.207031 123.65625 193.230469 123.839844 L 195.65625 145.40625 L 246.425781 141.894531 L 245.796875 138.6875 C 233.246094 133.207031 218.847656 125.734375 218.707031 125.65625 C 218.597656 125.601562 218.519531 125.503906 218.484375 125.390625 C 218.449219 125.273438 218.464844 125.148438 218.523438 125.042969 L 226.773438 110.472656 C 226.886719 110.269531 227.140625 110.191406 227.347656 110.285156 L 258.699219 124.582031 C 258.921875 124.683594 259.023438 124.949219 258.921875 125.171875 C 258.816406 125.398438 258.550781 125.496094 258.328125 125.394531 L 227.347656 111.269531 L 219.527344 125.078125 C 221.96875 126.339844 234.820312 132.921875 246.15625 137.867188 L 248.285156 138.804688 C 251.539062 140.234375 253.332031 141.023438 256.144531 141.878906 C 268.257812 145.566406 274.074219 143.597656 277.609375 134.625 C 279.640625 129.46875 277.414062 123.925781 270.984375 118.148438 C 270.027344 117.289062 269.191406 116.492188 268.433594 115.71875 C 262.992188 110.179688 241.746094 91.25 237.070312 90.136719 C 231.945312 88.921875 212.78125 92.042969 205.566406 93.21875 C 204.761719 93.347656 204.089844 93.457031 203.582031 93.539062 C 198.488281 94.34375 180.652344 110.816406 175.246094 117.03125 C 169.03125 124.179688 150.824219 150.351562 149.796875 167.539062 Z M 149.796875 167.539062 " fill-opacity="1" fill-rule="nonzero"/><path fill="#ffffff" d="M 204.0625 67.808594 C 204.0625 67.808594 204.335938 73.167969 204.472656 74.269531 C 204.613281 75.367188 203.238281 77.707031 202.960938 79.078125 C 202.6875 80.453125 205.710938 81.003906 205.710938 81.003906 C 205.710938 81.003906 207.5 85.675781 210.386719 86.089844 L 210.902344 91.761719 L 206.261719 92.6875 C 206.261719 92.6875 210.34375 97.632812 217.082031 97.082031 C 223.820312 96.53125 227.917969 89.707031 227.917969 89.707031 L 223.449219 90.179688 L 222.761719 83.890625 C 222.761719 83.890625 224.550781 80.867188 224.414062 77.703125 C 224.414062 77.703125 227.851562 74.957031 227.714844 72.34375 C 227.574219 69.734375 224 69.59375 224 69.59375 C 224 69.59375 220.289062 68.21875 220.425781 65.332031 C 220.425781 65.332031 215.886719 66.84375 214.238281 66.296875 C 214.238281 66.296875 216.847656 65.058594 217.539062 63.683594 C 217.539062 63.683594 209.5625 65.472656 206.8125 63.683594 C 206.8125 63.683594 206.125 68.632812 204.0625 67.808594 Z M 204.0625 67.808594 " fill-opacity="1" fill-rule="nonzero"/><path fill="#000000" d="M 216.023438 97.570312 C 209.789062 97.570312 206.078125 93.167969 205.917969 92.972656 C 205.816406 92.847656 205.789062 92.683594 205.839844 92.535156 C 205.890625 92.390625 206.019531 92.28125 206.171875 92.25 L 210.421875 91.402344 L 209.972656 86.460938 C 207.414062 85.816406 205.785156 82.335938 205.386719 81.390625 C 204.78125 81.253906 203.308594 80.847656 202.738281 80.011719 C 202.527344 79.699219 202.453125 79.347656 202.523438 78.992188 C 202.644531 78.382812 202.945312 77.648438 203.265625 76.871094 C 203.65625 75.925781 204.097656 74.851562 204.03125 74.324219 C 203.890625 73.21875 203.625 68.050781 203.613281 67.832031 C 203.605469 67.679688 203.675781 67.53125 203.800781 67.445312 C 203.925781 67.355469 204.085938 67.335938 204.226562 67.394531 C 204.449219 67.484375 204.636719 67.472656 204.828125 67.363281 C 205.636719 66.894531 206.203125 64.820312 206.367188 63.621094 C 206.390625 63.472656 206.488281 63.339844 206.625 63.277344 C 206.765625 63.214844 206.925781 63.226562 207.054688 63.308594 C 209.179688 64.691406 215.273438 63.734375 217.4375 63.25 C 217.605469 63.210938 217.78125 63.273438 217.886719 63.410156 C 217.996094 63.542969 218.011719 63.726562 217.9375 63.882812 C 217.535156 64.6875 216.582031 65.421875 215.773438 65.941406 C 217.308594 65.804688 219.390625 65.207031 220.285156 64.910156 C 220.425781 64.863281 220.578125 64.890625 220.695312 64.976562 C 220.8125 65.066406 220.875 65.207031 220.871094 65.351562 C 220.757812 67.6875 223.636719 68.964844 224.09375 69.152344 C 225.492188 69.226562 228.035156 69.976562 228.15625 72.320312 C 228.289062 74.800781 225.59375 77.285156 224.863281 77.90625 C 224.914062 80.738281 223.5625 83.367188 223.222656 83.984375 L 223.84375 89.6875 L 227.867188 89.261719 C 228.035156 89.246094 228.199219 89.320312 228.292969 89.464844 C 228.382812 89.605469 228.386719 89.789062 228.296875 89.933594 C 228.125 90.21875 224.003906 96.964844 217.117188 97.523438 C 216.742188 97.554688 216.378906 97.570312 216.023438 97.570312 Z M 207.144531 92.964844 C 208.441406 94.210938 211.988281 97.035156 217.042969 96.636719 C 222.128906 96.222656 225.710938 92.015625 227.003906 90.25 L 223.496094 90.621094 C 223.25 90.652344 223.035156 90.472656 223.007812 90.226562 L 222.320312 83.9375 C 222.308594 83.84375 222.328125 83.746094 222.378906 83.664062 C 222.394531 83.632812 224.097656 80.710938 223.96875 77.722656 C 223.960938 77.582031 224.023438 77.445312 224.132812 77.355469 C 224.167969 77.328125 227.390625 74.714844 227.269531 72.367188 C 227.152344 70.195312 224.113281 70.046875 223.984375 70.039062 C 223.9375 70.039062 223.890625 70.027344 223.847656 70.011719 C 223.695312 69.957031 220.335938 68.679688 220.003906 65.933594 C 218.675781 66.339844 215.535156 67.195312 214.097656 66.71875 C 213.925781 66.660156 213.804688 66.503906 213.792969 66.324219 C 213.78125 66.140625 213.882812 65.96875 214.046875 65.890625 C 214.535156 65.660156 215.632812 65.054688 216.410156 64.363281 C 214.203125 64.757812 209.601562 65.394531 207.148438 64.359375 C 206.9375 65.425781 206.398438 67.484375 205.28125 68.136719 C 205.042969 68.269531 204.792969 68.339844 204.535156 68.347656 C 204.613281 69.75 204.808594 73.351562 204.917969 74.210938 C 205.011719 74.976562 204.566406 76.0625 204.09375 77.210938 C 203.804688 77.914062 203.503906 78.644531 203.398438 79.167969 C 203.375 79.289062 203.398438 79.394531 203.476562 79.511719 C 203.878906 80.101562 205.320312 80.480469 205.792969 80.5625 C 205.945312 80.59375 206.074219 80.699219 206.128906 80.84375 C 206.144531 80.886719 207.859375 85.277344 210.453125 85.648438 C 210.65625 85.675781 210.8125 85.84375 210.832031 86.050781 L 211.347656 91.722656 C 211.367188 91.949219 211.214844 92.15625 210.992188 92.199219 Z M 207.144531 92.964844 " fill-opacity="1" fill-rule="nonzero"/><path fill="#000000" d="M 192.785156 124.335938 C 192.773438 124.335938 192.761719 124.335938 192.75 124.332031 C 192.503906 124.316406 192.320312 124.097656 192.339844 123.851562 L 193.027344 115.332031 C 193.046875 115.085938 193.261719 114.898438 193.507812 114.921875 C 193.753906 114.941406 193.9375 115.15625 193.917969 115.402344 L 193.230469 123.925781 C 193.210938 124.160156 193.015625 124.335938 192.785156 124.335938 Z M 192.785156 124.335938 " fill-opacity="1" fill-rule="nonzero"/><path fill="#000000" d="M 198.746094 145.699219 L 195.261719 153.761719 L 250.078125 153.761719 L 246.964844 142.308594 Z M 198.746094 145.699219 " fill-opacity="1" fill-rule="nonzero"/><path fill="#000000" d="M 250.078125 154.207031 L 195.261719 154.207031 C 195.109375 154.207031 194.96875 154.132812 194.886719 154.007812 C 194.804688 153.882812 194.792969 153.722656 194.851562 153.585938 L 198.335938 145.523438 C 198.402344 145.367188 198.546875 145.265625 198.710938 145.253906 L 246.929688 141.863281 C 247.140625 141.835938 247.335938 141.984375 247.394531 142.191406 L 250.511719 153.644531 C 250.546875 153.78125 250.519531 153.921875 250.433594 154.035156 C 250.351562 154.144531 250.21875 154.207031 250.078125 154.207031 Z M 195.941406 153.316406 L 249.496094 153.316406 L 246.628906 142.777344 L 199.046875 146.125 Z M 195.941406 153.316406 " fill-opacity="1" fill-rule="nonzero"/><path fill="#5c84f7" d="M 305.320312 21.625 L 258.460938 21.625 C 248.769531 21.625 240.914062 29.476562 240.914062 39.164062 L 240.914062 53.015625 C 240.914062 62.164062 247.921875 69.667969 256.863281 70.476562 L 252.738281 80.453125 L 270.125 70.558594 L 305.320312 70.558594 C 315.011719 70.558594 322.867188 62.703125 322.867188 53.015625 L 322.867188 39.164062 C 322.867188 29.476562 315.011719 21.625 305.320312 21.625 Z M 305.320312 21.625 " fill-opacity="1" fill-rule="nonzero"/><path fill="#000000" d="M 252.738281 80.898438 C 252.632812 80.898438 252.527344 80.863281 252.441406 80.789062 C 252.300781 80.664062 252.253906 80.460938 252.328125 80.285156 L 256.222656 70.855469 C 247.195312 69.746094 240.464844 62.175781 240.464844 53.015625 L 240.464844 39.164062 C 240.464844 29.246094 248.539062 21.175781 258.460938 21.175781 L 305.320312 21.175781 C 315.242188 21.175781 323.3125 29.246094 323.3125 39.164062 L 323.3125 53.015625 C 323.3125 62.933594 315.242188 71.003906 305.320312 71.003906 L 270.242188 71.003906 L 252.960938 80.84375 C 252.890625 80.882812 252.816406 80.898438 252.738281 80.898438 Z M 258.460938 22.070312 C 249.03125 22.070312 241.359375 29.738281 241.359375 39.164062 L 241.359375 53.015625 C 241.359375 61.914062 248.039062 69.230469 256.902344 70.03125 C 257.042969 70.046875 257.167969 70.125 257.242188 70.246094 C 257.316406 70.367188 257.328125 70.515625 257.273438 70.648438 L 253.648438 79.425781 L 269.90625 70.171875 C 269.972656 70.132812 270.046875 70.113281 270.125 70.113281 L 305.320312 70.113281 C 314.75 70.113281 322.421875 62.441406 322.421875 53.015625 L 322.421875 39.164062 C 322.421875 29.738281 314.75 22.070312 305.320312 22.070312 Z M 258.460938 22.070312 " fill-opacity="1" fill-rule="nonzero"/><path fill="#ffffff" d="M 292.714844 36.074219 L 290.148438 33.589844 L 281.355469 42.664062 L 272.566406 33.589844 L 270 36.074219 L 278.871094 45.230469 L 270 54.390625 L 272.566406 56.875 L 281.355469 47.796875 L 290.148438 56.875 L 292.714844 54.390625 L 283.84375 45.230469 Z M 292.714844 36.074219 " fill-opacity="1" fill-rule="nonzero"/><path fill="#ffffff" d="M 56.632812 93.003906 L 76.433594 134.789062 L 108.609375 120.21875 L 94.585938 89.980469 L 81.660156 96.300781 L 75.609375 83.109375 Z M 56.632812 93.003906 " fill-opacity="1" fill-rule="nonzero"/><path fill="#000000" d="M 76.433594 135.238281 C 76.265625 135.238281 76.109375 135.144531 76.03125 134.980469 L 56.230469 93.195312 C 56.128906 92.980469 56.214844 92.722656 56.425781 92.609375 L 75.40625 82.710938 C 75.511719 82.65625 75.640625 82.644531 75.753906 82.6875 C 75.871094 82.726562 75.964844 82.808594 76.015625 82.921875 L 81.875 95.699219 L 94.390625 89.578125 C 94.5 89.527344 94.625 89.519531 94.734375 89.558594 C 94.847656 89.597656 94.941406 89.683594 94.992188 89.792969 L 109.015625 120.03125 C 109.066406 120.140625 109.074219 120.261719 109.03125 120.375 C 108.988281 120.484375 108.90625 120.578125 108.796875 120.625 L 76.621094 135.195312 C 76.558594 135.222656 76.496094 135.238281 76.433594 135.238281 Z M 57.222656 93.199219 L 76.652344 134.203125 L 108.019531 120 L 94.371094 90.582031 L 81.855469 96.703125 C 81.746094 96.757812 81.625 96.761719 81.511719 96.722656 C 81.398438 96.683594 81.304688 96.597656 81.253906 96.488281 L 75.402344 83.71875 Z M 57.222656 93.199219 " fill-opacity="1" fill-rule="nonzero"/><path fill="#5c84f7" d="M 75.609375 83.109375 L 94.585938 89.980469 L 81.660156 96.300781 Z M 75.609375 83.109375 " fill-opacity="1" fill-rule="nonzero"/><path fill="#000000" d="M 81.660156 96.75 C 81.609375 96.75 81.558594 96.738281 81.511719 96.722656 C 81.398438 96.683594 81.304688 96.597656 81.253906 96.488281 L 75.207031 83.292969 C 75.128906 83.128906 75.160156 82.9375 75.28125 82.804688 C 75.40625 82.671875 75.59375 82.625 75.761719 82.6875 L 94.738281 89.5625 C 94.910156 89.621094 95.023438 89.777344 95.03125 89.957031 C 95.042969 90.136719 94.945312 90.300781 94.785156 90.382812 L 81.859375 96.703125 C 81.792969 96.734375 81.726562 96.75 81.660156 96.75 Z M 76.460938 83.890625 L 81.875 95.699219 L 93.445312 90.042969 Z M 76.460938 83.890625 " fill-opacity="1" fill-rule="nonzero"/><path fill="#ffffff" d="M 95.175781 50.894531 L 106.972656 95.601562 L 141.277344 87.179688 L 133.039062 54.882812 L 119.171875 58.726562 L 115.644531 44.644531 Z M 95.175781 50.894531 " fill-opacity="1" fill-rule="nonzero"/><path fill="#000000" d="M 106.972656 96.046875 C 106.773438 96.046875 106.59375 95.914062 106.539062 95.714844 L 94.746094 51.007812 C 94.683594 50.773438 94.816406 50.535156 95.046875 50.464844 L 115.515625 44.21875 C 115.632812 44.183594 115.761719 44.195312 115.867188 44.257812 C 115.972656 44.316406 116.050781 44.417969 116.078125 44.535156 L 119.492188 58.171875 L 132.917969 54.453125 C 133.035156 54.417969 133.15625 54.433594 133.261719 54.496094 C 133.367188 54.554688 133.441406 54.65625 133.46875 54.773438 L 141.707031 87.070312 C 141.734375 87.1875 141.71875 87.308594 141.65625 87.410156 C 141.597656 87.511719 141.496094 87.585938 141.378906 87.613281 L 107.074219 96.035156 C 107.039062 96.042969 107.003906 96.046875 106.972656 96.046875 Z M 95.71875 51.195312 L 107.289062 95.0625 L 140.730469 86.855469 L 132.71875 55.433594 L 119.292969 59.15625 C 119.175781 59.1875 119.050781 59.171875 118.949219 59.109375 C 118.84375 59.050781 118.769531 58.949219 118.738281 58.832031 L 115.328125 45.207031 Z M 95.71875 51.195312 " fill-opacity="1" fill-rule="nonzero"/><path fill="#5c84f7" d="M 115.644531 44.644531 L 133.039062 54.882812 L 119.171875 58.726562 Z M 115.644531 44.644531 " fill-opacity="1" fill-rule="nonzero"/><path fill="#000000" d="M 119.171875 59.171875 C 119.09375 59.171875 119.015625 59.152344 118.949219 59.113281 C 118.84375 59.050781 118.769531 58.953125 118.738281 58.835938 L 115.214844 44.753906 C 115.171875 44.578125 115.234375 44.394531 115.378906 44.289062 C 115.523438 44.179688 115.71875 44.167969 115.875 44.261719 L 133.265625 54.496094 C 133.421875 54.585938 133.503906 54.761719 133.484375 54.9375 C 133.457031 55.117188 133.332031 55.261719 133.160156 55.308594 L 119.292969 59.15625 C 119.253906 59.167969 119.210938 59.171875 119.171875 59.171875 Z M 116.339844 45.570312 L 119.492188 58.175781 L 131.90625 54.734375 Z M 116.339844 45.570312 " fill-opacity="1" fill-rule="nonzero"/><path fill="#ffffff" d="M 17.042969 32.945312 L 42.917969 87.554688 L 84.96875 68.511719 L 66.640625 28.992188 L 49.75 37.253906 L 41.839844 20.011719 Z M 17.042969 32.945312 " fill-opacity="1" fill-rule="nonzero"/><g clip-path="url(#d643768946)"><path fill="#000000" d="M 42.917969 88 C 42.75 88 42.59375 87.90625 42.515625 87.746094 L 16.640625 33.132812 C 16.535156 32.917969 16.625 32.660156 16.835938 32.546875 L 41.632812 19.613281 C 41.742188 19.558594 41.871094 19.546875 41.984375 19.589844 C 42.101562 19.628906 42.195312 19.714844 42.246094 19.824219 L 49.964844 36.652344 L 66.445312 28.589844 C 66.554688 28.539062 66.679688 28.53125 66.789062 28.570312 C 66.902344 28.613281 66.996094 28.695312 67.046875 28.804688 L 85.375 68.324219 C 85.425781 68.433594 85.429688 68.554688 85.390625 68.667969 C 85.347656 68.777344 85.261719 68.871094 85.15625 68.917969 L 43.105469 87.960938 C 43.042969 87.988281 42.980469 88 42.917969 88 Z M 17.628906 33.140625 L 43.132812 86.964844 L 84.375 68.289062 L 66.425781 29.59375 L 49.945312 37.65625 C 49.835938 37.707031 49.710938 37.714844 49.597656 37.675781 C 49.484375 37.632812 49.390625 37.550781 49.34375 37.441406 L 41.632812 20.621094 Z M 17.628906 33.140625 " fill-opacity="1" fill-rule="nonzero"/></g><path fill="#5c84f7" d="M 41.839844 20.011719 L 66.640625 28.992188 L 49.75 37.253906 Z M 41.839844 20.011719 " fill-opacity="1" fill-rule="nonzero"/><g clip-path="url(#dbc501bab2)"><path fill="#000000" d="M 49.75 37.703125 C 49.699219 37.703125 49.648438 37.691406 49.597656 37.675781 C 49.484375 37.632812 49.390625 37.550781 49.34375 37.441406 L 41.4375 20.195312 C 41.359375 20.035156 41.390625 19.839844 41.511719 19.707031 C 41.632812 19.574219 41.824219 19.527344 41.992188 19.589844 L 66.792969 28.574219 C 66.960938 28.632812 67.078125 28.789062 67.085938 28.96875 C 67.097656 29.148438 66.996094 29.316406 66.835938 29.394531 L 49.945312 37.65625 C 49.882812 37.6875 49.816406 37.703125 49.75 37.703125 Z M 42.691406 20.792969 L 49.960938 36.652344 L 65.5 29.054688 Z M 42.691406 20.792969 " fill-opacity="1" fill-rule="nonzero"/></g><path fill="#ffffff" d="M 12.652344 175.023438 L 45.101562 354.8125 L 314.617188 354.8125 L 287.117188 197.5625 L 113.304688 197.5625 L 87.457031 175.570312 Z M 12.652344 175.023438 " fill-opacity="1" fill-rule="nonzero"/><g clip-path="url(#fa0f35489d)"><path fill="#000000" d="M 314.617188 355.257812 L 45.105469 355.257812 C 44.886719 355.257812 44.703125 355.101562 44.664062 354.890625 L 12.210938 175.101562 C 12.1875 174.96875 12.226562 174.835938 12.308594 174.734375 C 12.394531 174.632812 12.519531 174.574219 12.652344 174.574219 C 12.652344 174.574219 12.652344 174.574219 12.65625 174.574219 L 87.460938 175.125 C 87.5625 175.125 87.664062 175.164062 87.746094 175.230469 L 113.472656 197.117188 L 287.117188 197.117188 C 287.332031 197.117188 287.519531 197.273438 287.554688 197.488281 L 315.054688 354.734375 C 315.078125 354.863281 315.042969 354.996094 314.957031 355.097656 C 314.875 355.199219 314.75 355.257812 314.617188 355.257812 Z M 45.476562 354.363281 L 314.085938 354.363281 L 286.742188 198.011719 L 113.304688 198.011719 C 113.199219 198.011719 113.097656 197.972656 113.015625 197.902344 L 87.289062 176.015625 L 13.183594 175.472656 Z M 45.476562 354.363281 " fill-opacity="1" fill-rule="nonzero"/></g><path fill="#5c84f7" d="M 111.105469 309.175781 L 62.703125 309.175781 C 60.578125 309.175781 58.855469 307.453125 58.855469 305.328125 C 58.855469 303.203125 60.578125 301.480469 62.703125 301.480469 L 111.105469 301.480469 C 113.234375 301.480469 114.957031 303.203125 114.957031 305.328125 C 114.957031 307.453125 113.234375 309.175781 111.105469 309.175781 Z M 111.105469 309.175781 " fill-opacity="1" fill-rule="nonzero"/><path fill="#000000" d="M 111.105469 309.625 L 62.703125 309.625 C 60.335938 309.625 58.40625 307.695312 58.40625 305.328125 C 58.40625 302.960938 60.335938 301.035156 62.703125 301.035156 L 111.105469 301.035156 C 113.476562 301.035156 115.402344 302.960938 115.402344 305.328125 C 115.402344 307.695312 113.476562 309.625 111.105469 309.625 Z M 62.703125 301.925781 C 60.828125 301.925781 59.300781 303.453125 59.300781 305.328125 C 59.300781 307.203125 60.828125 308.730469 62.703125 308.730469 L 111.105469 308.730469 C 112.984375 308.730469 114.511719 307.203125 114.511719 305.328125 C 114.511719 303.453125 112.984375 301.925781 111.105469 301.925781 Z M 62.703125 301.925781 " fill-opacity="1" fill-rule="nonzero"/><path fill="#5c84f7" d="M 111.105469 328.878906 L 62.703125 328.878906 C 60.578125 328.878906 58.855469 327.15625 58.855469 325.03125 C 58.855469 322.902344 60.578125 321.183594 62.703125 321.183594 L 111.105469 321.183594 C 113.234375 321.183594 114.957031 322.90625 114.957031 325.03125 C 114.957031 327.15625 113.234375 328.878906 111.105469 328.878906 Z M 111.105469 328.878906 " fill-opacity="1" fill-rule="nonzero"/><path fill="#000000" d="M 111.105469 329.324219 L 62.703125 329.324219 C 60.335938 329.324219 58.40625 327.398438 58.40625 325.03125 C 58.40625 322.660156 60.335938 320.734375 62.703125 320.734375 L 111.105469 320.734375 C 113.476562 320.734375 115.402344 322.660156 115.402344 325.03125 C 115.402344 327.398438 113.476562 329.324219 111.105469 329.324219 Z M 62.703125 321.628906 C 60.828125 321.628906 59.300781 323.152344 59.300781 325.03125 C 59.300781 326.90625 60.828125 328.433594 62.703125 328.433594 L 111.105469 328.433594 C 112.984375 328.433594 114.511719 326.90625 114.511719 325.03125 C 114.511719 323.152344 112.984375 321.628906 111.105469 321.628906 Z M 62.703125 321.628906 " fill-opacity="1" fill-rule="nonzero"/><path fill="#000000" d="M 179.550781 193.429688 C 179.433594 193.429688 179.3125 193.417969 179.191406 193.386719 L 158.183594 188.167969 C 157.390625 187.972656 156.90625 187.171875 157.105469 186.378906 C 157.300781 185.585938 158.101562 185.105469 158.898438 185.300781 L 179.90625 190.519531 C 180.699219 190.714844 181.179688 191.515625 180.984375 192.308594 C 180.816406 192.980469 180.214844 193.429688 179.550781 193.429688 Z M 179.550781 193.429688 " fill-opacity="1" fill-rule="nonzero"/><path fill="#ffffff" d="M 211.640625 197.367188 C 211.640625 197.898438 211.617188 198.425781 211.5625 198.957031 C 211.511719 199.484375 211.433594 200.007812 211.332031 200.53125 C 211.226562 201.050781 211.097656 201.566406 210.945312 202.074219 C 210.789062 202.582031 210.609375 203.082031 210.40625 203.574219 C 210.203125 204.0625 209.976562 204.542969 209.726562 205.011719 C 209.476562 205.480469 209.203125 205.933594 208.90625 206.375 C 208.613281 206.816406 208.296875 207.246094 207.960938 207.65625 C 207.621094 208.066406 207.265625 208.457031 206.890625 208.835938 C 206.515625 209.210938 206.121094 209.566406 205.710938 209.902344 C 205.300781 210.242188 204.871094 210.554688 204.429688 210.851562 C 203.988281 211.148438 203.535156 211.417969 203.066406 211.667969 C 202.597656 211.921875 202.117188 212.148438 201.625 212.351562 C 201.132812 212.554688 200.636719 212.734375 200.125 212.886719 C 199.617188 213.039062 199.101562 213.167969 198.582031 213.273438 C 198.058594 213.378906 197.535156 213.453125 197.007812 213.507812 C 196.476562 213.558594 195.949219 213.585938 195.417969 213.585938 C 194.882812 213.585938 194.355469 213.558594 193.824219 213.507812 C 193.296875 213.453125 192.773438 213.378906 192.25 213.273438 C 191.730469 213.167969 191.214844 213.039062 190.707031 212.886719 C 190.199219 212.734375 189.699219 212.554688 189.207031 212.351562 C 188.714844 212.148438 188.234375 211.921875 187.765625 211.667969 C 187.296875 211.417969 186.84375 211.148438 186.402344 210.851562 C 185.960938 210.554688 185.53125 210.242188 185.121094 209.902344 C 184.710938 209.566406 184.316406 209.210938 183.941406 208.835938 C 183.566406 208.457031 183.210938 208.066406 182.875 207.65625 C 182.535156 207.246094 182.21875 206.816406 181.925781 206.375 C 181.628906 205.933594 181.355469 205.480469 181.105469 205.011719 C 180.855469 204.542969 180.628906 204.0625 180.425781 203.574219 C 180.222656 203.082031 180.042969 202.582031 179.890625 202.074219 C 179.734375 201.566406 179.605469 201.050781 179.5 200.53125 C 179.398438 200.007812 179.320312 199.484375 179.269531 198.957031 C 179.214844 198.425781 179.191406 197.898438 179.191406 197.367188 C 179.191406 196.835938 179.214844 196.304688 179.269531 195.777344 C 179.320312 195.246094 179.398438 194.722656 179.5 194.199219 C 179.605469 193.679688 179.734375 193.164062 179.890625 192.65625 C 180.042969 192.148438 180.222656 191.648438 180.425781 191.15625 C 180.628906 190.667969 180.855469 190.1875 181.105469 189.71875 C 181.355469 189.25 181.628906 188.796875 181.925781 188.355469 C 182.21875 187.914062 182.535156 187.484375 182.875 187.074219 C 183.210938 186.664062 183.566406 186.273438 183.941406 185.894531 C 184.316406 185.519531 184.710938 185.164062 185.121094 184.828125 C 185.53125 184.488281 185.960938 184.175781 186.402344 183.878906 C 186.84375 183.582031 187.296875 183.3125 187.765625 183.0625 C 188.234375 182.808594 188.714844 182.582031 189.207031 182.378906 C 189.699219 182.175781 190.199219 182 190.707031 181.84375 C 191.214844 181.691406 191.730469 181.5625 192.25 181.457031 C 192.773438 181.351562 193.296875 181.277344 193.824219 181.222656 C 194.355469 181.171875 194.882812 181.144531 195.417969 181.144531 C 195.949219 181.144531 196.476562 181.171875 197.007812 181.222656 C 197.535156 181.277344 198.058594 181.351562 198.582031 181.457031 C 199.101562 181.5625 199.617188 181.691406 200.125 181.84375 C 200.636719 182 201.132812 182.175781 201.625 182.378906 C 202.117188 182.582031 202.597656 182.808594 203.066406 183.0625 C 203.535156 183.3125 203.988281 183.582031 204.429688 183.878906 C 204.871094 184.175781 205.300781 184.488281 205.710938 184.828125 C 206.121094 185.164062 206.515625 185.519531 206.890625 185.894531 C 207.265625 186.273438 207.621094 186.664062 207.960938 187.074219 C 208.296875 187.484375 208.613281 187.914062 208.90625 188.355469 C 209.203125 188.796875 209.476562 189.25 209.726562 189.71875 C 209.976562 190.1875 210.203125 190.667969 210.40625 191.15625 C 210.609375 191.648438 210.789062 192.148438 210.945312 192.65625 C 211.097656 193.164062 211.226562 193.679688 211.332031 194.199219 C 211.433594 194.722656 211.511719 195.246094 211.5625 195.777344 C 211.617188 196.304688 211.640625 196.835938 211.640625 197.367188 Z M 211.640625 197.367188 " fill-opacity="1" fill-rule="nonzero"/><path fill="#000000" d="M 195.449219 215.070312 C 194.070312 215.070312 192.683594 214.90625 191.308594 214.582031 C 186.710938 213.484375 182.8125 210.664062 180.335938 206.636719 C 177.859375 202.609375 177.097656 197.859375 178.195312 193.261719 C 179.289062 188.664062 182.113281 184.765625 186.140625 182.292969 C 190.171875 179.8125 194.921875 179.054688 199.519531 180.152344 C 204.121094 181.246094 208.019531 184.066406 210.496094 188.09375 C 215.609375 196.40625 213.003906 207.328125 204.6875 212.441406 C 201.863281 214.175781 198.683594 215.070312 195.449219 215.070312 Z M 195.390625 182.617188 C 192.695312 182.617188 190.042969 183.363281 187.691406 184.808594 C 184.335938 186.871094 181.984375 190.117188 181.070312 193.945312 C 180.15625 197.777344 180.789062 201.734375 182.851562 205.089844 C 184.917969 208.441406 188.164062 210.792969 191.996094 211.707031 C 195.828125 212.621094 199.785156 211.984375 203.140625 209.921875 C 210.066406 205.664062 212.238281 196.566406 207.976562 189.640625 C 205.914062 186.289062 202.667969 183.9375 198.835938 183.023438 C 197.691406 182.753906 196.535156 182.617188 195.390625 182.617188 Z M 186.914062 183.550781 L 186.925781 183.550781 Z M 186.914062 183.550781 " fill-opacity="1" fill-rule="nonzero"/><path fill="#ffffff" d="M 162.734375 171.535156 C 162.113281 174.398438 162.113281 176.761719 162.113281 176.761719 C 162.113281 176.761719 163.652344 176.832031 165.726562 178.507812 C 167.796875 180.179688 172.945312 186.363281 171.792969 187.78125 C 170.636719 189.203125 166.472656 185.046875 166.472656 185.046875 C 164.253906 188.546875 165.578125 191.347656 165.578125 191.347656 C 165.578125 191.347656 168.285156 191.496094 166.8125 193.636719 C 165.339844 195.777344 162.785156 194.5625 162.785156 194.5625 C 161.238281 195.496094 159.707031 193.53125 159.707031 193.53125 C 157.996094 194.632812 156.339844 192.644531 156.339844 192.644531 C 152.8125 193.832031 152.238281 182.117188 152.242188 180.3125 C 152.242188 179.460938 151.851562 174.636719 151.59375 168.675781 Z M 162.734375 171.535156 " fill-opacity="1" fill-rule="nonzero"/><path fill="#000000" d="M 164.371094 195.355469 C 163.773438 195.355469 163.21875 195.222656 162.804688 195.058594 C 161.554688 195.648438 160.289062 194.816406 159.605469 194.09375 C 158.242188 194.710938 156.886719 193.855469 156.1875 193.140625 C 155.6875 193.234375 155.199219 193.121094 154.761719 192.808594 C 151.945312 190.78125 151.792969 180.414062 151.792969 180.3125 C 151.796875 179.980469 151.730469 178.957031 151.640625 177.539062 C 151.503906 175.433594 151.300781 172.246094 151.144531 168.691406 C 151.140625 168.550781 151.203125 168.414062 151.3125 168.328125 C 151.421875 168.238281 151.566406 168.203125 151.703125 168.242188 L 162.84375 171.101562 C 163.078125 171.164062 163.222656 171.394531 163.171875 171.628906 C 162.707031 173.753906 162.59375 175.609375 162.566406 176.382812 C 163.203125 176.515625 164.472656 176.921875 166.003906 178.160156 C 167.722656 179.550781 172.140625 184.589844 172.390625 187.015625 C 172.4375 187.449219 172.351562 187.800781 172.136719 188.066406 C 171.910156 188.34375 171.585938 188.503906 171.203125 188.523438 C 169.761719 188.601562 167.515625 186.644531 166.570312 185.757812 C 165.183594 188.265625 165.667969 190.277344 165.894531 190.933594 C 166.359375 191.007812 167.222656 191.230469 167.5625 191.925781 C 167.828125 192.46875 167.699219 193.128906 167.179688 193.890625 C 166.410156 195.007812 165.335938 195.355469 164.371094 195.355469 Z M 162.785156 194.117188 C 162.847656 194.117188 162.914062 194.132812 162.976562 194.160156 C 163.066406 194.203125 165.210938 195.179688 166.445312 193.382812 C 166.628906 193.117188 166.910156 192.625 166.761719 192.320312 C 166.589844 191.964844 165.871094 191.8125 165.550781 191.792969 C 165.390625 191.78125 165.242188 191.683594 165.175781 191.539062 C 165.117188 191.414062 163.769531 188.476562 166.097656 184.808594 C 166.167969 184.695312 166.289062 184.621094 166.421875 184.605469 C 166.558594 184.589844 166.691406 184.636719 166.789062 184.730469 C 167.941406 185.878906 170.117188 187.707031 171.15625 187.632812 C 171.324219 187.621094 171.398438 187.558594 171.445312 187.503906 C 171.503906 187.429688 171.523438 187.289062 171.503906 187.105469 C 171.304688 185.175781 167.265625 180.328125 165.441406 178.855469 C 163.53125 177.308594 162.101562 177.210938 162.089844 177.210938 C 161.851562 177.195312 161.664062 177 161.664062 176.765625 C 161.664062 176.671875 161.671875 174.542969 162.210938 171.859375 L 152.066406 169.257812 C 152.214844 172.554688 152.402344 175.5 152.53125 177.484375 C 152.625 178.972656 152.6875 179.953125 152.6875 180.3125 C 152.679688 182.847656 153.308594 190.664062 155.285156 192.085938 C 155.570312 192.289062 155.859375 192.332031 156.195312 192.222656 C 156.371094 192.164062 156.5625 192.21875 156.679688 192.359375 C 156.738281 192.425781 158.105469 194.03125 159.464844 193.15625 C 159.660156 193.03125 159.917969 193.078125 160.058594 193.257812 C 160.074219 193.273438 161.367188 194.898438 162.554688 194.183594 C 162.625 194.140625 162.703125 194.117188 162.785156 194.117188 Z M 162.785156 194.117188 " fill-opacity="1" fill-rule="nonzero"/><path fill="#ffffff" d="M 162.785156 194.5625 C 162.785156 194.5625 161.671875 190.554688 161.613281 187.597656 " fill-opacity="1" fill-rule="nonzero"/><path fill="#000000" d="M 162.785156 195.011719 C 162.589844 195.011719 162.410156 194.882812 162.355469 194.683594 C 162.308594 194.515625 161.226562 190.585938 161.164062 187.609375 C 161.160156 187.363281 161.355469 187.160156 161.601562 187.152344 C 161.605469 187.152344 161.609375 187.152344 161.613281 187.152344 C 161.855469 187.152344 162.054688 187.347656 162.058594 187.589844 C 162.117188 190.453125 163.203125 194.40625 163.214844 194.445312 C 163.28125 194.683594 163.140625 194.929688 162.90625 194.992188 C 162.863281 195.003906 162.824219 195.011719 162.785156 195.011719 Z M 162.785156 195.011719 " fill-opacity="1" fill-rule="nonzero"/><path fill="#ffffff" d="M 159.707031 193.53125 C 159.707031 193.53125 158.96875 189.421875 158.878906 188.339844 " fill-opacity="1" fill-rule="nonzero"/><path fill="#000000" d="M 159.707031 193.976562 C 159.496094 193.976562 159.308594 193.824219 159.269531 193.609375 C 159.238281 193.441406 158.523438 189.46875 158.433594 188.375 C 158.414062 188.128906 158.597656 187.914062 158.84375 187.894531 C 159.09375 187.886719 159.304688 188.054688 159.324219 188.300781 C 159.410156 189.351562 160.140625 193.410156 160.148438 193.453125 C 160.191406 193.695312 160.03125 193.925781 159.789062 193.972656 C 159.761719 193.976562 159.734375 193.976562 159.707031 193.976562 Z M 159.707031 193.976562 " fill-opacity="1" fill-rule="nonzero"/><path fill="#ffffff" d="M 156.339844 192.644531 C 156.339844 192.644531 155.828125 189.796875 155.785156 189.253906 " fill-opacity="1" fill-rule="nonzero"/><path fill="#000000" d="M 156.335938 193.089844 C 156.125 193.089844 155.9375 192.9375 155.898438 192.722656 C 155.878906 192.605469 155.386719 189.847656 155.339844 189.292969 C 155.320312 189.046875 155.503906 188.828125 155.746094 188.808594 C 156 188.792969 156.210938 188.972656 156.230469 189.21875 C 156.265625 189.644531 156.636719 191.777344 156.777344 192.5625 C 156.820312 192.804688 156.660156 193.039062 156.417969 193.082031 C 156.390625 193.085938 156.363281 193.089844 156.335938 193.089844 Z M 156.335938 193.089844 " fill-opacity="1" fill-rule="nonzero"/><path fill="#f5f6f7" d="M 0.445312 122.261719 C 0.445312 122.261719 18.074219 121.601562 23.363281 109.265625 C 23.363281 109.265625 35.921875 131.511719 52.007812 133.496094 C 52.007812 133.496094 30.414062 140.324219 23.140625 139.441406 C 15.871094 138.5625 0.445312 122.261719 0.445312 122.261719 Z M 0.445312 122.261719 " fill-opacity="1" fill-rule="nonzero"/><path fill="#000000" d="M 24.617188 139.96875 C 24.058594 139.96875 23.546875 139.941406 23.089844 139.886719 C 15.742188 138.996094 0.757812 123.238281 0.121094 122.566406 C 0 122.441406 -0.03125 122.253906 0.03125 122.09375 C 0.0976562 121.929688 0.253906 121.824219 0.429688 121.816406 C 0.601562 121.808594 17.835938 121.019531 22.953125 109.089844 C 23.019531 108.933594 23.167969 108.828125 23.339844 108.820312 C 23.511719 108.804688 23.667969 108.898438 23.75 109.046875 C 23.875 109.265625 36.390625 131.121094 52.0625 133.050781 C 52.273438 133.078125 52.433594 133.246094 52.453125 133.453125 C 52.472656 133.664062 52.34375 133.859375 52.144531 133.921875 C 51.3125 134.183594 32.921875 139.96875 24.617188 139.96875 Z M 1.425781 122.632812 C 4.433594 125.714844 17.003906 138.25 23.195312 139 C 29.074219 139.710938 44.773438 135.210938 50.085938 133.617188 C 42.414062 131.921875 35.714844 125.890625 31.320312 120.933594 C 27.289062 116.386719 24.453125 111.941406 23.414062 110.226562 C 18.472656 120.308594 5.128906 122.277344 1.425781 122.632812 Z M 1.425781 122.632812 " fill-opacity="1" fill-rule="nonzero"/><path fill="#ffffff" d="M 291.914062 86.402344 C 291.914062 86.402344 295.40625 118.460938 322.976562 121.890625 C 350.546875 125.320312 356.777344 114.96875 356.777344 114.96875 C 356.777344 114.96875 322.054688 122.574219 326.820312 91.523438 Z M 291.914062 86.402344 " fill-opacity="1" fill-rule="nonzero"/><path fill="#000000" d="M 333.5625 123.039062 C 330.425781 123.039062 326.894531 122.828125 322.921875 122.332031 C 295.316406 118.898438 291.503906 86.773438 291.46875 86.453125 C 291.457031 86.316406 291.503906 86.175781 291.605469 86.082031 C 291.703125 85.988281 291.847656 85.945312 291.980469 85.960938 L 326.882812 91.082031 C 327.003906 91.097656 327.109375 91.164062 327.179688 91.257812 C 327.25 91.351562 327.277344 91.472656 327.261719 91.589844 C 325.980469 99.941406 327.484375 106.199219 331.734375 110.1875 C 340.109375 118.042969 356.519531 114.570312 356.683594 114.53125 C 356.859375 114.492188 357.039062 114.5625 357.140625 114.707031 C 357.246094 114.851562 357.253906 115.046875 357.160156 115.199219 C 356.9375 115.570312 352.1875 123.039062 333.5625 123.039062 Z M 292.4375 86.929688 C 293.085938 91.246094 298.160156 118.355469 323.03125 121.449219 C 337.101562 123.199219 345.429688 121.273438 349.941406 119.347656 C 353.007812 118.039062 354.769531 116.554688 355.65625 115.632812 C 351.601562 116.316406 338.578125 117.832031 331.128906 110.839844 C 326.722656 106.710938 325.105469 100.339844 326.3125 91.898438 Z M 292.4375 86.929688 " fill-opacity="1" fill-rule="nonzero"/><path fill="#000000" d="M 344.484375 121.964844 C 344.457031 121.964844 344.433594 121.960938 344.40625 121.957031 C 335.433594 120.386719 330.105469 109.941406 329.882812 109.496094 C 329.773438 109.277344 329.859375 109.007812 330.082031 108.898438 C 330.296875 108.789062 330.570312 108.875 330.679688 109.097656 C 330.730469 109.203125 336.035156 119.585938 344.558594 121.078125 C 344.800781 121.121094 344.964844 121.351562 344.921875 121.59375 C 344.886719 121.808594 344.695312 121.964844 344.484375 121.964844 Z M 344.484375 121.964844 " fill-opacity="1" fill-rule="nonzero"/><path fill="#f5f6f7" d="M 351.996094 137.6875 C 351.996094 137.6875 357.828125 144.140625 369.277344 141.226562 C 369.277344 141.226562 368.238281 157.042969 374.480469 163.703125 C 374.480469 163.703125 354.289062 162.246094 351.996094 137.6875 Z M 351.996094 137.6875 " fill-opacity="1" fill-rule="nonzero"/><path fill="#000000" d="M 374.480469 164.148438 C 374.472656 164.148438 374.460938 164.148438 374.449219 164.148438 C 374.242188 164.132812 353.851562 162.378906 351.554688 137.730469 C 351.535156 137.539062 351.640625 137.359375 351.816406 137.28125 C 351.992188 137.203125 352.199219 137.246094 352.328125 137.390625 C 352.386719 137.453125 358.132812 143.601562 369.167969 140.792969 C 369.304688 140.757812 369.453125 140.792969 369.5625 140.882812 C 369.671875 140.976562 369.734375 141.113281 369.722656 141.257812 C 369.710938 141.414062 368.765625 156.957031 374.808594 163.398438 C 374.933594 163.535156 374.964844 163.730469 374.882812 163.894531 C 374.808594 164.050781 374.652344 164.148438 374.480469 164.148438 Z M 352.566406 138.808594 C 353.980469 150.527344 359.6875 156.523438 364.304688 159.507812 C 368.011719 161.902344 371.621094 162.789062 373.386719 163.101562 C 368.492188 156.726562 368.679688 144.671875 368.800781 141.800781 C 363.058594 143.125 358.777344 142.089844 356.164062 140.960938 C 354.507812 140.242188 353.304688 139.410156 352.566406 138.808594 Z M 352.566406 138.808594 " fill-opacity="1" fill-rule="nonzero"/><path fill="#f5f6f7" d="M 156.636719 62.566406 C 156.636719 62.566406 163.96875 52.964844 156.636719 36.039062 C 156.636719 36.039062 177.867188 37.808594 190.503906 24.417969 C 190.503906 24.417969 192.523438 58.269531 156.636719 62.566406 Z M 156.636719 62.566406 " fill-opacity="1" fill-rule="nonzero"/><path fill="#000000" d="M 156.636719 63.011719 C 156.480469 63.011719 156.332031 62.925781 156.25 62.785156 C 156.160156 62.628906 156.175781 62.4375 156.28125 62.292969 C 156.355469 62.199219 163.355469 52.679688 156.226562 36.21875 C 156.164062 36.074219 156.183594 35.90625 156.273438 35.78125 C 156.367188 35.652344 156.519531 35.582031 156.675781 35.597656 C 156.886719 35.617188 177.839844 37.1875 190.175781 24.113281 C 190.296875 23.984375 190.488281 23.9375 190.652344 24 C 190.820312 24.0625 190.9375 24.214844 190.945312 24.394531 C 190.96875 24.738281 192.582031 58.714844 156.691406 63.007812 C 156.671875 63.007812 156.65625 63.011719 156.636719 63.011719 Z M 157.328125 36.523438 C 160.871094 45.054688 160.652344 51.660156 159.824219 55.738281 C 159.199219 58.8125 158.167969 60.921875 157.535156 62 C 171.722656 60.0625 181.5 53.246094 186.605469 41.730469 C 189.699219 34.753906 190.058594 28.023438 190.074219 25.496094 C 178.714844 36.714844 161.105469 36.671875 157.328125 36.523438 Z M 157.328125 36.523438 " fill-opacity="1" fill-rule="nonzero"/><path fill="#ffffff" d="M 220.671875 121.964844 L 216.757812 119.09375 C 216.757812 119.09375 213.367188 118.683594 211.558594 118.558594 C 209.753906 118.433594 208.695312 116.753906 206.328125 115.445312 C 203.960938 114.140625 202.28125 112.644531 202.65625 111.648438 C 203.027344 110.652344 203.71875 111.089844 203.71875 111.089844 C 203.71875 111.089844 200.753906 109.183594 202.980469 107.988281 C 202.980469 107.988281 201.910156 105.246094 204.523438 105.554688 C 204.523438 105.554688 203.976562 103.519531 205.839844 103.878906 C 207.699219 104.242188 216 109.253906 216 109.253906 C 216 109.253906 213.550781 106.171875 214.984375 105.484375 C 216.417969 104.800781 218.78125 108.472656 221.148438 110.09375 C 223.515625 111.710938 225.21875 113.765625 225.21875 113.765625 Z M 220.671875 121.964844 " fill-opacity="1" fill-rule="nonzero"/><path fill="#000000" d="M 220.671875 122.414062 C 220.578125 122.414062 220.484375 122.382812 220.410156 122.328125 L 216.585938 119.519531 C 215.976562 119.445312 213.113281 119.113281 211.527344 119.003906 C 210.296875 118.917969 209.40625 118.214844 208.371094 117.402344 C 207.734375 116.902344 207.015625 116.335938 206.109375 115.835938 C 204.40625 114.894531 201.640625 113.082031 202.234375 111.492188 C 202.34375 111.203125 202.484375 110.980469 202.664062 110.820312 C 202.183594 110.367188 201.675781 109.714844 201.707031 109.019531 C 201.71875 108.675781 201.867188 108.207031 202.449219 107.792969 C 202.308594 107.28125 202.160156 106.347656 202.660156 105.699219 C 202.957031 105.316406 203.40625 105.113281 204.003906 105.085938 C 203.984375 104.6875 204.042969 104.167969 204.386719 103.800781 C 204.726562 103.433594 205.246094 103.3125 205.921875 103.441406 C 207.328125 103.714844 212.042969 106.40625 214.582031 107.894531 C 214.242188 107.230469 213.988281 106.492188 214.125 105.910156 C 214.210938 105.535156 214.441406 105.253906 214.789062 105.085938 C 215.964844 104.519531 217.304688 105.867188 218.847656 107.425781 C 219.683594 108.269531 220.546875 109.140625 221.398438 109.726562 C 223.792969 111.359375 225.492188 113.398438 225.5625 113.480469 C 225.679688 113.625 225.695312 113.824219 225.609375 113.984375 L 221.0625 122.183594 C 221 122.296875 220.890625 122.375 220.769531 122.402344 C 220.738281 122.410156 220.703125 122.414062 220.671875 122.414062 Z M 203.367188 111.441406 C 203.351562 111.441406 203.335938 111.441406 203.320312 111.445312 C 203.238281 111.476562 203.144531 111.613281 203.070312 111.804688 C 202.863281 112.351562 203.992188 113.644531 206.542969 115.054688 C 207.511719 115.589844 208.261719 116.179688 208.921875 116.699219 C 209.878906 117.453125 210.632812 118.046875 211.589844 118.113281 C 213.386719 118.234375 216.777344 118.644531 216.8125 118.648438 C 216.886719 118.65625 216.960938 118.683594 217.019531 118.730469 L 220.527344 121.304688 L 224.675781 113.820312 C 224.167969 113.25 222.726562 111.710938 220.894531 110.460938 C 219.972656 109.828125 219.078125 108.925781 218.214844 108.050781 C 217.074219 106.898438 215.78125 105.59375 215.175781 105.886719 C 215.070312 105.9375 215.019531 106 214.992188 106.105469 C 214.851562 106.726562 215.699219 108.15625 216.347656 108.972656 C 216.480469 109.144531 216.472656 109.382812 216.332031 109.546875 C 216.1875 109.707031 215.949219 109.746094 215.765625 109.632812 C 213.476562 108.25 207.214844 104.601562 205.75 104.316406 C 205.507812 104.269531 205.1875 104.25 205.039062 104.40625 C 204.828125 104.632812 204.890625 105.199219 204.953125 105.4375 C 204.988281 105.582031 204.953125 105.734375 204.859375 105.84375 C 204.761719 105.957031 204.613281 106.007812 204.46875 105.996094 C 203.914062 105.929688 203.542969 106.015625 203.367188 106.246094 C 203.046875 106.660156 203.285156 107.546875 203.394531 107.828125 C 203.476562 108.035156 203.386719 108.273438 203.1875 108.382812 C 202.804688 108.589844 202.605469 108.8125 202.597656 109.054688 C 202.574219 109.628906 203.503906 110.421875 203.957031 110.714844 C 204.164062 110.847656 204.222656 111.125 204.089844 111.328125 C 203.957031 111.535156 203.6875 111.597656 203.476562 111.464844 C 203.476562 111.46875 203.476562 111.46875 203.476562 111.46875 C 203.476562 111.46875 203.425781 111.441406 203.367188 111.441406 Z M 203.367188 111.441406 " fill-opacity="1" fill-rule="nonzero"/><path fill="#ffffff" d="M 204.476562 105.433594 C 204.476562 105.433594 208.8125 108.375 210.25 109.25 " fill-opacity="1" fill-rule="nonzero"/><path fill="#000000" d="M 210.25 109.699219 C 210.167969 109.699219 210.089844 109.675781 210.015625 109.632812 C 208.589844 108.761719 204.40625 105.921875 204.226562 105.804688 C 204.023438 105.664062 203.96875 105.386719 204.109375 105.183594 C 204.246094 104.980469 204.523438 104.929688 204.726562 105.0625 C 204.769531 105.09375 209.070312 108.007812 210.480469 108.871094 C 210.691406 109 210.757812 109.273438 210.628906 109.484375 C 210.546875 109.621094 210.398438 109.699219 210.25 109.699219 Z M 210.25 109.699219 " fill-opacity="1" fill-rule="nonzero"/><path fill="#ffffff" d="M 202.941406 108 C 202.941406 108 207.074219 110.53125 207.824219 111.074219 " fill-opacity="1" fill-rule="nonzero"/><path fill="#000000" d="M 207.824219 111.519531 C 207.734375 111.519531 207.640625 111.492188 207.5625 111.4375 C 206.835938 110.90625 202.75 108.40625 202.710938 108.382812 C 202.5 108.253906 202.433594 107.980469 202.5625 107.769531 C 202.691406 107.558594 202.964844 107.492188 203.175781 107.621094 C 203.34375 107.726562 207.332031 110.164062 208.085938 110.714844 C 208.285156 110.859375 208.332031 111.136719 208.183594 111.339844 C 208.097656 111.457031 207.960938 111.519531 207.824219 111.519531 Z M 207.824219 111.519531 " fill-opacity="1" fill-rule="nonzero"/><path fill="#ffffff" d="M 203.542969 110.933594 L 206.683594 113.082031 " fill-opacity="1" fill-rule="nonzero"/><path fill="#000000" d="M 206.683594 113.527344 C 206.59375 113.527344 206.507812 113.5 206.429688 113.449219 L 203.289062 111.300781 C 203.085938 111.164062 203.035156 110.886719 203.171875 110.683594 C 203.316406 110.476562 203.59375 110.429688 203.792969 110.566406 L 206.933594 112.710938 C 207.136719 112.851562 207.191406 113.128906 207.050781 113.332031 C 206.964844 113.457031 206.824219 113.527344 206.683594 113.527344 Z M 206.683594 113.527344 " fill-opacity="1" fill-rule="nonzero"/></svg>