<svg xmlns="http://www.w3.org/2000/svg" xmlns:xlink="http://www.w3.org/1999/xlink" width="500" zoomAndPan="magnify" viewBox="0 0 375 374.999991" height="500" preserveAspectRatio="xMidYMid meet" version="1.0"><defs><clipPath id="f08ebb3421"><path d="M 37.5 98 L 47 98 L 47 102 L 37.5 102 Z M 37.5 98 " clip-rule="nonzero"/></clipPath><clipPath id="e0df779783"><path d="M 339 210 L 351.75 210 L 351.75 214 L 339 214 Z M 339 210 " clip-rule="nonzero"/></clipPath></defs><path fill="#5c84f7" d="M 279.300781 259.890625 C 264.738281 259.105469 239.527344 258.558594 234.546875 258.097656 C 231.988281 246.355469 227.859375 227.761719 226.226562 219.039062 C 226.253906 219.019531 226.28125 219.003906 226.304688 218.984375 C 236.414062 212.457031 245.476562 194.59375 230.96875 169.417969 C 211.636719 169.582031 193.902344 173.917969 177.5625 183.960938 C 177.972656 187.65625 178.308594 190.789062 178.496094 192.839844 C 132.0625 213.84375 123.113281 220.027344 121.394531 230.433594 C 119.402344 242.585938 129.992188 259.933594 160.964844 311.0625 C 172.742188 313.8125 190.683594 307.078125 194.828125 296.371094 C 190.089844 286.796875 173.648438 253.667969 168.460938 244.417969 C 182.445312 239.3125 198.691406 232.984375 212.09375 226.535156 C 206.613281 231.804688 195.722656 242.902344 191.769531 247.589844 C 197.515625 265.117188 204.226562 285.472656 211.5 288.835938 C 219.992188 292.761719 223.90625 293.910156 279.265625 293.910156 C 285.621094 288.210938 284.195312 268.144531 279.300781 259.890625 Z M 279.300781 259.890625 " fill-opacity="1" fill-rule="nonzero"/><path fill="#5c84f7" d="M 104.390625 45.816406 C 102.859375 48.613281 101.480469 51.335938 100.210938 53.910156 C 90.179688 74.609375 88.203125 88.296875 88.238281 98.515625 C 88.277344 103.550781 88.761719 107.726562 89.023438 111.53125 L 89.023438 111.566406 C 89.734375 111.976562 90.398438 112.386719 91.222656 112.871094 C 92.714844 110.515625 93.945312 110.972656 97.601562 112.761719 C 102.636719 115.222656 103.121094 115.445312 103.492188 118.988281 C 103.527344 119.4375 103.566406 119.847656 103.640625 120.257812 C 107.144531 118.28125 111.136719 116.304688 115.6875 113.386719 C 124.300781 107.832031 134.667969 98.730469 146.492188 79 C 147.984375 76.503906 149.511719 73.898438 151.042969 71.058594 Z M 119.457031 86.65625 L 117.070312 97.992188 L 111.894531 87.625 L 100.40625 88.929688 L 108.652344 80.761719 L 103.878906 70.207031 L 114.171875 75.507812 L 122.710938 67.75 L 120.847656 79.199219 L 130.914062 84.90625 Z M 119.457031 86.65625 " fill-opacity="1" fill-rule="nonzero"/><path fill="#e9e9e9" d="M 297.203125 30.449219 C 297.167969 32.316406 297.167969 34.105469 297.203125 35.671875 C 299.703125 34.925781 300.859375 34.03125 301.046875 33.136719 C 301.386719 31.527344 298.257812 30.242188 297.203125 30.449219 Z M 297.203125 30.449219 " fill-opacity="1" fill-rule="nonzero"/><path fill="#e9e9e9" d="M 284.410156 262.949219 C 283.230469 262.917969 282.050781 262.980469 280.878906 263.132812 C 284.160156 271.265625 284.347656 283.871094 281.664062 290.433594 C 285.980469 296.214844 298.742188 304.941406 308.664062 307.589844 C 307.945312 292 291.273438 269.289062 284.410156 262.949219 Z M 284.410156 262.949219 " fill-opacity="1" fill-rule="nonzero"/><path fill="#e9e9e9" d="M 275.273438 31.269531 C 274.636719 31.253906 272.132812 31.75 272.132812 33.472656 C 272.132812 34.402344 273.289062 35.449219 276.125 36.15625 C 276.429688 34.480469 276.128906 32.746094 275.273438 31.269531 Z M 275.273438 31.269531 " fill-opacity="1" fill-rule="nonzero"/><path fill="#e9e9e9" d="M 232.722656 135.285156 C 233.242188 143.007812 234.0625 152.21875 234.0625 158.597656 C 236.898438 148.636719 240.367188 136.59375 242.378906 129.917969 Z M 232.722656 135.285156 " fill-opacity="1" fill-rule="nonzero"/><path fill="#e9e9e9" d="M 217.914062 60.695312 C 217.914062 58.160156 214.632812 57.304688 212.878906 60.0625 C 212.730469 57.675781 208.851562 57.117188 206.949219 60.363281 C 206.539062 57.789062 202.175781 58.347656 200.648438 61.257812 C 200.199219 58.980469 196.46875 60.25 195.835938 63.644531 C 195.164062 67.222656 194.570312 70.46875 194.160156 73.378906 C 198.976562 71.960938 203.980469 71.257812 209 71.289062 C 207.957031 75.242188 208.414062 80.574219 210.121094 76.957031 C 211.796875 73.339844 216.085938 76.0625 213.066406 80.800781 C 212.578125 81.78125 212.378906 82.878906 212.488281 83.96875 C 212.605469 85.058594 213.023438 86.09375 213.699219 86.953125 C 214.144531 79.160156 220.1875 69.050781 222.054688 64.949219 C 224.589844 59.390625 220.75 57.898438 217.914062 60.695312 Z M 217.914062 60.695312 " fill-opacity="1" fill-rule="nonzero"/><path fill="#e9e9e9" d="M 188.226562 236.878906 C 189.347656 240.199219 190.539062 243.816406 191.761719 247.582031 C 196.164062 242.359375 208.878906 230.015625 213.46875 225.875 C 205.457031 229.792969 196.691406 233.558594 188.226562 236.878906 Z M 188.226562 236.878906 " fill-opacity="1" fill-rule="nonzero"/><path fill="#e9e9e9" d="M 202.1875 94.039062 C 202.15625 95.738281 201.996094 97.433594 201.703125 99.109375 C 204.28125 97.292969 206.289062 94.773438 207.480469 91.847656 C 205.777344 92.714844 204.007812 93.449219 202.1875 94.039062 Z M 202.1875 94.039062 " fill-opacity="1" fill-rule="nonzero"/><path fill="#e9e9e9" d="M 193.078125 299.683594 C 194.851562 301.0625 196.476562 302.625 197.925781 304.34375 C 189.273438 324.855469 170.738281 342.125 163.425781 346.710938 C 164.15625 334.667969 166.644531 322.792969 170.8125 311.46875 C 179.203125 310.347656 188.640625 306.097656 193.078125 299.683594 Z M 193.078125 299.683594 " fill-opacity="1" fill-rule="nonzero"/><path fill="#e9e9e9" d="M 173.347656 148.046875 C 169.507812 152.671875 158.839844 164.121094 148.84375 170.722656 C 157.707031 167.859375 166.367188 164.40625 174.765625 160.386719 C 174.242188 155.984375 173.757812 151.734375 173.347656 148.046875 Z M 173.347656 148.046875 " fill-opacity="1" fill-rule="nonzero"/><path fill="#e9e9e9" d="M 108.714844 124.324219 C 107.894531 123.835938 106.476562 124.433594 105.433594 125.964844 C 106.292969 127.503906 107.679688 128.683594 109.339844 129.28125 C 109.945312 126.375 109.539062 124.808594 108.714844 124.324219 Z M 108.714844 124.324219 " fill-opacity="1" fill-rule="nonzero"/><path fill="#e9e9e9" d="M 99.652344 148.152344 C 97.9375 150.09375 96.628906 150.65625 95.773438 150.390625 C 94.578125 150.023438 94.433594 147.78125 95.140625 145.429688 C 96.667969 146.328125 98.199219 147.222656 99.652344 148.152344 Z M 99.652344 148.152344 " fill-opacity="1" fill-rule="nonzero"/><path fill="#e9e9e9" d="M 71.421875 286.816406 C 77.621094 286.816406 82.644531 281.789062 82.644531 275.589844 C 82.644531 269.390625 77.621094 264.363281 71.421875 264.363281 C 65.222656 264.363281 60.195312 269.390625 60.195312 275.589844 C 60.195312 281.789062 65.222656 286.816406 71.421875 286.816406 Z M 71.421875 286.816406 " fill-opacity="1" fill-rule="nonzero"/><path fill="#e9e9e9" d="M 89.023438 141.886719 C 89.097656 138.496094 90.703125 134.875 93.34375 129.953125 C 92.792969 128.132812 92.652344 126.214844 92.933594 124.335938 C 93.214844 122.453125 93.910156 120.660156 94.964844 119.078125 C 94.296875 120.113281 93.515625 121.074219 92.640625 121.9375 C 93.761719 124.214844 91.933594 127.683594 88.6875 126.042969 L 89.136719 126.75 C 93.089844 128.988281 90.476562 134.058594 86.265625 132.050781 L 87.050781 132.757812 C 90.929688 134.808594 88.503906 139.769531 84.328125 137.941406 C 82.5 137.121094 81.007812 136.527344 79.777344 136.003906 C 76.570312 138.578125 72.578125 139.171875 65.941406 138.242188 L 94.730469 153.832031 C 90.628906 149.160156 88.910156 145.65625 89.023438 141.886719 Z M 89.023438 141.886719 " fill-opacity="1" fill-rule="nonzero"/><path fill="#e9e9e9" d="M 64.976562 137.730469 L 57.964844 146.90625 L 91.867188 165.292969 L 95.746094 154.402344 Z M 64.976562 137.730469 " fill-opacity="1" fill-rule="nonzero"/><path stroke-linecap="round" transform="matrix(1.96289, 0, 0, 1.96289, -1.757808, -8.789065)" fill="none" stroke-linejoin="round" d="M 51.663683 79.954236 C 49.864678 78.776126 47.787066 77.73135 46.230847 76.724385 " stroke="#000000" stroke-width="0.75" stroke-opacity="1" stroke-miterlimit="4"/><path stroke-linecap="round" transform="matrix(1.96289, 0, 0, 1.96289, -1.757808, -8.789065)" fill="none" stroke-linejoin="round" d="M 99.733338 42.467666 L 96.161198 4.999006 L 68.535326 74.274633 " stroke="#000000" stroke-width="0.75" stroke-opacity="1" stroke-miterlimit="4"/><path stroke-linecap="round" transform="matrix(1.96289, 0, 0, 1.96289, -1.757808, -8.789065)" fill="none" stroke-linejoin="round" d="M 101.42488 60.366174 L 100.664681 52.21493 " stroke="#000000" stroke-width="0.75" stroke-opacity="1" stroke-miterlimit="4"/><path stroke-linecap="round" transform="matrix(1.96289, 0, 0, 1.96289, -1.757808, -8.789065)" fill="none" stroke-linejoin="round" d="M 141.381102 136.78409 L 167.355233 71.651747 L 121.73533 79.707469 " stroke="#000000" stroke-width="0.75" stroke-opacity="1" stroke-miterlimit="4"/><path stroke-linecap="round" transform="matrix(1.96289, 0, 0, 1.96289, -1.757808, -8.789065)" fill="none" stroke-linejoin="round" d="M 114.212941 153.351256 L 118.183091 194.99902 L 134.465679 154.169166 " stroke="#000000" stroke-width="0.75" stroke-opacity="1" stroke-miterlimit="4"/><path stroke-linecap="round" transform="matrix(1.96289, 0, 0, 1.96289, -1.757808, -8.789065)" fill="none" stroke-linejoin="round" d="M 62.760201 88.752246 L 46.971145 128.348269 L 62.778112 125.554239 " stroke="#000000" stroke-width="0.75" stroke-opacity="1" stroke-miterlimit="4"/><path stroke-linecap="round" transform="matrix(1.96289, 0, 0, 1.96289, -1.757808, -8.789065)" fill="none" stroke-linejoin="round" d="M 51.968161 31.980103 L 42.087563 26.640799 C 34.187065 41.233835 41.404976 52.290552 45.868658 54.704483 " stroke="#000000" stroke-width="0.75" stroke-opacity="1" stroke-miterlimit="4"/><path stroke-linecap="round" transform="matrix(1.96289, 0, 0, 1.96289, -1.757808, -8.789065)" fill="none" stroke-linejoin="round" d="M 57.91443 49.136323 L 52.063683 49.783089 L 56.242788 45.641795 L 53.810947 40.264681 L 59.054728 42.961198 L 63.406967 38.991049 L 62.455723 44.805974 L 67.586072 47.731348 L 61.753236 48.62488 L 60.575126 54.400005 Z M 57.91443 49.136323 " stroke="#000000" stroke-width="0.75" stroke-opacity="1" stroke-miterlimit="4"/><path stroke-linecap="round" transform="matrix(1.96289, 0, 0, 1.96289, -1.757808, -8.789065)" fill="none" stroke-linejoin="round" d="M 75.594033 44.750253 L 85.408959 50.087567 C 77.500501 64.678613 64.3005 64.678613 59.852738 62.266672 " stroke="#000000" stroke-width="0.75" stroke-opacity="1" stroke-miterlimit="4"/><path stroke-linecap="round" transform="matrix(1.96289, 0, 0, 1.96289, -1.757808, -8.789065)" fill="none" stroke-linejoin="round" d="M 45.134329 166.636829 C 51.325374 166.636829 56.34229 161.617923 56.34229 155.426878 C 56.34229 149.235832 51.325374 144.218917 45.134329 144.218917 C 38.943284 144.218917 33.924378 149.235832 33.924378 155.426878 C 33.924378 161.617923 38.943284 166.636829 45.134329 166.636829 Z M 45.134329 166.636829 " stroke="#000000" stroke-width="0.75" stroke-opacity="1" stroke-miterlimit="4"/><path stroke-linecap="round" transform="matrix(1.96289, 0, 0, 1.96289, -1.757808, -8.789065)" fill="none" stroke-linejoin="round" d="M 167.393044 44.121397 C 169.303492 44.121397 170.851751 42.573138 170.851751 40.662691 C 170.851751 38.752243 169.303492 37.205974 167.393044 37.205974 C 165.482596 37.205974 163.934338 38.752243 163.934338 40.662691 C 163.934338 42.573138 165.482596 44.121397 167.393044 44.121397 Z M 167.393044 44.121397 " stroke="#000000" stroke-width="0.75" stroke-opacity="1" stroke-miterlimit="4"/><path stroke-linecap="round" transform="matrix(1.96289, 0, 0, 1.96289, -1.757808, -8.789065)" fill="none" stroke-linejoin="round" d="M 33.100497 101.709461 C 34.077612 101.709461 34.867662 100.919411 34.867662 99.942297 C 34.867662 98.967172 34.077612 98.175132 33.100497 98.175132 C 32.125373 98.175132 31.333333 98.967172 31.333333 99.942297 C 31.333333 100.919411 32.125373 101.709461 33.100497 101.709461 Z M 33.100497 101.709461 " stroke="#000000" stroke-width="0.75" stroke-opacity="1" stroke-miterlimit="4"/><path stroke-linecap="round" transform="matrix(1.96289, 0, 0, 1.96289, -1.757808, -8.789065)" fill="none" stroke-linejoin="round" d="M 123.464683 14.917415 L 121.697519 21.986072 L 127.056723 21.036818 L 125.289559 28.103486 " stroke="#000000" stroke-width="0.75" stroke-opacity="1" stroke-miterlimit="4"/><path stroke-linecap="round" transform="matrix(1.96289, 0, 0, 1.96289, -1.757808, -8.789065)" fill="none" stroke-linejoin="round" d="M 44.823881 71.727369 C 46.973135 72.748265 48.298509 70.17314 46.286568 69.028862 C 44.78607 68.17513 43.703483 67.639807 42.487563 67.014931 C 42.125374 66.803986 41.695523 66.744284 41.289553 66.841797 C 40.883583 66.941299 40.529354 67.194036 40.304478 67.546274 C 40.079602 67.898513 40 68.324384 40.079602 68.734334 C 40.161195 69.146275 40.39602 69.508464 40.738309 69.74926 C 41.707463 70.360205 42.851742 70.792046 44.823881 71.727369 Z M 44.823881 71.727369 " stroke="#000000" stroke-width="0.75" stroke-opacity="1" stroke-miterlimit="4"/><path stroke-linecap="round" transform="matrix(1.96289, 0, 0, 1.96289, -1.757808, -8.789065)" fill="none" stroke-linejoin="round" d="M 47.389056 62.000005 C 46.628857 61.544284 46.079603 61.235826 45.337314 60.800005 C 44.987065 60.57115 44.561195 60.487568 44.149254 60.56717 C 43.739304 60.646772 43.375125 60.883587 43.134329 61.225876 C 42.895523 61.570155 42.798011 61.994035 42.865672 62.405976 C 42.933334 62.819906 43.15821 63.190055 43.494528 63.440802 C 44.306468 63.984085 45.15821 64.465677 46.039802 64.885578 " stroke="#000000" stroke-width="0.75" stroke-opacity="1" stroke-miterlimit="4"/><path stroke-linecap="round" transform="matrix(1.96289, 0, 0, 1.96289, -1.757808, -8.789065)" fill="none" stroke-linejoin="round" d="M 43.874628 74.748265 C 45.98209 75.679608 47.217911 73.156225 45.241792 72.107469 C 43.777115 71.331349 42.692538 70.841797 41.518409 70.284583 C 41.16418 70.085578 40.746269 70.031847 40.352239 70.133339 C 39.958209 70.236822 39.619901 70.487568 39.408956 70.835827 C 39.19602 71.182096 39.128359 71.598016 39.215921 71.996026 C 39.305473 72.392046 39.544279 72.738315 39.884578 72.96319 C 40.833831 73.512444 41.936319 73.894534 43.874628 74.748265 Z M 43.874628 74.748265 " stroke="#000000" stroke-width="0.75" stroke-opacity="1" stroke-miterlimit="4"/><path stroke-linecap="round" transform="matrix(1.96289, 0, 0, 1.96289, -1.757808, -8.789065)" fill="none" stroke-linejoin="round" d="M 46.000001 64.96319 C 45.221891 64.545279 44.533334 64.230851 43.777115 63.824881 C 43.414926 63.598015 42.977115 63.524384 42.561195 63.613936 C 42.143284 63.705478 41.777115 63.954234 41.540299 64.308463 C 41.303483 64.664682 41.213931 65.098513 41.291543 65.518414 C 41.369155 65.938314 41.605971 66.312444 41.952239 66.55921 C 42.939304 67.207966 44.065672 67.673638 46.053732 68.668663 C 47.709454 69.498513 48.636817 67.737319 48.067663 66.57911 " stroke="#000000" stroke-width="0.75" stroke-opacity="1" stroke-miterlimit="4"/><path stroke-linecap="round" transform="matrix(1.96289, 0, 0, 1.96289, -1.757808, -8.789065)" fill="none" stroke-linejoin="round" d="M 54.589056 68.650752 C 55.1403 67.870653 55.858708 67.574135 56.280599 67.814931 C 57.034828 68.244782 57.096519 70.435827 54.760201 75.052743 C 52.270648 79.974136 50.523384 81.365181 49.669653 81.094534 C 49.078608 80.907469 48.985076 79.74528 49.345275 78.567171 " stroke="#000000" stroke-width="0.75" stroke-opacity="1" stroke-miterlimit="4"/><path stroke-linecap="round" transform="matrix(1.96289, 0, 0, 1.96289, -1.757808, -8.789065)" fill="none" stroke-linejoin="round" d="M 56.599007 70.340305 C 55.307464 69.808961 54.000001 68.859707 53.635822 65.096523 C 53.458708 63.297518 53.200001 63.176125 50.636817 61.924384 C 47.635822 60.459707 47.804976 60.724383 45.544279 66.047767 C 44.987065 67.35523 47.026867 68.706474 49.381096 64.907468 C 47.538309 67.814931 47.882588 70.706474 49.57214 72.54528 " stroke="#000000" stroke-width="0.75" stroke-opacity="1" stroke-miterlimit="4"/><path stroke-linecap="round" transform="matrix(1.96289, 0, 0, 1.96289, -1.757808, -8.789065)" fill="none" stroke-linejoin="round" d="M 148.599013 12.73234 C 148.411948 15.10846 145.530356 15.184082 145.540306 12.885574 C 145.548267 11.174131 145.621898 9.958211 145.69354 8.591046 C 145.812943 6.310449 148.853739 6.33035 148.923391 8.210947 C 148.967172 9.351246 148.774137 10.547266 148.599013 12.73234 Z M 148.599013 12.73234 " stroke="#000000" stroke-width="0.75" stroke-opacity="1" stroke-miterlimit="4"/><path stroke-linecap="round" transform="matrix(1.96289, 0, 0, 1.96289, -1.757808, -8.789065)" fill="none" stroke-linejoin="round" d="M 138.931351 10.987067 C 138.91145 10.151246 138.925381 9.5403 138.91145 8.74229 C 138.877619 6.577116 141.962197 6.479604 142.10349 8.286569 C 142.169162 9.209952 142.169162 10.137315 142.10349 11.060698 " stroke="#000000" stroke-width="0.75" stroke-opacity="1" stroke-miterlimit="4"/><path stroke-linecap="round" transform="matrix(1.96289, 0, 0, 1.96289, -1.757808, -8.789065)" fill="none" stroke-linejoin="round" d="M 151.870655 13.283584 C 151.631849 15.603982 148.839809 15.601992 148.925381 13.359206 C 148.989063 11.707465 149.092545 10.529355 149.190058 9.217912 C 149.355232 7.018907 152.306476 7.108459 152.306476 8.917415 C 152.306476 10.015922 152.087571 11.176121 151.870655 13.283584 Z M 151.870655 13.283584 " stroke="#000000" stroke-width="0.75" stroke-opacity="1" stroke-miterlimit="4"/><path stroke-linecap="round" transform="matrix(1.96289, 0, 0, 1.96289, -1.757808, -8.789065)" fill="none" stroke-linejoin="round" d="M 142.179112 11.042788 C 142.199013 10.149256 142.274635 9.389056 142.294535 8.533335 C 142.348266 6.216917 145.442794 6.177116 145.562197 8.077614 C 145.635829 9.237813 145.466675 10.453733 145.353242 12.678609 C 145.359212 13.008957 145.261699 13.335325 145.068665 13.605972 C 144.87563 13.876619 144.602993 14.077614 144.286575 14.181097 C 143.970157 14.282589 143.629858 14.280599 143.315431 14.175126 C 143.001003 14.067664 142.730356 13.862689 142.541301 13.590052 " stroke="#000000" stroke-width="0.75" stroke-opacity="1" stroke-miterlimit="4"/><path stroke-linecap="round" transform="matrix(1.96289, 0, 0, 1.96289, -1.757808, -8.789065)" fill="none" stroke-linejoin="round" d="M 141.116425 20.409953 C 140.165182 20.561197 139.558216 21.016918 139.558216 21.49254 C 139.558216 22.346271 141.401003 23.369157 146.549262 23.277615 C 152.021899 23.178112 154.095531 22.214928 154.282596 21.339306 C 154.417919 20.71244 153.617919 20.139306 152.421899 19.952241 " stroke="#000000" stroke-width="0.75" stroke-opacity="1" stroke-miterlimit="4"/><path stroke-linecap="round" transform="matrix(1.96289, 0, 0, 1.96289, -1.757808, -8.789065)" fill="none" stroke-linejoin="round" d="M 141.590057 22.879605 C 141.761202 21.49254 141.584087 19.924381 138.531351 17.958211 C 137.066674 17.012938 137.086574 16.72239 137.277619 13.892539 C 137.504485 10.547266 137.639808 10.829853 143.357222 11.11841 C 144.764187 11.188062 144.915431 13.607962 140.469659 14.063684 C 143.890555 13.683584 146.226874 15.241793 146.969162 17.540301 " stroke="#000000" stroke-width="0.75" stroke-opacity="1" stroke-miterlimit="4"/><path stroke-linecap="round" transform="matrix(1.96289, 0, 0, 1.96289, -1.757808, -8.789065)" fill="none" stroke-linejoin="round" d="M 152.326377 22.632838 C 152.212944 18.71841 152.626874 12.409952 152.326377 9.369156 " stroke="#000000" stroke-width="0.75" stroke-opacity="1" stroke-miterlimit="4"/><path stroke-linecap="round" transform="matrix(1.96289, 0, 0, 1.96289, -1.757808, -8.789065)" fill="none" stroke-linejoin="round" d="M 139.558216 21.51045 C 139.596027 26.260699 139.558216 38.421894 139.235828 44.101497 C 137.735331 45.090552 125.898514 51.00299 120.823887 53.355229 C 116.230852 55.486572 112.348264 55.044781 110.539309 52.149258 C 108.039806 48.149258 112.308463 41.42289 114.039807 37.566173 C 115.311449 34.734332 113.37314 33.974133 111.930354 35.399009 C 111.930354 34.127367 110.258712 33.671645 109.365179 35.07662 C 109.269657 33.8607 107.293538 33.576123 106.344284 35.229854 C 106.115428 33.936322 103.912443 34.222889 103.132343 35.685576 C 102.905478 34.545277 101.01891 35.184083 100.682592 36.901496 C 97.665676 52.262691 99.482592 54.800005 106.628861 51.265676 C 106.021896 52.754234 104.99901 54.037816 103.683587 54.965179 " stroke="#000000" stroke-width="0.75" stroke-opacity="1" stroke-miterlimit="4"/><path stroke-linecap="round" transform="matrix(1.96289, 0, 0, 1.96289, -1.757808, -8.789065)" fill="none" stroke-linejoin="round" d="M 154.282596 21.359207 C 154.282596 48.129358 154.573143 49.444781 153.162197 52.081597 C 151.289561 55.582095 147.594038 57.763189 119.456722 73.399011 C 119.7413 77.33334 120.13931 82.025877 120.13931 85.275629 " stroke="#000000" stroke-width="0.75" stroke-opacity="1" stroke-miterlimit="4"/><path stroke-linecap="round" transform="matrix(1.96289, 0, 0, 1.96289, -1.757808, -8.789065)" fill="none" stroke-linejoin="round" d="M 56.280599 67.812941 C 62.551246 71.576126 71.062689 75.452743 72.127366 75.946275 C 76.877615 74.007966 92.587069 66.917419 99.02687 62.684583 C 102.788065 60.210951 103.872642 55.102493 103.890552 52.366174 " stroke="#000000" stroke-width="0.75" stroke-opacity="1" stroke-miterlimit="4"/><path stroke-linecap="round" transform="matrix(1.96289, 0, 0, 1.96289, -1.757808, -8.789065)" fill="none" stroke-linejoin="round" d="M 99.03085 62.700503 C 101.520403 65.321399 111.152244 63.500503 113.641797 54.473637 " stroke="#000000" stroke-width="0.75" stroke-opacity="1" stroke-miterlimit="4"/><path stroke-linecap="round" transform="matrix(1.96289, 0, 0, 1.96289, -1.757808, -8.789065)" fill="none" stroke-linejoin="round" d="M 99.81095 41.860701 C 102.266672 41.142293 104.813935 40.784084 107.371149 40.796024 C 106.839806 42.829855 107.072642 45.564183 107.942294 43.683586 C 108.811946 41.802989 110.99105 43.253735 109.442791 45.641795 C 109.190055 46.139308 109.086572 46.700502 109.144284 47.255726 C 109.200005 47.81095 109.416921 48.338313 109.765179 48.776124 " stroke="#000000" stroke-width="0.75" stroke-opacity="1" stroke-miterlimit="4"/><path stroke-linecap="round" transform="matrix(1.96289, 0, 0, 1.96289, -1.757808, -8.789065)" fill="none" stroke-linejoin="round" d="M 83.812939 130.039811 C 92.400004 126.961204 106.463687 121.761204 115.789061 116.302497 C 121.072643 113.209959 126.163191 103.952247 118.581101 90.786077 C 120.007966 85.785082 122.93334 75.470653 124.382096 70.664683 " stroke="#000000" stroke-width="0.75" stroke-opacity="1" stroke-miterlimit="4"/><path stroke-linecap="round" transform="matrix(1.96289, 0, 0, 1.96289, -1.757808, -8.789065)" fill="none" stroke-linejoin="round" d="M 101.158214 98.517421 C 69.315425 112.692546 63.735326 115.922397 62.740301 121.868666 C 61.892539 126.943294 64.051743 132.033841 82.899506 162.969167 C 88.143287 164.394042 97.986074 161.221903 100.151248 155.468669 C 94.489557 143.96817 88.599009 132.36817 86.718412 129.001005 " stroke="#000000" stroke-width="0.75" stroke-opacity="1" stroke-miterlimit="4"/><path stroke-linecap="round" transform="matrix(1.96289, 0, 0, 1.96289, -1.757808, -8.789065)" fill="none" stroke-linejoin="round" d="M 96.807965 125.156229 C 100.075627 134.694538 104.161199 149.53235 108.664682 151.623892 C 113.166175 153.713445 114.915429 154.131355 143.164187 154.206977 C 145.994038 152.041803 146.08956 141.534339 143.164187 136.859712 C 135.663689 136.441802 123.080603 136.195036 120.401996 135.948269 C 119.090553 129.868667 117.002991 120.348268 116.202991 116.01792 " stroke="#000000" stroke-width="0.75" stroke-opacity="1" stroke-miterlimit="4"/><path stroke-linecap="round" transform="matrix(1.96289, 0, 0, 1.96289, -1.757808, -8.789065)" fill="none" stroke-linejoin="round" d="M 99.259706 157.152251 C 100.60498 158.266679 101.82687 159.5224 102.907468 160.895535 C 100.62687 167.259714 91.607964 179.305486 84.191048 183.884591 C 83.755227 178.963198 85.578113 169.008968 87.896521 163.156231 " stroke="#000000" stroke-width="0.75" stroke-opacity="1" stroke-miterlimit="4"/><path stroke-linecap="round" transform="matrix(1.96289, 0, 0, 1.96289, -1.757808, -8.789065)" fill="none" stroke-linejoin="round" d="M 137.277619 136.612946 C 139.785082 139.424886 141.020903 149.020907 136.89752 154.187077 " stroke="#000000" stroke-width="0.75" stroke-opacity="1" stroke-miterlimit="4"/><path stroke-linecap="round" transform="matrix(1.96289, 0, 0, 1.96289, -1.757808, -8.789065)" fill="none" stroke-linejoin="round" d="M 79.4806 157.341306 C 85.255725 158.614938 94.380104 156.296529 97.301497 149.703494 " stroke="#000000" stroke-width="0.75" stroke-opacity="1" stroke-miterlimit="4"/><path stroke-linecap="round" transform="matrix(1.96289, 0, 0, 1.96289, -1.757808, -8.789065)" fill="none" stroke-linejoin="round" d="M 84.115426 181.110462 C 87.802989 178.792053 97.301497 169.976132 101.709458 159.51046 " stroke="#000000" stroke-width="0.75" stroke-opacity="1" stroke-miterlimit="4"/><path stroke-linecap="round" transform="matrix(1.96289, 0, 0, 1.96289, -1.757808, -8.789065)" fill="none" stroke-linejoin="round" d="M 143.984087 138.513444 C 145.126376 138.38011 146.282595 138.38011 147.424884 138.513444 C 150.634834 141.112449 159.603989 151.870659 159.717422 161.5025 C 154.549262 160.802002 146.853739 155.707475 144.384087 152.421902 " stroke="#000000" stroke-width="0.75" stroke-opacity="1" stroke-miterlimit="4"/><path stroke-linecap="round" transform="matrix(1.96289, 0, 0, 1.96289, -1.757808, -8.789065)" fill="none" stroke-linejoin="round" d="M 145.789063 138.437822 C 149.28956 141.667673 157.759213 153.237823 158.139312 161.180112 " stroke="#000000" stroke-width="0.75" stroke-opacity="1" stroke-miterlimit="4"/><path stroke-linecap="round" transform="matrix(1.96289, 0, 0, 1.96289, -1.757808, -8.789065)" fill="none" stroke-linejoin="round" d="M 88.809954 75.946275 C 89.303487 81.854733 91.408959 97.872645 91.808959 102.698516 " stroke="#000000" stroke-width="0.75" stroke-opacity="1" stroke-miterlimit="4"/><path stroke-linecap="round" transform="matrix(1.96289, 0, 0, 1.96289, -1.757808, -8.789065)" fill="none" stroke-linejoin="round" d="M 118.581101 90.784087 C 107.828861 90.861699 98.973139 93.520406 91.355228 98.195033 " stroke="#000000" stroke-width="0.75" stroke-opacity="1" stroke-miterlimit="4"/><path stroke-linecap="round" transform="matrix(1.96289, 0, 0, 1.96289, -1.757808, -8.789065)" fill="none" stroke-linejoin="round" d="M 90.955228 155.840808 C 86.813934 147.804987 78.226869 129.468667 76.382093 125.631851 C 84.971148 121.299512 106.801995 112.216924 110.56319 109.880606 C 114.326374 107.542297 115.808961 104.541302 111.818911 91.203988 " stroke="#000000" stroke-width="0.75" stroke-opacity="1" stroke-miterlimit="4"/><path stroke-linecap="round" transform="matrix(1.96289, 0, 0, 1.96289, -1.757808, -8.789065)" fill="none" stroke-linejoin="round" d="M 49.687563 81.100504 C 67.681594 91.982097 70.569157 93.162197 75.07264 91.924386 C 80.169158 90.409958 85.138312 88.49155 89.930352 86.187072 " stroke="#000000" stroke-width="0.75" stroke-opacity="1" stroke-miterlimit="4"/><path stroke-linecap="round" transform="matrix(1.96289, 0, 0, 1.96289, -1.757808, -8.789065)" fill="none" stroke-linejoin="round" d="M 76.724381 91.450754 C 81.799008 88.087569 87.251745 82.234833 89.207964 79.900504 " stroke="#000000" stroke-width="0.75" stroke-opacity="1" stroke-miterlimit="4"/><path stroke-linecap="round" transform="matrix(1.96289, 0, 0, 1.96289, -1.757808, -8.789065)" fill="none" stroke-linejoin="round" d="M 98.61294 130.608965 C 100.855726 127.948269 107.333339 121.679612 109.671647 119.550258 " stroke="#000000" stroke-width="0.75" stroke-opacity="1" stroke-miterlimit="4"/><path stroke-linecap="round" transform="matrix(1.96289, 0, 0, 1.96289, -1.757808, -8.789065)" fill="none" stroke-linejoin="round" d="M 26.336318 47.142293 L 26.995024 50.867666 " stroke="#000000" stroke-width="0.75" stroke-opacity="1" stroke-miterlimit="4"/><path stroke-linecap="round" transform="matrix(1.96289, 0, 0, 1.96289, -1.757808, -8.789065)" fill="none" stroke-linejoin="round" d="M 34.867662 53.108463 L 31.142288 53.767169 " stroke="#000000" stroke-width="0.75" stroke-opacity="1" stroke-miterlimit="4"/><path stroke-linecap="round" transform="matrix(1.96289, 0, 0, 1.96289, -1.757808, -8.789065)" fill="none" stroke-linejoin="round" d="M 28.899502 61.639806 L 28.240796 57.914433 " stroke="#000000" stroke-width="0.75" stroke-opacity="1" stroke-miterlimit="4"/><g clip-path="url(#f08ebb3421)"><path stroke-linecap="round" transform="matrix(1.96289, 0, 0, 1.96289, -1.757808, -8.789065)" fill="none" stroke-linejoin="round" d="M 20.370148 55.671647 L 24.097512 55.01294 " stroke="#000000" stroke-width="0.75" stroke-opacity="1" stroke-miterlimit="4"/></g><path stroke-linecap="round" transform="matrix(1.96289, 0, 0, 1.96289, -1.757808, -8.789065)" fill="none" stroke-linejoin="round" d="M 31.142288 53.767169 C 30.678607 53.850751 30.204975 53.838811 29.747263 53.737318 C 29.287562 53.635826 28.853731 53.444781 28.469651 53.176124 C 28.085572 52.907467 27.757214 52.563189 27.504477 52.167169 C 27.251741 51.771149 27.080597 51.329358 27.000995 50.867666 C 27.082587 51.329358 27.072636 51.80498 26.971144 52.262691 C 26.871641 52.722393 26.680597 53.156224 26.40995 53.542293 C 26.141293 53.926373 25.799004 54.254731 25.400994 54.507468 C 25.004975 54.760204 24.563183 54.931348 24.099502 55.01294 C 24.563183 54.931348 25.036815 54.939308 25.496517 55.040801 C 25.954228 55.142294 26.388059 55.333338 26.774129 55.601995 C 27.158209 55.872642 27.486567 56.21493 27.739303 56.61095 C 27.992039 57.00697 28.163184 57.450751 28.244776 57.912443 C 28.161194 57.450751 28.171144 56.97712 28.272636 56.517418 C 28.374129 56.059707 28.565174 55.623886 28.833831 55.239806 C 29.102487 54.853736 29.444776 54.525378 29.840796 54.274632 C 30.236816 54.021895 30.678607 53.848761 31.142288 53.767169 Z M 31.142288 53.767169 " stroke="#000000" stroke-width="0.75" stroke-opacity="1" stroke-miterlimit="4"/><path stroke-linecap="round" transform="matrix(1.96289, 0, 0, 1.96289, -1.757808, -8.789065)" fill="none" stroke-linejoin="round" d="M 167.373144 103.534337 L 168.318417 108.875631 " stroke="#000000" stroke-width="0.75" stroke-opacity="1" stroke-miterlimit="4"/><g clip-path="url(#e0df779783)"><path stroke-linecap="round" transform="matrix(1.96289, 0, 0, 1.96289, -1.757808, -8.789065)" fill="none" stroke-linejoin="round" d="M 179.60598 112.091551 L 174.262696 113.034835 " stroke="#000000" stroke-width="0.75" stroke-opacity="1" stroke-miterlimit="4"/></g><path stroke-linecap="round" transform="matrix(1.96289, 0, 0, 1.96289, -1.757808, -8.789065)" fill="none" stroke-linejoin="round" d="M 171.048766 124.322398 L 170.103492 118.979114 " stroke="#000000" stroke-width="0.75" stroke-opacity="1" stroke-miterlimit="4"/><path stroke-linecap="round" transform="matrix(1.96289, 0, 0, 1.96289, -1.757808, -8.789065)" fill="none" stroke-linejoin="round" d="M 158.817919 115.765183 L 164.161203 114.8219 " stroke="#000000" stroke-width="0.75" stroke-opacity="1" stroke-miterlimit="4"/><path stroke-linecap="round" transform="matrix(1.96289, 0, 0, 1.96289, -1.757808, -8.789065)" fill="none" stroke-linejoin="round" d="M 174.262696 113.034835 C 173.59802 113.152248 172.919413 113.138317 172.260706 112.993044 C 171.60399 112.84976 170.979114 112.575133 170.42787 112.189064 C 169.874636 111.802994 169.404985 111.311452 169.042796 110.742297 C 168.680607 110.173143 168.43384 109.540307 168.318417 108.875631 C 168.43583 109.538317 168.42389 110.218914 168.278616 110.877621 C 168.133343 111.536327 167.860706 112.159213 167.474636 112.710457 C 167.088567 113.263691 166.595034 113.733342 166.02787 114.095531 C 165.460706 114.457721 164.82588 114.704487 164.161203 114.8219 C 164.82588 114.702497 165.506477 114.716427 166.163193 114.861701 C 166.8219 115.006974 167.444786 115.281601 167.996029 115.667671 C 168.547273 116.053741 169.018915 116.545283 169.379114 117.112447 C 169.741303 117.681601 169.988069 118.316427 170.103492 118.979114 C 169.986079 118.316427 170.00001 117.63583 170.145283 116.977124 C 170.290557 116.320407 170.563194 115.697522 170.949263 115.144288 C 171.335333 114.591054 171.828865 114.121402 172.39603 113.759213 C 172.965184 113.397024 173.59802 113.150258 174.262696 113.034835 Z M 174.262696 113.034835 " stroke="#000000" stroke-width="0.75" stroke-opacity="1" stroke-miterlimit="4"/><path stroke-linecap="butt" transform="matrix(1.96289, 0, 0, 1.96289, -1.757808, -8.789065)" fill="none" stroke-linejoin="round" d="M 54.077613 27.818909 C 53.297514 29.243784 52.595026 30.630849 51.94826 31.942292 C 46.837812 42.487566 45.830847 49.460701 45.848757 54.666672 C 45.868658 57.231846 46.115424 59.359209 46.248757 61.297518 L 46.248757 61.315428 C 46.610946 61.524384 46.949255 61.733339 47.369155 61.980105 C 48.129354 60.780105 48.75622 61.012941 50.618907 61.924384 C 53.184081 63.178115 53.430847 63.291548 53.619902 65.096523 C 53.637812 65.325379 53.657713 65.534334 53.695524 65.743289 C 55.480599 64.736324 57.51443 63.729359 59.832838 62.242792 C 64.220898 59.412941 69.50249 54.776124 75.526371 44.724382 C 76.28657 43.45274 77.06468 42.125377 77.844779 40.678611 Z M 61.753236 48.62488 L 60.537315 54.400005 L 57.900499 49.118412 L 52.047763 49.783089 L 56.248758 45.621895 L 53.816917 40.24478 L 59.060698 42.945278 L 63.410947 38.993039 L 62.461694 44.825875 L 67.590052 47.733338 Z M 61.753236 48.62488 " stroke="#000000" stroke-width="0.75" stroke-opacity="1" stroke-miterlimit="4"/><path stroke-linecap="butt" transform="matrix(1.96289, 0, 0, 1.96289, -1.757808, -8.789065)" fill="none" stroke-linejoin="round" d="M 46.248757 76.762196 C 46.286568 75.034832 47.104479 73.190056 48.449752 70.682593 C 48.169155 69.75523 48.097513 68.778115 48.240797 67.820901 C 48.384081 66.861697 48.73831 65.948264 49.275623 65.142294 C 48.935324 65.669657 48.537314 66.15921 48.091543 66.599011 C 48.662688 67.75921 47.731344 69.526374 46.077613 68.690553 L 46.306469 69.050752 C 48.320399 70.191051 46.989056 72.774136 44.843782 71.75125 L 45.243782 72.111449 C 47.219901 73.156225 45.98408 75.683588 43.856717 74.752245 C 42.925374 74.334335 42.165175 74.031847 41.538309 73.76518 C 39.904478 75.076623 37.870647 75.379111 34.489552 74.905479 L 49.15622 82.847768 C 47.066668 80.467668 46.191046 78.682594 46.248757 76.762196 Z M 46.248757 76.762196 " stroke="#000000" stroke-width="0.75" stroke-opacity="1" stroke-miterlimit="4"/><path stroke-linecap="butt" transform="matrix(1.96289, 0, 0, 1.96289, -1.757808, -8.789065)" fill="none" stroke-linejoin="round" d="M 34.01393 74.644782 L 30.441791 79.31941 L 47.711444 88.686574 L 49.687563 83.138315 Z M 34.01393 74.644782 " stroke="#000000" stroke-width="0.75" stroke-opacity="1" stroke-miterlimit="4"/></svg>