<svg xmlns="http://www.w3.org/2000/svg" xmlns:xlink="http://www.w3.org/1999/xlink" width="500" zoomAndPan="magnify" viewBox="0 0 375 374.999991" height="500" preserveAspectRatio="xMidYMid meet" version="1.0"><defs><clipPath id="9abd7450bd"><path d="M 71.25 10 L 155 10 L 155 147 L 71.25 147 Z M 71.25 10 " clip-rule="nonzero"/></clipPath><clipPath id="e141226100"><path d="M 71.25 10 L 156 10 L 156 147 L 71.25 147 Z M 71.25 10 " clip-rule="nonzero"/></clipPath><clipPath id="5376f80cfe"><path d="M 261 98 L 303.75 98 L 303.75 126 L 261 126 Z M 261 98 " clip-rule="nonzero"/></clipPath><clipPath id="3230f1eb4c"><path d="M 261 98 L 303.75 98 L 303.75 127 L 261 127 Z M 261 98 " clip-rule="nonzero"/></clipPath></defs><path fill="#ffffff" d="M 169.707031 374.597656 L 131.125 374.597656 C 131.125 374.597656 132.390625 369.726562 140.140625 368.105469 C 143.363281 367.429688 149.335938 367.566406 151.5 361.433594 C 153.132812 356.808594 150.371094 347.734375 150.371094 347.734375 L 165.152344 347.734375 Z M 169.707031 374.597656 " fill-opacity="1" fill-rule="nonzero"/><path fill="#000000" d="M 169.707031 374.960938 L 131.125 374.960938 C 131.011719 374.960938 130.90625 374.910156 130.835938 374.820312 C 130.765625 374.730469 130.742188 374.613281 130.769531 374.503906 C 130.824219 374.292969 132.179688 369.394531 140.066406 367.746094 C 140.5625 367.640625 141.121094 367.558594 141.722656 367.464844 C 144.957031 366.972656 149.390625 366.300781 151.152344 361.3125 C 152.726562 356.855469 150.046875 347.929688 150.015625 347.839844 C 149.984375 347.726562 150.003906 347.605469 150.074219 347.511719 C 150.144531 347.417969 150.253906 347.363281 150.367188 347.363281 L 165.152344 347.363281 C 165.332031 347.363281 165.484375 347.492188 165.515625 347.671875 L 170.070312 374.535156 C 170.089844 374.640625 170.058594 374.75 169.988281 374.832031 C 169.917969 374.914062 169.816406 374.960938 169.707031 374.960938 Z M 131.660156 374.226562 L 169.273438 374.226562 L 164.84375 348.101562 L 150.859375 348.101562 C 151.40625 350.054688 153.300781 357.429688 151.847656 361.554688 C 149.9375 366.960938 145.253906 367.671875 141.832031 368.191406 C 141.246094 368.28125 140.699219 368.363281 140.214844 368.464844 C 134.199219 369.722656 132.203125 373.011719 131.660156 374.226562 Z M 131.660156 374.226562 " fill-opacity="1" fill-rule="nonzero"/><path fill="#000000" d="M 169.210938 372.507812 L 133.066406 372.507812 C 132.867188 372.507812 132.699219 372.339844 132.699219 372.140625 C 132.699219 371.9375 132.863281 371.773438 133.066406 371.773438 L 169.210938 371.773438 C 169.414062 371.773438 169.578125 371.9375 169.578125 372.140625 C 169.578125 372.339844 169.414062 372.507812 169.210938 372.507812 Z M 169.210938 372.507812 " fill-opacity="1" fill-rule="nonzero"/><path fill="#ffffff" d="M 230.175781 374.597656 L 191.59375 374.597656 C 191.59375 374.597656 192.855469 369.726562 200.609375 368.105469 C 203.832031 367.429688 209.804688 367.566406 211.96875 361.433594 C 213.597656 356.808594 210.835938 347.734375 210.835938 347.734375 L 225.621094 347.734375 Z M 230.175781 374.597656 " fill-opacity="1" fill-rule="nonzero"/><path fill="#000000" d="M 230.175781 374.960938 L 191.59375 374.960938 C 191.480469 374.960938 191.371094 374.910156 191.300781 374.820312 C 191.234375 374.730469 191.210938 374.613281 191.238281 374.503906 C 191.292969 374.292969 192.648438 369.394531 200.53125 367.746094 C 201.027344 367.640625 201.589844 367.558594 202.1875 367.464844 C 205.425781 366.972656 209.859375 366.300781 211.621094 361.3125 C 213.195312 356.855469 210.511719 347.929688 210.484375 347.839844 C 210.449219 347.726562 210.472656 347.605469 210.542969 347.511719 C 210.609375 347.417969 210.71875 347.363281 210.835938 347.363281 L 225.621094 347.363281 C 225.800781 347.363281 225.953125 347.492188 225.984375 347.671875 L 230.539062 374.535156 C 230.558594 374.640625 230.527344 374.75 230.457031 374.832031 C 230.386719 374.914062 230.285156 374.960938 230.175781 374.960938 Z M 192.121094 374.226562 L 229.742188 374.226562 L 225.308594 348.101562 L 211.324219 348.101562 C 211.875 350.054688 213.769531 357.429688 212.3125 361.554688 C 210.40625 366.960938 205.722656 367.671875 202.300781 368.191406 C 201.714844 368.28125 201.167969 368.363281 200.683594 368.464844 C 194.636719 369.730469 192.660156 373.015625 192.121094 374.226562 Z M 192.121094 374.226562 " fill-opacity="1" fill-rule="nonzero"/><path fill="#000000" d="M 229.675781 372.507812 L 193.535156 372.507812 C 193.332031 372.507812 193.167969 372.339844 193.167969 372.140625 C 193.167969 371.9375 193.332031 371.773438 193.535156 371.773438 L 229.675781 371.773438 C 229.878906 371.773438 230.042969 371.9375 230.042969 372.140625 C 230.042969 372.339844 229.878906 372.507812 229.675781 372.507812 Z M 229.675781 372.507812 " fill-opacity="1" fill-rule="nonzero"/><path fill="#000000" d="M 179.953125 255.113281 L 174.625 358.402344 L 145.339844 358.410156 L 145.195312 243.929688 L 156.144531 158.226562 L 198.328125 162.832031 Z M 179.953125 255.113281 " fill-opacity="1" fill-rule="nonzero"/><path fill="#000000" d="M 176.359375 168.425781 L 186.160156 248.636719 L 205.675781 357.992188 L 233.035156 357.992188 L 219.917969 248.636719 C 219.917969 248.636719 225.503906 183.148438 219.902344 160.835938 Z M 176.359375 168.425781 " fill-opacity="1" fill-rule="nonzero"/><path fill="#f5f6f7" d="M 184.101562 232.285156 C 183.851562 232.285156 183.640625 232.09375 183.613281 231.839844 L 178.546875 184.648438 C 178.519531 184.378906 178.714844 184.132812 178.984375 184.105469 C 179.257812 184.082031 179.5 184.273438 179.53125 184.542969 L 184.59375 231.734375 C 184.625 232.007812 184.429688 232.25 184.15625 232.28125 C 184.140625 232.28125 184.121094 232.285156 184.101562 232.285156 Z M 184.101562 232.285156 " fill-opacity="1" fill-rule="nonzero"/><g clip-path="url(#9abd7450bd)"><path fill="#f5f6f7" d="M 153.054688 146.230469 L 87.730469 146.230469 C 86.585938 146.230469 85.566406 145.308594 85.449219 144.171875 L 71.820312 12.921875 C 71.703125 11.785156 72.53125 10.863281 73.675781 10.863281 L 139 10.863281 C 140.144531 10.863281 141.164062 11.785156 141.28125 12.921875 L 154.910156 144.171875 C 155.027344 145.308594 154.199219 146.230469 153.054688 146.230469 Z M 153.054688 146.230469 " fill-opacity="1" fill-rule="nonzero"/></g><g clip-path="url(#e141226100)"><path fill="#000000" d="M 153.054688 146.597656 L 87.730469 146.597656 C 86.40625 146.597656 85.21875 145.527344 85.082031 144.210938 L 71.457031 12.960938 C 71.386719 12.304688 71.582031 11.6875 72.003906 11.222656 C 72.425781 10.753906 73.019531 10.496094 73.675781 10.496094 L 139 10.496094 C 140.324219 10.496094 141.511719 11.570312 141.648438 12.886719 L 155.273438 144.136719 C 155.34375 144.789062 155.148438 145.410156 154.726562 145.875 C 154.304688 146.34375 153.710938 146.597656 153.054688 146.597656 Z M 73.675781 11.234375 C 73.230469 11.234375 72.828125 11.402344 72.550781 11.714844 C 72.269531 12.023438 72.140625 12.441406 72.1875 12.886719 L 85.8125 144.136719 C 85.910156 145.089844 86.773438 145.863281 87.730469 145.863281 L 153.054688 145.863281 C 153.5 145.863281 153.902344 145.695312 154.179688 145.382812 C 154.460938 145.074219 154.589844 144.65625 154.542969 144.210938 L 140.917969 12.960938 C 140.816406 12.007812 139.957031 11.234375 139 11.234375 Z M 73.675781 11.234375 " fill-opacity="1" fill-rule="nonzero"/></g><path fill="#ffffff" d="M 148.996094 141.402344 L 91.144531 141.402344 C 90.136719 141.402344 89.230469 140.585938 89.125 139.578125 L 77.058594 23.34375 C 76.953125 22.339844 77.6875 21.523438 78.699219 21.523438 L 136.550781 21.523438 C 137.5625 21.523438 138.46875 22.339844 138.574219 23.34375 L 150.640625 139.578125 C 150.742188 140.585938 150.007812 141.402344 148.996094 141.402344 Z M 148.996094 141.402344 " fill-opacity="1" fill-rule="nonzero"/><path fill="#000000" d="M 148.996094 141.769531 L 91.144531 141.769531 C 89.953125 141.769531 88.882812 140.804688 88.757812 139.617188 L 76.691406 23.382812 C 76.628906 22.792969 76.804688 22.234375 77.1875 21.8125 C 77.566406 21.386719 78.105469 21.15625 78.699219 21.15625 L 136.550781 21.15625 C 137.742188 21.15625 138.8125 22.121094 138.9375 23.308594 L 151.003906 139.542969 C 151.066406 140.132812 150.890625 140.691406 150.511719 141.113281 C 150.128906 141.535156 149.589844 141.769531 148.996094 141.769531 Z M 78.699219 21.890625 C 78.316406 21.890625 77.972656 22.035156 77.734375 22.300781 C 77.492188 22.566406 77.382812 22.925781 77.421875 23.308594 L 89.488281 139.539062 C 89.574219 140.363281 90.316406 141.035156 91.144531 141.035156 L 148.996094 141.035156 C 149.382812 141.035156 149.722656 140.886719 149.964844 140.621094 C 150.203125 140.355469 150.316406 140 150.273438 139.617188 L 138.207031 23.382812 C 138.121094 22.558594 137.378906 21.890625 136.550781 21.890625 Z M 78.699219 21.890625 " fill-opacity="1" fill-rule="nonzero"/><path fill="#f5f6f7" d="M 132.003906 31.429688 L 97.925781 31.429688 C 97.128906 31.429688 96.347656 30.792969 96.179688 30.003906 C 96.011719 29.21875 96.523438 28.582031 97.324219 28.582031 L 131.402344 28.582031 C 132.199219 28.582031 132.980469 29.21875 133.148438 30.003906 C 133.3125 30.792969 132.800781 31.429688 132.003906 31.429688 Z M 132.003906 31.429688 " fill-opacity="1" fill-rule="nonzero"/><path fill="#000000" d="M 132.003906 31.796875 L 97.925781 31.796875 C 96.949219 31.796875 96.023438 31.042969 95.820312 30.082031 C 95.714844 29.589844 95.816406 29.121094 96.105469 28.761719 C 96.394531 28.410156 96.824219 28.214844 97.320312 28.214844 L 131.402344 28.214844 C 132.378906 28.214844 133.300781 28.96875 133.503906 29.929688 C 133.609375 30.421875 133.507812 30.890625 133.21875 31.246094 C 132.933594 31.601562 132.5 31.796875 132.003906 31.796875 Z M 97.320312 28.949219 C 97.050781 28.949219 96.824219 29.046875 96.675781 29.226562 C 96.53125 29.40625 96.480469 29.65625 96.539062 29.929688 C 96.671875 30.542969 97.304688 31.0625 97.925781 31.0625 L 132.003906 31.0625 C 132.273438 31.0625 132.503906 30.964844 132.648438 30.785156 C 132.792969 30.605469 132.84375 30.351562 132.789062 30.082031 C 132.65625 29.46875 132.023438 28.949219 131.402344 28.949219 Z M 97.320312 28.949219 " fill-opacity="1" fill-rule="nonzero"/><path fill="#f5f6f7" d="M 118.953125 36.222656 L 98.574219 36.222656 C 97.777344 36.222656 96.996094 35.585938 96.828125 34.800781 C 96.664062 34.015625 97.171875 33.378906 97.972656 33.378906 L 118.351562 33.378906 C 119.148438 33.378906 119.929688 34.015625 120.097656 34.800781 C 120.261719 35.585938 119.75 36.222656 118.953125 36.222656 Z M 118.953125 36.222656 " fill-opacity="1" fill-rule="nonzero"/><path fill="#000000" d="M 118.953125 36.589844 L 98.574219 36.589844 C 97.597656 36.589844 96.675781 35.835938 96.46875 34.875 C 96.367188 34.382812 96.46875 33.914062 96.757812 33.558594 C 97.042969 33.203125 97.476562 33.007812 97.972656 33.007812 L 118.351562 33.007812 C 119.328125 33.007812 120.25 33.761719 120.453125 34.722656 C 120.558594 35.214844 120.457031 35.683594 120.167969 36.042969 C 119.882812 36.394531 119.449219 36.589844 118.953125 36.589844 Z M 97.972656 33.746094 C 97.699219 33.746094 97.472656 33.839844 97.328125 34.019531 C 97.179688 34.203125 97.128906 34.453125 97.1875 34.722656 C 97.320312 35.339844 97.953125 35.855469 98.574219 35.855469 L 118.953125 35.855469 C 119.222656 35.855469 119.453125 35.757812 119.597656 35.578125 C 119.742188 35.398438 119.792969 35.148438 119.734375 34.875 C 119.605469 34.261719 118.96875 33.746094 118.347656 33.746094 Z M 97.972656 33.746094 " fill-opacity="1" fill-rule="nonzero"/><path fill="#f5f6f7" d="M 118.316406 50.875 L 100.304688 50.875 C 99.507812 50.875 98.726562 50.238281 98.558594 49.453125 C 98.390625 48.664062 98.902344 48.027344 99.703125 48.027344 L 117.714844 48.027344 C 118.511719 48.027344 119.292969 48.664062 119.460938 49.453125 C 119.625 50.238281 119.113281 50.875 118.316406 50.875 Z M 118.316406 50.875 " fill-opacity="1" fill-rule="nonzero"/><path fill="#000000" d="M 118.316406 51.242188 L 100.304688 51.242188 C 99.328125 51.242188 98.402344 50.488281 98.199219 49.527344 C 98.09375 49.035156 98.195312 48.566406 98.488281 48.210938 C 98.773438 47.855469 99.203125 47.660156 99.703125 47.660156 L 117.714844 47.660156 C 118.691406 47.660156 119.613281 48.414062 119.820312 49.375 C 119.921875 49.867188 119.820312 50.335938 119.53125 50.691406 C 119.246094 51.046875 118.8125 51.242188 118.316406 51.242188 Z M 99.703125 48.394531 C 99.429688 48.394531 99.203125 48.492188 99.058594 48.671875 C 98.910156 48.851562 98.859375 49.105469 98.917969 49.375 C 99.050781 49.988281 99.683594 50.507812 100.304688 50.507812 L 118.316406 50.507812 C 118.585938 50.507812 118.816406 50.410156 118.960938 50.230469 C 119.109375 50.050781 119.15625 49.800781 119.101562 49.527344 C 118.96875 48.914062 118.335938 48.398438 117.714844 48.398438 L 99.703125 48.398438 Z M 99.703125 48.394531 " fill-opacity="1" fill-rule="nonzero"/><path fill="#f5f6f7" d="M 116.808594 64.984375 L 101.816406 64.984375 C 101.019531 64.984375 100.238281 64.347656 100.074219 63.5625 C 99.90625 62.777344 100.417969 62.140625 101.214844 62.140625 L 116.203125 62.140625 C 117 62.140625 117.78125 62.777344 117.949219 63.5625 C 118.117188 64.347656 117.605469 64.984375 116.808594 64.984375 Z M 116.808594 64.984375 " fill-opacity="1" fill-rule="nonzero"/><path fill="#000000" d="M 116.808594 65.351562 L 101.820312 65.351562 C 100.84375 65.351562 99.917969 64.601562 99.714844 63.636719 C 99.609375 63.144531 99.710938 62.675781 100 62.320312 C 100.285156 61.964844 100.71875 61.769531 101.214844 61.769531 L 116.203125 61.769531 C 117.179688 61.769531 118.105469 62.523438 118.308594 63.484375 C 118.414062 63.976562 118.3125 64.445312 118.023438 64.804688 C 117.734375 65.15625 117.304688 65.351562 116.808594 65.351562 Z M 101.214844 62.507812 C 100.945312 62.507812 100.714844 62.605469 100.570312 62.78125 C 100.421875 62.964844 100.375 63.214844 100.429688 63.484375 C 100.5625 64.101562 101.195312 64.617188 101.816406 64.617188 L 116.808594 64.617188 C 117.078125 64.617188 117.304688 64.519531 117.453125 64.339844 C 117.597656 64.160156 117.648438 63.910156 117.589844 63.636719 C 117.460938 63.023438 116.824219 62.507812 116.203125 62.507812 Z M 101.214844 62.507812 " fill-opacity="1" fill-rule="nonzero"/><path fill="#f5f6f7" d="M 133.53125 45.640625 L 99.453125 45.640625 C 98.652344 45.640625 97.871094 45.003906 97.707031 44.21875 C 97.539062 43.433594 98.050781 42.796875 98.847656 42.796875 L 132.925781 42.796875 C 133.722656 42.796875 134.507812 43.433594 134.671875 44.21875 C 134.839844 45.003906 134.328125 45.640625 133.53125 45.640625 Z M 133.53125 45.640625 " fill-opacity="1" fill-rule="nonzero"/><path fill="#000000" d="M 133.53125 46.011719 L 99.453125 46.011719 C 98.476562 46.011719 97.550781 45.253906 97.347656 44.296875 C 97.242188 43.804688 97.34375 43.335938 97.632812 42.976562 C 97.917969 42.625 98.351562 42.429688 98.847656 42.429688 L 132.925781 42.429688 C 133.902344 42.429688 134.828125 43.179688 135.03125 44.140625 C 135.136719 44.636719 135.035156 45.101562 134.746094 45.460938 C 134.457031 45.8125 134.027344 46.011719 133.53125 46.011719 Z M 98.847656 43.164062 C 98.578125 43.164062 98.347656 43.261719 98.203125 43.441406 C 98.054688 43.621094 98.007812 43.871094 98.0625 44.140625 C 98.195312 44.757812 98.828125 45.273438 99.449219 45.273438 L 133.53125 45.273438 C 133.800781 45.273438 134.027344 45.175781 134.171875 44.996094 C 134.320312 44.816406 134.371094 44.566406 134.3125 44.292969 C 134.183594 43.679688 133.546875 43.164062 132.925781 43.164062 Z M 98.847656 43.164062 " fill-opacity="1" fill-rule="nonzero"/><path fill="#f5f6f7" d="M 135.054688 59.855469 L 100.976562 59.855469 C 100.179688 59.855469 99.398438 59.21875 99.230469 58.433594 C 99.0625 57.648438 99.574219 57.011719 100.371094 57.011719 L 134.453125 57.011719 C 135.25 57.011719 136.03125 57.648438 136.195312 58.433594 C 136.363281 59.21875 135.851562 59.855469 135.054688 59.855469 Z M 135.054688 59.855469 " fill-opacity="1" fill-rule="nonzero"/><path fill="#000000" d="M 135.054688 60.222656 L 100.976562 60.222656 C 100 60.222656 99.074219 59.46875 98.871094 58.507812 C 98.765625 58.015625 98.867188 57.546875 99.15625 57.191406 C 99.445312 56.835938 99.875 56.640625 100.371094 56.640625 L 134.449219 56.640625 C 135.425781 56.640625 136.351562 57.394531 136.554688 58.355469 C 136.660156 58.847656 136.558594 59.316406 136.269531 59.671875 C 135.980469 60.027344 135.550781 60.222656 135.054688 60.222656 Z M 100.371094 57.375 C 100.101562 57.375 99.871094 57.472656 99.730469 57.652344 C 99.582031 57.832031 99.53125 58.085938 99.589844 58.355469 C 99.71875 58.96875 100.355469 59.488281 100.976562 59.488281 L 135.054688 59.488281 C 135.324219 59.488281 135.554688 59.390625 135.699219 59.210938 C 135.84375 59.03125 135.894531 58.78125 135.835938 58.507812 C 135.707031 57.894531 135.070312 57.375 134.449219 57.375 Z M 100.371094 57.375 " fill-opacity="1" fill-rule="nonzero"/><path fill="#f5f6f7" d="M 136.578125 74.070312 L 102.5 74.070312 C 101.703125 74.070312 100.921875 73.433594 100.753906 72.644531 C 100.589844 71.859375 101.097656 71.222656 101.898438 71.222656 L 135.976562 71.222656 C 136.773438 71.222656 137.554688 71.859375 137.722656 72.644531 C 137.886719 73.433594 137.378906 74.070312 136.578125 74.070312 Z M 136.578125 74.070312 " fill-opacity="1" fill-rule="nonzero"/><path fill="#000000" d="M 136.578125 74.4375 L 102.5 74.4375 C 101.523438 74.4375 100.601562 73.683594 100.394531 72.722656 C 100.292969 72.230469 100.394531 71.761719 100.683594 71.402344 C 100.96875 71.050781 101.402344 70.855469 101.898438 70.855469 L 135.976562 70.855469 C 136.953125 70.855469 137.875 71.609375 138.082031 72.570312 C 138.1875 73.0625 138.085938 73.53125 137.792969 73.886719 C 137.507812 74.242188 137.078125 74.4375 136.578125 74.4375 Z M 101.898438 71.589844 C 101.625 71.589844 101.398438 71.6875 101.253906 71.867188 C 101.105469 72.046875 101.058594 72.296875 101.113281 72.570312 C 101.246094 73.183594 101.878906 73.703125 102.5 73.703125 L 136.578125 73.703125 C 136.851562 73.703125 137.078125 73.605469 137.222656 73.425781 C 137.371094 73.246094 137.421875 72.992188 137.363281 72.722656 C 137.230469 72.109375 136.597656 71.589844 135.976562 71.589844 Z M 101.898438 71.589844 " fill-opacity="1" fill-rule="nonzero"/><path fill="#f5f6f7" d="M 138.105469 88.28125 L 104.027344 88.28125 C 103.230469 88.28125 102.445312 87.644531 102.28125 86.859375 C 102.113281 86.074219 102.625 85.4375 103.421875 85.4375 L 137.5 85.4375 C 138.300781 85.4375 139.082031 86.074219 139.246094 86.859375 C 139.414062 87.644531 138.902344 88.28125 138.105469 88.28125 Z M 138.105469 88.28125 " fill-opacity="1" fill-rule="nonzero"/><path fill="#000000" d="M 138.105469 88.648438 L 104.027344 88.648438 C 103.050781 88.648438 102.125 87.894531 101.921875 86.933594 C 101.816406 86.441406 101.917969 85.976562 102.207031 85.617188 C 102.492188 85.265625 102.925781 85.070312 103.421875 85.070312 L 137.5 85.070312 C 138.476562 85.070312 139.402344 85.820312 139.605469 86.78125 C 139.710938 87.277344 139.609375 87.742188 139.316406 88.101562 C 139.03125 88.453125 138.601562 88.648438 138.105469 88.648438 Z M 103.421875 85.804688 C 103.152344 85.804688 102.921875 85.902344 102.777344 86.078125 C 102.628906 86.261719 102.582031 86.511719 102.640625 86.78125 C 102.769531 87.394531 103.40625 87.914062 104.023438 87.914062 L 138.105469 87.914062 C 138.375 87.914062 138.601562 87.816406 138.746094 87.640625 C 138.894531 87.457031 138.945312 87.207031 138.886719 86.933594 C 138.753906 86.320312 138.121094 85.804688 137.5 85.804688 Z M 103.421875 85.804688 " fill-opacity="1" fill-rule="nonzero"/><path fill="#f5f6f7" d="M 139.628906 102.496094 L 105.550781 102.496094 C 104.753906 102.496094 103.972656 101.859375 103.804688 101.074219 C 103.636719 100.285156 104.148438 99.648438 104.949219 99.648438 L 139.027344 99.648438 C 139.824219 99.648438 140.605469 100.285156 140.773438 101.074219 C 140.9375 101.859375 140.425781 102.496094 139.628906 102.496094 Z M 139.628906 102.496094 " fill-opacity="1" fill-rule="nonzero"/><path fill="#000000" d="M 139.628906 102.863281 L 105.550781 102.863281 C 104.574219 102.863281 103.648438 102.109375 103.445312 101.148438 C 103.339844 100.65625 103.441406 100.1875 103.734375 99.832031 C 104.019531 99.476562 104.449219 99.28125 104.949219 99.28125 L 139.027344 99.28125 C 140.003906 99.28125 140.925781 100.035156 141.132812 100.996094 C 141.234375 101.488281 141.132812 101.957031 140.84375 102.3125 C 140.558594 102.667969 140.125 102.863281 139.628906 102.863281 Z M 104.945312 100.015625 C 104.675781 100.015625 104.449219 100.113281 104.300781 100.292969 C 104.15625 100.472656 104.105469 100.726562 104.164062 100.996094 C 104.292969 101.609375 104.929688 102.128906 105.550781 102.128906 L 139.628906 102.128906 C 139.898438 102.128906 140.128906 102.03125 140.273438 101.851562 C 140.417969 101.671875 140.46875 101.421875 140.414062 101.148438 C 140.28125 100.535156 139.644531 100.015625 139.027344 100.015625 Z M 104.945312 100.015625 " fill-opacity="1" fill-rule="nonzero"/><path fill="#f5f6f7" d="M 141.15625 116.710938 L 107.078125 116.710938 C 106.277344 116.710938 105.496094 116.070312 105.332031 115.285156 C 105.164062 114.5 105.675781 113.863281 106.472656 113.863281 L 140.550781 113.863281 C 141.347656 113.863281 142.132812 114.5 142.296875 115.285156 C 142.464844 116.070312 141.953125 116.710938 141.15625 116.710938 Z M 141.15625 116.710938 " fill-opacity="1" fill-rule="nonzero"/><path fill="#000000" d="M 141.15625 117.078125 L 107.078125 117.078125 C 106.101562 117.078125 105.175781 116.324219 104.972656 115.363281 C 104.867188 114.871094 104.96875 114.402344 105.257812 114.042969 C 105.542969 113.691406 105.976562 113.496094 106.472656 113.496094 L 140.550781 113.496094 C 141.527344 113.496094 142.453125 114.246094 142.65625 115.210938 C 142.761719 115.703125 142.660156 116.171875 142.371094 116.527344 C 142.082031 116.882812 141.652344 117.078125 141.15625 117.078125 Z M 106.472656 114.230469 C 106.203125 114.230469 105.972656 114.328125 105.828125 114.507812 C 105.679688 114.6875 105.632812 114.9375 105.6875 115.210938 C 105.820312 115.824219 106.453125 116.339844 107.074219 116.339844 L 141.15625 116.339844 C 141.425781 116.339844 141.652344 116.246094 141.796875 116.066406 C 141.945312 115.882812 141.996094 115.632812 141.9375 115.363281 C 141.808594 114.746094 141.171875 114.230469 140.550781 114.230469 Z M 106.472656 114.230469 " fill-opacity="1" fill-rule="nonzero"/><path fill="#5c84f7" d="M 135.457031 15.382812 C 135.667969 15.574219 135.835938 15.792969 135.960938 16.042969 C 136.089844 16.289062 136.167969 16.546875 136.195312 16.8125 C 136.222656 17.082031 136.195312 17.339844 136.117188 17.585938 C 136.039062 17.832031 135.914062 18.050781 135.742188 18.238281 C 135.570312 18.429688 135.367188 18.574219 135.128906 18.675781 C 134.890625 18.777344 134.636719 18.828125 134.367188 18.824219 C 134.097656 18.824219 133.832031 18.773438 133.574219 18.667969 C 133.316406 18.566406 133.082031 18.417969 132.875 18.226562 C 132.664062 18.039062 132.496094 17.820312 132.367188 17.570312 C 132.238281 17.324219 132.164062 17.066406 132.136719 16.796875 C 132.109375 16.53125 132.136719 16.273438 132.214844 16.027344 C 132.292969 15.78125 132.417969 15.5625 132.585938 15.375 C 132.757812 15.183594 132.964844 15.039062 133.203125 14.9375 C 133.441406 14.835938 133.695312 14.785156 133.964844 14.789062 C 134.234375 14.789062 134.496094 14.839844 134.753906 14.945312 C 135.015625 15.046875 135.246094 15.195312 135.457031 15.382812 Z M 135.457031 15.382812 " fill-opacity="1" fill-rule="nonzero"/><path fill="#000000" d="M 134.375 19.195312 C 133.074219 19.195312 131.90625 18.144531 131.773438 16.847656 C 131.707031 16.203125 131.898438 15.59375 132.3125 15.136719 C 132.726562 14.675781 133.308594 14.421875 133.957031 14.421875 C 135.257812 14.421875 136.425781 15.476562 136.558594 16.773438 C 136.625 17.417969 136.433594 18.023438 136.019531 18.484375 C 135.609375 18.941406 135.023438 19.195312 134.375 19.195312 Z M 133.957031 15.160156 C 133.523438 15.160156 133.128906 15.324219 132.859375 15.628906 C 132.585938 15.929688 132.457031 16.335938 132.503906 16.773438 C 132.601562 17.703125 133.441406 18.460938 134.378906 18.460938 C 134.8125 18.460938 135.203125 18.296875 135.476562 17.992188 C 135.75 17.6875 135.875 17.28125 135.832031 16.847656 C 135.734375 15.917969 134.894531 15.160156 133.957031 15.160156 Z M 133.957031 15.160156 " fill-opacity="1" fill-rule="nonzero"/><path fill="#5c84f7" d="M 129.3125 15.390625 C 129.523438 15.582031 129.691406 15.800781 129.820312 16.046875 C 129.945312 16.296875 130.023438 16.554688 130.050781 16.820312 C 130.078125 17.089844 130.050781 17.347656 129.972656 17.59375 C 129.894531 17.839844 129.769531 18.058594 129.597656 18.246094 C 129.425781 18.433594 129.222656 18.582031 128.984375 18.683594 C 128.746094 18.78125 128.492188 18.832031 128.222656 18.832031 C 127.953125 18.832031 127.691406 18.777344 127.429688 18.675781 C 127.171875 18.570312 126.9375 18.425781 126.730469 18.234375 C 126.519531 18.042969 126.351562 17.824219 126.222656 17.578125 C 126.097656 17.332031 126.019531 17.074219 125.992188 16.804688 C 125.964844 16.539062 125.992188 16.28125 126.070312 16.03125 C 126.148438 15.785156 126.273438 15.566406 126.445312 15.378906 C 126.617188 15.191406 126.820312 15.046875 127.058594 14.945312 C 127.296875 14.84375 127.550781 14.792969 127.820312 14.792969 C 128.089844 14.796875 128.351562 14.847656 128.613281 14.953125 C 128.871094 15.054688 129.105469 15.203125 129.3125 15.390625 Z M 129.3125 15.390625 " fill-opacity="1" fill-rule="nonzero"/><path fill="#000000" d="M 128.230469 19.195312 C 126.925781 19.195312 125.761719 18.144531 125.625 16.847656 C 125.558594 16.203125 125.75 15.59375 126.164062 15.136719 C 126.578125 14.675781 127.164062 14.421875 127.808594 14.421875 C 129.109375 14.421875 130.277344 15.476562 130.414062 16.773438 C 130.480469 17.417969 130.289062 18.023438 129.875 18.484375 C 129.460938 18.945312 128.875 19.195312 128.230469 19.195312 Z M 127.808594 15.160156 C 127.375 15.160156 126.984375 15.324219 126.710938 15.628906 C 126.4375 15.929688 126.3125 16.335938 126.355469 16.773438 C 126.453125 17.703125 127.292969 18.460938 128.230469 18.460938 C 128.664062 18.460938 129.054688 18.296875 129.328125 17.992188 C 129.601562 17.6875 129.726562 17.28125 129.683594 16.847656 C 129.585938 15.917969 128.746094 15.160156 127.808594 15.160156 Z M 127.808594 15.160156 " fill-opacity="1" fill-rule="nonzero"/><path fill="#5c84f7" d="M 123.164062 15.386719 C 123.371094 15.574219 123.539062 15.792969 123.667969 16.042969 C 123.796875 16.289062 123.871094 16.546875 123.898438 16.816406 C 123.925781 17.082031 123.902344 17.339844 123.824219 17.585938 C 123.742188 17.835938 123.621094 18.050781 123.449219 18.242188 C 123.277344 18.429688 123.070312 18.574219 122.832031 18.675781 C 122.59375 18.777344 122.339844 18.828125 122.074219 18.828125 C 121.804688 18.824219 121.539062 18.773438 121.28125 18.667969 C 121.023438 18.566406 120.789062 18.417969 120.578125 18.230469 C 120.371094 18.039062 120.199219 17.820312 120.074219 17.574219 C 119.945312 17.324219 119.867188 17.066406 119.839844 16.800781 C 119.816406 16.53125 119.839844 16.273438 119.917969 16.027344 C 119.996094 15.78125 120.121094 15.5625 120.292969 15.375 C 120.464844 15.1875 120.667969 15.039062 120.90625 14.9375 C 121.144531 14.835938 121.398438 14.789062 121.667969 14.789062 C 121.9375 14.789062 122.203125 14.839844 122.460938 14.945312 C 122.71875 15.046875 122.953125 15.195312 123.164062 15.386719 Z M 123.164062 15.386719 " fill-opacity="1" fill-rule="nonzero"/><path fill="#000000" d="M 122.082031 19.195312 C 120.78125 19.195312 119.613281 18.144531 119.476562 16.847656 C 119.410156 16.203125 119.601562 15.59375 120.015625 15.136719 C 120.429688 14.675781 121.015625 14.421875 121.664062 14.421875 C 122.960938 14.421875 124.128906 15.476562 124.265625 16.773438 C 124.332031 17.417969 124.140625 18.023438 123.726562 18.484375 C 123.3125 18.945312 122.730469 19.195312 122.082031 19.195312 Z M 121.664062 15.160156 C 121.226562 15.160156 120.835938 15.324219 120.5625 15.628906 C 120.289062 15.929688 120.164062 16.335938 120.210938 16.773438 C 120.304688 17.703125 121.144531 18.460938 122.082031 18.460938 C 122.519531 18.460938 122.910156 18.296875 123.183594 17.992188 C 123.453125 17.6875 123.582031 17.28125 123.535156 16.847656 C 123.4375 15.917969 122.597656 15.160156 121.664062 15.160156 Z M 121.664062 15.160156 " fill-opacity="1" fill-rule="nonzero"/><path fill="#5c84f7" d="M 94.699219 84.660156 C 94.96875 84.9375 95.175781 85.246094 95.328125 85.59375 C 95.480469 85.941406 95.5625 86.296875 95.578125 86.664062 C 95.589844 87.027344 95.53125 87.378906 95.402344 87.707031 C 95.277344 88.039062 95.085938 88.324219 94.835938 88.566406 C 94.585938 88.8125 94.296875 88.992188 93.964844 89.113281 C 93.628906 89.234375 93.28125 89.28125 92.914062 89.261719 C 92.546875 89.238281 92.195312 89.148438 91.851562 88.988281 C 91.507812 88.828125 91.203125 88.609375 90.933594 88.335938 C 90.667969 88.0625 90.457031 87.75 90.304688 87.402344 C 90.152344 87.058594 90.070312 86.699219 90.058594 86.335938 C 90.046875 85.96875 90.101562 85.621094 90.230469 85.289062 C 90.359375 84.960938 90.546875 84.671875 90.796875 84.429688 C 91.046875 84.1875 91.339844 84.003906 91.671875 83.882812 C 92.003906 83.761719 92.355469 83.714844 92.71875 83.734375 C 93.085938 83.757812 93.441406 83.847656 93.78125 84.007812 C 94.125 84.167969 94.429688 84.386719 94.699219 84.660156 Z M 94.699219 84.660156 " fill-opacity="1" fill-rule="nonzero"/><path fill="#000000" d="M 93.074219 89.636719 C 91.375 89.636719 89.863281 88.246094 89.699219 86.539062 C 89.621094 85.6875 89.878906 84.890625 90.425781 84.289062 C 90.964844 83.695312 91.71875 83.367188 92.554688 83.367188 C 94.253906 83.367188 95.765625 84.757812 95.929688 86.46875 C 96.007812 87.316406 95.753906 88.117188 95.203125 88.71875 C 94.664062 89.308594 93.910156 89.636719 93.074219 89.636719 Z M 92.554688 84.101562 C 91.929688 84.101562 91.367188 84.34375 90.96875 84.78125 C 90.5625 85.230469 90.371094 85.828125 90.433594 86.46875 C 90.558594 87.8125 91.746094 88.902344 93.074219 88.902344 C 93.699219 88.902344 94.261719 88.660156 94.660156 88.222656 C 95.066406 87.777344 95.257812 87.175781 95.195312 86.539062 C 95.070312 85.195312 93.886719 84.101562 92.554688 84.101562 Z M 92.554688 84.101562 " fill-opacity="1" fill-rule="nonzero"/><path fill="#5c84f7" d="M 97.914062 112.816406 C 98.179688 113.089844 98.390625 113.398438 98.542969 113.746094 C 98.695312 114.09375 98.777344 114.449219 98.789062 114.816406 C 98.800781 115.183594 98.746094 115.53125 98.617188 115.859375 C 98.488281 116.191406 98.300781 116.476562 98.050781 116.722656 C 97.800781 116.964844 97.507812 117.148438 97.175781 117.265625 C 96.84375 117.386719 96.492188 117.4375 96.128906 117.414062 C 95.761719 117.390625 95.40625 117.300781 95.066406 117.140625 C 94.722656 116.980469 94.417969 116.761719 94.148438 116.488281 C 93.878906 116.214844 93.671875 115.902344 93.519531 115.558594 C 93.367188 115.210938 93.285156 114.855469 93.269531 114.488281 C 93.257812 114.121094 93.316406 113.773438 93.445312 113.441406 C 93.570312 113.113281 93.761719 112.824219 94.011719 112.582031 C 94.261719 112.339844 94.550781 112.15625 94.882812 112.035156 C 95.21875 111.917969 95.566406 111.867188 95.933594 111.890625 C 96.300781 111.910156 96.652344 112.003906 96.996094 112.164062 C 97.339844 112.324219 97.644531 112.539062 97.914062 112.816406 Z M 97.914062 112.816406 " fill-opacity="1" fill-rule="nonzero"/><path fill="#000000" d="M 96.289062 117.792969 C 94.589844 117.792969 93.074219 116.398438 92.914062 114.691406 C 92.835938 113.84375 93.089844 113.042969 93.636719 112.441406 C 94.179688 111.847656 94.933594 111.523438 95.765625 111.523438 C 97.464844 111.523438 98.980469 112.914062 99.144531 114.621094 C 99.222656 115.472656 98.964844 116.269531 98.417969 116.871094 C 97.878906 117.464844 97.121094 117.792969 96.289062 117.792969 Z M 95.765625 112.257812 C 95.144531 112.257812 94.582031 112.496094 94.179688 112.933594 C 93.773438 113.382812 93.585938 113.980469 93.644531 114.621094 C 93.773438 115.964844 94.957031 117.054688 96.289062 117.054688 C 96.914062 117.054688 97.476562 116.816406 97.875 116.375 C 98.28125 115.929688 98.472656 115.332031 98.410156 114.691406 C 98.285156 113.347656 97.097656 112.257812 95.765625 112.257812 Z M 95.765625 112.257812 " fill-opacity="1" fill-rule="nonzero"/><path fill="#5c84f7" d="M 96.53125 98.863281 C 96.800781 99.136719 97.007812 99.449219 97.160156 99.792969 C 97.3125 100.140625 97.394531 100.496094 97.410156 100.863281 C 97.421875 101.230469 97.363281 101.578125 97.234375 101.910156 C 97.109375 102.238281 96.917969 102.527344 96.667969 102.769531 C 96.417969 103.011719 96.128906 103.195312 95.796875 103.316406 C 95.460938 103.433594 95.113281 103.484375 94.746094 103.460938 C 94.378906 103.441406 94.027344 103.351562 93.683594 103.191406 C 93.339844 103.027344 93.035156 102.8125 92.765625 102.539062 C 92.5 102.261719 92.289062 101.953125 92.136719 101.605469 C 91.984375 101.257812 91.902344 100.902344 91.890625 100.535156 C 91.875 100.167969 91.933594 99.820312 92.0625 99.492188 C 92.191406 99.160156 92.378906 98.875 92.628906 98.628906 C 92.878906 98.386719 93.171875 98.207031 93.503906 98.085938 C 93.835938 97.964844 94.1875 97.914062 94.550781 97.9375 C 94.917969 97.960938 95.273438 98.050781 95.613281 98.210938 C 95.957031 98.371094 96.261719 98.589844 96.53125 98.863281 Z M 96.53125 98.863281 " fill-opacity="1" fill-rule="nonzero"/><path fill="#000000" d="M 94.90625 103.839844 C 93.207031 103.839844 91.695312 102.449219 91.53125 100.738281 C 91.453125 99.890625 91.707031 99.089844 92.257812 98.488281 C 92.796875 97.898438 93.550781 97.570312 94.386719 97.570312 C 96.085938 97.570312 97.597656 98.960938 97.761719 100.667969 C 97.761719 100.671875 97.761719 100.671875 97.761719 100.671875 C 97.839844 101.519531 97.582031 102.316406 97.035156 102.917969 C 96.496094 103.511719 95.742188 103.839844 94.90625 103.839844 Z M 94.386719 98.304688 C 93.761719 98.304688 93.199219 98.546875 92.800781 98.984375 C 92.394531 99.429688 92.203125 100.03125 92.265625 100.671875 C 92.390625 102.011719 93.578125 103.105469 94.910156 103.105469 C 95.53125 103.105469 96.09375 102.863281 96.496094 102.425781 C 96.902344 101.980469 97.089844 101.378906 97.03125 100.738281 C 96.902344 99.394531 95.71875 98.304688 94.386719 98.304688 Z M 94.386719 98.304688 " fill-opacity="1" fill-rule="nonzero"/><path fill="#5c84f7" d="M 248.417969 116.660156 C 247.859375 113.25 246.488281 107.957031 244.652344 101.988281 C 243.941406 99.65625 243.15625 97.226562 242.320312 94.765625 C 241.953125 93.679688 241.574219 92.585938 241.191406 91.492188 C 240.601562 89.824219 239.996094 88.15625 239.375 86.507812 C 235.480469 76.132812 231.136719 66.65625 227.980469 63.632812 C 223.296875 59.148438 211.792969 54.316406 201.429688 51.792969 C 197.121094 50.742188 193.007812 50.09375 189.664062 50.03125 C 186.34375 49.96875 181.464844 50.929688 176.210938 52.476562 C 165.074219 55.757812 152.40625 61.820312 148.859375 66.1875 C 145.597656 70.207031 142.855469 76.734375 140.605469 84.039062 C 140.074219 85.761719 139.574219 87.523438 139.097656 89.308594 C 138.828125 90.3125 138.566406 91.328125 138.316406 92.34375 C 137.667969 94.953125 137.078125 97.585938 136.535156 100.160156 C 133.625 114.074219 132.289062 126.460938 132.289062 126.460938 L 154.65625 136.402344 C 154.65625 136.402344 153.597656 158.082031 153.195312 171.429688 L 223.417969 171.429688 C 223.011719 159.742188 221.90625 143.167969 221.90625 143.167969 C 221.90625 143.167969 237.644531 147.863281 244.550781 144.273438 C 251.453125 140.683594 250.347656 128.53125 248.417969 116.660156 Z M 248.417969 116.660156 " fill-opacity="1" fill-rule="nonzero"/><path fill="#000000" d="M 223.417969 171.796875 L 153.195312 171.796875 C 153.097656 171.796875 153 171.757812 152.933594 171.6875 C 152.863281 171.613281 152.824219 171.519531 152.828125 171.417969 C 153.203125 158.992188 154.160156 139.101562 154.277344 136.636719 L 132.136719 126.796875 C 131.992188 126.734375 131.90625 126.582031 131.921875 126.421875 C 131.9375 126.300781 133.296875 113.859375 136.175781 100.085938 C 136.753906 97.335938 137.351562 94.703125 137.960938 92.253906 C 138.210938 91.238281 138.472656 90.222656 138.742188 89.214844 C 139.238281 87.355469 139.75 85.578125 140.253906 83.933594 C 142.800781 75.667969 145.597656 69.621094 148.574219 65.957031 C 152.394531 61.253906 165.570312 55.230469 176.105469 52.128906 C 181.691406 50.480469 186.488281 49.609375 189.667969 49.667969 C 192.902344 49.726562 197 50.339844 201.511719 51.4375 C 212.773438 54.179688 223.761719 59.085938 228.234375 63.371094 C 232.105469 67.082031 237.089844 79.378906 239.71875 86.382812 C 240.335938 88.03125 240.945312 89.699219 241.535156 91.375 C 241.921875 92.46875 242.300781 93.5625 242.667969 94.648438 C 243.503906 97.109375 244.289062 99.542969 245.003906 101.878906 C 246.890625 108.023438 248.230469 113.25 248.777344 116.601562 C 250.796875 129 251.703125 140.972656 244.71875 144.601562 C 238.382812 147.898438 225.105469 144.453125 222.304688 143.667969 C 222.496094 146.578125 223.421875 161.015625 223.785156 171.417969 C 223.789062 171.519531 223.75 171.613281 223.683594 171.6875 C 223.613281 171.757812 223.519531 171.796875 223.417969 171.796875 Z M 153.574219 171.0625 L 223.039062 171.0625 C 222.625 159.535156 221.550781 143.359375 221.539062 143.195312 C 221.527344 143.074219 221.582031 142.960938 221.675781 142.882812 C 221.769531 142.808594 221.898438 142.785156 222.007812 142.816406 C 222.164062 142.863281 237.6875 147.429688 244.378906 143.949219 C 250.949219 140.535156 250.027344 128.84375 248.054688 116.71875 C 247.511719 113.398438 246.179688 108.207031 244.300781 102.09375 C 243.589844 99.765625 242.804688 97.335938 241.972656 94.882812 C 241.605469 93.796875 241.226562 92.707031 240.84375 91.617188 C 240.257812 89.949219 239.648438 88.28125 239.03125 86.636719 C 234.597656 74.824219 230.480469 66.535156 227.726562 63.898438 C 223.40625 59.761719 212.3125 54.820312 201.339844 52.148438 C 196.878906 51.0625 192.839844 50.457031 189.65625 50.398438 C 186.546875 50.324219 181.832031 51.207031 176.316406 52.832031 C 164.621094 56.277344 152.429688 62.371094 149.144531 66.417969 C 146.230469 70.007812 143.476562 75.972656 140.960938 84.148438 C 140.453125 85.785156 139.945312 87.550781 139.453125 89.402344 C 139.1875 90.40625 138.925781 91.417969 138.675781 92.429688 C 138.070312 94.871094 137.472656 97.496094 136.898438 100.234375 C 134.257812 112.859375 132.898438 124.359375 132.683594 126.238281 L 154.808594 136.070312 C 154.945312 136.128906 155.03125 136.269531 155.027344 136.421875 C 155.011719 136.636719 153.980469 157.84375 153.574219 171.0625 Z M 153.574219 171.0625 " fill-opacity="1" fill-rule="nonzero"/><path fill="#ffffff" d="M 270.636719 58.136719 L 234.761719 58.136719 C 233.917969 58.136719 233.160156 57.453125 233.070312 56.609375 L 230.566406 32.46875 C 230.476562 31.628906 231.09375 30.945312 231.941406 30.945312 L 267.816406 30.945312 C 268.660156 30.945312 269.417969 31.628906 269.507812 32.46875 L 272.011719 56.609375 C 272.101562 57.453125 271.484375 58.136719 270.636719 58.136719 Z M 270.636719 58.136719 " fill-opacity="1" fill-rule="nonzero"/><path fill="#000000" d="M 270.640625 58.503906 L 234.761719 58.503906 C 233.734375 58.503906 232.8125 57.671875 232.707031 56.648438 L 230.199219 32.507812 C 230.148438 31.996094 230.300781 31.511719 230.628906 31.144531 C 230.960938 30.777344 231.425781 30.574219 231.9375 30.574219 L 267.816406 30.574219 C 268.84375 30.574219 269.765625 31.410156 269.871094 32.433594 L 272.378906 56.574219 C 272.429688 57.085938 272.277344 57.570312 271.949219 57.9375 C 271.617188 58.304688 271.152344 58.503906 270.640625 58.503906 Z M 231.9375 31.308594 C 231.636719 31.308594 231.363281 31.425781 231.175781 31.632812 C 230.984375 31.84375 230.898438 32.128906 230.929688 32.429688 L 233.4375 56.574219 C 233.503906 57.230469 234.101562 57.769531 234.761719 57.769531 L 270.636719 57.769531 C 270.941406 57.769531 271.214844 57.652344 271.402344 57.445312 C 271.589844 57.234375 271.679688 56.949219 271.648438 56.648438 L 269.140625 32.507812 C 269.074219 31.847656 268.476562 31.308594 267.816406 31.308594 Z M 231.9375 31.308594 " fill-opacity="1" fill-rule="nonzero"/><path fill="#ffffff" d="M 263.957031 40.222656 L 238.480469 40.222656 C 237.796875 40.222656 237.179688 39.667969 237.109375 38.984375 C 237.039062 38.300781 237.539062 37.746094 238.222656 37.746094 L 263.703125 37.746094 C 264.386719 37.746094 265 38.300781 265.074219 38.984375 C 265.144531 39.667969 264.644531 40.222656 263.957031 40.222656 Z M 263.957031 40.222656 " fill-opacity="1" fill-rule="nonzero"/><path fill="#000000" d="M 263.957031 40.589844 L 238.484375 40.589844 C 237.617188 40.589844 236.835938 39.886719 236.746094 39.019531 C 236.699219 38.585938 236.832031 38.175781 237.113281 37.863281 C 237.394531 37.550781 237.789062 37.378906 238.226562 37.378906 L 263.703125 37.378906 C 264.570312 37.378906 265.347656 38.082031 265.4375 38.945312 C 265.484375 39.382812 265.355469 39.792969 265.074219 40.105469 C 264.792969 40.417969 264.394531 40.589844 263.957031 40.589844 Z M 238.226562 38.113281 C 238 38.113281 237.796875 38.199219 237.65625 38.355469 C 237.515625 38.507812 237.453125 38.71875 237.476562 38.945312 C 237.527344 39.4375 237.988281 39.851562 238.484375 39.851562 L 263.957031 39.851562 C 264.183594 39.851562 264.386719 39.769531 264.527344 39.613281 C 264.667969 39.457031 264.730469 39.246094 264.707031 39.023438 C 264.65625 38.527344 264.195312 38.113281 263.703125 38.113281 Z M 238.226562 38.113281 " fill-opacity="1" fill-rule="nonzero"/><path fill="#5c84f7" d="M 264.46875 45.136719 L 238.992188 45.136719 C 238.304688 45.136719 237.691406 44.582031 237.621094 43.898438 C 237.550781 43.214844 238.050781 42.660156 238.734375 42.660156 L 264.210938 42.660156 C 264.898438 42.660156 265.511719 43.214844 265.582031 43.898438 C 265.652344 44.582031 265.15625 45.136719 264.46875 45.136719 Z M 264.46875 45.136719 " fill-opacity="1" fill-rule="nonzero"/><path fill="#000000" d="M 264.46875 45.503906 L 238.992188 45.503906 C 238.125 45.503906 237.34375 44.800781 237.257812 43.933594 C 237.210938 43.5 237.339844 43.089844 237.621094 42.777344 C 237.902344 42.464844 238.296875 42.292969 238.734375 42.292969 L 264.210938 42.292969 C 265.078125 42.292969 265.859375 42.996094 265.949219 43.859375 C 265.996094 44.296875 265.863281 44.707031 265.582031 45.019531 C 265.300781 45.332031 264.90625 45.503906 264.46875 45.503906 Z M 238.734375 43.027344 C 238.507812 43.027344 238.308594 43.113281 238.167969 43.269531 C 238.027344 43.421875 237.964844 43.632812 237.984375 43.859375 C 238.035156 44.351562 238.496094 44.765625 238.992188 44.765625 L 264.46875 44.765625 C 264.695312 44.765625 264.898438 44.683594 265.035156 44.527344 C 265.179688 44.371094 265.242188 44.160156 265.21875 43.933594 C 265.167969 43.433594 264.714844 43.027344 264.210938 43.027344 Z M 238.734375 43.027344 " fill-opacity="1" fill-rule="nonzero"/><path fill="#ffffff" d="M 258.421875 50.050781 L 239.503906 50.050781 C 238.816406 50.050781 238.203125 49.496094 238.132812 48.8125 C 238.058594 48.128906 238.558594 47.574219 239.246094 47.574219 L 258.164062 47.574219 C 258.847656 47.574219 259.464844 48.128906 259.535156 48.8125 C 259.605469 49.496094 259.105469 50.050781 258.421875 50.050781 Z M 258.421875 50.050781 " fill-opacity="1" fill-rule="nonzero"/><path fill="#000000" d="M 258.421875 50.417969 L 239.503906 50.417969 C 238.636719 50.417969 237.855469 49.714844 237.765625 48.851562 C 237.71875 48.414062 237.851562 48.003906 238.132812 47.691406 C 238.414062 47.378906 238.808594 47.207031 239.246094 47.207031 L 258.164062 47.207031 C 259.046875 47.207031 259.808594 47.894531 259.898438 48.773438 C 259.945312 49.210938 259.816406 49.621094 259.535156 49.933594 C 259.253906 50.246094 258.859375 50.417969 258.421875 50.417969 Z M 239.246094 47.941406 C 239.019531 47.941406 238.816406 48.027344 238.675781 48.183594 C 238.535156 48.335938 238.472656 48.546875 238.496094 48.773438 C 238.546875 49.273438 239 49.679688 239.503906 49.679688 L 258.421875 49.679688 C 258.648438 49.679688 258.847656 49.597656 258.988281 49.441406 C 259.128906 49.285156 259.191406 49.074219 259.167969 48.851562 C 259.117188 48.351562 258.664062 47.941406 258.164062 47.941406 Z M 239.246094 47.941406 " fill-opacity="1" fill-rule="nonzero"/><path fill="#ffffff" d="M 293.191406 80.886719 L 257.316406 80.886719 C 256.46875 80.886719 255.710938 80.203125 255.625 79.363281 L 253.117188 55.222656 C 253.03125 54.378906 253.644531 53.695312 254.492188 53.695312 L 290.367188 53.695312 C 291.214844 53.695312 291.972656 54.378906 292.058594 55.222656 L 294.566406 79.363281 C 294.652344 80.203125 294.039062 80.886719 293.191406 80.886719 Z M 293.191406 80.886719 " fill-opacity="1" fill-rule="nonzero"/><path fill="#000000" d="M 293.191406 81.253906 L 257.316406 81.253906 C 256.289062 81.253906 255.363281 80.421875 255.257812 79.398438 L 252.753906 55.257812 C 252.699219 54.746094 252.851562 54.261719 253.179688 53.894531 C 253.511719 53.527344 253.976562 53.328125 254.492188 53.328125 L 290.367188 53.328125 C 291.394531 53.328125 292.316406 54.160156 292.421875 55.183594 L 294.929688 79.324219 C 294.984375 79.835938 294.832031 80.320312 294.5 80.6875 C 294.167969 81.054688 293.703125 81.253906 293.191406 81.253906 Z M 254.492188 54.0625 C 254.1875 54.0625 253.914062 54.179688 253.726562 54.386719 C 253.535156 54.597656 253.449219 54.878906 253.480469 55.183594 L 255.988281 79.324219 C 256.054688 79.984375 256.652344 80.519531 257.3125 80.519531 L 293.1875 80.519531 C 293.492188 80.519531 293.765625 80.40625 293.953125 80.195312 C 294.144531 79.988281 294.230469 79.703125 294.199219 79.398438 L 291.691406 55.257812 C 291.625 54.597656 291.03125 54.0625 290.367188 54.0625 Z M 254.492188 54.0625 " fill-opacity="1" fill-rule="nonzero"/><path fill="#ffffff" d="M 286.511719 62.972656 L 261.035156 62.972656 C 260.347656 62.972656 259.734375 62.417969 259.664062 61.734375 C 259.59375 61.050781 260.089844 60.496094 260.777344 60.496094 L 286.253906 60.496094 C 286.941406 60.496094 287.554688 61.050781 287.625 61.734375 C 287.695312 62.417969 287.195312 62.972656 286.511719 62.972656 Z M 286.511719 62.972656 " fill-opacity="1" fill-rule="nonzero"/><path fill="#000000" d="M 286.511719 63.339844 L 261.035156 63.339844 C 260.167969 63.339844 259.386719 62.636719 259.296875 61.773438 C 259.253906 61.335938 259.382812 60.925781 259.664062 60.613281 C 259.945312 60.300781 260.339844 60.128906 260.777344 60.128906 L 286.253906 60.128906 C 287.121094 60.128906 287.902344 60.832031 287.988281 61.695312 C 288.035156 62.132812 287.90625 62.542969 287.625 62.855469 C 287.34375 63.167969 286.949219 63.339844 286.511719 63.339844 Z M 260.777344 60.867188 C 260.550781 60.867188 260.351562 60.949219 260.210938 61.105469 C 260.070312 61.261719 260.003906 61.472656 260.027344 61.695312 C 260.078125 62.191406 260.539062 62.605469 261.035156 62.605469 L 286.511719 62.605469 C 286.738281 62.605469 286.941406 62.519531 287.078125 62.363281 C 287.21875 62.210938 287.285156 62 287.261719 61.773438 C 287.210938 61.28125 286.75 60.867188 286.253906 60.867188 Z M 260.777344 60.867188 " fill-opacity="1" fill-rule="nonzero"/><path fill="#5c84f7" d="M 287.019531 67.886719 L 261.542969 67.886719 C 260.859375 67.886719 260.242188 67.332031 260.171875 66.648438 C 260.101562 65.964844 260.601562 65.410156 261.285156 65.410156 L 286.765625 65.410156 C 287.449219 65.410156 288.0625 65.964844 288.136719 66.648438 C 288.207031 67.332031 287.707031 67.886719 287.019531 67.886719 Z M 287.019531 67.886719 " fill-opacity="1" fill-rule="nonzero"/><path fill="#000000" d="M 287.019531 68.253906 L 261.546875 68.253906 C 260.679688 68.253906 259.898438 67.550781 259.808594 66.6875 C 259.761719 66.25 259.894531 65.839844 260.175781 65.527344 C 260.457031 65.214844 260.851562 65.042969 261.289062 65.042969 L 286.765625 65.042969 C 287.632812 65.042969 288.410156 65.746094 288.5 66.609375 C 288.546875 67.046875 288.414062 67.457031 288.132812 67.769531 C 287.855469 68.082031 287.457031 68.253906 287.019531 68.253906 Z M 261.289062 65.78125 C 261.0625 65.78125 260.859375 65.863281 260.71875 66.019531 C 260.578125 66.175781 260.515625 66.386719 260.539062 66.609375 C 260.589844 67.101562 261.050781 67.519531 261.546875 67.519531 L 287.019531 67.519531 C 287.246094 67.519531 287.449219 67.433594 287.589844 67.277344 C 287.730469 67.125 287.792969 66.914062 287.769531 66.6875 C 287.71875 66.195312 287.257812 65.78125 286.765625 65.78125 Z M 261.289062 65.78125 " fill-opacity="1" fill-rule="nonzero"/><path fill="#ffffff" d="M 280.972656 72.800781 L 262.054688 72.800781 C 261.367188 72.800781 260.753906 72.246094 260.683594 71.5625 C 260.613281 70.878906 261.113281 70.324219 261.796875 70.324219 L 280.714844 70.324219 C 281.402344 70.324219 282.015625 70.878906 282.085938 71.5625 C 282.15625 72.246094 281.660156 72.800781 280.972656 72.800781 Z M 280.972656 72.800781 " fill-opacity="1" fill-rule="nonzero"/><path fill="#000000" d="M 280.972656 73.167969 L 262.054688 73.167969 C 261.1875 73.167969 260.40625 72.464844 260.320312 71.601562 C 260.273438 71.164062 260.402344 70.753906 260.683594 70.441406 C 260.964844 70.128906 261.359375 69.957031 261.796875 69.957031 L 280.714844 69.957031 C 281.582031 69.957031 282.363281 70.660156 282.453125 71.523438 C 282.496094 71.960938 282.367188 72.371094 282.085938 72.683594 C 281.804688 72.996094 281.410156 73.167969 280.972656 73.167969 Z M 261.796875 70.695312 C 261.570312 70.695312 261.371094 70.777344 261.230469 70.933594 C 261.089844 71.089844 261.023438 71.300781 261.046875 71.523438 C 261.101562 72.023438 261.550781 72.433594 262.054688 72.433594 L 280.972656 72.433594 C 281.199219 72.433594 281.402344 72.347656 281.539062 72.191406 C 281.679688 72.039062 281.746094 71.828125 281.722656 71.601562 C 281.671875 71.109375 281.210938 70.695312 280.714844 70.695312 Z M 261.796875 70.695312 " fill-opacity="1" fill-rule="nonzero"/><g clip-path="url(#5376f80cfe)"><path fill="#ffffff" d="M 301.902344 125.878906 L 266.023438 125.878906 C 265.179688 125.878906 264.421875 125.195312 264.332031 124.351562 L 261.828125 100.210938 C 261.738281 99.367188 262.355469 98.6875 263.203125 98.6875 L 299.078125 98.6875 C 299.925781 98.6875 300.679688 99.367188 300.769531 100.210938 L 303.273438 124.351562 C 303.363281 125.195312 302.746094 125.878906 301.902344 125.878906 Z M 301.902344 125.878906 " fill-opacity="1" fill-rule="nonzero"/></g><g clip-path="url(#3230f1eb4c)"><path fill="#000000" d="M 301.902344 126.246094 L 266.023438 126.246094 C 264.996094 126.246094 264.074219 125.414062 263.96875 124.390625 L 261.460938 100.25 C 261.410156 99.738281 261.5625 99.253906 261.890625 98.886719 C 262.222656 98.519531 262.6875 98.316406 263.203125 98.316406 L 299.078125 98.316406 C 300.105469 98.316406 301.027344 99.152344 301.132812 100.171875 L 303.640625 124.316406 C 303.691406 124.828125 303.539062 125.3125 303.210938 125.679688 C 302.878906 126.042969 302.414062 126.246094 301.902344 126.246094 Z M 263.203125 99.050781 C 262.898438 99.050781 262.625 99.167969 262.4375 99.378906 C 262.246094 99.585938 262.160156 99.871094 262.191406 100.171875 L 264.699219 124.3125 C 264.765625 124.972656 265.363281 125.507812 266.023438 125.507812 L 301.898438 125.507812 C 302.203125 125.507812 302.476562 125.394531 302.664062 125.183594 C 302.851562 124.976562 302.941406 124.691406 302.910156 124.390625 L 300.402344 100.25 C 300.335938 99.589844 299.738281 99.050781 299.078125 99.050781 Z M 263.203125 99.050781 " fill-opacity="1" fill-rule="nonzero"/></g><path fill="#ffffff" d="M 295.222656 107.960938 L 269.746094 107.960938 C 269.058594 107.960938 268.445312 107.40625 268.371094 106.722656 C 268.300781 106.042969 268.800781 105.488281 269.488281 105.488281 L 294.964844 105.488281 C 295.648438 105.488281 296.265625 106.042969 296.335938 106.722656 C 296.40625 107.40625 295.90625 107.960938 295.222656 107.960938 Z M 295.222656 107.960938 " fill-opacity="1" fill-rule="nonzero"/><path fill="#000000" d="M 295.222656 108.328125 L 269.746094 108.328125 C 268.875 108.328125 268.097656 107.625 268.007812 106.761719 C 267.964844 106.328125 268.09375 105.914062 268.375 105.601562 C 268.65625 105.292969 269.050781 105.121094 269.488281 105.121094 L 294.964844 105.121094 C 295.832031 105.121094 296.613281 105.824219 296.699219 106.6875 C 296.746094 107.121094 296.617188 107.535156 296.335938 107.847656 C 296.054688 108.15625 295.660156 108.328125 295.222656 108.328125 Z M 269.488281 105.855469 C 269.261719 105.855469 269.058594 105.941406 268.917969 106.09375 C 268.78125 106.25 268.714844 106.460938 268.738281 106.6875 C 268.789062 107.179688 269.25 107.59375 269.746094 107.59375 L 295.222656 107.59375 C 295.449219 107.59375 295.648438 107.507812 295.789062 107.355469 C 295.929688 107.199219 295.992188 106.988281 295.96875 106.761719 C 295.917969 106.269531 295.457031 105.855469 294.964844 105.855469 Z M 269.488281 105.855469 " fill-opacity="1" fill-rule="nonzero"/><path fill="#5c84f7" d="M 295.730469 112.875 L 270.253906 112.875 C 269.570312 112.875 268.953125 112.320312 268.882812 111.636719 C 268.8125 110.957031 269.3125 110.402344 269.996094 110.402344 L 295.472656 110.402344 C 296.160156 110.402344 296.773438 110.957031 296.847656 111.636719 C 296.917969 112.324219 296.417969 112.875 295.730469 112.875 Z M 295.730469 112.875 " fill-opacity="1" fill-rule="nonzero"/><path fill="#000000" d="M 295.730469 113.242188 L 270.253906 113.242188 C 269.386719 113.242188 268.605469 112.539062 268.519531 111.675781 C 268.472656 111.242188 268.601562 110.828125 268.882812 110.515625 C 269.164062 110.207031 269.5625 110.035156 269.996094 110.035156 L 295.472656 110.035156 C 296.339844 110.035156 297.121094 110.738281 297.210938 111.601562 C 297.253906 112.035156 297.125 112.449219 296.84375 112.761719 C 296.566406 113.070312 296.167969 113.242188 295.730469 113.242188 Z M 269.996094 110.769531 C 269.773438 110.769531 269.570312 110.855469 269.429688 111.007812 C 269.289062 111.164062 269.226562 111.375 269.25 111.601562 C 269.300781 112.09375 269.761719 112.507812 270.253906 112.507812 L 295.730469 112.507812 C 295.957031 112.507812 296.160156 112.421875 296.300781 112.265625 C 296.441406 112.113281 296.503906 111.902344 296.480469 111.675781 C 296.429688 111.183594 295.96875 110.769531 295.472656 110.769531 Z M 269.996094 110.769531 " fill-opacity="1" fill-rule="nonzero"/><path fill="#ffffff" d="M 289.683594 117.789062 L 270.765625 117.789062 C 270.078125 117.789062 269.464844 117.238281 269.394531 116.554688 C 269.324219 115.871094 269.820312 115.316406 270.507812 115.316406 L 289.425781 115.316406 C 290.113281 115.316406 290.726562 115.871094 290.796875 116.554688 C 290.867188 117.238281 290.367188 117.789062 289.683594 117.789062 Z M 289.683594 117.789062 " fill-opacity="1" fill-rule="nonzero"/><path fill="#000000" d="M 289.683594 118.15625 L 270.765625 118.15625 C 269.898438 118.15625 269.117188 117.453125 269.027344 116.589844 C 268.984375 116.15625 269.113281 115.746094 269.394531 115.433594 C 269.675781 115.121094 270.070312 114.949219 270.507812 114.949219 L 289.425781 114.949219 C 290.292969 114.949219 291.070312 115.652344 291.160156 116.515625 C 291.207031 116.953125 291.078125 117.363281 290.796875 117.675781 C 290.515625 117.984375 290.121094 118.15625 289.683594 118.15625 Z M 270.507812 115.683594 C 270.28125 115.683594 270.082031 115.769531 269.941406 115.925781 C 269.800781 116.078125 269.734375 116.289062 269.757812 116.515625 C 269.808594 117.007812 270.269531 117.421875 270.765625 117.421875 L 289.683594 117.421875 C 289.910156 117.421875 290.113281 117.339844 290.25 117.183594 C 290.390625 117.027344 290.457031 116.816406 290.433594 116.589844 C 290.382812 116.097656 289.921875 115.683594 289.425781 115.683594 Z M 270.507812 115.683594 " fill-opacity="1" fill-rule="nonzero"/><path fill="#f5f6f7" d="M 114.265625 158.019531 L 108.53125 121.75 C 108.390625 120.851562 109.082031 120.039062 109.992188 120.039062 L 125.765625 120.039062 C 126.433594 120.039062 127.023438 120.492188 127.195312 121.140625 L 127.855469 123.640625 C 128.027344 124.289062 128.613281 124.742188 129.285156 124.742188 L 151.324219 124.742188 C 152.050781 124.742188 152.667969 125.269531 152.785156 125.988281 L 157.703125 157.121094 C 157.84375 158.011719 157.160156 158.820312 156.257812 158.832031 L 115.742188 159.265625 C 115.007812 159.273438 114.378906 158.742188 114.265625 158.019531 Z M 114.265625 158.019531 " fill-opacity="1" fill-rule="nonzero"/><path fill="#000000" d="M 115.726562 159.632812 C 114.824219 159.632812 114.042969 158.96875 113.902344 158.078125 L 108.167969 121.808594 C 108.082031 121.273438 108.234375 120.730469 108.585938 120.320312 C 108.9375 119.910156 109.449219 119.671875 109.992188 119.671875 L 125.765625 119.671875 C 126.601562 119.671875 127.335938 120.238281 127.546875 121.046875 L 128.210938 123.546875 C 128.339844 124.035156 128.78125 124.375 129.285156 124.375 L 151.324219 124.375 C 152.238281 124.375 153.003906 125.027344 153.144531 125.929688 L 158.066406 157.0625 C 158.152344 157.59375 158 158.136719 157.652344 158.542969 C 157.308594 158.953125 156.800781 159.191406 156.265625 159.199219 L 115.746094 159.632812 C 115.738281 159.632812 115.734375 159.632812 115.726562 159.632812 Z M 114.628906 157.960938 C 114.710938 158.5 115.183594 158.898438 115.726562 158.898438 C 115.730469 158.898438 115.734375 158.898438 115.738281 158.898438 L 156.253906 158.464844 C 156.578125 158.460938 156.882812 158.316406 157.09375 158.070312 C 157.300781 157.824219 157.390625 157.5 157.339844 157.179688 L 152.421875 126.046875 C 152.335938 125.503906 151.871094 125.109375 151.324219 125.109375 L 129.28125 125.109375 C 128.445312 125.109375 127.710938 124.542969 127.5 123.734375 L 126.835938 121.238281 C 126.710938 120.75 126.265625 120.410156 125.765625 120.410156 L 109.992188 120.410156 C 109.664062 120.410156 109.355469 120.550781 109.144531 120.800781 C 108.933594 121.046875 108.84375 121.371094 108.894531 121.695312 Z M 114.628906 157.960938 " fill-opacity="1" fill-rule="nonzero"/><path fill="#ffffff" d="M 114.71875 156.648438 L 135.84375 134.796875 C 136.128906 134.5 136.523438 134.335938 136.933594 134.34375 L 179.605469 135.09375 C 180.964844 135.117188 181.574219 136.816406 180.535156 137.699219 L 157.734375 158.425781 C 157.472656 158.652344 157.136719 158.777344 156.792969 158.78125 L 115.796875 159.15625 C 114.484375 159.167969 113.808594 157.59375 114.71875 156.648438 Z M 114.71875 156.648438 " fill-opacity="1" fill-rule="nonzero"/><path fill="#000000" d="M 115.78125 159.523438 C 115.03125 159.523438 114.382812 159.097656 114.085938 158.40625 C 113.789062 157.710938 113.929688 156.9375 114.457031 156.394531 L 135.582031 134.539062 C 135.9375 134.171875 136.445312 133.988281 136.941406 133.976562 L 179.609375 134.726562 C 180.386719 134.738281 181.054688 135.21875 181.316406 135.949219 C 181.578125 136.679688 181.363281 137.472656 180.773438 137.976562 L 157.980469 158.699219 C 157.644531 158.984375 157.226562 159.144531 156.796875 159.148438 L 115.800781 159.523438 C 115.792969 159.523438 115.789062 159.523438 115.78125 159.523438 Z M 136.910156 134.710938 C 136.609375 134.710938 136.320312 134.835938 136.109375 135.050781 L 114.984375 156.90625 C 114.605469 157.296875 114.621094 157.789062 114.761719 158.117188 C 114.902344 158.445312 115.21875 158.828125 115.792969 158.789062 L 156.789062 158.414062 C 157.046875 158.410156 157.300781 158.316406 157.5 158.148438 L 180.289062 137.425781 C 180.730469 137.050781 180.75 136.546875 180.625 136.199219 C 180.5 135.847656 180.164062 135.472656 179.597656 135.460938 L 136.929688 134.710938 C 136.921875 134.710938 136.914062 134.710938 136.910156 134.710938 Z M 114.71875 156.648438 L 114.730469 156.648438 Z M 114.71875 156.648438 " fill-opacity="1" fill-rule="nonzero"/><path fill="#ffffff" d="M 123.035156 159.1875 C 123.035156 159.1875 125.519531 162.503906 128.007812 163.609375 C 130.492188 164.710938 132.148438 164.710938 133.804688 164.710938 C 135.464844 164.710938 137.121094 165.265625 138.777344 165.539062 C 140.433594 165.816406 141.539062 165.816406 142.644531 165.539062 C 143.75 165.265625 144.761719 164.34375 145.589844 162.6875 C 146.417969 161.03125 148.972656 157.09375 148.351562 156.058594 C 147.730469 155.023438 147.203125 155.578125 146.789062 154.953125 C 146.375 154.332031 146.257812 153.183594 145.222656 152.5625 C 144.1875 151.941406 143.472656 152.492188 142.644531 152.492188 C 141.816406 152.492188 142.4375 150.695312 140.988281 150.902344 C 139.539062 151.113281 139.148438 151.730469 138.132812 152.835938 C 138.132812 150.8125 135.855469 151.941406 134.820312 152.5625 C 133.785156 153.183594 130.21875 157.257812 130.21875 157.257812 L 128.351562 158.980469 Z M 123.035156 159.1875 " fill-opacity="1" fill-rule="nonzero"/><path fill="#000000" d="M 140.917969 166.113281 C 140.273438 166.113281 139.5625 166.042969 138.714844 165.902344 C 138.160156 165.808594 137.597656 165.6875 137.039062 165.5625 C 135.972656 165.324219 134.871094 165.078125 133.804688 165.078125 C 132.136719 165.078125 130.414062 165.078125 127.859375 163.941406 C 125.3125 162.8125 122.84375 159.546875 122.742188 159.410156 C 122.660156 159.300781 122.644531 159.152344 122.703125 159.03125 C 122.761719 158.90625 122.882812 158.828125 123.019531 158.820312 L 128.203125 158.621094 L 129.96875 156.984375 C 130.308594 156.59375 133.574219 152.878906 134.628906 152.246094 C 135.644531 151.636719 137.03125 151.007812 137.863281 151.484375 C 138.085938 151.609375 138.25 151.792969 138.359375 152.039062 C 139.070312 151.25 139.621094 150.726562 140.933594 150.539062 C 142.078125 150.371094 142.328125 151.242188 142.457031 151.710938 C 142.492188 151.84375 142.5625 152.089844 142.613281 152.121094 C 142.859375 152.144531 143.089844 152.074219 143.332031 152.023438 C 143.886719 151.898438 144.578125 151.746094 145.410156 152.246094 C 146.226562 152.738281 146.539062 153.5 146.789062 154.113281 C 146.886719 154.355469 146.980469 154.585938 147.089844 154.75 C 147.191406 154.902344 147.273438 154.917969 147.476562 154.96875 C 147.796875 155.046875 148.234375 155.152344 148.667969 155.871094 C 149.214844 156.78125 148.136719 158.851562 146.671875 161.464844 C 146.371094 162 146.101562 162.484375 145.917969 162.851562 C 145.066406 164.554688 143.992188 165.582031 142.734375 165.894531 C 142.152344 166.042969 141.570312 166.113281 140.917969 166.113281 Z M 123.777344 159.527344 C 124.589844 160.503906 126.390625 162.488281 128.15625 163.273438 C 130.570312 164.34375 132.140625 164.34375 133.804688 164.34375 C 134.949219 164.34375 136.09375 164.597656 137.199219 164.84375 C 137.746094 164.964844 138.289062 165.085938 138.835938 165.175781 C 140.453125 165.445312 141.492188 165.449219 142.554688 165.183594 C 143.597656 164.921875 144.507812 164.027344 145.261719 162.523438 C 145.449219 162.144531 145.722656 161.652344 146.03125 161.105469 C 146.800781 159.730469 148.40625 156.867188 148.035156 156.25 C 147.761719 155.792969 147.558594 155.746094 147.300781 155.683594 C 147.0625 155.625 146.738281 155.546875 146.480469 155.15625 C 146.328125 154.933594 146.222656 154.667969 146.105469 154.390625 C 145.875 153.824219 145.636719 153.242188 145.03125 152.875 C 144.449219 152.527344 144 152.625 143.488281 152.738281 C 143.21875 152.796875 142.941406 152.859375 142.640625 152.859375 C 142.007812 152.859375 141.851562 152.285156 141.746094 151.90625 C 141.597656 151.375 141.519531 151.195312 141.035156 151.265625 C 139.886719 151.429688 139.5 151.859375 138.734375 152.714844 L 138.398438 153.085938 C 138.296875 153.195312 138.136719 153.234375 137.996094 153.179688 C 137.855469 153.125 137.761719 152.988281 137.761719 152.835938 C 137.761719 152.460938 137.671875 152.222656 137.5 152.121094 C 137.105469 151.898438 136.152344 152.191406 135.003906 152.875 C 134.195312 153.363281 131.46875 156.375 130.488281 157.5 L 128.597656 159.25 C 128.53125 159.308594 128.449219 159.34375 128.363281 159.347656 Z M 123.777344 159.527344 " fill-opacity="1" fill-rule="nonzero"/><path fill="#000000" d="M 128.652344 164.042969 C 128.472656 164.042969 128.304688 163.9375 128.242188 163.761719 C 128.15625 163.535156 128.269531 163.28125 128.496094 163.199219 C 128.515625 163.191406 130.332031 162.503906 131.285156 161.550781 C 132.082031 160.753906 135.90625 155.089844 137.707031 152.355469 C 137.839844 152.152344 138.109375 152.097656 138.3125 152.230469 C 138.515625 152.363281 138.570312 152.632812 138.4375 152.835938 C 138.222656 153.160156 132.960938 161.113281 131.90625 162.167969 C 130.816406 163.257812 128.886719 163.984375 128.804688 164.015625 C 128.753906 164.035156 128.703125 164.042969 128.652344 164.042969 Z M 128.652344 164.042969 " fill-opacity="1" fill-rule="nonzero"/><path fill="#000000" d="M 133.480469 164.988281 C 133.308594 164.988281 133.144531 164.882812 133.074219 164.710938 C 132.984375 164.488281 133.09375 164.234375 133.316406 164.144531 C 133.921875 163.902344 136.320312 162.390625 137.300781 160.820312 C 138.324219 159.1875 142.214844 152.535156 142.25 152.472656 C 142.375 152.265625 142.644531 152.199219 142.851562 152.324219 C 143.058594 152.445312 143.125 152.714844 143 152.921875 C 142.964844 152.984375 139.070312 159.644531 138.042969 161.285156 C 136.933594 163.058594 134.34375 164.675781 133.644531 164.953125 C 133.589844 164.976562 133.535156 164.988281 133.480469 164.988281 Z M 133.480469 164.988281 " fill-opacity="1" fill-rule="nonzero"/><path fill="#000000" d="M 138.933594 165.535156 C 138.777344 165.535156 138.632812 165.710938 138.554688 165.566406 C 138.441406 165.351562 138.359375 165.269531 138.570312 165.15625 C 139.054688 164.894531 140.414062 164.113281 140.886719 163.644531 C 141.308594 163.214844 144.269531 157.847656 146.035156 154.5625 C 146.148438 154.351562 146.414062 154.269531 146.625 154.386719 C 146.839844 154.5 146.917969 154.765625 146.804688 154.976562 C 146.03125 156.417969 142.136719 163.628906 141.503906 164.261719 C 140.84375 164.921875 139.183594 165.671875 139.105469 165.710938 C 139.039062 165.746094 139.003906 165.535156 138.933594 165.535156 Z M 138.933594 165.535156 " fill-opacity="1" fill-rule="nonzero"/><path fill="#000000" d="M 170.515625 21.957031 C 170.515625 21.957031 167.890625 20.4375 167.335938 18.226562 C 166.785156 16.015625 169.410156 15.050781 169.546875 12.566406 C 169.6875 10.082031 168.71875 8.285156 170.375 5.9375 C 172.03125 3.589844 177.140625 2.898438 177.832031 3.039062 C 178.523438 3.175781 181.558594 0.277344 185.011719 0.550781 C 188.464844 0.828125 191.777344 2.898438 191.777344 2.898438 C 191.777344 2.898438 197.164062 2.347656 198.820312 4.003906 C 200.476562 5.660156 200.203125 8.425781 200.203125 8.425781 C 200.203125 8.425781 201.304688 8.5625 202.550781 11.875 C 203.792969 15.191406 202.136719 17.535156 202.410156 19.332031 C 202.6875 21.128906 203.652344 23.335938 203.652344 27.480469 C 203.652344 31.621094 201.167969 33.554688 201.167969 33.554688 C 201.167969 33.554688 200.617188 36.457031 197.71875 35.902344 C 194.816406 35.347656 170.515625 21.957031 170.515625 21.957031 Z M 170.515625 21.957031 " fill-opacity="1" fill-rule="nonzero"/><path fill="#000000" d="M 198.421875 36.339844 C 198.183594 36.339844 197.925781 36.316406 197.648438 36.261719 C 194.722656 35.703125 171.332031 22.824219 170.335938 22.277344 C 170.332031 22.273438 170.332031 22.273438 170.328125 22.273438 C 170.214844 22.207031 167.5625 20.648438 166.980469 18.316406 C 166.644531 16.972656 167.335938 16.035156 168.003906 15.125 C 168.550781 14.375 169.121094 13.601562 169.179688 12.546875 C 169.21875 11.816406 169.160156 11.140625 169.105469 10.488281 C 168.972656 8.9375 168.84375 7.46875 170.074219 5.726562 C 171.863281 3.191406 177.152344 2.53125 177.902344 2.679688 C 178.035156 2.667969 178.574219 2.355469 179.007812 2.097656 C 180.351562 1.3125 182.601562 -0.0078125 185.042969 0.1875 C 188.234375 0.441406 191.253906 2.15625 191.867188 2.523438 C 192.714844 2.445312 197.445312 2.109375 199.082031 3.746094 C 200.539062 5.203125 200.609375 7.402344 200.582031 8.179688 C 201.066406 8.4375 201.953125 9.242188 202.894531 11.746094 C 203.714844 13.941406 203.324219 15.738281 203.011719 17.183594 C 202.835938 17.988281 202.683594 18.683594 202.773438 19.277344 C 202.851562 19.777344 202.984375 20.316406 203.140625 20.941406 C 203.53125 22.523438 204.023438 24.488281 204.023438 27.480469 C 204.023438 31.3125 201.992188 33.324219 201.496094 33.757812 C 201.429688 34.019531 201.242188 34.609375 200.820312 35.160156 C 200.386719 35.726562 199.640625 36.339844 198.421875 36.339844 Z M 170.695312 21.636719 C 179.085938 26.261719 195.539062 35.113281 197.785156 35.542969 C 200.273438 36.019531 200.785156 33.589844 200.808594 33.484375 C 200.824219 33.398438 200.875 33.320312 200.941406 33.265625 C 200.964844 33.246094 203.285156 31.375 203.285156 27.476562 C 203.285156 24.578125 202.808594 22.660156 202.425781 21.117188 C 202.265625 20.476562 202.128906 19.921875 202.046875 19.386719 C 201.933594 18.660156 202.109375 17.863281 202.292969 17.023438 C 202.601562 15.605469 202.953125 13.996094 202.203125 12.003906 C 201.097656 9.050781 200.144531 8.785156 200.132812 8.78125 C 199.9375 8.757812 199.816406 8.582031 199.835938 8.386719 C 199.839844 8.359375 200.070312 5.773438 198.5625 4.261719 C 197.304688 3.007812 193.265625 3.117188 191.816406 3.261719 C 191.734375 3.273438 191.652344 3.25 191.585938 3.207031 C 191.550781 3.1875 188.300781 1.179688 184.984375 0.917969 C 182.773438 0.742188 180.730469 1.9375 179.382812 2.730469 C 178.570312 3.207031 178.128906 3.46875 177.757812 3.394531 C 177.179688 3.273438 172.246094 3.925781 170.675781 6.148438 C 169.597656 7.671875 169.710938 8.949219 169.835938 10.425781 C 169.894531 11.101562 169.957031 11.804688 169.914062 12.585938 C 169.84375 13.859375 169.179688 14.761719 168.59375 15.558594 C 167.949219 16.433594 167.441406 17.128906 167.695312 18.136719 C 168.195312 20.140625 170.597656 21.578125 170.695312 21.636719 Z M 170.695312 21.636719 " fill-opacity="1" fill-rule="nonzero"/><path fill="#ffffff" d="M 171.824219 14.429688 C 171.824219 14.429688 169.21875 20.429688 170.074219 29.222656 C 170.074219 29.222656 168.410156 36.738281 169.175781 37.25 C 169.945312 37.761719 172.890625 37.933594 172.890625 37.933594 C 172.890625 37.933594 173.464844 45.054688 177.65625 47.746094 C 177.933594 47.925781 178.222656 48.078125 178.527344 48.195312 L 178.246094 55.441406 C 178.246094 55.441406 180.960938 61.242188 187.535156 60.132812 C 194.109375 59.023438 198.753906 51.089844 198.753906 51.089844 L 197.546875 34.023438 C 197.546875 34.023438 201.488281 31.25 199.789062 26.234375 C 198.890625 23.585938 196.058594 26.234375 196.058594 26.234375 C 196.058594 26.234375 191.804688 26.234375 193.171875 20.855469 C 193.171875 20.855469 194.878906 17.183594 193.9375 16.414062 C 193 15.648438 192.742188 18.121094 189.839844 16.414062 C 186.9375 14.707031 187.898438 13.617188 185.496094 13.394531 C 183.09375 13.171875 180.449219 17.054688 171.824219 14.429688 Z M 171.824219 14.429688 " fill-opacity="1" fill-rule="nonzero"/><path fill="#000000" d="M 185.910156 60.640625 C 180.34375 60.640625 177.941406 55.652344 177.914062 55.597656 C 177.890625 55.542969 177.878906 55.488281 177.878906 55.425781 L 178.148438 48.433594 C 177.914062 48.328125 177.683594 48.203125 177.457031 48.054688 C 173.621094 45.59375 172.722656 39.722656 172.558594 38.277344 C 171.738281 38.21875 169.671875 38.019531 168.972656 37.554688 C 168.171875 37.019531 168.921875 32.730469 169.703125 29.203125 C 168.867188 20.445312 171.382812 14.53125 171.488281 14.285156 C 171.5625 14.113281 171.75 14.027344 171.933594 14.082031 C 177.78125 15.863281 180.742188 14.613281 182.90625 13.707031 C 183.910156 13.285156 184.699219 12.953125 185.53125 13.03125 C 187 13.167969 187.390625 13.652344 187.890625 14.269531 C 188.28125 14.753906 188.769531 15.359375 190.027344 16.101562 C 191.621094 17.035156 192.257812 16.59375 192.769531 16.242188 C 193.121094 15.996094 193.601562 15.664062 194.171875 16.132812 C 195.25 17.015625 193.933594 20.089844 193.503906 21.011719 C 193.089844 22.667969 193.203125 23.96875 193.863281 24.820312 C 194.523438 25.667969 195.5625 25.832031 195.929688 25.863281 C 196.351562 25.5 197.6875 24.445312 198.847656 24.742188 C 199.445312 24.894531 199.878906 25.355469 200.136719 26.121094 C 201.695312 30.714844 198.6875 33.5625 197.929688 34.191406 L 199.121094 51.066406 C 199.125 51.140625 199.109375 51.214844 199.070312 51.277344 C 198.878906 51.609375 194.265625 59.371094 187.597656 60.496094 C 187.003906 60.59375 186.445312 60.640625 185.910156 60.640625 Z M 178.617188 55.363281 C 178.96875 56.058594 181.585938 60.761719 187.472656 59.769531 C 193.417969 58.765625 197.828125 51.894531 198.378906 51 L 197.179688 34.050781 C 197.171875 33.921875 197.230469 33.796875 197.335938 33.722656 C 197.488281 33.617188 201.027344 31.035156 199.441406 26.351562 C 199.265625 25.835938 199.011719 25.539062 198.664062 25.453125 C 197.875 25.253906 196.695312 26.144531 196.308594 26.503906 C 196.238281 26.566406 196.152344 26.601562 196.058594 26.601562 C 195.988281 26.601562 194.308594 26.585938 193.28125 25.269531 C 192.476562 24.230469 192.316406 22.714844 192.8125 20.765625 C 193.601562 19.050781 194.132812 17.050781 193.707031 16.699219 C 193.578125 16.59375 193.558594 16.582031 193.183594 16.84375 C 192.613281 17.238281 191.652344 17.90625 189.652344 16.730469 C 188.28125 15.925781 187.722656 15.234375 187.316406 14.726562 C 186.851562 14.15625 186.621094 13.867188 185.460938 13.757812 C 184.8125 13.691406 184.097656 14 183.1875 14.382812 C 181.085938 15.265625 177.933594 16.589844 172.039062 14.878906 C 171.546875 16.191406 169.710938 21.691406 170.4375 29.1875 C 170.441406 29.226562 170.4375 29.265625 170.429688 29.304688 C 169.699219 32.601562 169.105469 36.476562 169.417969 36.980469 C 169.878906 37.277344 171.808594 37.503906 172.910156 37.566406 C 173.09375 37.578125 173.242188 37.722656 173.253906 37.902344 C 173.261719 37.972656 173.863281 44.875 177.851562 47.4375 C 178.117188 47.609375 178.386719 47.746094 178.65625 47.851562 C 178.804688 47.90625 178.898438 48.050781 178.890625 48.207031 Z M 178.617188 55.363281 " fill-opacity="1" fill-rule="nonzero"/><path fill="#f5f6f7" d="M 179.671875 131.097656 L 143.796875 131.097656 C 142.949219 131.097656 142.191406 130.414062 142.105469 129.570312 L 139.597656 105.429688 C 139.511719 104.589844 140.125 103.90625 140.972656 103.90625 L 176.847656 103.90625 C 177.695312 103.90625 178.453125 104.589844 178.539062 105.429688 L 181.046875 129.570312 C 181.132812 130.414062 180.515625 131.097656 179.671875 131.097656 Z M 179.671875 131.097656 " fill-opacity="1" fill-rule="nonzero"/><path fill="#000000" d="M 179.671875 131.464844 L 143.796875 131.464844 C 142.765625 131.464844 141.84375 130.632812 141.738281 129.609375 L 139.230469 105.46875 C 139.179688 104.957031 139.332031 104.472656 139.664062 104.105469 C 139.992188 103.738281 140.457031 103.539062 140.972656 103.539062 L 176.847656 103.539062 C 177.875 103.539062 178.796875 104.371094 178.902344 105.394531 L 181.410156 129.535156 C 181.460938 130.046875 181.308594 130.53125 180.980469 130.898438 C 180.648438 131.261719 180.183594 131.464844 179.671875 131.464844 Z M 140.972656 104.273438 C 140.667969 104.273438 140.394531 104.386719 140.207031 104.597656 C 140.019531 104.808594 139.929688 105.089844 139.960938 105.390625 L 142.46875 129.53125 C 142.539062 130.191406 143.132812 130.726562 143.792969 130.726562 L 179.671875 130.726562 C 179.972656 130.726562 180.246094 130.613281 180.433594 130.40625 C 180.625 130.195312 180.710938 129.910156 180.679688 129.609375 L 178.171875 105.46875 C 178.105469 104.808594 177.507812 104.273438 176.847656 104.273438 Z M 140.972656 104.273438 " fill-opacity="1" fill-rule="nonzero"/><path fill="#5c84f7" d="M 172.992188 113.179688 L 147.515625 113.179688 C 146.828125 113.179688 146.214844 112.628906 146.144531 111.945312 C 146.074219 111.261719 146.570312 110.707031 147.257812 110.707031 L 172.734375 110.707031 C 173.421875 110.707031 174.035156 111.261719 174.105469 111.945312 C 174.175781 112.628906 173.679688 113.179688 172.992188 113.179688 Z M 172.992188 113.179688 " fill-opacity="1" fill-rule="nonzero"/><path fill="#000000" d="M 172.992188 113.550781 L 147.515625 113.550781 C 146.648438 113.550781 145.867188 112.847656 145.777344 111.984375 C 145.734375 111.546875 145.863281 111.136719 146.144531 110.824219 C 146.425781 110.511719 146.820312 110.339844 147.257812 110.339844 L 172.734375 110.339844 C 173.601562 110.339844 174.382812 111.042969 174.472656 111.90625 C 174.515625 112.34375 174.386719 112.753906 174.105469 113.066406 C 173.824219 113.378906 173.429688 113.550781 172.992188 113.550781 Z M 147.257812 111.074219 C 147.03125 111.074219 146.828125 111.160156 146.691406 111.3125 C 146.550781 111.46875 146.484375 111.679688 146.507812 111.90625 C 146.558594 112.398438 147.019531 112.8125 147.515625 112.8125 L 172.992188 112.8125 C 173.21875 112.8125 173.417969 112.730469 173.558594 112.574219 C 173.699219 112.417969 173.765625 112.207031 173.742188 111.984375 C 173.6875 111.480469 173.238281 111.074219 172.734375 111.074219 Z M 147.257812 111.074219 " fill-opacity="1" fill-rule="nonzero"/><path fill="#5c84f7" d="M 173.5 118.097656 L 148.023438 118.097656 C 147.339844 118.097656 146.722656 117.542969 146.652344 116.859375 C 146.582031 116.175781 147.082031 115.621094 147.765625 115.621094 L 173.242188 115.621094 C 173.929688 115.621094 174.542969 116.175781 174.617188 116.859375 C 174.6875 117.542969 174.1875 118.097656 173.5 118.097656 Z M 173.5 118.097656 " fill-opacity="1" fill-rule="nonzero"/><path fill="#000000" d="M 173.5 118.464844 L 148.027344 118.464844 C 147.15625 118.464844 146.378906 117.761719 146.289062 116.898438 C 146.242188 116.460938 146.375 116.050781 146.65625 115.738281 C 146.9375 115.425781 147.332031 115.253906 147.769531 115.253906 L 173.246094 115.253906 C 174.113281 115.253906 174.890625 115.957031 174.980469 116.820312 C 175.027344 117.257812 174.898438 117.667969 174.617188 117.980469 C 174.332031 118.292969 173.9375 118.464844 173.5 118.464844 Z M 147.769531 115.988281 C 147.542969 115.988281 147.339844 116.074219 147.199219 116.230469 C 147.058594 116.386719 146.996094 116.59375 147.019531 116.820312 C 147.070312 117.3125 147.53125 117.726562 148.027344 117.726562 L 173.503906 117.726562 C 173.730469 117.726562 173.929688 117.644531 174.070312 117.488281 C 174.210938 117.332031 174.273438 117.121094 174.25 116.898438 C 174.199219 116.402344 173.738281 115.988281 173.246094 115.988281 Z M 147.769531 115.988281 " fill-opacity="1" fill-rule="nonzero"/><path fill="#5c84f7" d="M 167.453125 123.011719 L 148.535156 123.011719 C 147.847656 123.011719 147.234375 122.457031 147.164062 121.773438 C 147.09375 121.089844 147.59375 120.535156 148.277344 120.535156 L 167.195312 120.535156 C 167.882812 120.535156 168.496094 121.089844 168.566406 121.773438 C 168.636719 122.457031 168.140625 123.011719 167.453125 123.011719 Z M 167.453125 123.011719 " fill-opacity="1" fill-rule="nonzero"/><path fill="#000000" d="M 167.453125 123.378906 L 148.535156 123.378906 C 147.667969 123.378906 146.890625 122.675781 146.800781 121.808594 C 146.753906 121.375 146.882812 120.964844 147.164062 120.652344 C 147.445312 120.339844 147.839844 120.167969 148.277344 120.167969 L 167.195312 120.167969 C 168.0625 120.167969 168.84375 120.871094 168.933594 121.734375 C 168.976562 122.171875 168.847656 122.582031 168.566406 122.894531 C 168.285156 123.207031 167.890625 123.378906 167.453125 123.378906 Z M 148.277344 120.902344 C 148.050781 120.902344 147.851562 120.988281 147.710938 121.144531 C 147.570312 121.300781 147.507812 121.507812 147.53125 121.734375 C 147.582031 122.226562 148.042969 122.644531 148.535156 122.644531 L 167.453125 122.644531 C 167.679688 122.644531 167.882812 122.558594 168.019531 122.402344 C 168.160156 122.246094 168.226562 122.035156 168.203125 121.8125 C 168.152344 121.320312 167.691406 120.902344 167.195312 120.902344 Z M 148.277344 120.902344 " fill-opacity="1" fill-rule="nonzero"/><path fill="#ffffff" d="M 191.621094 114.183594 C 191.621094 114.183594 190.007812 111.785156 188.464844 110.796875 C 186.011719 109.21875 178.84375 107.199219 178.84375 107.199219 L 179.351562 112.199219 L 171.464844 116.757812 C 171.464844 116.757812 163.050781 116.054688 162.175781 117.632812 C 161.742188 118.414062 163.753906 120.261719 163.753906 120.261719 C 163.753906 120.261719 161.824219 120.613281 162.351562 121.488281 C 162.875 122.367188 163.863281 122.734375 163.863281 122.734375 C 163.863281 122.734375 163.261719 123.859375 164.136719 124.738281 C 165.015625 125.613281 165.519531 125.910156 165.519531 125.910156 C 165.519531 125.910156 166.03125 127.800781 167.78125 128.148438 C 169.535156 128.5 172.429688 129.324219 174.355469 129.5 C 176.285156 129.675781 187.121094 127.914062 189.285156 127.507812 C 191.445312 127.097656 192.847656 118.101562 191.621094 114.183594 Z M 191.621094 114.183594 " fill-opacity="1" fill-rule="nonzero"/><path fill="#000000" d="M 174.671875 129.878906 C 174.535156 129.878906 174.421875 129.875 174.324219 129.867188 C 172.996094 129.746094 171.242188 129.328125 169.695312 128.960938 C 168.960938 128.785156 168.277344 128.621094 167.710938 128.507812 C 166.03125 128.171875 165.375 126.625 165.210938 126.144531 C 165 126.003906 164.539062 125.65625 163.878906 124.996094 C 163.203125 124.320312 163.230469 123.472656 163.394531 122.917969 C 163.019531 122.71875 162.421875 122.324219 162.035156 121.679688 C 161.828125 121.332031 161.882812 121.042969 161.964844 120.859375 C 162.144531 120.46875 162.621094 120.222656 163.035156 120.074219 C 162.363281 119.371094 161.4375 118.207031 161.851562 117.453125 C 162.773438 115.796875 169.703125 116.246094 171.378906 116.378906 L 178.960938 112 L 178.480469 107.234375 C 178.46875 107.117188 178.515625 106.996094 178.609375 106.917969 C 178.703125 106.84375 178.828125 106.8125 178.945312 106.847656 C 179.238281 106.929688 186.195312 108.898438 188.664062 110.488281 C 190.25 111.507812 191.859375 113.878906 191.925781 113.980469 C 191.945312 114.011719 191.960938 114.042969 191.972656 114.074219 C 192.980469 117.292969 192.292969 124.03125 190.679688 126.722656 C 190.28125 127.390625 189.832031 127.777344 189.355469 127.867188 C 187.421875 128.234375 177.363281 129.878906 174.671875 129.878906 Z M 167.625 116.964844 C 165.128906 116.964844 162.839844 117.1875 162.496094 117.8125 C 162.34375 118.085938 163.058594 119.125 164 119.992188 C 164.101562 120.085938 164.144531 120.230469 164.105469 120.363281 C 164.066406 120.5 163.953125 120.597656 163.816406 120.625 C 163.324219 120.714844 162.730469 120.953125 162.632812 121.164062 C 162.625 121.179688 162.613281 121.214844 162.664062 121.300781 C 163.117188 122.054688 163.984375 122.386719 163.992188 122.390625 C 164.089844 122.429688 164.167969 122.507812 164.207031 122.605469 C 164.242188 122.703125 164.238281 122.816406 164.1875 122.910156 C 164.167969 122.945312 163.730469 123.808594 164.398438 124.476562 C 165.222656 125.300781 165.703125 125.59375 165.707031 125.597656 C 165.789062 125.644531 165.847656 125.722656 165.875 125.816406 C 165.878906 125.832031 166.355469 127.492188 167.855469 127.789062 C 168.429688 127.90625 169.121094 128.070312 169.863281 128.25 C 171.386719 128.609375 173.113281 129.019531 174.390625 129.136719 C 176.203125 129.316406 186.75 127.613281 189.214844 127.148438 C 189.472656 127.101562 189.769531 126.816406 190.050781 126.347656 C 191.542969 123.855469 192.207031 117.382812 191.289062 114.347656 C 191.0625 114.023438 189.613281 111.972656 188.265625 111.109375 C 186.269531 109.824219 180.949219 108.203125 179.265625 107.707031 L 179.71875 112.164062 C 179.734375 112.308594 179.660156 112.449219 179.535156 112.519531 L 171.648438 117.078125 C 171.582031 117.117188 171.511719 117.132812 171.433594 117.125 C 170.273438 117.027344 168.921875 116.964844 167.625 116.964844 Z M 167.625 116.964844 " fill-opacity="1" fill-rule="nonzero"/><path fill="#000000" d="M 231.398438 117.707031 C 231.386719 117.707031 231.378906 117.707031 231.367188 117.703125 L 191.5625 114.503906 C 191.359375 114.488281 191.207031 114.3125 191.226562 114.109375 C 191.242188 113.910156 191.425781 113.761719 191.621094 113.773438 L 231.429688 116.972656 C 231.628906 116.988281 231.78125 117.167969 231.761719 117.367188 C 231.75 117.558594 231.589844 117.707031 231.398438 117.707031 Z M 231.398438 117.707031 " fill-opacity="1" fill-rule="nonzero"/><path fill="#000000" d="M 219.382812 116.554688 C 219.199219 116.554688 219.039062 116.417969 219.019531 116.230469 L 215.566406 85.371094 C 215.542969 85.171875 215.6875 84.988281 215.890625 84.96875 C 216.085938 84.941406 216.273438 85.089844 216.296875 85.289062 L 219.746094 116.148438 C 219.769531 116.347656 219.625 116.53125 219.421875 116.550781 C 219.410156 116.554688 219.398438 116.554688 219.382812 116.554688 Z M 219.382812 116.554688 " fill-opacity="1" fill-rule="nonzero"/><path fill="#000000" d="M 221.902344 143.539062 C 221.851562 143.539062 221.796875 143.527344 221.746094 143.5 L 189.125 127.839844 C 188.945312 127.75 188.867188 127.53125 188.953125 127.347656 C 189.039062 127.164062 189.261719 127.089844 189.441406 127.175781 L 222.0625 142.839844 C 222.246094 142.925781 222.320312 143.148438 222.234375 143.328125 C 222.171875 143.460938 222.039062 143.539062 221.902344 143.539062 Z M 221.902344 143.539062 " fill-opacity="1" fill-rule="nonzero"/><path fill="#000000" d="M 157.050781 104.300781 C 157.039062 104.300781 157.027344 104.300781 157.015625 104.300781 C 156.8125 104.28125 156.667969 104.101562 156.6875 103.898438 L 158.734375 83.503906 C 158.753906 83.304688 158.925781 83.160156 159.136719 83.175781 C 159.335938 83.199219 159.484375 83.378906 159.464844 83.578125 L 157.417969 103.972656 C 157.398438 104.160156 157.238281 104.300781 157.050781 104.300781 Z M 157.050781 104.300781 " fill-opacity="1" fill-rule="nonzero"/><path fill="#000000" d="M 171.847656 121.261719 C 171.839844 121.261719 171.828125 121.257812 171.820312 121.257812 L 163.738281 120.621094 C 163.535156 120.605469 163.382812 120.429688 163.398438 120.226562 C 163.414062 120.023438 163.601562 119.875 163.792969 119.890625 L 171.8125 120.523438 L 180.261719 118.054688 C 180.457031 118 180.65625 118.109375 180.714844 118.304688 C 180.773438 118.5 180.660156 118.703125 180.464844 118.761719 L 171.953125 121.246094 C 171.917969 121.253906 171.882812 121.261719 171.847656 121.261719 Z M 171.847656 121.261719 " fill-opacity="1" fill-rule="nonzero"/><path fill="#000000" d="M 173.148438 124.285156 C 173.132812 124.285156 173.117188 124.28125 173.101562 124.28125 L 163.785156 123.148438 C 163.582031 123.125 163.441406 122.941406 163.464844 122.738281 C 163.488281 122.539062 163.671875 122.394531 163.875 122.417969 L 173.140625 123.546875 L 179.796875 122.527344 C 179.996094 122.5 180.183594 122.632812 180.214844 122.835938 C 180.242188 123.035156 180.105469 123.222656 179.90625 123.253906 L 173.203125 124.277344 C 173.183594 124.28125 173.164062 124.285156 173.148438 124.285156 Z M 173.148438 124.285156 " fill-opacity="1" fill-rule="nonzero"/><path fill="#000000" d="M 173.488281 127.398438 C 173.472656 127.398438 173.457031 127.398438 173.441406 127.398438 L 165.605469 126.351562 C 165.40625 126.324219 165.265625 126.136719 165.289062 125.9375 C 165.316406 125.734375 165.507812 125.601562 165.703125 125.621094 L 173.492188 126.660156 L 180.320312 125.847656 C 180.519531 125.820312 180.703125 125.96875 180.726562 126.167969 C 180.75 126.371094 180.605469 126.550781 180.40625 126.578125 L 173.535156 127.398438 C 173.519531 127.398438 173.503906 127.398438 173.488281 127.398438 Z M 173.488281 127.398438 " fill-opacity="1" fill-rule="nonzero"/><path fill="#000000" d="M 86.84375 36.957031 C 86.738281 36.957031 86.640625 36.914062 86.570312 36.835938 L 82.695312 32.507812 C 82.5625 32.359375 82.574219 32.125 82.722656 31.992188 C 82.875 31.855469 83.105469 31.867188 83.242188 32.019531 L 86.777344 35.960938 L 90.753906 28.886719 C 90.851562 28.710938 91.074219 28.648438 91.253906 28.75 C 91.429688 28.847656 91.492188 29.070312 91.390625 29.25 L 87.164062 36.769531 C 87.105469 36.871094 87.003906 36.941406 86.886719 36.953125 C 86.871094 36.957031 86.855469 36.957031 86.84375 36.957031 Z M 86.84375 36.957031 " fill-opacity="1" fill-rule="nonzero"/><path fill="#000000" d="M 88.871094 49.890625 C 88.765625 49.890625 88.667969 49.847656 88.597656 49.769531 L 84.722656 45.441406 C 84.585938 45.292969 84.597656 45.058594 84.75 44.925781 C 84.902344 44.789062 85.132812 44.800781 85.269531 44.953125 L 88.800781 48.898438 L 92.777344 41.824219 C 92.875 41.648438 93.101562 41.582031 93.277344 41.683594 C 93.453125 41.78125 93.515625 42.003906 93.417969 42.183594 L 89.191406 49.703125 C 89.132812 49.804688 89.027344 49.875 88.910156 49.886719 C 88.894531 49.890625 88.882812 49.890625 88.871094 49.890625 Z M 88.871094 49.890625 " fill-opacity="1" fill-rule="nonzero"/><path fill="#000000" d="M 89.960938 62.824219 C 89.855469 62.824219 89.757812 62.78125 89.6875 62.703125 L 85.8125 58.375 C 85.675781 58.226562 85.6875 57.992188 85.839844 57.859375 C 85.992188 57.722656 86.222656 57.734375 86.359375 57.886719 L 89.890625 61.832031 L 93.867188 54.757812 C 93.964844 54.582031 94.191406 54.515625 94.367188 54.617188 C 94.542969 54.714844 94.609375 54.9375 94.507812 55.117188 L 90.28125 62.636719 C 90.222656 62.738281 90.117188 62.808594 90 62.820312 C 89.988281 62.824219 89.972656 62.824219 89.960938 62.824219 Z M 89.960938 62.824219 " fill-opacity="1" fill-rule="nonzero"/><path fill="#000000" d="M 91.207031 72.796875 C 91.101562 72.796875 91.003906 72.753906 90.933594 72.675781 L 87.058594 68.347656 C 86.921875 68.199219 86.9375 67.964844 87.085938 67.832031 C 87.238281 67.695312 87.46875 67.707031 87.605469 67.859375 L 91.136719 71.804688 L 95.113281 64.730469 C 95.214844 64.554688 95.4375 64.488281 95.613281 64.589844 C 95.789062 64.6875 95.855469 64.914062 95.753906 65.089844 L 91.527344 72.609375 C 91.46875 72.714844 91.363281 72.78125 91.246094 72.796875 C 91.234375 72.796875 91.21875 72.796875 91.207031 72.796875 Z M 91.207031 72.796875 " fill-opacity="1" fill-rule="nonzero"/></svg>